<svg width="789" height="131" viewBox="0 0 789 131" fill="none" xmlns="http://www.w3.org/2000/svg">
<g clip-path="url(#clip0_330_95)">
<path d="M181.802 32.6505L139.681 56.4195V21.0621L131.223 16.3253L89.1018 40.0942V4.73687L80.6438 0L13.1487 38.1487V92.7918L21.6913 97.6133L63.7277 73.8443V109.117L72.2703 113.939L114.307 90.1696V125.442L122.849 130.179L190.175 92.1997V37.3874L181.802 32.6505Z" fill="#1462FF"/>
<path d="M240.038 102.519L217.117 25.207H242.153L255.77 72.3219L268.288 25.207H289.941L303.22 72.3219L318.444 25.207H343.48L319.205 102.519H294.508L279.283 59.9722L264.144 102.519H240.038Z" fill="#09182F"/>
<path d="M341.704 64.2025C341.704 38.4035 357.436 23.3471 377.989 23.6008C390.084 23.77 403.025 30.1986 406.492 42.9712V25.1234H431.528V102.436H406.662V84.4188C403.278 96.1764 391.268 103.789 379.342 103.958C357.351 104.297 341.704 86.4489 341.704 64.1179V64.2025ZM405.393 64.0334C405.393 51.6837 396.85 44.24 386.024 43.9017C375.028 43.7325 366.486 51.3453 366.486 64.0334C366.486 75.7909 375.198 83.5729 386.024 83.4037C396.681 83.0654 405.393 75.4526 405.393 64.0334Z" fill="#09182F"/>
<path d="M452.42 105.394C455.803 109.2 463.838 110.3 466.883 104.041L470.52 95.9203L440.579 25.1211H465.614L482.869 76.8037L502.83 25.1211H527.865L487.267 109.031C476.102 132.208 453.435 132.969 438.633 119.689L452.335 105.394H452.42Z" fill="#09182F"/>
<path d="M559.923 84.5017V102.519H535.056V1.86035H560.092V43.0542C563.475 30.2815 576.585 23.8529 588.426 23.6838C608.979 23.3454 624.88 38.4865 624.88 64.2855C624.88 86.5318 608.979 104.38 587.073 104.126C575.147 103.957 563.306 96.3439 559.923 84.5863V84.5017ZM599.929 64.0317C599.929 51.3437 591.556 43.7309 580.56 43.9C569.734 44.2384 561.022 51.5129 561.022 64.0317C561.022 75.4509 569.903 83.0638 580.391 83.4021C591.217 83.5713 599.929 75.7893 599.929 64.0317Z" fill="#09182F"/>
<path d="M632.152 64.0302C632.152 37.047 652.621 23.5977 674.273 23.5977C695.926 23.5977 712.588 37.2161 714.956 59.7163C715.295 62.5922 715.295 66.1449 714.956 69.0208H655.666C657.357 77.987 665.562 83.4852 674.273 83.6544C681.632 83.8235 688.145 80.9476 691.528 75.4494L709.797 84.754C702.777 96.6808 689.667 103.955 674.273 103.955C652.621 103.955 632.152 88.8142 632.152 63.9456V64.0302ZM691.443 55.4869C689.329 48.1279 681.97 43.4756 674.189 43.4756C666.407 43.4756 659.556 48.2124 657.526 55.4869H691.359H691.443Z" fill="#09182F"/>
<path d="M722.399 102.522V25.1249H747.435V43.9031C751.579 26.6474 772.894 19.6267 788.964 28.5083L775.685 48.64C766.55 40.858 748.704 48.4708 748.704 63.8657V102.437H722.484L722.399 102.522Z" fill="#09182F"/>
</g>
<defs>
<clipPath id="clip0_330_95">
<rect width="788.965" height="130.169" fill="white"/>
</clipPath>
</defs>
</svg>
