<?xml version="1.0" standalone="no"?>
<!DOCTYPE svg PUBLIC "-//W3C//DTD SVG 1.1//EN" "http://www.w3.org/Graphics/SVG/1.1/DTD/svg11.dtd" >
<svg xmlns="http://www.w3.org/2000/svg" xmlns:xlink="http://www.w3.org/1999/xlink" version="1.1">
<metadata>
Created by FontForge 20201107 at Tue Apr 15 18:23:02 2025
 By 
Copyright (c) 2022 by beetype. All rights reserved.
</metadata>
<defs>
<font id="Aloevera-ThinItalic" horiz-adv-x="0" >
  <font-face 
    font-family="Aloevera-ThinItalic"
    font-weight="100"
    font-style="italic"
    font-stretch="normal"
    units-per-em="2048"
    panose-1="1 0 0 0 0 0 0 0 0 0"
    ascent="1638"
    descent="-410"
    x-height="1038"
    cap-height="1352"
    bbox="-610 -491.683 3399.86 1751"
    underline-thickness="102"
    underline-position="-255"
    unicode-range="U+0020-2212"
  />
<missing-glyph horiz-adv-x="1443" 
d="M383 211q-60 0 -123 24t-110.5 74.5t-47.5 112.5q0 126 154.5 232t384.5 132l18 2q-15 17 -26.5 46t-11.5 49q0 50 36 86q11 11 11 14q0 7 -9 16q-23 30 -77 93q-13 17 3 32q17 16 34 -3q2 -2 4 -5q46 -73 61 -100q8 -14 13 -16.5t18 -0.5q27 8 55 0q14 -4 24 11q2 2 3 4
l65 104q8 12 20.5 10t16 -12.5t-3.5 -23.5l-35 -45l-39 -54q-6 -8 6 -20q41 -47 41 -92q0 -37 -37 -97q134 -20 250.5 -73t188 -128t71.5 -153q0 -58 -48 -106.5t-111 -72.5t-119 -24q-85 0 -167 57.5t-132 149.5l-33 60l-37 -66q-49 -87 -131 -152t-180 -65zM383 264
q152 0 266 195q3 5 12.5 21.5t17 28.5t17 25.5t18.5 21t17 7.5q14 0 27.5 -15.5t30.5 -47.5t22 -39q116 -178 252 -178q70 0 148 45.5t75 103.5q-3 55 -46 105.5t-107 85.5t-139 61.5t-143.5 39.5t-119.5 13q-85 0 -184 -23.5t-187 -63t-146 -100t-58 -126.5t75 -113
t152 -47z" />
    <glyph glyph-name=".notdef" horiz-adv-x="1443" 
d="M383 211q-60 0 -123 24t-110.5 74.5t-47.5 112.5q0 126 154.5 232t384.5 132l18 2q-15 17 -26.5 46t-11.5 49q0 50 36 86q11 11 11 14q0 7 -9 16q-23 30 -77 93q-13 17 3 32q17 16 34 -3q2 -2 4 -5q46 -73 61 -100q8 -14 13 -16.5t18 -0.5q27 8 55 0q14 -4 24 11q2 2 3 4
l65 104q8 12 20.5 10t16 -12.5t-3.5 -23.5l-35 -45l-39 -54q-6 -8 6 -20q41 -47 41 -92q0 -37 -37 -97q134 -20 250.5 -73t188 -128t71.5 -153q0 -58 -48 -106.5t-111 -72.5t-119 -24q-85 0 -167 57.5t-132 149.5l-33 60l-37 -66q-49 -87 -131 -152t-180 -65zM383 264
q152 0 266 195q3 5 12.5 21.5t17 28.5t17 25.5t18.5 21t17 7.5q14 0 27.5 -15.5t30.5 -47.5t22 -39q116 -178 252 -178q70 0 148 45.5t75 103.5q-3 55 -46 105.5t-107 85.5t-139 61.5t-143.5 39.5t-119.5 13q-85 0 -184 -23.5t-187 -63t-146 -100t-58 -126.5t75 -113
t152 -47z" />
    <glyph glyph-name=".null" 
 />
    <glyph glyph-name="nonmarkingreturn" horiz-adv-x="682" 
 />
    <glyph glyph-name="space" unicode=" " horiz-adv-x="512" 
 />
    <glyph glyph-name="exclam" unicode="!" horiz-adv-x="530" 
d="M236 274h-39l174 1078h57zM174 0q-39 0 -57.5 23t-12.5 61q6 34 34 59t65 25q40 0 58.5 -24.5t12.5 -59.5q-6 -37 -34.5 -60.5t-65.5 -23.5z" />
    <glyph glyph-name="quotedbl" unicode="&#x22;" horiz-adv-x="438" 
d="M209 1067l-37 -27q-45 81 -53.5 144.5t12.5 167.5h57q-21 -105 -15 -163t36 -122zM336 1067l-37 -27q-45 81 -53.5 144.5t12.5 167.5h57q-21 -105 -15 -163t36 -122z" />
    <glyph glyph-name="numbersign" unicode="#" horiz-adv-x="1501" 
d="M201 0h-60l166 340h-205l11 57h223l285 580h-242l10 57h260l156 318h59l-155 -318h415l156 318h59l-155 -318h215l-10 -57h-234l-285 -580h252l-10 -57h-270l-166 -340h-60l166 340h-415zM680 977l-285 -580h416l285 580h-416z" />
    <glyph glyph-name="dollar" unicode="$" horiz-adv-x="1052" 
d="M426 -20h-57l24 143q-153 16 -231 103.5t-53 244.5l57 -2q-10 -81 8.5 -138t62.5 -89t96.5 -47t123.5 -19q112 -6 218.5 55t127.5 160q12 56 1 94t-49.5 64.5t-92.5 42.5t-144 33q-71 13 -122 27.5t-96.5 37t-71 51.5t-36.5 70.5t-2 95.5q20 128 126.5 206.5t258.5 84.5
l31 174h58l-31 -174q174 -7 250 -94t65 -238h-57q10 132 -70.5 202.5t-230.5 72.5q-128 2 -226.5 -63.5t-115.5 -170.5q-17 -97 49.5 -145t237.5 -80q200 -37 276 -99t49 -192q-25 -124 -136.5 -199.5t-272.5 -72.5z" />
    <glyph glyph-name="percent" unicode="%" horiz-adv-x="2138" 
d="M485 403q-142 0 -236 68.5t-127 175t-11 232.5q17 96 63.5 184t115.5 157.5t166 110.5t206 41q88 0 158.5 -27t114.5 -73.5t72 -109t31 -134.5t-8 -149q-16 -93 -62.5 -178.5t-115.5 -152t-165 -106t-202 -39.5zM700 0h-57l807 1352h57zM498 461q181 0 312 122t163 296
q36 191 -51.5 312.5t-268.5 121.5q-183 0 -318 -122t-167 -312q-19 -113 12.5 -207t114 -152.5t203.5 -58.5zM1483 0q-86 0 -156.5 26t-116 70.5t-75 105t-34 129.5t6.5 144q16 96 62 184.5t115 157.5t166 110.5t206 41.5q88 0 159 -27t115 -73.5t72 -109.5t32 -135t-7 -149
q-17 -93 -63.5 -178t-115.5 -151.5t-164.5 -106t-201.5 -39.5zM1495 57q181 0 311 121.5t164 296.5q34 191 -53 312.5t-268 121.5q-183 0 -318 -122t-166 -312q-20 -113 11.5 -207t114.5 -152.5t204 -58.5z" />
    <glyph glyph-name="ampersand" unicode="&#x26;" horiz-adv-x="1341" 
d="M457 -20q-178 0 -274.5 101.5t-78.5 252.5q11 89 56 164.5t107.5 124t134 75.5t139.5 27q-172 160 -142 342q23 129 138.5 217.5t261.5 87.5q201 -1 282 -124.5t43 -342.5h-57q31 204 -42.5 307t-233.5 103q-126 0 -218 -67.5t-114 -180.5q-4 -22 -4 -43t2.5 -40
t8.5 -38.5t13 -36t18.5 -35t21 -33t24.5 -33.5t26.5 -32.5t28.5 -32.5l641 -743h-72l-286 336q-28 -150 -151 -253t-273 -103zM467 37q59 1 122.5 26.5t117.5 68.5t91 107t42 136l-269 311q-146 0 -268 -98.5t-139 -249.5q-14 -129 73.5 -215.5t229.5 -85.5z" />
    <glyph glyph-name="quotesingle" unicode="'" horiz-adv-x="296" 
d="M195 1067l-37 -27q-45 81 -53.5 144.5t12.5 167.5h57q-21 -105 -15 -163t36 -122z" />
    <glyph glyph-name="parenleft" unicode="(" horiz-adv-x="782" 
d="M422 -45l-31 -47q-33 26 -59 48.5t-63.5 63.5t-63.5 83.5t-52 105t-38.5 130t-12.5 157t17 188.5q24 146 90 284t183.5 269.5t273.5 226.5l14 -47q-77 -46 -149 -109t-145 -152t-129 -211t-81 -259q-22 -113 -14 -213.5t29.5 -178.5t61.5 -144.5t81 -112.5t88 -82z" />
    <glyph glyph-name="parenright" unicode=")" horiz-adv-x="790" 
d="M117 -92l-15 47q61 36 119 81.5t121 113t114.5 144.5t94 179t63.5 213q23 113 16 213.5t-27.5 178.5t-59.5 144.5t-79 112.5t-87 82l31 47q180 -142 244 -349t20 -431q-26 -136 -79 -255t-108.5 -196.5t-131 -147.5t-125 -105t-111.5 -72z" />
    <glyph glyph-name="asterisk" unicode="*" horiz-adv-x="860" 
d="M399 729h-57l57 266l-215 -192l-34 39l223 178l-271 -8l11 57l272 -10l-168 188l47 41l150 -198l39 262h57l-55 -262l213 192l34 -39l-227 -184l283 10l-10 -57l-277 8l168 -189l-47 -38l-156 202z" />
    <glyph glyph-name="plus" unicode="+" horiz-adv-x="860" 
d="M399 299h-57l51 283h-291l11 57h290l50 283h57l-49 -283h297l-10 -57h-297z" />
    <glyph glyph-name="comma" unicode="," horiz-adv-x="382" 
d="M129 -178l-27 26q53 66 82 129t39 156h58q-18 -107 -47.5 -169t-104.5 -142z" />
    <glyph glyph-name="hyphen" unicode="-" horiz-adv-x="763" 
d="M651 471h-549l11 57h549z" />
    <glyph glyph-name="period" unicode="." horiz-adv-x="337" 
d="M160 0q-28 0 -45 20t-13 48q4 26 28 45.5t52 19.5q26 0 42 -19.5t12 -45.5q-4 -28 -27 -48t-49 -20z" />
    <glyph glyph-name="slash" unicode="/" horiz-adv-x="1071" 
d="M162 0h-60l807 1352h60z" />
    <glyph glyph-name="zero" unicode="0" horiz-adv-x="1447" 
d="M604 -20q-185 0 -308.5 91.5t-167.5 243.5t-11 340q26 144 90 273t157.5 228t220.5 157.5t269 58.5q114 0 206 -38t150 -104.5t94 -157.5t39.5 -196.5t-14.5 -220.5q-25 -140 -88.5 -263t-156 -214.5t-217 -144.5t-263.5 -53zM616 37q158 0 297.5 82t233.5 223t125 313
q35 187 -8 338t-153 236.5t-265 85.5q-156 0 -298 -85.5t-242 -237t-132 -337.5q-29 -172 16 -313t156.5 -223t269.5 -82z" />
    <glyph glyph-name="one" unicode="1" horiz-adv-x="495" 
d="M160 0h-58l215 1229h-145l10 55q27 0 46 1.5t45 7.5t42.5 21t20.5 38h57z" />
    <glyph glyph-name="two" unicode="2" horiz-adv-x="1271" 
d="M997 0h-895l11 59l376 291q47 36 120.5 92t113 85.5t96.5 75.5t88 74t70 67t60 70t39 66.5t26 71.5q33 159 -59 261t-289 102q-144 0 -270 -80t-185 -231h-59q60 169 202 267.5t324 100.5q221 1 326 -117.5t67 -300.5q-7 -33 -20.5 -65t-28 -59.5t-43 -61t-48.5 -57
t-62 -61t-67 -59.5t-81 -65t-85 -65.5t-97.5 -74t-102.5 -77.5l-327 -252h811z" />
    <glyph glyph-name="three" unicode="3" horiz-adv-x="1212" 
d="M487 -20q-92 0 -166 22.5t-127.5 68t-76.5 121t-8 173.5h55q-9 -64 -4 -113.5t28 -86t53.5 -61.5t73.5 -40.5t87.5 -22t95.5 -6.5q176 0 300.5 83t151.5 236q12 71 -3.5 124.5t-50.5 84.5t-92 50t-115 25.5t-132 6.5h-147l10 55h133q444 0 496 299q27 153 -69.5 235.5
t-272.5 82.5q-62 0 -117.5 -9.5t-111 -33t-98.5 -60.5t-75.5 -95t-46.5 -132h-55q25 132 104 220.5t182.5 126.5t227.5 38q201 0 309 -100.5t78 -272.5q-23 -126 -99 -207t-192 -114q110 -34 162.5 -116t30.5 -210q-20 -114 -94 -199t-184 -129t-241 -44z" />
    <glyph glyph-name="four" unicode="4" horiz-adv-x="1245" 
d="M827 0h-57l55 322l-723 4l11 53l897 973h57l-174 -973h250l-10 -57h-250zM190 381l646 -2l155 870z" />
    <glyph glyph-name="five" unicode="5" horiz-adv-x="1177" 
d="M510 -20q-71 -2 -136 14t-120.5 51t-92 89t-51.5 128.5t1 169.5h57q-14 -86 0.5 -156t49.5 -114.5t85.5 -74t105 -41t111.5 -9.5q188 6 320.5 122t165.5 292q36 183 -51.5 311.5t-243.5 134.5q-272 12 -478 -227l-69 35l233 647h654l-11 -58h-596l-204 -551
q91 100 215 157.5t266 53.5q123 -4 210.5 -70t123.5 -179.5t10 -251.5q-38 -195 -190.5 -331t-364.5 -142z" />
    <glyph glyph-name="six" unicode="6" horiz-adv-x="1210" 
d="M500 -20q-88 -2 -164.5 30.5t-131.5 94t-82 157.5t-16 211q8 72 24.5 148t45.5 163.5t67 167t93.5 155t120.5 131.5t151 92.5t183 41.5q199 11 317 -110l-45 -45q-103 106 -285 98q-80 -4 -155.5 -36.5t-149.5 -97.5t-139.5 -177t-114.5 -263q89 108 216 163t276 50
q123 -4 210.5 -70t123.5 -179.5t10 -251.5q-39 -200 -190.5 -333.5t-364.5 -139.5zM510 37q188 6 320 122t165 292q36 183 -51.5 311.5t-243.5 134.5q-97 4 -188.5 -22.5t-166 -79t-123.5 -136t-58 -186.5q-8 -108 18.5 -194.5t77.5 -138.5t115.5 -78.5t134.5 -24.5z" />
    <glyph glyph-name="seven" unicode="7" horiz-adv-x="1071" 
d="M164 0h-62l797 1296l-713 -2l11 58h772l-11 -56z" />
    <glyph glyph-name="eight" unicode="8" horiz-adv-x="1241" 
d="M516 -20q-197 0 -316.5 105t-93.5 263q20 132 123 230t263 141q-112 28 -178.5 107t-53.5 192q20 158 164 256t330 98q85 0 160 -24.5t130.5 -69t80.5 -113.5t8 -151q-44 -211 -312 -291q150 -41 217 -139t41 -236q-33 -167 -195.5 -267.5t-367.5 -100.5zM653 754
q68 0 136 17t127.5 48.5t102.5 82.5t56 114q14 62 -1 113.5t-49 85t-82 57t-98 33.5t-100 10q-51 0 -102.5 -8t-107.5 -29.5t-100.5 -54t-77 -86t-40.5 -121.5q-10 -78 38 -139t127.5 -92t170.5 -31zM526 37q77 0 155.5 19t150 56t123.5 98.5t67 137.5q13 69 -4.5 131.5
t-63 111.5t-125.5 78t-184 29q-110 0 -217 -49t-179 -130.5t-85 -170.5q-15 -94 36 -167t138 -108.5t188 -35.5z" />
    <glyph glyph-name="nine" unicode="9" horiz-adv-x="1210" 
d="M711 1370q183 5 299 -129.5t94 -363.5q-8 -72 -24 -148t-45.5 -163.5t-67.5 -167.5t-93 -155.5t-120 -131.5t-151 -92.5t-183 -41.5q-199 -11 -318 111l45 45q103 -106 285 -98q64 3 124 23t122 63.5t117 107.5t106 161t90 218q-89 -108 -215.5 -163t-275.5 -50
q-123 4 -210.5 70t-123.5 180t-10 252q39 200 190.5 333.5t364.5 139.5zM700 1313q-188 -6 -320 -122t-165 -292q-36 -183 51.5 -311.5t243.5 -134.5q97 -4 188.5 22.5t166.5 79t124 136t58 186.5q8 108 -19 194.5t-78 138.5t-115.5 78.5t-134.5 24.5z" />
    <glyph glyph-name="colon" unicode=":" horiz-adv-x="462" 
d="M285 866q-28 0 -45 20t-13 48q4 26 28 45.5t52 19.5q26 0 42 -19.5t11 -45.5q-5 -28 -27 -48t-48 -20zM160 147q-28 0 -45 20t-13 48q5 26 28.5 46t51.5 20q26 0 42.5 -20t11.5 -46q-4 -28 -27 -48t-49 -20z" />
    <glyph glyph-name="semicolon" unicode=";" horiz-adv-x="428" 
d="M250 866q-28 0 -44.5 20t-12.5 48q5 26 28 45.5t51 19.5q26 0 42 -19.5t12 -45.5q-4 -28 -27 -48t-49 -20zM129 -111l-27 27q53 66 82 129t39 156h58q-18 -107 -47.5 -169.5t-104.5 -142.5z" />
    <glyph glyph-name="less" unicode="&#x3c;" horiz-adv-x="788" 
d="M528 250h-84l-342 373l498 372h86l-498 -372z" />
    <glyph glyph-name="equal" unicode="=" horiz-adv-x="753" 
d="M641 686h-506l10 57h506zM610 508h-508l11 57h508z" />
    <glyph glyph-name="greater" unicode="&#x3e;" horiz-adv-x="761" 
d="M186 250h-84l471 373l-366 372h86l366 -372z" />
    <glyph glyph-name="question" unicode="?" horiz-adv-x="1198" 
d="M221 231h-55l12 78q14 79 64 134t120 84.5t152 52.5t165 49t154.5 61.5t125 102t71.5 159.5q30 159 -61 261t-287 102q-105 0 -201.5 -36t-166.5 -108t-87 -167h-57q22 154 171 260.5t353 107.5q221 1 324.5 -117t68.5 -301q-20 -103 -75 -177.5t-127.5 -115.5
t-156.5 -70.5t-166 -51.5t-151.5 -48t-118 -71.5t-59.5 -110.5zM160 0q-28 0 -45 20t-13 48q4 26 28 45.5t52 19.5q26 0 42 -19.5t12 -45.5q-4 -28 -27 -48t-49 -20z" />
    <glyph glyph-name="at" unicode="@" horiz-adv-x="1597" 
d="M606 -20q-94 -2 -175.5 21t-142 66.5t-103.5 106.5t-64 138t-19.5 163t27.5 180q53 189 183.5 348.5t312.5 254t372 94.5q115 0 209 -36t155 -99.5t97 -151.5t35.5 -191.5t-29.5 -218.5q-41 -141 -124 -271t-187 -208q-61 -46 -116.5 -50t-81.5 36.5t-5 113.5l51 177
q-58 -77 -146 -137.5t-193 -77.5q-136 -25 -217.5 28.5t-69.5 163.5q13 103 104 186t232 123q192 55 379 52q23 116 -22.5 188t-170.5 72q-113 0 -208 -57t-138 -175h-57q52 137 167 212t250 75q113 0 172.5 -48t66 -135.5t-23.5 -209.5q-84 -313 -125 -439
q-18 -59 22.5 -80.5t106.5 27.5q196 157 277 434q51 192 11 334t-156 223.5t-279 81.5q-118 0 -243 -47.5t-234.5 -129.5t-195.5 -203t-124 -259q-38 -130 -17.5 -244.5t79.5 -199t158.5 -131.5t218.5 -43q84 3 190 33l10 -58q-104 -29 -219 -32zM676 291q120 23 232 124.5
t147 239.5l22 88q-190 0 -368 -55q-117 -36 -190 -99.5t-83 -154.5q-9 -87 60.5 -125.5t179.5 -17.5z" />
    <glyph glyph-name="A" unicode="A" horiz-adv-x="1470" 
d="M162 0h-60l840 1352h55l371 -1352h-59l-140 502l-692 2zM958 1278l-446 -721h645z" />
    <glyph glyph-name="B" unicode="B" horiz-adv-x="1261" 
d="M553 0h-451l238 1352h446q74 0 133 -10.5t99.5 -27.5t69 -42.5t44 -53.5t22.5 -62t6 -65.5t-7 -66.5q-7 -43 -26 -83t-51.5 -80.5t-87 -73t-124.5 -50.5q57 -18 100 -48.5t66 -66t36.5 -76.5t12.5 -80t-6 -77q-10 -54 -29 -104t-59 -103.5t-95 -92.5t-142 -64t-195 -25z
M391 1294l-92 -528h365q206 0 308.5 70.5t123.5 187.5q6 43 5 83t-22 74t-56.5 59t-99 39.5t-149.5 14.5h-383zM289 709l-115 -652h387q92 0 166.5 20t123.5 52t84.5 77t53.5 89t27 94q9 39 5 78t-15.5 74.5t-40.5 66t-69 53t-101.5 35.5t-137.5 13h-368z" />
    <glyph glyph-name="C" unicode="C" horiz-adv-x="1515" 
d="M659 -20q-141 0 -255.5 54t-186 146.5t-100 221.5t-2.5 274q34 189 147.5 348t285 253.5t361.5 94.5q181 0 311 -84t193 -229l-53 -35q-60 135 -182.5 213t-276.5 78q-118 0 -238 -47.5t-221 -129.5t-174 -203t-96 -259q-23 -134 6.5 -254t98.5 -203.5t172 -132.5
t223 -49q157 0 310.5 81.5t260.5 217.5l39 -39q-112 -145 -277.5 -231t-345.5 -86z" />
    <glyph glyph-name="D" unicode="D" horiz-adv-x="1445" 
d="M520 0h-418l242 1352h426q129 0 240.5 -41.5t194.5 -121t118.5 -208.5t7.5 -289q-36 -203 -158.5 -362.5t-293.5 -244.5t-359 -85zM389 1294l-217 -1237h346q142 0 272 49t228 134t165.5 202t90.5 250q49 274 -95.5 438t-428.5 164h-361z" />
    <glyph glyph-name="E" unicode="E" horiz-adv-x="1294" 
d="M952 0h-850l238 1352h852l-10 -58h-795l-104 -594h733l-10 -57h-734l-102 -586h793z" />
    <glyph glyph-name="F" unicode="F" horiz-adv-x="1294" 
d="M160 0h-58l238 1352h852l-10 -58h-795l-104 -594h630l-10 -57h-631z" />
    <glyph glyph-name="G" unicode="G" horiz-adv-x="1515" 
d="M659 -20q-141 0 -255.5 54t-186 146.5t-100 221.5t-2.5 274q34 189 147.5 348t285 253.5t361.5 94.5q181 0 311 -84t193 -229l-53 -35q-60 135 -182.5 213t-276.5 78q-118 0 -238 -47.5t-221 -129.5t-174 -203t-96 -259q-23 -134 6.5 -254t98.5 -203.5t172 -132.5
t223 -49q153 0 301.5 76t255.5 206l57 324h-573l10 57h631l-72 -403q-112 -145 -277.5 -231t-345.5 -86z" />
    <glyph glyph-name="H" unicode="H" horiz-adv-x="1361" 
d="M160 0h-58l238 1352h57l-114 -656h804l115 656h58l-238 -1352h-57l112 639h-805z" />
    <glyph glyph-name="I" unicode="I" horiz-adv-x="499" 
d="M160 0h-58l238 1352h57z" />
    <glyph glyph-name="J" unicode="J" horiz-adv-x="1251" 
d="M487 -20q-170 0 -279.5 96.5t-105.5 263.5h60q-1 -141 92 -222t242 -81q160 0 276.5 101t140.5 241l172 973h64l-170 -959q-14 -81 -52.5 -150t-89.5 -116.5t-112 -81t-121.5 -49.5t-116.5 -16z" />
    <glyph glyph-name="K" unicode="K" horiz-adv-x="1378" 
d="M160 0h-58l236 1352h57l-143 -820l954 820h70l-672 -584l393 -768h-67l-373 725l-319 -279z" />
    <glyph glyph-name="L" unicode="L" horiz-adv-x="1067" 
d="M954 0h-852l238 1352h57l-227 -1295h795z" />
    <glyph glyph-name="M" unicode="M" horiz-adv-x="1677" 
d="M160 0h-58l238 1352h80l309 -1250l766 1250h80l-238 -1352h-57l219 1249l-764 -1249h-43l-311 1253z" />
    <glyph glyph-name="N" unicode="N" horiz-adv-x="1449" 
d="M160 0h-58l238 1352h74l653 -1262l223 1262h58l-238 -1352h-70l-657 1268z" />
    <glyph glyph-name="O" unicode="O" horiz-adv-x="1562" 
d="M662 -20q-140 0 -255 53.5t-187.5 144t-101.5 215t-5 262.5q25 141 98.5 269t177.5 222.5t239.5 150t278.5 55.5t258.5 -55.5t185 -150t96 -222t1.5 -269.5q-33 -184 -147 -339t-283.5 -245.5t-355.5 -90.5zM674 37q159 0 313 81.5t263.5 224.5t140.5 312q26 138 -3 259
t-98.5 203.5t-171 129.5t-219.5 47t-237.5 -47t-220 -129.5t-174 -203.5t-97.5 -259q-22 -127 8.5 -242t100 -197t173 -130.5t222.5 -48.5z" />
    <glyph glyph-name="P" unicode="P" horiz-adv-x="1259" 
d="M160 0h-58l238 1352h457q84 0 149 -17t104 -47.5t64.5 -68t34.5 -83t8.5 -87.5t-8.5 -86q-9 -54 -27.5 -100.5t-55 -95t-88 -82.5t-132 -55.5t-180.5 -21.5h-400zM387 1294l-111 -628h400q365 0 416 297q9 39 7 78.5t-9.5 76.5t-31.5 69t-58.5 56t-89.5 37.5t-126 13.5
h-397z" />
    <glyph glyph-name="Q" unicode="Q" horiz-adv-x="1562" 
d="M1249 -45l39 -35q-63 -71 -133 -118.5t-134 -66t-125.5 -19t-110 21.5t-84 55.5t-51.5 82.5t-9 104q-181 6 -313.5 98t-189 244t-25.5 333q25 141 98.5 269t177.5 222.5t239.5 150t278.5 55.5t258.5 -55.5t185 -150t96 -222t1.5 -269.5q-31 -178 -140 -329t-270.5 -243.5
t-341.5 -102.5q-7 -69 26.5 -121t94.5 -71.5t134 -13.5t153.5 53t144.5 128zM674 37q159 0 313 81.5t263.5 224.5t140.5 312q26 138 -3 259t-98.5 203.5t-171 129.5t-219.5 47t-237.5 -47t-220 -129.5t-174 -203.5t-97.5 -259q-22 -127 8.5 -242t100 -197t173 -130.5
t222.5 -48.5z" />
    <glyph glyph-name="R" unicode="R" horiz-adv-x="1259" 
d="M160 0h-58l238 1352h457q84 0 149 -17t104 -47.5t64.5 -68t34.5 -83t8.5 -87.5t-8.5 -86q-9 -52 -29.5 -100t-58 -95.5t-87.5 -82t-123 -56t-161 -21.5h-129l311 -608h-67l-313 608h-226zM387 1294l-111 -628h400q365 0 416 297q9 39 7 78.5t-9.5 76.5t-31.5 69t-58.5 56
t-89.5 37.5t-126 13.5h-397z" />
    <glyph glyph-name="S" unicode="S" horiz-adv-x="1173" 
d="M489 -20q-124 2 -216 43.5t-138 124t-26 194.5h57q-10 -57 1 -104.5t38.5 -79.5t63.5 -56.5t79 -38t82 -20t76 -6.5q68 0 132.5 15t125.5 46t105.5 87t60.5 130q32 146 -47 226t-297 121q-214 40 -307 129t-68 231q26 157 158.5 253.5t312.5 96.5q121 0 215 -45
t140.5 -130t27.5 -193h-57q13 76 -11.5 137t-76 98t-115.5 56.5t-133 19.5q-89 0 -172.5 -31t-148.5 -99t-83 -161q-22 -117 59 -193.5t271 -111.5q231 -42 328 -137t61 -263q-19 -88 -67 -155t-116.5 -107t-148 -59.5t-166.5 -17.5z" />
    <glyph glyph-name="T" unicode="T" horiz-adv-x="1214" 
d="M397 0h-57l233 1292l-471 2l11 58h999l-10 -58l-471 -2z" />
    <glyph glyph-name="U" unicode="U" horiz-adv-x="1378" 
d="M528 -20q-158 0 -261.5 67.5t-142 185.5t-11.5 271l149 848h57l-149 -848q-36 -205 61 -336t310 -131q212 0 352.5 131t177.5 336l150 848h55l-150 -848q-41 -234 -201 -379t-397 -145z" />
    <glyph glyph-name="V" unicode="V" horiz-adv-x="1359" 
d="M451 0h-54l-295 1352h58l280 -1268l760 1268h57z" />
    <glyph glyph-name="W" unicode="W" horiz-adv-x="2091" 
d="M369 0h-54l-213 1352h58l198 -1268l658 1268h59l178 -1268l678 1268h58l-725 -1352h-54l-180 1276z" />
    <glyph glyph-name="X" unicode="X" horiz-adv-x="1460" 
d="M164 0h-62l605 684l-357 668h60l335 -619l553 619h60l-590 -668l362 -684h-61l-342 635z" />
    <glyph glyph-name="Y" unicode="Y" horiz-adv-x="1386" 
d="M481 0h-57l106 592l-428 760h58l407 -709l658 709h59l-700 -762z" />
    <glyph glyph-name="Z" unicode="Z" horiz-adv-x="1366" 
d="M993 0h-891l11 61l1073 1233h-834l10 58h902l-11 -60l-1071 -1235h822z" />
    <glyph glyph-name="bracketleft" unicode="[" horiz-adv-x="765" 
d="M397 -78h-295l267 1510h295l-11 -58h-237l-246 -1394h238z" />
    <glyph glyph-name="backslash" unicode="\" horiz-adv-x="1071" 
d="M162 1352l807 -1352h-60l-807 1352h60z" />
    <glyph glyph-name="bracketright" unicode="]" horiz-adv-x="782" 
d="M680 1432l-283 -1510h-295l11 58h237l262 1394h-237l10 58h295z" />
    <glyph glyph-name="asciicircum" unicode="^" horiz-adv-x="825" 
d="M164 772h-62l385 580h64l172 -578h-61l-156 512z" />
    <glyph glyph-name="underscore" unicode="_" horiz-adv-x="972" 
d="M860 0h-758l11 57h757z" />
    <glyph glyph-name="a" unicode="a" horiz-adv-x="1382" 
d="M553 -20q-148 0 -259 70.5t-160 193.5t-23 270q29 163 122 288.5t225.5 191t284.5 65.5q163 0 277.5 -75t155.5 -208l47 262h57l-182 -1038h-58l47 270q-91 -133 -233 -211.5t-301 -78.5zM561 37q124 0 245.5 60t210.5 171t113 246q19 111 -5.5 204.5t-81.5 154
t-137.5 94.5t-172.5 34q-126 0 -244 -57t-206.5 -170t-114.5 -260q-18 -102 6.5 -192t80 -151.5t135.5 -97.5t171 -36z" />
    <glyph glyph-name="b" unicode="b" horiz-adv-x="1349" 
d="M618 -20q-148 0 -261 84t-146 227l-51 -291h-58l238 1352h59l-106 -600q84 144 225.5 225.5t290.5 81.5q221 0 346 -150.5t82 -394.5q-26 -148 -119 -271.5t-226 -193t-274 -69.5zM627 37q115 0 231.5 57.5t207 169t114.5 250.5q20 112 -4 206t-79.5 154t-132.5 93.5
t-165 33.5q-84 0 -171 -32.5t-164.5 -91.5t-135.5 -154t-78 -209q-19 -106 6.5 -198t81.5 -151.5t132 -93.5t157 -34z" />
    <glyph glyph-name="c" unicode="c" horiz-adv-x="1282" 
d="M553 -20q-148 0 -259 70.5t-160 193.5t-23 270q29 163 122 288.5t225.5 191t284.5 65.5q166 0 282.5 -79t154.5 -218l-58 -31q-37 126 -144.5 198t-244.5 72q-126 0 -244 -57t-206.5 -170t-114.5 -260q-18 -102 6.5 -192t80 -151.5t135.5 -97.5t171 -36q139 0 275 77
t219 205l43 -30q-88 -140 -234 -224.5t-311 -84.5z" />
    <glyph glyph-name="d" unicode="d" horiz-adv-x="1404" 
d="M541 -20q-105 0 -194.5 41t-147.5 112t-82.5 170.5t-5.5 210.5q29 163 122.5 288.5t223.5 191t274 65.5q151 0 263.5 -80.5t142.5 -226.5l106 600h60l-238 -1352h-57l51 295q-82 -155 -223 -235t-295 -80zM553 37q81 0 168.5 34t164.5 93.5t135 151.5t77 198q16 95 3 172
t-48.5 135.5t-88 98.5t-114.5 60t-129 21q-87 1 -175.5 -32t-166 -93.5t-134.5 -154.5t-77 -207q-18 -103 6.5 -193.5t80 -151.5t133.5 -96.5t165 -35.5z" />
    <glyph glyph-name="e" unicode="e" horiz-adv-x="1265" 
d="M537 -20q-139 0 -246 70.5t-156.5 194t-23.5 269.5q29 162 122 288t222.5 191.5t271.5 65.5q101 0 185.5 -34.5t145 -99.5t88 -167.5t11.5 -229.5l-6 -39l-987 -2q-12 -96 15.5 -181.5t82 -143.5t129 -91.5t154.5 -33.5q124 0 248.5 63t205.5 179l48 -29
q-89 -128 -226 -199t-284 -71zM174 545l930 2q11 104 -16 191t-81.5 143.5t-129.5 88t-160 31.5q-115 0 -226 -53t-198 -159t-119 -244z" />
    <glyph glyph-name="f" unicode="f" horiz-adv-x="1024" 
d="M215 0h-57l137 784h-193l11 58h192l31 170q16 96 65 171t114 116.5t138.5 60.5t143.5 11.5t125 -38.5l-35 -51q-50 28 -111 34t-122 -12t-115 -54t-93 -97t-53 -137l-31 -174h392l-11 -58h-389z" />
    <glyph glyph-name="g" unicode="g" horiz-adv-x="1361" 
d="M551 -455q-226 0 -345.5 71t-101.5 208q16 117 100.5 194t194.5 101q-90 33 -71 121q24 107 164 176q-80 31 -123 106.5t-25 177.5q28 160 148.5 249t310.5 89q85 0 190 -18h267l-9 -55h-184q45 -48 66 -113.5t8 -140.5q-26 -152 -148 -239t-311 -87q-91 0 -139 10
q-147 -74 -160 -155q-4 -31 9.5 -51t41 -29t53.5 -12t62 -3h199q196 0 287.5 -80t62.5 -227q-27 -134 -159 -213.5t-388 -79.5zM692 438q175 0 272.5 73t120.5 200q23 128 -57.5 200t-239.5 72q-158 0 -261 -70.5t-128 -212.5q-23 -129 54 -195.5t239 -66.5zM567 -399
q197 0 324.5 64t150.5 173q25 128 -54.5 190t-270.5 62h-178q-85 0 -167 -30t-141.5 -90.5t-68.5 -137.5q-9 -82 43 -135t142.5 -74.5t219.5 -21.5z" />
    <glyph glyph-name="h" unicode="h" horiz-adv-x="1222" 
d="M160 0h-58l238 1352h57l-100 -566q73 136 194 204.5t257 68.5q117 0 198 -39t120.5 -108t51 -164t-11.5 -207l-94 -541h-58l93 526q11 76 13 145.5t-17.5 129.5t-54.5 104.5t-98.5 70t-148.5 25.5q-192 0 -321 -127.5t-170 -357.5z" />
    <glyph glyph-name="i" unicode="i" horiz-adv-x="520" 
d="M350 1239q-25 0 -38 16t-9 41q5 23 24 39.5t44 16.5q23 0 36.5 -16.5t8.5 -39.5q-4 -25 -23.5 -41t-42.5 -16zM160 0h-58l183 1038h57z" />
    <glyph glyph-name="j" unicode="j" horiz-adv-x="923" 
d="M754 1239q-25 0 -38 16t-9 41q5 24 24 40t43 16q23 0 36.5 -16.5t8.5 -39.5q-4 -25 -23 -41t-42 -16zM102 -451l29 56q78 -1 151.5 32t131 103.5t75.5 165.5l199 1132h57l-198 -1128q-17 -94 -63.5 -167t-109.5 -115.5t-132.5 -62.5t-139.5 -16z" />
    <glyph glyph-name="k" unicode="k" horiz-adv-x="1105" 
d="M160 0h-58l240 1352h57l-155 -867l688 553h72l-537 -440l418 -598h-70l-395 559l-189 -151z" />
    <glyph glyph-name="l" unicode="l" horiz-adv-x="499" 
d="M160 0h-58l238 1352h57z" />
    <glyph glyph-name="m" unicode="m" horiz-adv-x="1939" 
d="M160 0h-58l183 1038h57l-47 -266q14 39 48.5 85.5t86 92.5t126 77t153.5 32q154 1 246 -82t94 -221q56 137 175.5 220t260.5 83q204 0 291 -129t49 -348l-103 -582h-57l100 578q35 192 -38.5 307.5t-251.5 115.5q-157 0 -275.5 -118.5t-152.5 -307.5l-101 -575h-57
l100 578q35 192 -40 309t-251 114q-154 -3 -277.5 -129t-154.5 -290z" />
    <glyph glyph-name="n" unicode="n" horiz-adv-x="1226" 
d="M160 0h-58l183 1038h57l-49 -274q72 142 196.5 218.5t258.5 76.5q219 0 311.5 -128.5t54.5 -348.5l-102 -582h-58l101 578q35 193 -43.5 308t-270.5 115q-190 0 -323 -141.5t-172 -363.5z" />
    <glyph glyph-name="o" unicode="o" horiz-adv-x="1300" 
d="M553 -20q-148 0 -259 70.5t-160 193.5t-23 270q29 163 122 288.5t225.5 191t284.5 65.5q235 0 361.5 -149.5t83.5 -395.5q-20 -110 -79 -209t-143.5 -170.5t-192.5 -113t-220 -41.5zM561 37q124 0 245.5 60t210.5 171t113 246q19 111 -5.5 204.5t-81.5 154t-137.5 94.5
t-172.5 34q-126 0 -244 -57t-206.5 -170t-114.5 -260q-18 -102 6.5 -192t80 -151.5t135.5 -97.5t171 -36z" />
    <glyph glyph-name="p" unicode="p" horiz-adv-x="1404" 
d="M162 -313h-60l238 1351h57l-51 -288q59 103 144 173.5t179 103t195 32.5q143 0 251 -70t156.5 -193t22.5 -272q-29 -162 -122.5 -287.5t-223.5 -191t-274 -65.5q-154 0 -265.5 75t-142.5 226zM684 37q85 0 173.5 34t166 94.5t135.5 154.5t78 204q18 103 -7 193.5
t-80.5 151.5t-133 96.5t-164.5 35.5q-83 0 -170.5 -33.5t-164.5 -93.5t-134.5 -152t-75.5 -198q-21 -114 3.5 -209t81.5 -154t132.5 -91.5t159.5 -32.5z" />
    <glyph glyph-name="q" unicode="q" horiz-adv-x="1347" 
d="M1008 -313h-60l103 581q-91 -143 -222.5 -215.5t-287.5 -72.5q-107 0 -196 38.5t-148 107.5t-82.5 172.5t-1.5 225.5q26 148 119 271.5t225.5 193.5t273.5 70q154 0 261.5 -76.5t148.5 -216.5l47 272h57zM551 37q70 0 140 20t136 60.5t120.5 97.5t94 137t56.5 172
q18 107 -5.5 198.5t-78 151.5t-130 93.5t-161.5 33.5q-115 0 -232 -59t-207 -170.5t-114 -247.5q-20 -110 5 -204t81.5 -154.5t133 -94.5t161.5 -34z" />
    <glyph glyph-name="r" unicode="r" horiz-adv-x="901" 
d="M160 0h-58l183 1038h57l-55 -309q75 131 220.5 219.5t291.5 89.5l-25 -57q-111 -5 -220.5 -62.5t-195.5 -167.5t-110 -247z" />
    <glyph glyph-name="s" unicode="s" horiz-adv-x="1052" 
d="M446 -20q-177 5 -270.5 93.5t-66.5 258.5l57 -2q-10 -81 8.5 -138t62.5 -89t96.5 -47t123.5 -19q112 -6 218.5 55t127.5 160q5 25 5.5 46t-3 39t-13 33t-22 27.5t-32 23t-40.5 19t-50.5 16.5t-60 15t-69.5 14q-71 13 -122 27.5t-96.5 37t-71 52t-36.5 71t-2 95.5
q20 133 135 212t275 79q191 0 276 -87.5t72 -244.5h-57q10 132 -70.5 202t-230.5 72q-128 2 -226.5 -63t-115.5 -170q-17 -97 49.5 -145t237.5 -80q200 -37 276 -99t49 -192q-25 -125 -138.5 -200.5t-275.5 -71.5z" />
    <glyph glyph-name="t" unicode="t" horiz-adv-x="856" 
d="M639 70l16 -52q-66 -31 -139 -38.5t-139.5 12t-116.5 61t-72.5 116.5t-5.5 171l113 641h-193l11 57q33 0 60 4.5t47.5 10.5t37 19t28 24.5t21.5 31.5t15.5 35t11.5 42t9 45t8 50t9 52h58l-53 -314h389l-11 -57h-391l-112 -645q-14 -76 4 -137t58.5 -97t95.5 -54t118 -12
t123 34z" />
    <glyph glyph-name="u" unicode="u" horiz-adv-x="1228" 
d="M481 -20q-219 0 -312 128.5t-54 348.5l102 581h57l-102 -577q-22 -127 3 -220.5t104 -148.5t208 -55q190 0 323 142t171 364l88 495h57l-182 -1038h-57l49 279q-72 -143 -197 -221t-258 -78z" />
    <glyph glyph-name="v" unicode="v" horiz-adv-x="1161" 
d="M422 0h-45l-275 1038h62l252 -940l581 940h62z" />
    <glyph glyph-name="w" unicode="w" horiz-adv-x="1744" 
d="M317 0h-45l-170 1038h60l149 -940l520 940h62l190 -940l500 940h59l-552 -1038h-46l-194 969z" />
    <glyph glyph-name="x" unicode="x" horiz-adv-x="1224" 
d="M164 0h-62l486 526l-295 512h61l273 -463l434 463h61l-473 -512l299 -526h-61l-277 477z" />
    <glyph glyph-name="y" unicode="y" horiz-adv-x="512" 
d="M102 -74l48 35q13 -28 40.5 -47.5t64 -24.5t75.5 3t79.5 37.5t71.5 76.5l94 141l-249 891h59l233 -827l564 827h59l-721 -1058q-50 -72 -114 -109.5t-122 -37.5t-107 24.5t-75 68.5z" />
    <glyph glyph-name="z" unicode="z" horiz-adv-x="1124" 
d="M842 0h-740l11 57l829 924h-670l11 57h739l-10 -57l-826 -924h666z" />
    <glyph glyph-name="braceleft" unicode="{" horiz-adv-x="665" 
d="M311 0l-10 -57q-107 0 -154 67.5t-18 196.5q30 121 80 276q9 29 10 54t-4 42t-16.5 31t-23 22.5t-26.5 15t-25.5 9.5t-21.5 5l11 57q166 31 170 176q3 153 16 272q17 129 87 197t177 68l-10 -58q-75 0 -130.5 -50.5t-66.5 -156.5q-12 -113 -16 -270q-3 -78 -39 -127
t-123 -80q76 -33 95.5 -85t-7.5 -124q-58 -186 -80 -274q-26 -106 12 -156.5t113 -50.5z" />
    <glyph glyph-name="bar" unicode="|" horiz-adv-x="518" 
d="M160 -53h-58l256 1452h58z" />
    <glyph glyph-name="braceright" unicode="}" horiz-adv-x="675" 
d="M102 -57l11 57q75 0 131 50.5t69 156.5q7 68 13.5 167t7.5 107q2 76 39 126t125 83q-76 31 -95.5 83t7.5 124q45 123 82 270q27 106 -9.5 156.5t-111.5 50.5l10 58q107 0 153 -68t15 -197q-20 -88 -82 -272q-49 -146 106 -176l-10 -57q-24 -4 -46 -12t-53 -26.5t-51 -55
t-22 -85.5q-2 -64 -20 -276q-20 -129 -91 -196.5t-178 -67.5z" />
    <glyph glyph-name="exclamdown" unicode="&#xa1;" horiz-adv-x="571" 
d="M397 1352q37 0 57 -24t13 -60q-6 -35 -34 -59.5t-68 -24.5q-37 0 -55.5 25t-12.5 59q8 38 34.5 61t65.5 23zM102 0l217 1077h39l-198 -1077h-58z" />
    <glyph glyph-name="cent" unicode="&#xa2;" horiz-adv-x="1284" 
d="M541 0h-60l25 139q-135 12 -233.5 85t-142 191t-19.5 257q42 237 209 385t389 160l24 135h60l-25 -135q159 -6 268 -84t146 -213l-60 -31q-36 126 -144 198t-245 72q-126 0 -243.5 -57t-206 -170t-115.5 -260q-18 -102 6.5 -192t80 -151.5t135.5 -97.5t171 -36
q139 0 276.5 77t219.5 205l43 -31q-88 -139 -231 -222.5t-306 -86.5z" />
    <glyph glyph-name="sterling" unicode="&#xa3;" horiz-adv-x="1374" 
d="M928 0h-826l11 57q178 167 248 290t57 265h-244l10 56h207q-30 47 -49.5 125.5t-5.5 160.5q29 183 174.5 301t366.5 117q208 -2 315.5 -129t71.5 -338h-58q16 101 -5 181t-70.5 129t-116.5 74.5t-146 25.5q-197 0 -325 -102t-150 -261q-13 -87 10 -163t58 -123l373 2
l-11 -56h-348q5 -51 -3 -102.5t-21 -92.5t-39.5 -87.5t-46.5 -75.5t-56 -70t-53 -59t-52 -52l-16 -16h750z" />
    <glyph glyph-name="yen" unicode="&#xa5;" horiz-adv-x="1386" 
d="M1284 1352l-700 -762l-25 -139h217l-10 -58h-217l-21 -121h220l-11 -57h-219l-37 -215h-57l39 215h-234l11 57h233l23 121h-236l10 58h236l24 141l-428 760h58l407 -709l658 709h59z" />
    <glyph glyph-name="section" unicode="&#xa7;" horiz-adv-x="1146" 
d="M473 -20q-86 2 -157.5 24.5t-124 64.5t-75.5 109.5t-10 153.5l58 -2q-10 -80 13 -138t72 -89.5t106 -47t128 -18.5q130 -7 239 44.5t130 149.5q7 33 7 60t-7 48t-18 37t-32.5 28.5t-44.5 21.5t-59 16t-70.5 12t-84.5 11q-92 10 -156 26.5t-116.5 45.5t-74.5 76.5
t-12 113.5q18 108 121 182q-74 61 -57 172q20 132 142.5 211.5t291.5 79.5q196 0 288 -92.5t70 -259.5h-57q13 145 -72.5 219t-238.5 76q-137 2 -243.5 -63.5t-123.5 -170.5q-9 -54 16.5 -93.5t77.5 -61.5t104.5 -33t117.5 -16q99 -8 159 -19.5t115.5 -38.5t74.5 -78t5 -129
q-7 -49 -37 -95.5t-72 -76.5q36 -32 46.5 -78.5t-3.5 -130.5q-25 -123 -141 -189.5t-295 -61.5zM813 471q90 56 105 141q9 48 -5 83.5t-38 55.5t-75 34.5t-89 20t-107 13.5q-165 17 -246 58q-104 -61 -116 -150q-15 -99 59.5 -144.5t257.5 -60.5q177 -16 254 -51z" />
    <glyph glyph-name="copyright" unicode="&#xa9;" horiz-adv-x="1292" 
d="M549 254q-150 0 -260 72.5t-157 196.5t-21 272q26 151 117 278.5t228 203t289 75.5q153 0 262.5 -75.5t154 -202.5t18.5 -279q-26 -148 -118 -272t-228 -196.5t-285 -72.5zM559 299q127 0 250 65.5t211 180.5t113 250q20 110 -3 207t-78.5 163t-137 104t-175.5 38
t-190 -38t-176 -104t-139 -163t-78 -207q-17 -101 7.5 -193.5t79.5 -158.5t138 -105t178 -39zM565 393q-169 0 -265 117.5t-67 286.5q33 184 167.5 296.5t308.5 112.5q125 0 213 -59.5t116 -163.5l-43 -25q-27 95 -108 150t-185 55q-147 0 -271.5 -100.5t-154.5 -265.5
q-27 -152 63.5 -256.5t231.5 -104.5q106 0 209 58.5t166 154.5l33 -20q-65 -107 -177 -171.5t-237 -64.5z" />
    <glyph glyph-name="ordfeminine" unicode="&#xaa;" horiz-adv-x="1044" 
d="M424 600q-161 0 -252.5 110.5t-62.5 270.5q30 176 157.5 282.5t292.5 106.5q117 0 198.5 -53t110.5 -148l33 187h41l-129 -742h-41l33 193q-64 -94 -166 -150.5t-215 -56.5zM430 641q88 0 174.5 42.5t150.5 122t81 175.5q28 157 -58.5 252.5t-224.5 95.5
q-141 0 -258.5 -95t-144.5 -253q-27 -145 59 -242.5t221 -97.5z" />
    <glyph glyph-name="guillemotleft" unicode="&#xab;" horiz-adv-x="1179" 
d="M326 541l340 -375l-78 2l-342 373l497 372h74zM586 530l340 -374l-78 2l-342 372l498 373h73z" />
    <glyph glyph-name="registered" unicode="&#xae;" horiz-adv-x="1075" 
d="M461 494q-182 0 -282.5 125.5t-69.5 306.5q33 185 179 314.5t330 129.5q123 0 210.5 -60t122.5 -161t14 -223q-31 -181 -177 -306.5t-327 -125.5zM469 522q103 0 203.5 53.5t172 147t91.5 203.5q31 180 -65.5 297.5t-256.5 117.5q-104 0 -205 -51.5t-176 -148t-96 -215.5
q-27 -167 72.5 -285.5t259.5 -118.5zM375 670h-23l94 532h179q49 0 82 -14.5t45 -37t16.5 -49t-2.5 -50.5q-11 -58 -54.5 -100t-125.5 -42h-51l120 -239h-26l-123 239h-88zM465 1180l-43 -248h156q145 0 165 119q9 53 -17.5 91t-104.5 38h-156z" />
    <glyph glyph-name="degree" unicode="&#xb0;" horiz-adv-x="544" 
d="M242 1020q-81 0 -114.5 54.5t-21.5 121.5q12 69 65.5 123.5t135.5 54.5q79 0 112 -54.5t21 -123.5q-12 -68 -63.5 -122t-134.5 -54zM252 1077q47 0 84 33.5t45 83.5q10 56 -13.5 89.5t-70.5 33.5q-50 0 -87.5 -33.5t-47.5 -89.5q-8 -50 17.5 -83.5t72.5 -33.5z" />
    <glyph glyph-name="plusminus" unicode="&#xb1;" horiz-adv-x="878" 
d="M418 416h-58l52 282h-291l10 58h291l49 282h57l-49 -282h297l-10 -58h-297zM651 111h-549l11 57h549z" />
    <glyph glyph-name="uni00B2" unicode="&#xb2;" horiz-adv-x="917" 
d="M700 459h-598l9 39l249 194q34 26 91 69t85 65t69.5 55.5t63 55.5t45.5 50t37 54t19 53q22 106 -39.5 173.5t-193.5 67.5q-95 0 -180 -54t-124 -153h-38q39 113 134 178.5t216 67.5q148 0 218 -78.5t44 -199.5q-13 -64 -67 -130t-110 -112t-184 -142q-40 -30 -61 -46
l-219 -168h541z" />
    <glyph glyph-name="uni00B3" unicode="&#xb3;" horiz-adv-x="876" 
d="M360 455q-128 0 -200.5 65t-53.5 193h37q-10 -62 4.5 -106.5t49 -68.5t76.5 -35t94 -11q116 0 199.5 56t101.5 157q8 48 -2 83t-33 56t-61 33.5t-77 17t-89 4.5h-99l8 37h88q295 0 330 199q18 102 -46 157.5t-181 55.5q-52 0 -97.5 -11t-88 -35t-72.5 -69t-41 -107h-37
q25 130 119.5 194t222.5 64q135 0 207 -67t51 -182q-14 -83 -64.5 -136.5t-127.5 -76.5q155 -49 127 -217q-20 -115 -116 -182.5t-229 -67.5z" />
    <glyph glyph-name="periodcentered" unicode="&#xb7;" horiz-adv-x="337" 
d="M160 487q-28 0 -45 20t-13 48q5 26 28.5 46t51.5 20q26 0 42.5 -20t11.5 -46q-4 -28 -27 -48t-49 -20z" />
    <glyph glyph-name="uni00B9" unicode="&#xb9;" horiz-adv-x="387" 
d="M139 530h-37l136 768h-91l7 35q88 0 96 43h35z" />
    <glyph glyph-name="ordmasculine" unicode="&#xba;" horiz-adv-x="811" 
d="M350 778q-124 0 -195 86t-49 211q24 136 123.5 218.5t227.5 82.5q130 0 199.5 -82.5t45.5 -218.5q-22 -125 -123.5 -211t-228.5 -86zM356 811q106 0 200.5 76t115.5 188q21 121 -46.5 196t-174.5 75q-108 0 -200 -75t-114 -196q-20 -112 47 -188t172 -76z" />
    <glyph glyph-name="guillemotright" unicode="&#xbb;" horiz-adv-x="880" 
d="M301 150l-80 -3l477 375l-356 373h74l362 -373zM37 139l-78 -2l475 375l-354 373h74l360 -373z" />
    <glyph glyph-name="questiondown" unicode="&#xbf;" horiz-adv-x="1198" 
d="M1038 1352q28 0 45 -20t13 -48q-4 -26 -28 -45.5t-52 -19.5q-26 0 -42 19.5t-11 45.5q5 28 27 48t48 20zM977 1120h55l-12 -78q-14 -79 -64 -134t-120 -84.5t-152 -52.5t-165 -49t-154.5 -61.5t-125 -102t-71.5 -159.5q-30 -159 60.5 -260.5t287.5 -101.5q105 0 201.5 36
t166.5 108t87 167h57q-22 -154 -171 -260.5t-353 -107.5q-221 -1 -324.5 116.5t-68.5 300.5q20 103 75 177.5t127.5 115.5t156.5 70.5t166 51.5t151.5 48t118 71.5t59.5 110.5z" />
    <glyph glyph-name="Agrave" unicode="&#xc0;" horiz-adv-x="1470" 
d="M961 1683l47 -215h-58l-47 215h58zM162 0h-60l840 1352h55l371 -1352h-59l-140 502l-692 2zM958 1278l-446 -721h645z" />
    <glyph glyph-name="Aacute" unicode="&#xc1;" horiz-adv-x="1470" 
d="M954 1468l47 215h58l-47 -215h-58zM162 0h-60l840 1352h55l371 -1352h-59l-140 502l-692 2zM958 1278l-446 -721h645z" />
    <glyph glyph-name="Acircumflex" unicode="&#xc2;" horiz-adv-x="1470" 
d="M1030 1675l148 -227h-68l-96 145l-146 -145h-71zM162 0h-60l840 1352h55l371 -1352h-59l-140 502l-692 2zM958 1278l-446 -721h645z" />
    <glyph glyph-name="Atilde" unicode="&#xc3;" horiz-adv-x="1470" 
d="M801 1440h-58q49 141 164 141q33 0 100 -39t103 -39q24 0 46.5 20.5t35.5 57.5h59q-24 -69 -59 -102t-90 -33q-37 0 -106.5 38.5t-94.5 41.5q-28 4 -55.5 -15.5t-44.5 -70.5zM162 0h-60l840 1352h55l371 -1352h-59l-140 502l-692 2zM958 1278l-446 -721h645z" />
    <glyph glyph-name="Adieresis" unicode="&#xc4;" horiz-adv-x="1470" 
d="M1073 1466q-26 0 -41 18.5t-10 43.5q5 22 26 40.5t46 18.5q27 0 40.5 -17.5t8.5 -41.5q-4 -25 -25.5 -43.5t-44.5 -18.5zM903 1464q-26 0 -40 18t-9 42q3 23 24 42t46 19q28 0 41 -17.5t8 -43.5q-5 -23 -26 -41.5t-44 -18.5zM162 0h-60l840 1352h55l371 -1352h-59
l-140 502l-692 2zM958 1278l-446 -721h645z" />
    <glyph glyph-name="Aring" unicode="&#xc5;" horiz-adv-x="1470" 
d="M991 1470q-61 0 -93 41.5t-21 100.5q9 57 55.5 98t107.5 41q65 0 96.5 -40.5t22.5 -98.5q-11 -61 -56 -101.5t-112 -40.5zM1001 1524q38 0 68.5 24.5t36.5 61.5q7 40 -14.5 64t-59.5 24q-34 0 -64.5 -24.5t-37.5 -63.5q-6 -36 16.5 -61t54.5 -25zM162 0h-60l840 1352h55
l371 -1352h-59l-140 502l-692 2zM958 1278l-446 -721h645z" />
    <glyph glyph-name="AE" unicode="&#xc6;" horiz-adv-x="2455" 
d="M2353 1352l-10 -58h-795l-104 -594h733l-10 -57h-733l-103 -586h793l-10 -57h-854l-134 502l-663 2l-303 -504h-58l807 1352h52l323 -1231l217 1231h852zM924 1278l-428 -721h618z" />
    <glyph glyph-name="Ccedilla" unicode="&#xc7;" horiz-adv-x="1515" 
d="M901 1315q-118 0 -238 -47.5t-221 -129.5t-174 -203t-96 -259q-23 -134 6.5 -254t98.5 -203.5t172 -132.5t223 -49q157 0 310.5 81.5t260.5 217.5l39 -39q-109 -141 -267.5 -226t-332.5 -91l-111 -97q108 -28 155.5 -71.5t33.5 -114.5q-18 -91 -107 -141t-231 -37l10 57
q72 -5 125.5 4t83 29t44.5 42t20 48q5 33 -5.5 57t-41 41t-62 27t-88.5 24l10 58l92 76q-174 12 -299 105.5t-177.5 248t-18.5 340.5q34 189 147.5 348t285 253.5t361.5 94.5q181 0 311 -84t193 -229l-53 -35q-60 135 -182.5 213t-276.5 78z" />
    <glyph glyph-name="Egrave" unicode="&#xc8;" horiz-adv-x="1294" 
d="M707 1481l-48 215h58l47 -215h-57zM952 0h-850l238 1352h852l-10 -58h-795l-104 -594h733l-10 -57h-734l-102 -586h793z" />
    <glyph glyph-name="Eacute" unicode="&#xc9;" horiz-adv-x="1294" 
d="M815 1696l-47 -215h-57l47 215h57zM952 0h-850l238 1352h852l-10 -58h-795l-104 -594h733l-10 -57h-734l-102 -586h793z" />
    <glyph glyph-name="Ecircumflex" unicode="&#xca;" horiz-adv-x="1294" 
d="M770 1606l-145 -146h-72l233 228l148 -228h-68zM952 0h-850l238 1352h852l-10 -58h-795l-104 -594h733l-10 -57h-734l-102 -586h793z" />
    <glyph glyph-name="Edieresis" unicode="&#xcb;" horiz-adv-x="1294" 
d="M829 1479q-26 0 -41 18t-10 43q5 22 26 40.5t46 18.5q27 0 40.5 -17.5t8.5 -41.5q-4 -25 -25.5 -43t-44.5 -18zM659 1477q-26 0 -40 17.5t-9 41.5q3 23 24 42t46 19q28 0 41 -17.5t8 -43.5q-5 -23 -26 -41t-44 -18zM952 0h-850l238 1352h852l-10 -58h-795l-104 -594h733
l-10 -57h-734l-102 -586h793z" />
    <glyph glyph-name="Igrave" unicode="&#xcc;" horiz-adv-x="546" 
d="M397 1659l47 -215h-57l-47 215h57zM203 0h-58l238 1352h57z" />
    <glyph glyph-name="Iacute" unicode="&#xcd;" horiz-adv-x="636" 
d="M348 1444l47 215h58l-47 -215h-58zM160 0h-58l238 1352h57z" />
    <glyph glyph-name="Icircumflex" unicode="&#xce;" horiz-adv-x="823" 
d="M653 1423l-96 146l-145 -146h-72l233 228l148 -228h-68zM309 0h-57l237 1352h58z" />
    <glyph glyph-name="Idieresis" unicode="&#xcf;" horiz-adv-x="735" 
d="M561 1442q-26 0 -41 18t-10 43q5 22 26 41t46 19q27 0 40.5 -18t8.5 -42q-4 -25 -25.5 -43t-44.5 -18zM391 1440q-26 0 -40 17.5t-9 41.5q3 23 24 42.5t46 19.5q28 0 41 -18t8 -44q-5 -23 -26 -41t-44 -18zM254 0h-57l237 1352h58z" />
    <glyph glyph-name="Ntilde" unicode="&#xd1;" horiz-adv-x="1449" 
d="M618 1407h-57q49 141 164 141q33 0 100 -39t103 -39q24 0 46.5 20.5t35.5 57.5h59q-24 -69 -59 -102t-90 -33q-37 0 -106.5 38.5t-94.5 41.5q-28 4 -56 -16t-45 -70zM160 0h-58l238 1352h74l653 -1262l223 1262h58l-238 -1352h-70l-657 1268z" />
    <glyph glyph-name="Ograve" unicode="&#xd2;" horiz-adv-x="1562" 
d="M881 1468l-47 215h57l47 -215h-57zM662 -20q-140 0 -255 53.5t-187.5 144t-101.5 215t-5 262.5q25 141 98.5 269t177.5 222.5t239.5 150t278.5 55.5t258.5 -55.5t185 -150t96 -222t1.5 -269.5q-33 -184 -147 -339t-283.5 -245.5t-355.5 -90.5zM674 37q159 0 313 81.5
t263.5 224.5t140.5 312q26 138 -3 259t-98.5 203.5t-171 129.5t-219.5 47t-237.5 -47t-220 -129.5t-174 -203.5t-97.5 -259q-22 -127 8.5 -242t100 -197t173 -130.5t222.5 -48.5z" />
    <glyph glyph-name="Oacute" unicode="&#xd3;" horiz-adv-x="1562" 
d="M989 1683l-47 -215h-57l47 215h57zM662 -20q-140 0 -255 53.5t-187.5 144t-101.5 215t-5 262.5q25 141 98.5 269t177.5 222.5t239.5 150t278.5 55.5t258.5 -55.5t185 -150t96 -222t1.5 -269.5q-33 -184 -147 -339t-283.5 -245.5t-355.5 -90.5zM674 37q159 0 313 81.5
t263.5 224.5t140.5 312q26 138 -3 259t-98.5 203.5t-171 129.5t-219.5 47t-237.5 -47t-220 -129.5t-174 -203.5t-97.5 -259q-22 -127 8.5 -242t100 -197t173 -130.5t222.5 -48.5z" />
    <glyph glyph-name="Ocircumflex" unicode="&#xd4;" horiz-adv-x="1562" 
d="M1108 1448h-68l-96 145l-145 -145h-72l234 227zM662 -20q-140 0 -255 53.5t-187.5 144t-101.5 215t-5 262.5q25 141 98.5 269t177.5 222.5t239.5 150t278.5 55.5t258.5 -55.5t185 -150t96 -222t1.5 -269.5q-33 -184 -147 -339t-283.5 -245.5t-355.5 -90.5zM674 37
q159 0 313 81.5t263.5 224.5t140.5 312q26 138 -3 259t-98.5 203.5t-171 129.5t-219.5 47t-237.5 -47t-220 -129.5t-174 -203.5t-97.5 -259q-22 -127 8.5 -242t100 -197t173 -130.5t222.5 -48.5z" />
    <glyph glyph-name="Otilde" unicode="&#xd5;" horiz-adv-x="1562" 
d="M731 1440h-57q49 141 164 141q32 0 99 -39t103 -39q24 0 46.5 20.5t35.5 57.5h60q-24 -68 -59.5 -101.5t-90.5 -33.5q-37 0 -106.5 38.5t-94.5 41.5q-28 4 -55.5 -15.5t-44.5 -70.5zM662 -20q-140 0 -255 53.5t-187.5 144t-101.5 215t-5 262.5q25 141 98.5 269
t177.5 222.5t239.5 150t278.5 55.5t258.5 -55.5t185 -150t96 -222t1.5 -269.5q-33 -184 -147 -339t-283.5 -245.5t-355.5 -90.5zM674 37q159 0 313 81.5t263.5 224.5t140.5 312q26 138 -3 259t-98.5 203.5t-171 129.5t-219.5 47t-237.5 -47t-220 -129.5t-174 -203.5
t-97.5 -259q-22 -127 8.5 -242t100 -197t173 -130.5t222.5 -48.5z" />
    <glyph glyph-name="Odieresis" unicode="&#xd6;" horiz-adv-x="1562" 
d="M1004 1466q-26 0 -41.5 18.5t-10.5 43.5q5 22 26 40.5t46 18.5q27 0 40.5 -17.5t8.5 -41.5q-5 -25 -25.5 -43.5t-43.5 -18.5zM834 1464q-26 0 -40.5 18t-9.5 42q3 23 24 42t46 19q28 0 41 -17.5t8 -43.5q-5 -23 -25.5 -41.5t-43.5 -18.5zM662 -20q-140 0 -255 53.5
t-187.5 144t-101.5 215t-5 262.5q25 141 98.5 269t177.5 222.5t239.5 150t278.5 55.5t258.5 -55.5t185 -150t96 -222t1.5 -269.5q-33 -184 -147 -339t-283.5 -245.5t-355.5 -90.5zM674 37q159 0 313 81.5t263.5 224.5t140.5 312q26 138 -3 259t-98.5 203.5t-171 129.5
t-219.5 47t-237.5 -47t-220 -129.5t-174 -203.5t-97.5 -259q-22 -127 8.5 -242t100 -197t173 -130.5t222.5 -48.5z" />
    <glyph glyph-name="multiply" unicode="&#xd7;" horiz-adv-x="763" 
d="M143 440l-41 41l238 164l-207 205l49 35l205 -207l234 166l41 -41l-234 -164l209 -211l-47 -33l-211 209z" />
    <glyph glyph-name="Oslash" unicode="&#xd8;" horiz-adv-x="1562" 
d="M1315 1475l-101 -205q143 -88 206 -253t28 -362q-33 -184 -147 -339t-283.5 -245.5t-355.5 -90.5q-28 0 -82 4l-72 -146h-59l75 156q-147 31 -250.5 125.5t-146 234.5t-14.5 301q25 141 98.5 269t177.5 222.5t239.5 150t278.5 55.5q142 0 260 -56l88 179h60zM170 655
q-25 -147 18.5 -276t139.5 -214.5t225 -113.5l586 1188q-113 55 -240 55q-118 0 -237.5 -47t-220 -129.5t-174 -203.5t-97.5 -259zM1391 655q34 183 -23.5 328.5t-181.5 226.5l-578 -1169q40 -4 66 -4q159 0 313 81.5t263.5 224.5t140.5 312z" />
    <glyph glyph-name="Ugrave" unicode="&#xd9;" horiz-adv-x="1378" 
d="M770 1724l47 -215h-57l-47 215h57zM528 -20q-158 0 -261.5 67.5t-142 185.5t-11.5 271l149 848h57l-149 -848q-36 -205 61 -336t310 -131q212 0 352.5 131t177.5 336l150 848h55l-150 -848q-41 -234 -201 -379t-397 -145z" />
    <glyph glyph-name="Uacute" unicode="&#xda;" horiz-adv-x="1378" 
d="M764 1509l47 215h57l-47 -215h-57zM528 -20q-158 0 -261.5 67.5t-142 185.5t-11.5 271l149 848h57l-149 -848q-36 -205 61 -336t310 -131q212 0 352.5 131t177.5 336l150 848h55l-150 -848q-41 -234 -201 -379t-397 -145z" />
    <glyph glyph-name="Ucircumflex" unicode="&#xdb;" horiz-adv-x="1378" 
d="M840 1716l147 -227h-67l-97 145l-145 -145h-72zM528 -20q-158 0 -261.5 67.5t-142 185.5t-11.5 271l149 848h57l-149 -848q-36 -205 61 -336t310 -131q212 0 352.5 131t177.5 336l150 848h55l-150 -848q-41 -234 -201 -379t-397 -145z" />
    <glyph glyph-name="Udieresis" unicode="&#xdc;" horiz-adv-x="1378" 
d="M883 1507q-26 0 -41.5 18.5t-10.5 43.5q5 22 26 40.5t46 18.5q27 0 40.5 -17.5t8.5 -41.5q-5 -25 -25.5 -43.5t-43.5 -18.5zM713 1505q-26 0 -40 18t-9 42q3 23 23.5 42t45.5 19q28 0 41 -17.5t8 -43.5q-5 -23 -25.5 -41.5t-43.5 -18.5zM528 -20q-158 0 -261.5 67.5
t-142 185.5t-11.5 271l149 848h57l-149 -848q-36 -205 61 -336t310 -131q212 0 352.5 131t177.5 336l150 848h55l-150 -848q-41 -234 -201 -379t-397 -145z" />
    <glyph glyph-name="Yacute" unicode="&#xdd;" horiz-adv-x="1386" 
d="M715 1661h57l-47 -215h-57zM481 0h-57l106 592l-428 760h58l407 -709l658 709h59l-700 -762z" />
    <glyph glyph-name="germandbls" unicode="&#xdf;" horiz-adv-x="1323" 
d="M160 0h-58l168 956q15 85 52.5 156t102.5 131t169 94t237 35q203 0 310.5 -94.5t70.5 -269.5q-15 -72 -56 -126t-103.5 -87.5t-124.5 -52.5t-142 -33q55 -5 104.5 -19t96 -42.5t77 -67.5t43.5 -97.5t1 -130.5q-10 -55 -31.5 -103t-63 -95t-99.5 -80t-146.5 -53.5
t-198.5 -20.5l11 57q203 0 324 73.5t147 221.5q14 81 -7 140.5t-74 95t-122.5 54t-161.5 24.5l16 88q184 14 307 79.5t148 180.5q28 135 -64 218t-270 83q-222 0 -346 -100t-153 -269z" />
    <glyph glyph-name="agrave" unicode="&#xe0;" horiz-adv-x="1382" 
d="M901 1128h-57l-47 215h57zM553 -20q-148 0 -259 70.5t-160 193.5t-23 270q29 163 122 288.5t225.5 191t284.5 65.5q163 0 277.5 -75t155.5 -208l47 262h57l-182 -1038h-58l47 270q-91 -133 -233 -211.5t-301 -78.5zM561 37q124 0 245.5 60t210.5 171t113 246
q19 111 -5.5 204.5t-81.5 154t-137.5 94.5t-172.5 34q-126 0 -244 -57t-206.5 -170t-114.5 -260q-18 -102 6.5 -192t80 -151.5t135.5 -97.5t171 -36z" />
    <glyph glyph-name="aacute" unicode="&#xe1;" horiz-adv-x="1382" 
d="M905 1128h-57l47 215h57zM553 -20q-148 0 -259 70.5t-160 193.5t-23 270q29 163 122 288.5t225.5 191t284.5 65.5q163 0 277.5 -75t155.5 -208l47 262h57l-182 -1038h-58l47 270q-91 -133 -233 -211.5t-301 -78.5zM561 37q124 0 245.5 60t210.5 171t113 246
q19 111 -5.5 204.5t-81.5 154t-137.5 94.5t-172.5 34q-126 0 -244 -57t-206.5 -170t-114.5 -260q-18 -102 6.5 -192t80 -151.5t135.5 -97.5t171 -36z" />
    <glyph glyph-name="acircumflex" unicode="&#xe2;" horiz-adv-x="1382" 
d="M690 1108l234 227l147 -227h-67l-97 145l-145 -145h-72zM553 -20q-148 0 -259 70.5t-160 193.5t-23 270q29 163 122 288.5t225.5 191t284.5 65.5q163 0 277.5 -75t155.5 -208l47 262h57l-182 -1038h-58l47 270q-91 -133 -233 -211.5t-301 -78.5zM561 37q124 0 245.5 60
t210.5 171t113 246q19 111 -5.5 204.5t-81.5 154t-137.5 94.5t-172.5 34q-126 0 -244 -57t-206.5 -170t-114.5 -260q-18 -102 6.5 -192t80 -151.5t135.5 -97.5t171 -36z" />
    <glyph glyph-name="atilde" unicode="&#xe3;" horiz-adv-x="1382" 
d="M727 1102h-47q41 117 135 117q26 0 81.5 -33t84.5 -33q43 0 68 66h49q-21 -58 -50 -85.5t-73 -27.5q-29 0 -87 31.5t-79 33.5q-23 4 -45.5 -11.5t-36.5 -57.5zM553 -20q-148 0 -259 70.5t-160 193.5t-23 270q29 163 122 288.5t225.5 191t284.5 65.5q163 0 277.5 -75
t155.5 -208l47 262h57l-182 -1038h-58l47 270q-91 -133 -233 -211.5t-301 -78.5zM561 37q124 0 245.5 60t210.5 171t113 246q19 111 -5.5 204.5t-81.5 154t-137.5 94.5t-172.5 34q-126 0 -244 -57t-206.5 -170t-114.5 -260q-18 -102 6.5 -192t80 -151.5t135.5 -97.5t171 -36
z" />
    <glyph glyph-name="adieresis" unicode="&#xe4;" horiz-adv-x="1382" 
d="M967 1126q-26 0 -41.5 18.5t-10.5 43.5q5 22 26 40.5t46 18.5q27 0 40.5 -17.5t8.5 -41.5q-5 -25 -25.5 -43.5t-43.5 -18.5zM797 1124q-26 0 -40 18t-9 42q3 23 23.5 42t45.5 19q28 0 41 -17.5t8 -43.5q-5 -23 -25.5 -41.5t-43.5 -18.5zM553 -20q-148 0 -259 70.5
t-160 193.5t-23 270q29 163 122 288.5t225.5 191t284.5 65.5q163 0 277.5 -75t155.5 -208l47 262h57l-182 -1038h-58l47 270q-91 -133 -233 -211.5t-301 -78.5zM561 37q124 0 245.5 60t210.5 171t113 246q19 111 -5.5 204.5t-81.5 154t-137.5 94.5t-172.5 34
q-126 0 -244 -57t-206.5 -170t-114.5 -260q-18 -102 6.5 -192t80 -151.5t135.5 -97.5t171 -36z" />
    <glyph glyph-name="aring" unicode="&#xe5;" horiz-adv-x="1382" 
d="M885 1130q-61 0 -93.5 41.5t-21.5 100.5q9 57 55.5 98t108.5 41q65 0 96.5 -40.5t22.5 -98.5q-11 -61 -56 -101.5t-112 -40.5zM895 1184q38 0 68 24.5t36 61.5q7 40 -14 64t-59 24q-34 0 -65 -24.5t-38 -63.5q-6 -35 17 -60.5t55 -25.5zM553 -20q-148 0 -259 70.5
t-160 193.5t-23 270q29 163 122 288.5t225.5 191t284.5 65.5q163 0 277.5 -75t155.5 -208l47 262h57l-182 -1038h-58l47 270q-91 -133 -233 -211.5t-301 -78.5zM561 37q124 0 245.5 60t210.5 171t113 246q19 111 -5.5 204.5t-81.5 154t-137.5 94.5t-172.5 34
q-126 0 -244 -57t-206.5 -170t-114.5 -260q-18 -102 6.5 -192t80 -151.5t135.5 -97.5t171 -36z" />
    <glyph glyph-name="ae" unicode="&#xe6;" horiz-adv-x="2281" 
d="M1743 1057q101 0 185.5 -34.5t145 -99.5t88 -167.5t11.5 -229.5l-6 -39l-985 -2l-4 -24q-7 -91 22.5 -171.5t83.5 -135.5t126.5 -87t150.5 -32q124 0 248.5 62.5t205.5 178.5l47 -28q-89 -128 -226 -199.5t-284 -71.5q-146 0 -256 78.5t-155 210.5l-47 -266h-56l45 262
q-89 -128 -231 -205t-299 -77q-148 0 -258.5 69t-159 188t-22.5 261q29 158 121.5 279.5t224 185t282.5 63.5q163 0 276 -72t154 -202l48 254h57l-41 -226q89 130 224.5 203.5t283.5 73.5zM1192 543l928 2q11 104 -16 191t-81.5 143.5t-129.5 88t-160 31.5
q-111 0 -218.5 -49.5t-194 -149t-122.5 -229.5zM561 35q183 0 348.5 124t210.5 310l6 43l7 31q12 130 -41.5 229.5t-148.5 149t-212 49.5q-125 0 -242.5 -55t-205.5 -165t-113 -253q-18 -98 6 -185.5t79 -147.5t135 -95t171 -35z" />
    <glyph glyph-name="ccedilla" unicode="&#xe7;" horiz-adv-x="1282" 
d="M733 1001q-126 0 -244 -57t-206.5 -170t-114.5 -260q-18 -102 6.5 -192t80 -151.5t135.5 -97.5t171 -36q139 0 275 77t219 205l43 -30q-88 -140 -234 -224.5t-311 -84.5h-18l-119 -105q107 -27 154.5 -71t33.5 -115q-18 -91 -107 -141t-231 -37l10 57q72 -5 125.5 4
t83 29t44.5 42t20 48q5 33 -5.5 57t-41 41t-62 27t-88.5 24l10 58l109 88q-126 19 -216.5 93t-129 188t-14.5 247q29 163 122 288.5t225.5 191t284.5 65.5q166 0 282.5 -79t154.5 -218l-58 -31q-37 126 -144.5 198t-244.5 72z" />
    <glyph glyph-name="egrave" unicode="&#xe8;" horiz-adv-x="1265" 
d="M649 1343h58l47 -215h-58zM537 -20q-139 0 -246 70.5t-156.5 194t-23.5 269.5q29 162 122 288t222.5 191.5t271.5 65.5q101 0 185.5 -34.5t145 -99.5t88 -167.5t11.5 -229.5l-6 -39l-987 -2q-12 -96 15.5 -181.5t82 -143.5t129 -91.5t154.5 -33.5q124 0 248.5 63
t205.5 179l48 -29q-89 -128 -226 -199t-284 -71zM174 545l930 2q11 104 -16 191t-81.5 143.5t-129.5 88t-160 31.5q-115 0 -226 -53t-198 -159t-119 -244z" />
    <glyph glyph-name="eacute" unicode="&#xe9;" horiz-adv-x="1265" 
d="M748 1343h57l-47 -215h-58zM537 -20q-139 0 -246 70.5t-156.5 194t-23.5 269.5q29 162 122 288t222.5 191.5t271.5 65.5q101 0 185.5 -34.5t145 -99.5t88 -167.5t11.5 -229.5l-6 -39l-987 -2q-12 -96 15.5 -181.5t82 -143.5t129 -91.5t154.5 -33.5q124 0 248.5 63
t205.5 179l48 -29q-89 -128 -226 -199t-284 -71zM174 545l930 2q11 104 -16 191t-81.5 143.5t-129.5 88t-160 31.5q-115 0 -226 -53t-198 -159t-119 -244z" />
    <glyph glyph-name="ecircumflex" unicode="&#xea;" horiz-adv-x="1265" 
d="M614 1108h-71l233 227l148 -227h-68l-96 145zM537 -20q-139 0 -246 70.5t-156.5 194t-23.5 269.5q29 162 122 288t222.5 191.5t271.5 65.5q101 0 185.5 -34.5t145 -99.5t88 -167.5t11.5 -229.5l-6 -39l-987 -2q-12 -96 15.5 -181.5t82 -143.5t129 -91.5t154.5 -33.5
q124 0 248.5 63t205.5 179l48 -29q-89 -128 -226 -199t-284 -71zM174 545l930 2q11 104 -16 191t-81.5 143.5t-129.5 88t-160 31.5q-115 0 -226 -53t-198 -159t-119 -244z" />
    <glyph glyph-name="edieresis" unicode="&#xeb;" horiz-adv-x="1265" 
d="M819 1126q-26 0 -41 18.5t-10 43.5q5 22 26 40.5t46 18.5q27 0 40.5 -17.5t8.5 -41.5q-4 -25 -25.5 -43.5t-44.5 -18.5zM649 1124q-26 0 -40 18t-9 42q3 23 24 42t46 19q28 0 41 -17.5t8 -43.5q-5 -23 -26 -41.5t-44 -18.5zM537 -20q-139 0 -246 70.5t-156.5 194
t-23.5 269.5q29 162 122 288t222.5 191.5t271.5 65.5q101 0 185.5 -34.5t145 -99.5t88 -167.5t11.5 -229.5l-6 -39l-987 -2q-12 -96 15.5 -181.5t82 -143.5t129 -91.5t154.5 -33.5q124 0 248.5 63t205.5 179l48 -29q-89 -128 -226 -199t-284 -71zM174 545l930 2
q11 104 -16 191t-81.5 143.5t-129.5 88t-160 31.5q-115 0 -226 -53t-198 -159t-119 -244z" />
    <glyph glyph-name="igrave" unicode="&#xec;" horiz-adv-x="684" 
d="M582 1141h-58l-47 215h58zM397 0h-57l182 1038h58z" />
    <glyph glyph-name="iacute" unicode="&#xed;" horiz-adv-x="817" 
d="M586 1141h-58l47 215h58zM397 0h-57l182 1038h58z" />
    <glyph glyph-name="icircumflex" unicode="&#xee;" horiz-adv-x="854" 
d="M588 1266l-146 -146h-71l233 228l148 -228h-68zM397 0h-57l182 1038h58z" />
    <glyph glyph-name="idieresis" unicode="&#xef;" horiz-adv-x="821" 
d="M647 1139q-26 0 -41 18t-10 43q5 22 26 41t46 19q27 0 40.5 -18t8.5 -42q-4 -25 -25.5 -43t-44.5 -18zM477 1137q-26 0 -40 17.5t-9 41.5q3 23 24 42t46 19q28 0 41 -17.5t8 -43.5q-5 -23 -26 -41t-44 -18zM397 0h-57l182 1038h58z" />
    <glyph glyph-name="ntilde" unicode="&#xf1;" horiz-adv-x="1226" 
d="M508 1139h-57q49 141 163 141q32 0 100 -39t103 -39q24 0 46.5 20.5t35.5 57.5h59q-24 -69 -59 -102t-90 -33q-37 0 -106.5 38.5t-94.5 41.5q-28 4 -55.5 -15.5t-44.5 -70.5zM160 0h-58l183 1038h57l-49 -274q72 142 196.5 218.5t258.5 76.5q219 0 311.5 -128.5
t54.5 -348.5l-102 -582h-58l101 578q35 193 -43.5 308t-270.5 115q-190 0 -323 -141.5t-172 -363.5z" />
    <glyph glyph-name="ograve" unicode="&#xf2;" horiz-adv-x="1300" 
d="M649 1335h58l47 -215h-58zM553 -20q-148 0 -259 70.5t-160 193.5t-23 270q29 163 122 288.5t225.5 191t284.5 65.5q235 0 361.5 -149.5t83.5 -395.5q-20 -110 -79 -209t-143.5 -170.5t-192.5 -113t-220 -41.5zM561 37q124 0 245.5 60t210.5 171t113 246
q19 111 -5.5 204.5t-81.5 154t-137.5 94.5t-172.5 34q-126 0 -244 -57t-206.5 -170t-114.5 -260q-18 -102 6.5 -192t80 -151.5t135.5 -97.5t171 -36z" />
    <glyph glyph-name="oacute" unicode="&#xf3;" horiz-adv-x="1300" 
d="M748 1335h57l-47 -215h-58zM553 -20q-148 0 -259 70.5t-160 193.5t-23 270q29 163 122 288.5t225.5 191t284.5 65.5q235 0 361.5 -149.5t83.5 -395.5q-20 -110 -79 -209t-143.5 -170.5t-192.5 -113t-220 -41.5zM561 37q124 0 245.5 60t210.5 171t113 246
q19 111 -5.5 204.5t-81.5 154t-137.5 94.5t-172.5 34q-126 0 -244 -57t-206.5 -170t-114.5 -260q-18 -102 6.5 -192t80 -151.5t135.5 -97.5t171 -36z" />
    <glyph glyph-name="ocircumflex" unicode="&#xf4;" horiz-adv-x="1300" 
d="M856 1100l-96 145l-146 -145h-71l233 227l148 -227h-68zM553 -20q-148 0 -259 70.5t-160 193.5t-23 270q29 163 122 288.5t225.5 191t284.5 65.5q235 0 361.5 -149.5t83.5 -395.5q-20 -110 -79 -209t-143.5 -170.5t-192.5 -113t-220 -41.5zM561 37q124 0 245.5 60
t210.5 171t113 246q19 111 -5.5 204.5t-81.5 154t-137.5 94.5t-172.5 34q-126 0 -244 -57t-206.5 -170t-114.5 -260q-18 -102 6.5 -192t80 -151.5t135.5 -97.5t171 -36z" />
    <glyph glyph-name="otilde" unicode="&#xf5;" horiz-adv-x="1300" 
d="M547 1092h-58q49 141 164 141q33 0 100 -39t103 -39q24 0 46.5 20.5t35.5 57.5h59q-24 -69 -59 -102t-90 -33q-37 0 -106.5 38.5t-94.5 41.5q-28 4 -55.5 -15.5t-44.5 -70.5zM553 -20q-148 0 -259 70.5t-160 193.5t-23 270q29 163 122 288.5t225.5 191t284.5 65.5
q235 0 361.5 -149.5t83.5 -395.5q-20 -110 -79 -209t-143.5 -170.5t-192.5 -113t-220 -41.5zM561 37q124 0 245.5 60t210.5 171t113 246q19 111 -5.5 204.5t-81.5 154t-137.5 94.5t-172.5 34q-126 0 -244 -57t-206.5 -170t-114.5 -260q-18 -102 6.5 -192t80 -151.5
t135.5 -97.5t171 -36z" />
    <glyph glyph-name="odieresis" unicode="&#xf6;" horiz-adv-x="1300" 
d="M819 1118q-26 0 -41 18.5t-10 43.5q5 22 26 40.5t46 18.5q27 0 40.5 -17.5t8.5 -41.5q-4 -25 -25.5 -43.5t-44.5 -18.5zM649 1116q-26 0 -40 18t-9 42q3 23 24 42t46 19q28 0 41 -17.5t8 -43.5q-5 -23 -26 -41.5t-44 -18.5zM553 -20q-148 0 -259 70.5t-160 193.5t-23 270
q29 163 122 288.5t225.5 191t284.5 65.5q235 0 361.5 -149.5t83.5 -395.5q-20 -110 -79 -209t-143.5 -170.5t-192.5 -113t-220 -41.5zM561 37q124 0 245.5 60t210.5 171t113 246q19 111 -5.5 204.5t-81.5 154t-137.5 94.5t-172.5 34q-126 0 -244 -57t-206.5 -170
t-114.5 -260q-18 -102 6.5 -192t80 -151.5t135.5 -97.5t171 -36z" />
    <glyph glyph-name="divide" unicode="&#xf7;" horiz-adv-x="763" 
d="M410 672q-28 0 -44.5 19.5t-11.5 47.5q5 26 28.5 46t51.5 20q26 0 42 -20t11 -46q-4 -27 -27 -47t-50 -20zM651 471h-549l11 57h549zM324 201q-28 0 -44.5 19.5t-11.5 47.5q5 27 28 46.5t50 19.5q26 0 42.5 -20t12.5 -46q-4 -27 -27 -47t-50 -20z" />
    <glyph glyph-name="oslash" unicode="&#xf8;" horiz-adv-x="1300" 
d="M1067 1188l-109 -170q135 -58 198.5 -190t31.5 -314q-20 -110 -79 -209t-143.5 -170.5t-192.5 -113t-220 -41.5q-80 0 -154 22l-96 -147h-59l106 165q-137 61 -203 194.5t-36 299.5q29 163 122 288.5t225.5 191t284.5 65.5q82 0 166 -23l99 152h59zM1130 514
q19 111 -5.5 204.5t-81.5 154t-137.5 94.5t-172.5 34q-126 0 -244 -57t-206.5 -170t-114.5 -260q-18 -102 6.5 -192t80 -151.5t135.5 -97.5t171 -36q124 0 245.5 60t210.5 171t113 246z" />
    <glyph glyph-name="ugrave" unicode="&#xf9;" horiz-adv-x="1228" 
d="M723 1126h-57l-48 215h58zM481 -20q-219 0 -312 128.5t-54 348.5l102 581h57l-102 -577q-22 -127 3 -220.5t104 -148.5t208 -55q190 0 323 142t171 364l88 495h57l-182 -1038h-57l49 279q-72 -143 -197 -221t-258 -78z" />
    <glyph glyph-name="uacute" unicode="&#xfa;" horiz-adv-x="1228" 
d="M727 1126h-57l47 215h57zM481 -20q-219 0 -312 128.5t-54 348.5l102 581h57l-102 -577q-22 -127 3 -220.5t104 -148.5t208 -55q190 0 323 142t171 364l88 495h57l-182 -1038h-57l49 279q-72 -143 -197 -221t-258 -78z" />
    <glyph glyph-name="ucircumflex" unicode="&#xfb;" horiz-adv-x="1228" 
d="M893 1106h-68l-96 145l-145 -145h-72l233 227zM481 -20q-219 0 -312 128.5t-54 348.5l102 581h57l-102 -577q-22 -127 3 -220.5t104 -148.5t208 -55q190 0 323 142t171 364l88 495h57l-182 -1038h-57l49 279q-72 -143 -197 -221t-258 -78z" />
    <glyph glyph-name="udieresis" unicode="&#xfc;" horiz-adv-x="1228" 
d="M788 1124q-26 0 -41 18.5t-10 43.5q5 22 26 40.5t46 18.5q27 0 40.5 -17.5t8.5 -41.5q-4 -25 -25.5 -43.5t-44.5 -18.5zM618 1122q-26 0 -40 18t-9 42q3 23 24 42t46 19q28 0 41 -17.5t8 -43.5q-5 -23 -26 -41.5t-44 -18.5zM481 -20q-219 0 -312 128.5t-54 348.5l102 581
h57l-102 -577q-22 -127 3 -220.5t104 -148.5t208 -55q190 0 323 142t171 364l88 495h57l-182 -1038h-57l49 279q-72 -143 -197 -221t-258 -78z" />
    <glyph glyph-name="yacute" unicode="&#xfd;" horiz-adv-x="512" 
d="M782 1171l47 215h58l-47 -215h-58zM102 -74l48 35q13 -28 40.5 -47.5t64 -24.5t75.5 3t79.5 37.5t71.5 76.5l94 141l-249 891h59l233 -827l564 827h59l-721 -1058q-50 -72 -114 -109.5t-122 -37.5t-107 24.5t-75 68.5z" />
    <glyph glyph-name="ydieresis" unicode="&#xff;" horiz-adv-x="512" 
d="M901 1169q-26 0 -41 18.5t-10 43.5q5 22 26 40.5t46 18.5q27 0 40.5 -17.5t8.5 -41.5q-4 -25 -25.5 -43.5t-44.5 -18.5zM731 1167q-26 0 -40 18t-9 42q3 23 24 42t46 19q28 0 41 -17.5t8 -43.5q-5 -23 -26 -41.5t-44 -18.5zM102 -74l48 35q13 -28 40.5 -47.5t64 -24.5
t75.5 3t79.5 37.5t71.5 76.5l94 141l-249 891h59l233 -827l564 827h59l-721 -1058q-50 -72 -114 -109.5t-122 -37.5t-107 24.5t-75 68.5z" />
    <glyph glyph-name="dotlessi" unicode="&#x131;" horiz-adv-x="444" 
d="M160 0h-58l183 1038h57z" />
    <glyph glyph-name="OE" unicode="&#x152;" horiz-adv-x="2467" 
d="M2365 1352l-10 -58h-794l-105 -594h733l-10 -57h-733l-103 -586h793l-10 -57h-850l67 379q-111 -181 -293.5 -290t-387.5 -109q-140 0 -255 53.5t-187.5 144t-101.5 215t-5 262.5q25 141 98.5 269t177.5 222.5t239.5 150t278.5 55.5q209 0 350 -111.5t185 -294.5l71 406
h852zM674 37q159 0 313 81.5t263.5 224.5t140.5 312q26 138 -3 259t-98.5 203.5t-171 129.5t-219.5 47t-237.5 -47t-220 -129.5t-174 -203.5t-97.5 -259q-22 -127 8.5 -242t100 -197t173 -130.5t222.5 -48.5z" />
    <glyph glyph-name="oe" unicode="&#x153;" horiz-adv-x="2289" 
d="M1751 1069q101 0 185.5 -34.5t145 -99.5t88 -167t11.5 -229l-6 -39l-987 -2q-12 -96 15.5 -181.5t82 -143.5t129 -92t154.5 -34q124 0 248.5 63t205.5 179l48 -29q-89 -128 -226 -199t-284 -71q-165 0 -283.5 99.5t-144.5 258.5q-80 -164 -238.5 -266t-341.5 -102
q-148 0 -259 70.5t-160 193.5t-23 270q29 163 122 288.5t225.5 191t284.5 65.5q184 0 305 -94t144 -258q82 167 234.5 264.5t324.5 97.5zM1198 555l930 2q11 104 -16 191t-81.5 144t-129.5 88.5t-160 31.5q-115 0 -226 -53t-198 -159.5t-119 -244.5zM561 37q124 0 245.5 60
t210.5 171t113 246q19 111 -5.5 204.5t-81.5 154t-137.5 94.5t-172.5 34q-126 0 -244 -57t-206.5 -170t-114.5 -260q-18 -102 6.5 -192t80 -151.5t135.5 -97.5t171 -36z" />
    <glyph glyph-name="Scaron" unicode="&#x160;" horiz-adv-x="1173" 
d="M872 1720h58l-228 -227l-159 227h57l115 -161zM489 -20q-124 2 -216 43.5t-138 124t-26 194.5h57q-10 -57 1 -104.5t38.5 -79.5t63.5 -56.5t79 -38t82 -20t76 -6.5q68 0 132.5 15t125.5 46t105.5 87t60.5 130q32 146 -47 226t-297 121q-214 40 -307 129t-68 231
q26 157 158.5 253.5t312.5 96.5q121 0 215 -45t140.5 -130t27.5 -193h-57q13 76 -11.5 137t-76 98t-115.5 56.5t-133 19.5q-89 0 -172.5 -31t-148.5 -99t-83 -161q-22 -117 59 -193.5t271 -111.5q231 -42 328 -137t61 -263q-19 -88 -67 -155t-116.5 -107t-148 -59.5
t-166.5 -17.5z" />
    <glyph glyph-name="scaron" unicode="&#x161;" horiz-adv-x="1052" 
d="M643 1227l158 162h57l-227 -228l-160 228h57zM446 -20q-177 5 -270.5 93.5t-66.5 258.5l57 -2q-10 -81 8.5 -138t62.5 -89t96.5 -47t123.5 -19q112 -6 218.5 55t127.5 160q5 25 5.5 46t-3 39t-13 33t-22 27.5t-32 23t-40.5 19t-50.5 16.5t-60 15t-69.5 14
q-71 13 -122 27.5t-96.5 37t-71 52t-36.5 71t-2 95.5q20 133 135 212t275 79q191 0 276 -87.5t72 -244.5h-57q10 132 -70.5 202t-230.5 72q-128 2 -226.5 -63t-115.5 -170q-17 -97 49.5 -145t237.5 -80q200 -37 276 -99t49 -192q-25 -125 -138.5 -200.5t-275.5 -71.5z" />
    <glyph glyph-name="Ydieresis" unicode="&#x178;" horiz-adv-x="1386" 
d="M786 1444q-26 0 -41 18t-10 43q5 22 26 41t46 19q27 0 40.5 -18t8.5 -42q-4 -25 -25.5 -43t-44.5 -18zM616 1442q-26 0 -40 17.5t-9 41.5q3 23 24 42.5t46 19.5q28 0 41 -18t8 -44q-5 -23 -26 -41t-44 -18zM481 0h-57l106 592l-428 760h58l407 -709l658 709h59l-700 -762
z" />
    <glyph glyph-name="zcaron" unicode="&#x17e;" horiz-adv-x="1124" 
d="M578 1434l114 -162l158 162h57l-227 -228l-160 228h58zM842 0h-740l11 57l829 924h-670l11 57h739l-10 -57l-826 -924h666z" />
    <glyph glyph-name="gravecomb" unicode="&#x300;" 
d="M-207 1352h57l48 -215h-58z" />
    <glyph glyph-name="acutecomb" unicode="&#x301;" 
d="M-207 1137l47 215h58l-48 -215h-57z" />
    <glyph glyph-name="uni0302" unicode="&#x302;" 
d="M-250 1346l148 -228h-68l-96 146l-146 -146h-71z" />
    <glyph glyph-name="tildecomb" unicode="&#x303;" 
d="M-553 1210h-57q50 142 164 142q32 0 99 -39t103 -39q24 0 46.5 20.5t35.5 57.5h60q-24 -68 -59.5 -101.5t-90.5 -33.5q-37 0 -106.5 38t-94.5 41q-28 4 -55.5 -15.5t-44.5 -70.5z" />
    <glyph glyph-name="uni0304" unicode="&#x304;" 
d="M-113 1294h-336l11 58h336z" />
    <glyph glyph-name="uni0306" unicode="&#x306;" 
d="M-373 1202q-76 0 -128.5 40t-71.5 110h61q23 -45 58 -68t94 -24q120 -3 196 92h62q-56 -79 -119.5 -114.5t-151.5 -35.5z" />
    <glyph glyph-name="uni0307" unicode="&#x307;" 
d="M-186 1145q-29 0 -45 20t-11 47q5 26 29 48t51 22q31 0 47 -21t11 -49q-5 -26 -29.5 -46.5t-52.5 -20.5z" />
    <glyph glyph-name="uni0308" unicode="&#x308;" 
d="M-174 1165q-26 0 -41 18.5t-10 43.5q5 22 25.5 40.5t45.5 18.5q27 0 41 -17.5t9 -41.5q-4 -25 -25.5 -43.5t-44.5 -18.5zM-344 1163q-26 0 -40 18t-9 42q3 23 23.5 42t45.5 19q28 0 41.5 -17.5t8.5 -43.5q-5 -23 -26 -41.5t-44 -18.5z" />
    <glyph glyph-name="uni030A" unicode="&#x30a;" 
d="M-272 1096q-61 0 -93.5 41t-21.5 100q9 57 55.5 98t108.5 41q65 0 96.5 -40.5t22.5 -98.5q-11 -61 -56 -101t-112 -40zM-262 1149q38 0 68 24.5t36 61.5q7 40 -14 64t-59 24q-34 0 -65 -24.5t-38 -63.5q-6 -35 17 -60.5t55 -25.5z" />
    <glyph glyph-name="uni030B" unicode="&#x30b;" 
d="M-338 1137h-57l125 215h57zM-227 1137h-58l125 215h58z" />
    <glyph glyph-name="uni030C" unicode="&#x30c;" 
d="M-432 1352l115 -162l157 162h58l-228 -228l-159 228h57z" />
    <glyph glyph-name="uni0312" unicode="&#x312;" 
d="M-254 1038l-27 27q53 66 82 129t39 156h58q-18 -107 -47.5 -169.5t-104.5 -142.5z" />
    <glyph glyph-name="uni0326" unicode="&#x326;" 
d="M-244 -309h-73l141 254h74z" />
    <glyph glyph-name="uni0327" unicode="&#x327;" 
d="M-444 -483l10 57q137 -9 199 27.5t73 95.5q5 33 -5.5 57t-40.5 41t-61.5 27t-88.5 24l10 58l119 96h69l-135 -119q108 -28 155.5 -71.5t33.5 -114.5q-18 -91 -107 -141t-231 -37z" />
    <glyph glyph-name="uni0328" unicode="&#x328;" 
d="M-113 -287l11 -51q-97 -40 -168.5 -37.5t-114 32t-57.5 79.5q-6 29 -4.5 60t21 64.5t49 63t79 54.5t111.5 40l39 -6v-47q-118 -18 -180.5 -81t-47.5 -126q12 -56 87 -69.5t175 24.5z" />
    <glyph glyph-name="endash" unicode="&#x2013;" horiz-adv-x="962" 
d="M850 573h-748l11 58h747z" />
    <glyph glyph-name="emdash" unicode="&#x2014;" horiz-adv-x="1128" 
d="M1016 571h-914l11 60h913z" />
    <glyph glyph-name="quoteleft" unicode="&#x2018;" horiz-adv-x="296" 
d="M195 1067l-37 -27q-45 81 -53.5 144.5t12.5 167.5h57q-21 -105 -15 -163t36 -122z" />
    <glyph glyph-name="quoteright" unicode="&#x2019;" horiz-adv-x="296" 
d="M139 1040l-37 27q30 64 36 122t-15 163h57q21 -104 12.5 -167.5t-53.5 -144.5z" />
    <glyph glyph-name="quotesinglbase" unicode="&#x201a;" horiz-adv-x="382" 
d="M129 -178l-27 26q53 66 82 129t39 156h58q-18 -107 -47.5 -169t-104.5 -142z" />
    <glyph glyph-name="quotedblleft" unicode="&#x201c;" horiz-adv-x="423" 
d="M195 1067l-37 -27q-45 81 -53.5 144.5t12.5 167.5h57q-21 -105 -15 -163t36 -122zM322 1067l-37 -27q-45 81 -53.5 144.5t12.5 167.5h57q-21 -105 -15 -163t36 -122z" />
    <glyph glyph-name="quotedblright" unicode="&#x201d;" horiz-adv-x="423" 
d="M139 1040l-37 27q30 64 36 122t-15 163h57q21 -104 12.5 -167.5t-53.5 -144.5zM266 1040l-37 27q30 64 36 122t-15 163h57q21 -104 12.5 -167.5t-53.5 -144.5z" />
    <glyph glyph-name="quotedblbase" unicode="&#x201e;" horiz-adv-x="501" 
d="M129 -178l-27 26q53 66 82 129t39 156h58q-18 -107 -47.5 -169t-104.5 -142zM248 -178l-27 26q53 66 82 129t39 156h57q-18 -107 -47 -169t-104 -142z" />
    <glyph glyph-name="dagger" unicode="&#x2020;" horiz-adv-x="880" 
d="M358 453h-55l98 565h-299l11 55h299l43 242h55l-43 -242h311l-10 -55h-311z" />
    <glyph glyph-name="bullet" unicode="&#x2022;" horiz-adv-x="378" 
d="M178 430q-36 0 -58 26t-16 62q6 34 37 59t66 25q34 0 54.5 -25t14.5 -59q-6 -36 -35 -62t-63 -26z" />
    <glyph glyph-name="ellipsis" unicode="&#x2026;" horiz-adv-x="823" 
d="M160 0q-28 0 -45 20t-13 48q4 26 28 45.5t52 19.5q26 0 42 -19.5t12 -45.5q-4 -28 -27 -48t-49 -20zM401 0q-28 0 -44.5 20t-12.5 48q4 26 28 45.5t52 19.5q26 0 42 -19.5t11 -45.5q-4 -28 -27 -48t-49 -20zM645 0q-28 0 -44.5 20t-12.5 48q4 26 28 45.5t52 19.5
q26 0 42 -19.5t11 -45.5q-4 -28 -27 -48t-49 -20z" />
    <glyph glyph-name="perthousand" unicode="&#x2030;" horiz-adv-x="3504" 
d="M516 217q-93 0 -168 28.5t-125 79t-82 120.5t-37 153t9 176q28 160 109.5 293.5t213.5 217t287 83.5q95 0 170.5 -31.5t123.5 -87t77.5 -130.5t32 -162.5t-12.5 -182.5q-20 -115 -72.5 -216.5t-128.5 -177t-179 -119.5t-218 -44zM844 -2h-60l807 1352h60zM526 264
q197 0 349.5 146.5t191.5 363.5q28 155 -7 280t-125.5 196t-219.5 71q-195 0 -354.5 -156.5t-200.5 -390.5q-37 -216 66 -363t300 -147zM1704 0q-153 0 -255 75.5t-139 201t-10 280.5q21 119 74 226t130.5 189t183.5 130.5t223 48.5q95 0 170.5 -31.5t123.5 -87t77.5 -130.5
t32 -162.5t-12.5 -182.5q-20 -115 -72.5 -216.5t-128.5 -177t-179 -119.5t-218 -44zM2789 0q-93 0 -168 28.5t-125 79t-82 120.5t-37 153t9 176q28 160 109.5 293.5t213.5 217t287 83.5q95 0 170.5 -31.5t123.5 -87t77.5 -130.5t32 -162.5t-12.5 -182.5
q-20 -115 -72.5 -216.5t-128.5 -177t-179 -119.5t-218 -44zM1714 47q197 0 349.5 146.5t191.5 363.5q28 155 -7 280t-125.5 196t-219.5 71q-195 0 -354.5 -156.5t-200.5 -390.5q-37 -216 66 -363t300 -147zM2800 47q197 0 349 146.5t191 363.5q28 155 -7 280t-125.5 196
t-219.5 71q-195 0 -354.5 -156.5t-200.5 -390.5q-37 -216 66.5 -363t300.5 -147z" />
    <glyph glyph-name="guilsinglleft" unicode="&#x2039;" horiz-adv-x="776" 
d="M182 541l340 -375l-78 2l-342 373l498 372h74z" />
    <glyph glyph-name="guilsinglright" unicode="&#x203a;" horiz-adv-x="761" 
d="M182 168l-80 -2l478 375l-357 372h74l362 -372z" />
    <glyph glyph-name="fraction" unicode="&#x2044;" horiz-adv-x="1071" 
d="M162 0h-60l807 1352h60z" />
    <glyph glyph-name="Euro" unicode="&#x20ac;" horiz-adv-x="1667" 
d="M1053 1315q-142 0 -282 -64.5t-253 -185.5t-166 -274h299l-10 -58h-305l-12 -57q-5 -26 -9 -64h306l-11 -57h-297q1 -149 69 -268t184 -184.5t257 -65.5q157 0 311 81.5t261 217.5l39 -39q-112 -145 -277.5 -231t-345.5 -86q-167 0 -295.5 74.5t-196.5 205t-65 295.5
h-152l11 57h145q5 48 8 64l13 57h-144l10 58h150q54 164 167.5 295.5t270.5 208.5t328 77q181 0 311 -84t193 -229l-54 -35q-60 135 -182.5 213t-275.5 78z" />
    <glyph glyph-name="trademark" unicode="&#x2122;" horiz-adv-x="1368" 
d="M266 659h-49l117 641l-232 3l9 49h563l139 -639l373 639h80l-123 -693h-49l112 639l-372 -639h-62l-137 641l-115 -641h-51l115 644l-199 -3z" />
    <glyph glyph-name="minus" unicode="&#x2212;" horiz-adv-x="763" 
d="M651 471h-549l11 57h549z" />
    <glyph glyph-name="BeeType" horiz-adv-x="1462" 
d="M1360 428h-1258v369h1258v-369zM176 688v-166h90q64 0 64 45q0 30 -31 41q23 19 23 37q0 22 -17 32.5t-43 10.5h-86zM358 688v-166h129v31h-90v39h76v29h-76v36h86v31h-125zM518 688v-166h127v31h-90v39h76v29h-76v36h86v31h-123zM711 657v-135h37v135h55v31h-146v-31h54
zM872 582v-60h39v60l64 106h-39l-43 -74l-43 74h-43zM989 688v-166h39v47h33q72 0 72 60q0 29 -19.5 44t-52.5 15h-72zM1159 688v-166h129v31h-90v39h78v29h-78v36h88v31h-127zM254 621h-39v38h39q27 0 27 -20q0 -18 -27 -18zM1059 600h-31v57h31q35 0 35 -28
q0 -17 -8.5 -23t-26.5 -6zM262 551h-47v41h47q29 0 29 -21q0 -20 -29 -20z" />
    </font>
</defs>
</svg>
