<?xml version="1.0" standalone="no"?>
<!DOCTYPE svg PUBLIC "-//W3C//DTD SVG 1.1//EN" "http://www.w3.org/Graphics/SVG/1.1/DTD/svg11.dtd" >
<svg xmlns="http://www.w3.org/2000/svg" xmlns:xlink="http://www.w3.org/1999/xlink" version="1.1">
<metadata>
Created by FontForge 20201107 at Tue Apr 15 18:23:00 2025
 By 
Copyright (c) 2022 by beetype. All rights reserved.
</metadata>
<defs>
<font id="Aloevera-Medium" horiz-adv-x="0" >
  <font-face 
    font-family="Aloevera-Medium"
    font-weight="500"
    font-stretch="normal"
    units-per-em="2048"
    panose-1="1 0 0 0 0 0 0 0 0 0"
    ascent="1638"
    descent="-410"
    x-height="1038"
    cap-height="1352"
    bbox="-696 -523.469 3678 1837"
    underline-thickness="102"
    underline-position="-255"
    unicode-range="U+0020-2212"
  />
<missing-glyph horiz-adv-x="1372" 
d="M348 211q-60 0 -123 24t-110 74t-47 113q0 126 154 232t384 132l19 2q-15 17 -27 46t-12 49q0 49 37 86q10 10 10 14q0 8 -8 16q-16 21 -78 93q-13 17 3 32q17 16 34 -3q2 -2 4 -5q46 -73 61 -100q8 -14 13 -16.5t18 -0.5q28 8 55 0q14 -4 24 11q2 2 3 4l65 104
q9 12 21 10t15.5 -12.5t-3.5 -23.5l-35 -45l-39 -54q-6 -7 7 -20q41 -47 41 -92q0 -37 -37 -97q134 -20 250.5 -73t188 -128t71.5 -153q0 -58 -48.5 -106.5t-111.5 -72.5t-119 -24q-85 0 -167 57.5t-132 149.5l-33 60l-37 -66q-49 -87 -131 -152t-180 -65zM348 264
q152 0 266 195q3 5 12.5 21.5t17 28.5t17 25.5t18.5 21t17 7.5q14 0 27.5 -15.5t30.5 -47.5t22 -39q116 -178 252 -178q70 0 148 45.5t75 103.5q-3 55 -46 105.5t-107 85.5t-139 61.5t-143.5 39.5t-119.5 13q-85 0 -184 -23.5t-187 -63t-146 -100t-58 -126.5t75 -113
t152 -47z" />
    <glyph glyph-name=".notdef" horiz-adv-x="1372" 
d="M348 211q-60 0 -123 24t-110 74t-47 113q0 126 154 232t384 132l19 2q-15 17 -27 46t-12 49q0 49 37 86q10 10 10 14q0 8 -8 16q-16 21 -78 93q-13 17 3 32q17 16 34 -3q2 -2 4 -5q46 -73 61 -100q8 -14 13 -16.5t18 -0.5q28 8 55 0q14 -4 24 11q2 2 3 4l65 104
q9 12 21 10t15.5 -12.5t-3.5 -23.5l-35 -45l-39 -54q-6 -7 7 -20q41 -47 41 -92q0 -37 -37 -97q134 -20 250.5 -73t188 -128t71.5 -153q0 -58 -48.5 -106.5t-111.5 -72.5t-119 -24q-85 0 -167 57.5t-132 149.5l-33 60l-37 -66q-49 -87 -131 -152t-180 -65zM348 264
q152 0 266 195q3 5 12.5 21.5t17 28.5t17 25.5t18.5 21t17 7.5q14 0 27.5 -15.5t30.5 -47.5t22 -39q116 -178 252 -178q70 0 148 45.5t75 103.5q-3 55 -46 105.5t-107 85.5t-139 61.5t-143.5 39.5t-119.5 13q-85 0 -184 -23.5t-187 -63t-146 -100t-58 -126.5t75 -113
t152 -47z" />
    <glyph glyph-name=".null" 
 />
    <glyph glyph-name="nonmarkingreturn" horiz-adv-x="682" 
 />
    <glyph glyph-name="space" unicode=" " horiz-adv-x="512" 
 />
    <glyph glyph-name="exclam" unicode="!" horiz-adv-x="432" 
d="M301 319h-178l-35 1033h238zM217 -10q-64 0 -103.5 36t-39.5 97q0 58 40.5 95.5t102.5 37.5q66 0 107 -36.5t41 -96.5q0 -59 -42 -96t-106 -37z" />
    <glyph glyph-name="quotedbl" unicode="&#x22;" horiz-adv-x="733" 
d="M373 1018l-164 -98q-53 61 -82 106.5t-44 93.5t-16 101.5t1 130.5h221q-7 -125 9 -184.5t75 -149.5zM666 1018l-164 -98q-69 81 -100 141.5t-38.5 120.5t-3.5 170h224q-7 -125 8.5 -184.5t73.5 -149.5z" />
    <glyph glyph-name="numbersign" unicode="#" horiz-adv-x="1382" 
d="M348 0h-219l100 309h-161l2 201h219l121 352h-197l2 201h252l90 289h219l-90 -289h242l90 289h219l-90 -289h170l-2 -201h-228l-120 -352h204l-4 -201h-260l-100 -309h-217l102 309h-243zM623 862l-113 -352h242l114 352h-243z" />
    <glyph glyph-name="dollar" unicode="$" horiz-adv-x="1005" 
d="M608 0h-229v154q-138 29 -221 116t-84 226l219 -4q12 -170 219 -181q72 -5 133 32t64 99q1 66 -46 99.5t-159 52.5q-83 11 -144 24.5t-118 36.5t-92.5 54t-57 77.5t-22.5 106.5q-3 120 80.5 202.5t224.5 102.5v166h229v-170q148 -22 232.5 -106.5t91.5 -229.5h-219
q-6 84 -64 128t-156 44q-82 2 -135 -38.5t-53 -104.5q1 -60 50 -91.5t165 -52.5q95 -17 155.5 -32t116.5 -39t86 -56t47.5 -78.5t16.5 -109.5q-1 -123 -91.5 -198t-238.5 -87v-143z" />
    <glyph glyph-name="percent" unicode="%" horiz-adv-x="2443" 
d="M551 352q-142 0 -254 68.5t-170.5 181.5t-58.5 248q0 140 58.5 256t171 186t257.5 70t256 -70t168 -185.5t57 -256.5q0 -135 -59.5 -248t-171.5 -181.5t-254 -68.5zM1061 0h-240l563 1352h240zM553 578q117 0 187.5 77.5t70.5 194.5q1 132 -68 209.5t-186 77.5
q-120 0 -193 -78.5t-73 -208.5q2 -117 73 -194.5t189 -77.5zM1892 0q-143 0 -254.5 68.5t-170 181t-58.5 248.5q0 140 58.5 256t170.5 186t256 70q145 0 257 -70t169.5 -186t57.5 -256q0 -135 -60 -248t-172 -181.5t-254 -68.5zM1894 225q117 0 187.5 78t70.5 195
q1 132 -68 209t-188 77q-120 0 -192 -78t-72 -208q2 -117 73 -195t189 -78z" />
    <glyph glyph-name="ampersand" unicode="&#x26;" horiz-adv-x="1462" 
d="M549 -20q-197 -12 -330.5 90.5t-148.5 275.5q-8 92 20 168.5t79.5 125t110 78t119.5 40.5q-166 136 -166 289q-3 150 121.5 238.5t309.5 86.5q214 -2 343 -129t123 -344h-229q-3 135 -63 215t-176 80q-90 0 -143.5 -44.5t-53.5 -121.5q0 -60 33.5 -110.5t109.5 -126.5
l789 -791h-271l-256 248q-21 -111 -108 -186.5t-213 -81.5zM532 164q82 2 151 66.5t73 154.5l-240 242q-61 -3 -114.5 -34t-86 -88t-26.5 -126q6 -91 75.5 -153.5t167.5 -61.5z" />
    <glyph glyph-name="quotesingle" unicode="'" horiz-adv-x="442" 
d="M375 1018l-164 -98q-52 61 -80.5 106.5t-44 93.5t-17 101.5t0.5 130.5h223q-7 -125 8.5 -184.5t73.5 -149.5z" />
    <glyph glyph-name="parenleft" unicode="(" horiz-adv-x="712" 
d="M647 51l-119 -164q-69 41 -125.5 84.5t-121 114t-108.5 151.5t-74 196.5t-31 248.5q-1 113 26 222.5t81.5 214t145 197.5t209.5 161l115 -154q-77 -52 -136.5 -110t-111 -135t-79.5 -176.5t-29 -215.5q1 -103 24 -195.5t58.5 -158.5t85 -123t94.5 -93t96 -65z" />
    <glyph glyph-name="parenright" unicode=")" horiz-adv-x="712" 
d="M186 -113l-118 164q51 29 96 65t94.5 93t85 123t58.5 158.5t24 195.5q-1 116 -29 215.5t-80 176.5t-111 134.5t-136 110.5l114 154q118 -68 208.5 -161t145 -197.5t82 -214t27.5 -222.5q-1 -133 -31 -248.5t-74 -196.5t-108.5 -151.5t-121.5 -114t-126 -84.5z" />
    <glyph glyph-name="asterisk" unicode="*" horiz-adv-x="821" 
d="M483 686h-157l14 182l-127 -135l-102 109l159 127l-202 -15v152l202 -16l-155 133l108 98l123 -154l-4 185h145l-2 -183l117 146l103 -103l-150 -120l199 10l-4 -158l-187 12l139 -125l-98 -108l-133 147z" />
    <glyph glyph-name="plus" unicode="+" horiz-adv-x="890" 
d="M559 244h-229v274h-262v201h262v264h229v-264h266v-201h-266v-274z" />
    <glyph glyph-name="comma" unicode="," horiz-adv-x="448" 
d="M229 -182l-161 108q59 82 76.5 150t7.5 176h229q0 -150 -31.5 -242t-120.5 -192z" />
    <glyph glyph-name="hyphen" unicode="-" horiz-adv-x="798" 
d="M731 428h-663v219h663v-219z" />
    <glyph glyph-name="period" unicode="." horiz-adv-x="401" 
d="M201 4q-55 0 -94 39t-39 94q0 54 39 93.5t94 39.5q54 0 93.5 -39.5t39.5 -93.5q0 -55 -39.5 -94t-93.5 -39z" />
    <glyph glyph-name="slash" unicode="/" horiz-adv-x="952" 
d="M317 0h-249l567 1352h250z" />
    <glyph glyph-name="zero" unicode="0" horiz-adv-x="1409" 
d="M705 -20q-188 0 -334.5 90t-224.5 243.5t-78 343.5q0 144 45.5 274t127 228t203 155.5t265.5 57.5q146 0 267 -57.5t200 -156t122 -227.5t43 -274q0 -191 -77.5 -344.5t-223.5 -243t-335 -89.5zM707 193q179 0 291.5 128.5t113.5 335.5q0 225 -111.5 364.5t-289.5 139.5
q-181 0 -297.5 -140.5t-116.5 -363.5q1 -207 115.5 -335.5t294.5 -128.5z" />
    <glyph glyph-name="one" unicode="1" horiz-adv-x="505" 
d="M438 0h-229v1071h-141v199q52 0 95 21.5t44 60.5h227z" />
    <glyph glyph-name="two" unicode="2" horiz-adv-x="1144" 
d="M1061 0h-957v176l308 258q31 26 83 69t77.5 64t66 56t60.5 54.5t48 48.5t41.5 49t28 44.5t20.5 47t7 46.5q6 116 -67.5 183.5t-207.5 66.5q-107 0 -182 -64.5t-88 -180.5h-231q3 211 137.5 328.5t349.5 125.5q114 4 212.5 -26.5t166 -87t104.5 -136.5t35 -172
q-1 -63 -19.5 -119.5t-46.5 -102.5t-81.5 -102t-105.5 -102.5t-137 -119.5q-36 -30 -54 -46l-170 -149h602v-209z" />
    <glyph glyph-name="three" unicode="3" horiz-adv-x="1120" 
d="M551 -20q-75 0 -141.5 14t-128.5 47.5t-106.5 83.5t-71 127t-27.5 174h198q2 -248 277 -248q129 0 200.5 56.5t71.5 156.5q0 58 -23 97.5t-67.5 61.5t-99 31t-127.5 9h-201v168h193q75 0 129.5 9.5t98.5 31.5t66.5 63.5t22.5 102.5q0 105 -70 158t-202 53
q-269 0 -277 -244h-198q1 115 42.5 202.5t111.5 138t153.5 75t177.5 24.5q226 0 358.5 -102t132.5 -297q0 -110 -53.5 -189.5t-138.5 -103.5q86 -25 143.5 -103.5t57.5 -193.5q0 -127 -70 -220.5t-182 -138t-250 -44.5z" />
    <glyph glyph-name="four" unicode="4" horiz-adv-x="1226" 
d="M973 0h-230v272l-675 4v166l700 910h207l-2 -881h186v-199h-186v-272zM745 1001l-393 -528h391z" />
    <glyph glyph-name="five" unicode="5" horiz-adv-x="1175" 
d="M592 -20q-100 -2 -193 31t-167 93.5t-118.5 155.5t-45.5 209h229q1 -88 45.5 -154t110 -97t139.5 -30q130 3 207.5 83t79.5 212q1 136 -77 221.5t-194 88.5q-200 6 -305 -170l-227 79l129 650h758v-209h-574l-70 -340q57 70 154 109t203 34q188 -6 311.5 -135.5
t120.5 -339.5q-1 -100 -38 -189t-102 -155.5t-162.5 -106t-213.5 -40.5z" />
    <glyph glyph-name="six" unicode="6" horiz-adv-x="1189" 
d="M598 -20q-92 -2 -180.5 31t-162.5 95t-123.5 161t-59.5 220q-8 69 -3.5 142.5t13.5 147t32 145t53.5 136t78 120t104.5 97t133.5 67t165.5 30.5q244 11 408 -133l-123 -152q-57 49 -133 71t-156 16q-124 -7 -207 -99t-112 -254q50 63 129.5 97t179.5 34q131 4 242.5 -53
t180 -169.5t66.5 -256.5q-5 -223 -147 -356.5t-379 -136.5zM598 188q132 3 212.5 83.5t82.5 205.5q1 127 -77 211.5t-198 87.5q-140 5 -233.5 -73.5t-83.5 -215.5q11 -139 98.5 -220t198.5 -79z" />
    <glyph glyph-name="seven" unicode="7" horiz-adv-x="993" 
d="M403 0h-251l514 1145l-598 -2v209h860v-189z" />
    <glyph glyph-name="eight" unicode="8" horiz-adv-x="1187" 
d="M586 -20q-220 0 -366.5 114t-151.5 271q-4 145 79.5 236.5t212.5 121.5q-110 29 -183 108t-77 185q-6 154 126 255t358 101q222 0 358 -100.5t131 -257.5q-3 -105 -72 -182.5t-174 -106.5q136 -31 216.5 -121t76.5 -239q-5 -164 -153.5 -274.5t-380.5 -110.5zM588 803
q64 0 120.5 19.5t95.5 61t40 97.5q1 49 -22.5 87.5t-63 60.5t-83.5 33.5t-89 11.5q-47 0 -90 -10t-82.5 -31t-62.5 -60.5t-21 -91.5q3 -79 81.5 -128.5t176.5 -49.5zM588 178q81 0 148 24.5t109.5 75t43.5 119.5q2 101 -76.5 170.5t-222.5 69.5q-124 0 -208.5 -71.5
t-82.5 -168.5q1 -63 42 -114t106.5 -78t140.5 -27z" />
    <glyph glyph-name="nine" unicode="9" horiz-adv-x="1189" 
d="M592 1370q92 2 181 -31t163.5 -95.5t124 -161.5t59.5 -220q9 -115 -2 -230t-50.5 -231.5t-104.5 -206.5t-173.5 -150t-248.5 -67q-240 -11 -408 134l123 151q114 -96 289 -86q124 7 207 98.5t114 253.5q-51 -63 -131 -97t-178 -34q-131 -4 -243 54t-180 170.5t-66 255.5
q3 223 144.5 356.5t379.5 136.5zM592 1161q-130 -1 -211.5 -82.5t-83.5 -204.5q-1 -127 77.5 -212.5t198.5 -88.5q141 -3 234 74.5t82 214.5q-10 139 -98 220t-199 79z" />
    <glyph glyph-name="colon" unicode=":" horiz-adv-x="403" 
d="M201 870q-55 0 -94 39t-39 95q0 54 39 93.5t94 39.5q54 0 93.5 -39.5t39.5 -93.5q0 -55 -39.5 -94.5t-93.5 -39.5zM203 152q-55 0 -94 39t-39 94q0 54 39 93.5t94 39.5q54 0 93.5 -39.5t39.5 -93.5q0 -55 -39.5 -94t-93.5 -39z" />
    <glyph glyph-name="semicolon" unicode=";" horiz-adv-x="479" 
d="M281 870q-56 0 -96 39.5t-40 94.5q0 54 40.5 93.5t95.5 39.5q54 0 93.5 -39.5t39.5 -93.5q0 -55 -39.5 -94.5t-93.5 -39.5zM229 -150l-161 109q59 82 76.5 150t7.5 176h229q0 -151 -32 -243t-120 -192z" />
    <glyph glyph-name="less" unicode="&#x3c;" horiz-adv-x="888" 
d="M791 227h-285l-438 402l460 399h295l-467 -401z" />
    <glyph glyph-name="equal" unicode="=" horiz-adv-x="720" 
d="M651 664h-583v208h583v-208zM655 369h-587v209h587v-209z" />
    <glyph glyph-name="greater" unicode="&#x3e;" horiz-adv-x="878" 
d="M373 227h-275l434 400l-464 401h282l463 -399z" />
    <glyph glyph-name="question" unicode="?" horiz-adv-x="1150" 
d="M377 258h-230v88q0 69 24 122t64.5 86t93.5 58t111 42t116.5 32.5t111.5 35t94 44.5t66 65.5t26 94.5q1 121 -74.5 185.5t-212.5 62.5q-117 -2 -193 -60.5t-77 -173.5h-229q-4 126 62 225t179.5 152.5t251.5 54.5q232 1 378.5 -124.5t143.5 -321.5q-1 -79 -25.5 -141.5
t-66 -102.5t-94.5 -71t-111 -50t-116.5 -35t-111 -31t-93 -33.5t-64.5 -47t-24 -66.5v-90zM264 -10q-58 0 -92.5 30t-34.5 76q0 43 34.5 73t92.5 30q55 0 89 -30t34 -73q0 -45 -33.5 -75.5t-89.5 -30.5z" />
    <glyph glyph-name="at" unicode="@" horiz-adv-x="1568" 
d="M705 -96q-152 -1 -277.5 54t-208 152t-122 231t-25.5 286q19 206 129 373.5t283.5 262t373.5 93.5q309 -2 488.5 -203.5t150.5 -517.5q-19 -193 -109.5 -332.5t-222.5 -171.5q-91 -31 -149 9t-55 116l10 104q-34 -56 -98.5 -101t-137.5 -56q-134 -21 -224 47t-93 184
q-2 102 69 178.5t203 106.5q141 36 293 29q6 84 -37 130t-127 46q-77 0 -133.5 -38.5t-73.5 -113.5h-157q31 142 134.5 218.5t237.5 76.5q164 0 241.5 -105t66.5 -284q-11 -159 -50 -346q-5 -26 7 -43.5t36 -14t48 32.5q103 112 127 334q13 120 -16.5 222.5t-92 171.5
t-152.5 108t-196 39t-205.5 -39t-179 -109.5t-132 -176t-63.5 -230.5q-15 -164 39 -290t165 -193t259 -64q81 0 154 24l-4 -178q-84 -19 -174 -22zM766 352q82 18 142.5 81t66.5 145l4 49q-126 9 -248 -29q-73 -23 -111.5 -66t-33.5 -96q6 -51 58.5 -74.5t121.5 -9.5z" />
    <glyph glyph-name="A" unicode="A" horiz-adv-x="1566" 
d="M319 0h-251l598 1352h231l604 -1352h-252l-186 416l-559 2zM782 1044l-194 -438h391z" />
    <glyph glyph-name="B" unicode="B" horiz-adv-x="1155" 
d="M592 0h-524v1352h522q122 0 212.5 -26.5t143.5 -74.5t78 -109t25 -136q0 -97 -63 -169.5t-173 -103.5q118 -34 196 -118t78 -209q0 -55 -13.5 -108t-49 -108t-89.5 -96.5t-142.5 -67.5t-200.5 -26zM309 1143v-330h242q129 0 193.5 39t64.5 123q0 90 -61 129t-189 39h-250
zM309 631v-422h258q149 0 215 58t66 155q0 95 -70.5 152t-218.5 57h-250z" />
    <glyph glyph-name="C" unicode="C" horiz-adv-x="1437" 
d="M768 -20q-191 0 -351 86.5t-255.5 247t-93.5 362.5q1 153 57 284t151 220.5t223 140.5t271 51q191 0 346.5 -86.5t245.5 -245.5l-207 -98q-60 105 -161 163t-224 58q-192 0 -327.5 -137t-135.5 -350q1 -139 63.5 -251.5t167.5 -174.5t230 -62q127 0 231 63.5t164 176.5
l209 -90q-87 -168 -246 -263t-358 -95z" />
    <glyph glyph-name="D" unicode="D" horiz-adv-x="1347" 
d="M549 0h-481v1352h491q112 0 216 -24.5t197 -78t161.5 -129.5t108.5 -186.5t40 -243.5q0 -206 -99.5 -365t-265.5 -242t-368 -83zM309 1143v-934h244q146 0 258 63.5t170 169.5t59 236q0 209 -127.5 337t-347.5 128h-256z" />
    <glyph glyph-name="E" unicode="E" horiz-adv-x="1069" 
d="M999 4h-931v1348h936v-240h-697v-328h619v-209h-619v-331h692v-240z" />
    <glyph glyph-name="F" unicode="F" horiz-adv-x="1069" 
d="M307 0h-239v1352h936v-240h-697v-328h567v-209h-567v-575z" />
    <glyph glyph-name="G" unicode="G" horiz-adv-x="1437" 
d="M768 -20q-191 0 -351 86.5t-255.5 247t-93.5 362.5q1 153 57 284t151 220.5t223 140.5t271 51q191 0 346.5 -86.5t245.5 -245.5l-207 -98q-60 105 -161 163t-224 58q-192 0 -327.5 -137t-135.5 -350q1 -139 63.5 -251.5t167.5 -174.5t230 -62q278 0 391 207v193h-362v157
h575v-407q-85 -168 -244.5 -263t-359.5 -95z" />
    <glyph glyph-name="H" unicode="H" horiz-adv-x="1157" 
d="M307 0h-239v1352h239v-574h543v574h240v-1352h-240v569h-543v-569z" />
    <glyph glyph-name="I" unicode="I" horiz-adv-x="362" 
d="M297 0h-229v1352h229v-1352z" />
    <glyph glyph-name="J" unicode="J" horiz-adv-x="1095" 
d="M555 -20q-72 0 -139.5 15.5t-130 50t-109.5 86t-76.5 128.5t-31.5 172h219q12 -117 83 -185.5t185 -68.5q119 0 186.5 80.5t67.5 194.5v899h219v-891q0 -126 -41.5 -222.5t-111 -151t-150.5 -81t-170 -26.5z" />
    <glyph glyph-name="K" unicode="K" horiz-adv-x="1257" 
d="M309 0h-241v1352h239l2 -617l604 617h277l-526 -553l491 -799h-262l-391 623l-193 -199v-424z" />
    <glyph glyph-name="L" unicode="L" horiz-adv-x="1046" 
d="M979 0h-911v1352h239v-1143h672v-209z" />
    <glyph glyph-name="M" unicode="M" horiz-adv-x="1517" 
d="M307 0h-239v1352h258l430 -932l438 932h258v-1352h-242v901l-379 -901h-155l-369 897v-897z" />
    <glyph glyph-name="N" unicode="N" horiz-adv-x="1230" 
d="M307 0h-239v1352h213l643 -951v951h239v-1352h-211l-645 940v-940z" />
    <glyph glyph-name="O" unicode="O" horiz-adv-x="1538" 
d="M774 -20q-192 0 -353.5 86.5t-258 246t-94.5 359.5q1 153 57.5 285t152 222.5t225 141.5t273.5 51q145 0 274 -52t222.5 -143t147.5 -222.5t53 -282.5q-1 -148 -56 -277t-148.5 -220t-222 -143t-272.5 -52zM774 190q94 0 178 36.5t145 99.5t97 153t37 193q0 217 -131 354
t-324 137q-94 0 -179 -36t-149 -99t-101.5 -156t-37.5 -200q1 -103 38 -193t99 -153t147.5 -99.5t180.5 -36.5z" />
    <glyph glyph-name="P" unicode="P" horiz-adv-x="1165" 
d="M307 0h-239v1352h528q84 0 155.5 -14t122.5 -38t91 -57.5t65 -70.5t41 -79.5t22.5 -82t6.5 -80.5q0 -83 -28 -154t-85.5 -128.5t-157.5 -90.5t-233 -33h-289v-524zM307 1143v-410h289q131 0 196.5 47t65.5 150q0 98 -63 155.5t-201 57.5h-287z" />
    <glyph glyph-name="Q" unicode="Q" horiz-adv-x="1576" 
d="M1354 -8l139 -176q-95 -80 -197 -123.5t-191 -48t-171 18.5t-142 71t-98 116t-45 146q-164 26 -296 116.5t-209 237t-76 322.5q1 153 57.5 285t152 222.5t224.5 141.5t272 51q194 0 353 -88t251.5 -249t91.5 -363q-1 -131 -44.5 -248t-120 -204.5t-181 -146t-225.5 -79.5
q5 -62 57.5 -98t122 -37.5t147 33t128.5 100.5zM772 190q126 0 230.5 62.5t165 173t61.5 246.5q0 217 -131 354t-324 137q-93 0 -178 -35.5t-148.5 -98.5t-101 -156t-37.5 -201q1 -135 63.5 -246t168 -173.5t231.5 -62.5z" />
    <glyph glyph-name="R" unicode="R" horiz-adv-x="1165" 
d="M307 0h-239v1352h528q117 0 208 -26t145.5 -67t89.5 -98t48 -113.5t13 -119.5q0 -75 -17.5 -139.5t-54.5 -120.5t-103.5 -93.5t-156.5 -48.5l-74 -2l326 -524h-268l-320 524h-125v-524zM307 1143v-420h289q262 0 262 205q0 98 -63 156.5t-201 58.5h-287z" />
    <glyph glyph-name="S" unicode="S" horiz-adv-x="1163" 
d="M590 -20q-133 2 -244.5 51.5t-183 148t-76.5 228.5h219q4 -62 34 -110.5t75 -75t92 -40t92 -14.5q108 0 186.5 47.5t81.5 146.5q3 101 -70.5 152.5t-234.5 77.5q-233 31 -363 129t-130 272q0 115 65.5 202.5t172.5 132t237 44.5q134 0 248 -48.5t187 -146.5t77 -227h-221
q-5 80 -49.5 134.5t-106 77t-135.5 22.5q-101 0 -173 -52.5t-73 -142.5q0 -84 70 -135t219 -74q262 -39 389 -142.5t121 -293.5q-3 -94 -46.5 -167t-115 -115.5t-159 -63t-185.5 -18.5z" />
    <glyph glyph-name="T" unicode="T" horiz-adv-x="1214" 
d="M723 0h-240l4 1143h-419v209h1079v-209h-420z" />
    <glyph glyph-name="U" unicode="U" horiz-adv-x="1243" 
d="M623 -20q-253 0 -404 146.5t-151 385.5v840h239v-820q0 -155 82.5 -249.5t235.5 -94.5q150 0 230.5 94.5t80.5 249.5v820h240v-840q0 -237 -151 -384.5t-402 -147.5z" />
    <glyph glyph-name="V" unicode="V" horiz-adv-x="1447" 
d="M827 0h-229l-530 1352h249l400 -1035l416 1035h249z" />
    <glyph glyph-name="W" unicode="W" horiz-adv-x="2119" 
d="M725 0h-229l-428 1352h249l304 -1033l307 1033h252l280 -1033l342 1033h250l-475 -1352h-229l-297 1059z" />
    <glyph glyph-name="X" unicode="X" horiz-adv-x="1357" 
d="M319 0h-251l485 686l-481 666h252l356 -502l356 502h250l-481 -666l487 -686h-252l-360 524z" />
    <glyph glyph-name="Y" unicode="Y" horiz-adv-x="1470" 
d="M848 0h-230l3 557l-553 795h249l418 -607l418 607h250l-555 -795v-557z" />
    <glyph glyph-name="Z" unicode="Z" horiz-adv-x="1122" 
d="M1038 0h-952v201l696 942h-702v209h969v-199l-693 -944h682v-209z" />
    <glyph glyph-name="bracketleft" unicode="[" horiz-adv-x="575" 
d="M510 -193h-442v1741h442v-200h-213v-1340h213v-201z" />
    <glyph glyph-name="backslash" unicode="\" horiz-adv-x="952" 
d="M317 1352l568 -1352h-250l-567 1352h249z" />
    <glyph glyph-name="bracketright" unicode="]" horiz-adv-x="575" 
d="M510 1548v-1741h-442v201h213v1340h-213v200h442z" />
    <glyph glyph-name="asciicircum" unicode="^" horiz-adv-x="897" 
d="M266 702h-198l317 650h137l307 -647h-198l-180 378z" />
    <glyph glyph-name="underscore" unicode="_" horiz-adv-x="946" 
d="M879 0h-811v199h811v-199z" />
    <glyph glyph-name="a" unicode="a" horiz-adv-x="1300" 
d="M586 -20q-222 -1 -370 153.5t-148 380.5q0 252 142 399.5t363 145.5q141 0 259 -73.5t161 -199.5v252h240v-1038h-240v256q-41 -122 -156.5 -199t-250.5 -77zM645 180q137 2 237.5 97t100.5 239q0 155 -98.5 248.5t-239.5 95.5q-144 2 -241 -89.5t-97 -254.5
q0 -147 99.5 -242.5t238.5 -93.5z" />
    <glyph glyph-name="b" unicode="b" horiz-adv-x="1300" 
d="M715 -20q-135 0 -251 77t-157 199v-256h-239v1352h239v-566q43 126 161 199.5t259 73.5q221 2 363.5 -145.5t142.5 -399.5q0 -226 -148 -380.5t-370 -153.5zM655 180q139 -2 238.5 93.5t99.5 242.5q0 163 -97 254.5t-241 89.5q-142 -2 -240 -94.5t-98 -249.5
q0 -144 100.5 -239t237.5 -97z" />
    <glyph glyph-name="c" unicode="c" horiz-adv-x="1239" 
d="M641 -20q-156 0 -286 66.5t-208 189.5t-79 278q-1 247 161.5 396t411.5 149q180 0 323 -84.5t205 -224.5l-223 -82q-40 88 -123.5 140t-183.5 52q-139 0 -235.5 -96.5t-96.5 -247.5q0 -145 97 -241.5t235 -96.5q103 0 187 55t124 144l221 -84q-66 -142 -207.5 -227.5
t-322.5 -85.5z" />
    <glyph glyph-name="d" unicode="d" horiz-adv-x="1300" 
d="M586 -20q-222 -1 -370 153.5t-148 380.5q0 252 142 399.5t363 145.5q141 0 259 -73.5t161 -199.5v566h240v-1352h-240v256q-41 -122 -156.5 -199t-250.5 -77zM645 180q137 2 237.5 97t100.5 239q0 157 -98 249.5t-240 94.5q-144 2 -241 -89.5t-97 -254.5
q0 -147 99.5 -242.5t238.5 -93.5z" />
    <glyph glyph-name="e" unicode="e" horiz-adv-x="1230" 
d="M621 -20q-146 0 -271.5 65.5t-203.5 190t-78 280.5q0 129 45.5 233.5t122.5 171.5t176 102.5t209 35.5q218 0 368.5 -133.5t171.5 -366.5q6 -45 0 -94l-866 -2q13 -124 109 -204.5t214 -80.5q93 -2 172.5 39t122.5 117l181 -92q-69 -123 -195 -192.5t-278 -69.5zM311 600
l625 2q-20 119 -111 191.5t-204 70.5q-113 0 -202.5 -72t-107.5 -192z" />
    <glyph glyph-name="f" unicode="f" horiz-adv-x="935" 
d="M481 0h-239v653h-174v199h174v113q0 105 40 188t106 130.5t147.5 70t168.5 15.5t166 -40l-41 -205q-63 26 -125 29.5t-112 -15.5t-80.5 -66t-30.5 -116v-104h301v-199h-299z" />
    <glyph glyph-name="g" unicode="g" horiz-adv-x="1232" 
d="M598 -512q-249 0 -388 89.5t-142 252.5q-3 97 53 174.5t141 120.5q-64 42 -61 113q3 77 94 145q-70 46 -109 119.5t-39 159.5q0 184 122.5 290.5t338.5 106.5q90 0 187 -19h348v-178h-168q38 -30 59 -82.5t21 -107.5q0 -179 -121.5 -284t-331.5 -105q-48 0 -135 12
q-77 -38 -80 -90q0 -37 33.5 -49.5t95.5 -12.5h211q92 0 169 -17.5t137.5 -53t93.5 -96.5t32 -142q-3 -346 -561 -346zM602 479q115 0 174.5 50t59.5 143q0 89 -60 139.5t-174 50.5q-235 0 -235 -196q0 -88 58.5 -137.5t176.5 -49.5zM582 -336q181 0 268.5 39t89.5 121
q3 168 -246 168h-176q-104 0 -169 -44t-62 -128q3 -81 75.5 -118.5t219.5 -37.5z" />
    <glyph glyph-name="h" unicode="h" horiz-adv-x="1300" 
d="M317 0h-249v1352h239v-566q43 126 161 199.5t259 73.5q221 2 363.5 -145.5t142.5 -399.5v-514h-240v516q0 163 -97 254.5t-241 89.5q-142 -2 -240 -94.5t-98 -249.5v-516z" />
    <glyph glyph-name="i" unicode="i" horiz-adv-x="401" 
d="M201 1157q-54 0 -93.5 29.5t-39.5 75.5q0 45 39.5 73.5t93.5 28.5t93.5 -28.5t39.5 -73.5q0 -46 -39.5 -75.5t-93.5 -29.5zM319 0h-239v1038h239v-1038z" />
    <glyph glyph-name="j" unicode="j" horiz-adv-x="665" 
d="M465 1155q-54 0 -94.5 29.5t-40.5 75.5q0 44 40.5 73t94.5 29q53 0 93 -29t40 -73q0 -45 -39.5 -75t-93.5 -30zM68 -508l30 215q110 -11 178 38.5t68 158.5v1134h240v-1142q0 -77 -21.5 -143t-58.5 -113t-86.5 -82.5t-107 -52t-119.5 -22t-123 8.5z" />
    <glyph glyph-name="k" unicode="k" horiz-adv-x="1126" 
d="M307 0h-239v1352h241v-723l422 393h260l-420 -420l488 -602h-260l-393 477l-99 -92v-385z" />
    <glyph glyph-name="l" unicode="l" horiz-adv-x="374" 
d="M307 0h-239v1352h239v-1352z" />
    <glyph glyph-name="m" unicode="m" horiz-adv-x="1961" 
d="M315 0h-247v1038h239v-252q25 118 129.5 194.5t225.5 78.5q142 1 244.5 -71.5t148.5 -207.5q44 129 153 205t240 74q203 -2 324.5 -135.5t121.5 -372.5v-551h-239v549q0 145 -74.5 228.5t-204.5 82.5q-125 -1 -196.5 -85.5t-71.5 -227.5v-547h-240v549q0 145 -75 229.5
t-203 81.5q-119 -3 -195 -92.5t-78 -216.5z" />
    <glyph glyph-name="n" unicode="n" horiz-adv-x="1300" 
d="M317 0h-249v1038h239v-252q43 126 161 199.5t259 73.5q221 2 363.5 -145.5t142.5 -399.5v-514h-240v516q1 162 -96 254t-242 90q-142 -2 -240 -94.5t-98 -249.5v-516z" />
    <glyph glyph-name="o" unicode="o" horiz-adv-x="1284" 
d="M641 -20q-156 0 -286 67t-208 190t-79 277q-1 246 162 395.5t411 149.5q251 0 415 -149.5t163 -395.5q-1 -154 -75.5 -276t-206 -190t-296.5 -68zM639 178q141 0 239.5 95t98.5 243q0 151 -97 247.5t-241 96.5q-140 0 -236 -95.5t-96 -248.5q0 -143 97 -240.5t235 -97.5z
" />
    <glyph glyph-name="p" unicode="p" horiz-adv-x="1290" 
d="M307 -360h-239v1382h239v-250q41 121 155.5 199t248.5 78q220 1 366 -152t146 -377q0 -249 -141 -395.5t-359 -144.5q-139 0 -256 73t-160 197v-610zM651 178q141 -2 236.5 89t95.5 251q0 145 -97.5 238.5t-234.5 91.5t-235.5 -94.5t-98.5 -235.5q0 -155 97 -246.5
t237 -93.5z" />
    <glyph glyph-name="q" unicode="q" horiz-adv-x="1290" 
d="M1223 -360h-240v610q-43 -124 -160 -197t-256 -73q-218 -2 -358.5 144.5t-140.5 395.5q0 224 146 377t366 152q134 0 248 -78t155 -199v250h240v-1382zM639 178q140 2 237 93.5t97 246.5q0 143 -98.5 235.5t-235.5 94.5t-234.5 -91.5t-97.5 -238.5q0 -160 95.5 -251
t236.5 -89z" />
    <glyph glyph-name="r" unicode="r" horiz-adv-x="897" 
d="M317 0h-249v1038h239v-276q21 78 76.5 140t128.5 93.5t157 38.5t162 -24l-122 -199q-38 17 -82.5 18t-87.5 -12t-83.5 -40.5t-71 -65t-49 -88.5t-18.5 -107v-516z" />
    <glyph glyph-name="s" unicode="s" horiz-adv-x="1005" 
d="M512 -20q-125 3 -224.5 47t-159 128t-60.5 195h219q7 -96 69 -142.5t158 -49.5q76 -3 134 33t59 98q3 67 -45 100.5t-162 52.5q-83 11 -143.5 24.5t-116.5 36.5t-91 54.5t-56.5 78t-22.5 107.5q-3 142 111 229t298 87q199 0 322.5 -94t132.5 -271h-219q-8 84 -68.5 135
t-157.5 52q-84 1 -136 -39.5t-50 -104.5q0 -63 49.5 -98t167.5 -57q118 -20 188.5 -40t127 -54.5t80 -85.5t22.5 -128q-1 -144 -119.5 -221.5t-306.5 -72.5z" />
    <glyph glyph-name="t" unicode="t" horiz-adv-x="915" 
d="M809 236l41 -207q-79 -33 -165 -40t-166.5 16t-145 70.5t-103.5 130.5t-39 189v445h-163v209q28 0 50 4t38.5 9t28.5 17t20.5 21t13.5 29t8 33t4 40.5t1 43.5t-0.5 51t-0.5 55h240l2 -303h299v-209h-301v-418q0 -68 29.5 -118t76.5 -73t108.5 -22.5t123.5 27.5z" />
    <glyph glyph-name="u" unicode="u" horiz-adv-x="1208" 
d="M526 -20q-208 -2 -333 133.5t-125 375.5v549h239v-549q0 -145 77 -228.5t212 -82.5q137 1 217 99t80 253v508h250v-1038h-242v264q-32 -137 -139.5 -210.5t-235.5 -73.5z" />
    <glyph glyph-name="v" unicode="v" horiz-adv-x="1245" 
d="M737 0h-227l-442 1038h239l316 -778l315 778h240z" />
    <glyph glyph-name="w" unicode="w" horiz-adv-x="1775" 
d="M616 0h-227l-321 1038h239l230 -741l231 741h213l238 -741l249 741h240l-340 -1038h-233l-261 711z" />
    <glyph glyph-name="x" unicode="x" horiz-adv-x="1175" 
d="M309 0h-241l387 526l-371 512h240l264 -362l258 362h241l-364 -512l385 -526h-242l-278 389z" />
    <glyph glyph-name="y" unicode="y" horiz-adv-x="1243" 
d="M68 -178l135 139q26 -34 71.5 -47.5t93 5t72.5 71.5l58 119l-404 929h240l282 -741l320 741h240l-541 -1101q-48 -99 -121.5 -155t-151.5 -64.5t-155.5 18.5t-138.5 86z" />
    <glyph glyph-name="z" unicode="z" horiz-adv-x="931" 
d="M864 0h-794v170l528 670h-530v198h794v-170l-524 -669h526v-199z" />
    <glyph glyph-name="braceleft" unicode="{" horiz-adv-x="577" 
d="M510 141v-192q-170 2 -260.5 81t-83.5 226q5 91 29 236q8 61 -30.5 89t-96.5 25v182q59 -3 96 23.5t26 91.5q-24 143 -28 203q-4 82 23.5 143.5t77 95.5t112 48t133.5 8v-201q-65 0 -105 -35t-34 -100q4 -42 11.5 -101.5t10.5 -84.5q9 -66 -8.5 -111t-67.5 -78
q52 -38 68.5 -85.5t7.5 -112.5q-2 -19 -11.5 -86.5t-14.5 -118.5q-6 -69 37 -105t108 -41z" />
    <glyph glyph-name="bar" unicode="|" horiz-adv-x="344" 
d="M276 -47h-208v1440h208v-1440z" />
    <glyph glyph-name="braceright" unicode="}" horiz-adv-x="577" 
d="M68 -51v192q65 5 108 41t37 105q-5 50 -14.5 116.5t-12.5 88.5q-9 65 7.5 112.5t68.5 85.5q-50 33 -67.5 78t-8.5 111q3 25 11 84.5t12 101.5q6 65 -34 100t-105 35v201q71 6 133.5 -8t112 -48t77 -95.5t23.5 -143.5q-3 -51 -29 -203q-11 -65 26.5 -91.5t96.5 -23.5v-182
q-58 3 -96.5 -25t-30.5 -89q24 -145 29 -236q7 -147 -83.5 -226t-260.5 -81z" />
    <glyph glyph-name="exclamdown" unicode="&#xa1;" horiz-adv-x="432" 
d="M217 1362q64 0 106 -36.5t42 -96.5t-41 -96.5t-107 -36.5q-62 0 -102.5 37.5t-40.5 95.5q0 61 39.5 97t103.5 36zM88 0l35 1034h178l25 -1034h-238z" />
    <glyph glyph-name="cent" unicode="&#xa2;" horiz-adv-x="1230" 
d="M709 0h-181v154q-130 20 -234 91t-164.5 183.5t-61.5 247.5q-1 217 127.5 359.5t334.5 170.5v148h181v-142q153 -13 274.5 -95.5t177.5 -207.5l-225 -84q-38 89 -121 142t-182 53q-137 0 -232.5 -97t-95.5 -247q0 -141 96 -237.5t232 -96.5q102 0 185 54.5t122 144.5
l221 -86q-55 -126 -177 -210.5t-277 -97.5v-147z" />
    <glyph glyph-name="sterling" unicode="&#xa3;" horiz-adv-x="1202" 
d="M987 0h-903v190q115 100 152.5 180.5t19.5 182.5h-182v176h151q-22 34 -41 90.5t-20 110.5q-3 190 130.5 316.5t354.5 125.5q144 -1 255.5 -64.5t171 -172.5t59.5 -244h-203q-3 136 -81.5 209t-197.5 71q-122 -2 -195.5 -67t-72.5 -172q0 -110 64 -205l348 2v-176h-334
q7 -32 7 -63.5t-3.5 -56t-15 -53.5t-20 -47.5t-26.5 -45t-27 -39t-28 -36.5q-7 -9 -10 -13h647v-199z" />
    <glyph glyph-name="yen" unicode="&#xa5;" horiz-adv-x="1470" 
d="M1026 336h-178v-45h180v-137h-180v-154h-230v154h-176v137h179v45h-179v137h179v84l-553 795h249l418 -607l418 607h250l-555 -795v-84h178v-137z" />
    <glyph glyph-name="section" unicode="&#xa7;" horiz-adv-x="978" 
d="M506 -16q-116 1 -211.5 38.5t-157.5 117t-63 188.5l205 -4q12 -162 227 -172q85 -3 146.5 26.5t64.5 85.5q3 74 -45.5 100t-179.5 39q-97 9 -170 28t-130.5 51.5t-88 83.5t-31.5 120q-3 95 86 191q-83 67 -86 178q-3 136 108 224.5t291 88.5q193 0 305.5 -90.5
t116.5 -261.5h-207q-6 88 -63 136t-154 48q-87 2 -142.5 -37t-54.5 -100q0 -57 55.5 -89t172.5 -44q83 -11 141.5 -24.5t110.5 -35t83 -51t48.5 -72t17.5 -98.5q0 -118 -82 -184q43 -23 68.5 -78t25.5 -121q-2 -132 -111.5 -208.5t-295.5 -73.5zM643 551q49 36 49 86
q0 19 -6.5 35t-15 26.5t-27.5 20t-31 14.5t-40.5 10.5t-42 7.5t-46.5 7q-86 12 -151 37q-53 -36 -53 -93q1 -56 50 -82.5t158 -37.5q109 -13 156 -31z" />
    <glyph glyph-name="copyright" unicode="&#xa9;" horiz-adv-x="1222" 
d="M612 283q-153 0 -278.5 72.5t-195.5 196.5t-70 273q0 151 69.5 276t195.5 198t281 73q157 0 282 -74t192 -198.5t67 -274.5q0 -148 -70 -272t-195.5 -197t-277.5 -73zM612 414q175 0 293 117t119 294q1 188 -116.5 303t-291.5 115q-176 0 -297 -115.5t-120 -302.5
q1 -115 55.5 -209t149 -148t208.5 -54zM608 504q-140 0 -238 90.5t-98 228.5q-1 146 94 237t242 91q108 0 191.5 -49t120.5 -135l-107 -41q-28 58 -83.5 93.5t-121.5 35.5q-92 0 -156.5 -64.5t-64.5 -165.5q0 -95 65 -160t156 -65q67 0 123 36t84 95l107 -41
q-38 -86 -122.5 -136t-191.5 -50z" />
    <glyph glyph-name="ordfeminine" unicode="&#xaa;" horiz-adv-x="966" 
d="M436 600q-158 -1 -264 109.5t-106 271.5q0 180 102 285.5t260 103.5q100 0 184 -52t115 -142v180h172v-742h-172v183q-29 -87 -112 -142t-179 -55zM479 743q98 2 170 69.5t72 170.5q0 111 -70.5 177.5t-171.5 68.5q-103 2 -172 -64t-69 -182q0 -105 71 -173.5t170 -66.5z
" />
    <glyph glyph-name="guillemotleft" unicode="&#xab;" horiz-adv-x="1275" 
d="M354 553l418 -385l-295 6l-418 381l443 379h291zM770 543l418 -385l-293 6l-418 381l441 379h290z" />
    <glyph glyph-name="registered" unicode="&#xae;" horiz-adv-x="1095" 
d="M549 379q-133 0 -244 66t-174 179t-63 246q0 207 139 352.5t344 145.5q135 0 245 -67t171 -181t61 -250q0 -204 -139 -347.5t-340 -143.5zM549 475q162 0 270.5 112.5t108.5 280.5q1 182 -107.5 293t-267.5 111q-162 0 -274 -110.5t-111 -293.5q0 -170 110.5 -281.5
t270.5 -111.5zM451 602h-80v549h207q58 0 99.5 -15t61.5 -41t28.5 -53t8.5 -59q0 -147 -137 -160h-39l139 -221h-88l-139 221h-61v-221zM451 1081v-192h127q118 0 118 94q0 42 -29 70t-89 28h-127z" />
    <glyph glyph-name="degree" unicode="&#xb0;" horiz-adv-x="563" 
d="M283 930q-99 0 -157 68t-58 155q0 88 58.5 154.5t158.5 66.5q98 0 155.5 -67t57.5 -154t-56 -155t-159 -68zM283 1057q40 0 65 28t25 66q0 42 -24.5 69t-65.5 27t-67 -27t-26 -69q0 -39 27 -66.5t66 -27.5z" />
    <glyph glyph-name="plusminus" unicode="&#xb1;" horiz-adv-x="890" 
d="M559 432h-229v275h-262v200h262v264h229v-264h266v-200h-266v-275zM797 68h-664v219h664v-219z" />
    <glyph glyph-name="uni00B2" unicode="&#xb2;" horiz-adv-x="806" 
d="M729 459h-637v116l205 173q20 17 55 45.5t51.5 42.5t44 37.5t40.5 36t32 32t28 33t19 30t14 31.5t5 31q3 77 -46 122.5t-139 45.5q-70 -2 -120.5 -45.5t-59.5 -120.5h-153q1 141 90 220t233 85q155 4 252 -76t94 -206q-1 -52 -14 -93.5t-58 -92.5t-73 -76.5t-115 -99.5
q-24 -21 -37 -32l-112 -100h401v-139z" />
    <glyph glyph-name="uni00B3" unicode="&#xb3;" horiz-adv-x="790" 
d="M389 444q-63 0 -117 16t-100 49t-72.5 92.5t-27.5 139.5h133q2 -163 184 -163q86 0 134 37.5t48 103.5q0 74 -55 103.5t-156 29.5h-135v113h129q103 0 157 29.5t54 107.5q0 139 -180 139q-179 0 -184 -162h-133q1 77 28.5 135.5t74 92.5t102 50.5t118.5 16.5
q151 0 239.5 -69t88.5 -199q0 -72 -36.5 -126t-92.5 -69q57 -16 96 -68.5t39 -127.5q0 -127 -97 -199t-239 -72z" />
    <glyph glyph-name="periodcentered" unicode="&#xb7;" horiz-adv-x="401" 
d="M201 492q-55 0 -94 39t-39 94q0 54 39 93.5t94 39.5q54 0 93.5 -39.5t39.5 -93.5q0 -55 -39.5 -94t-93.5 -39z" />
    <glyph glyph-name="uni00B9" unicode="&#xb9;" horiz-adv-x="366" 
d="M299 518h-143v670h-88v125q34 0 60 12.5t26 38.5h143z" />
    <glyph glyph-name="ordmasculine" unicode="&#xba;" horiz-adv-x="772" 
d="M385 778q-132 0 -225 84t-94 213q0 136 90.5 218.5t228.5 82.5t229 -83t91 -218q-2 -129 -92 -213t-228 -84zM383 889q78 0 133 52t55 134q0 84 -54 138.5t-134 54.5q-77 0 -130.5 -53.5t-53.5 -139.5q0 -79 54 -132.5t130 -53.5z" />
    <glyph glyph-name="guillemotright" unicode="&#xbb;" horiz-adv-x="1290" 
d="M805 156l-293 -6l418 385l-438 380h290l441 -378zM389 145l-295 -6l418 385l-438 381h291l442 -379z" />
    <glyph glyph-name="questiondown" unicode="&#xbf;" horiz-adv-x="1150" 
d="M887 1362q58 0 92.5 -30.5t34.5 -74.5t-34.5 -74t-92.5 -30q-56 0 -89.5 30t-33.5 74t34 74.5t89 30.5zM774 1094h230v-86q0 -69 -24 -122t-64.5 -86.5t-93.5 -58.5t-111 -42t-116.5 -32.5t-111.5 -35t-94 -45t-66 -66t-26 -94.5q-1 -121 74.5 -185.5t212.5 -62.5
q117 2 193 61t77 173h229q4 -126 -62 -225t-179.5 -152.5t-251.5 -54.5q-232 -1 -378.5 125t-143.5 321q1 79 25.5 141.5t66 103t94.5 71t111 50t116.5 35.5t111 31.5t93 34t64.5 47t24 66.5v88z" />
    <glyph glyph-name="Agrave" unicode="&#xc0;" horiz-adv-x="1566" 
d="M754 1769l129 -321h-201l-129 321h201zM319 0h-251l598 1352h231l604 -1352h-252l-186 416l-559 2zM782 1044l-194 -438h391z" />
    <glyph glyph-name="Aacute" unicode="&#xc1;" horiz-adv-x="1566" 
d="M674 1450l129 322h201l-130 -322h-200zM319 0h-251l598 1352h231l604 -1352h-252l-186 416l-559 2zM782 1044l-194 -438h391z" />
    <glyph glyph-name="Acircumflex" unicode="&#xc2;" horiz-adv-x="1566" 
d="M864 1419l-84 109l-84 -109h-204l292 369l283 -369h-203zM319 0h-251l598 1352h231l604 -1352h-252l-186 416l-559 2zM782 1044l-194 -438h391z" />
    <glyph glyph-name="Atilde" unicode="&#xc3;" horiz-adv-x="1566" 
d="M627 1430h-170q7 246 180 251q42 1 128.5 -29t111.5 -30t36.5 14.5t18.5 44.5h151q0 -244 -153 -247q-47 -1 -132.5 28t-97.5 31q-63 8 -73 -63zM319 0h-251l598 1352h231l604 -1352h-252l-186 416l-559 2zM782 1044l-194 -438h391z" />
    <glyph glyph-name="Adieresis" unicode="&#xc4;" horiz-adv-x="1566" 
d="M631 1430q-50 0 -84.5 35t-34.5 83q0 47 34.5 83t84.5 36q49 0 83 -34.5t34 -84.5q0 -47 -35.5 -82.5t-81.5 -35.5zM909 1430q-49 0 -83.5 35t-34.5 83q0 46 35.5 82.5t82.5 36.5q52 0 84.5 -34.5t32.5 -84.5q0 -47 -35 -82.5t-82 -35.5zM319 0h-251l598 1352h231
l604 -1352h-252l-186 416l-559 2zM782 1044l-194 -438h391z" />
    <glyph glyph-name="Aring" unicode="&#xc5;" horiz-adv-x="1566" 
d="M782 1454q-81 0 -135.5 56.5t-54.5 136.5q0 78 54.5 133t135.5 55q84 0 139.5 -54.5t55.5 -133.5q0 -83 -55 -138t-140 -55zM782 1569q32 0 55 21.5t23 54.5q0 34 -22 55.5t-56 21.5q-31 0 -53 -22.5t-22 -54.5q0 -30 23.5 -53t51.5 -23zM319 0h-251l598 1352h231
l604 -1352h-252l-186 416l-559 2zM782 1044l-194 -438h391z" />
    <glyph glyph-name="AE" unicode="&#xc6;" horiz-adv-x="2209" 
d="M2142 1348v-240h-694v-328h618v-209h-618v-331h692v-240h-940l-178 416l-535 2l-178 -418h-241l573 1352h221l344 -799v795h936zM754 1044l-187 -438h375z" />
    <glyph glyph-name="Ccedilla" unicode="&#xc7;" horiz-adv-x="1437" 
d="M1163 428l209 -90q-78 -153 -218 -246t-316 -108l-58 -72q183 -49 183 -199q-3 -118 -107.5 -184.5t-298.5 -44.5v151q225 -16 225 78q0 49 -49 72.5t-160 36.5v92l70 76q-122 20 -228 78t-183.5 146t-121 207.5t-42.5 254.5q1 153 57 284t151 220.5t223 140.5t271 51
q191 0 346.5 -86.5t245.5 -245.5l-207 -98q-60 105 -161 163t-224 58q-192 0 -327.5 -137t-135.5 -350q1 -139 63.5 -251.5t167.5 -174.5t230 -62q127 0 231 63.5t164 176.5z" />
    <glyph glyph-name="Egrave" unicode="&#xc8;" horiz-adv-x="1069" 
d="M416 1470l-129 322h200l129 -322h-200zM999 4h-931v1348h936v-240h-697v-328h619v-209h-619v-331h692v-240z" />
    <glyph glyph-name="Eacute" unicode="&#xc9;" horiz-adv-x="1069" 
d="M737 1794l-129 -321h-200l129 321h200zM999 4h-931v1348h936v-240h-697v-328h619v-209h-619v-331h692v-240z" />
    <glyph glyph-name="Ecircumflex" unicode="&#xca;" horiz-adv-x="1069" 
d="M225 1442l293 368l283 -368h-203l-84 108l-84 -108h-205zM999 4h-931v1348h936v-240h-697v-328h619v-209h-619v-331h692v-240z" />
    <glyph glyph-name="Edieresis" unicode="&#xcb;" horiz-adv-x="1069" 
d="M362 1452q-50 0 -84 35.5t-34 83.5q0 47 34 83t84 36q49 0 83 -34.5t34 -84.5q0 -47 -35.5 -83t-81.5 -36zM641 1452q-49 0 -84 35.5t-35 83.5q0 46 36 82.5t83 36.5q52 0 84.5 -34.5t32.5 -84.5q0 -47 -35 -83t-82 -36zM999 4h-931v1348h936v-240h-697v-328h619v-209
h-619v-331h692v-240z" />
    <glyph glyph-name="Igrave" unicode="&#xcc;" horiz-adv-x="483" 
d="M264 1769l129 -321h-200l-130 321h201zM418 0h-230v1352h230v-1352z" />
    <glyph glyph-name="Iacute" unicode="&#xcd;" horiz-adv-x="464" 
d="M68 1450l129 322h200l-129 -322h-200zM301 0h-229v1352h229v-1352z" />
    <glyph glyph-name="Icircumflex" unicode="&#xce;" horiz-adv-x="706" 
d="M268 1419h-205l293 369l283 -369h-203l-84 109zM479 0h-229v1352h229v-1352z" />
    <glyph glyph-name="Idieresis" unicode="&#xcf;" horiz-adv-x="645" 
d="M182 1430q-50 0 -84.5 35t-34.5 83q0 47 34.5 83t84.5 36q49 0 83 -34.5t34 -84.5q0 -47 -35.5 -82.5t-81.5 -35.5zM461 1430q-49 0 -84 35t-35 83q0 46 36 82.5t83 36.5q52 0 84.5 -34.5t32.5 -84.5q0 -47 -35 -82.5t-82 -35.5zM459 0h-230v1352h230v-1352z" />
    <glyph glyph-name="Ntilde" unicode="&#xd1;" horiz-adv-x="1230" 
d="M434 1427h-170q7 247 180 252q42 1 128.5 -29t111.5 -30t36.5 14.5t18.5 44.5h152q0 -244 -154 -247q-47 -1 -132 28t-97 31q-64 9 -74 -64zM307 0h-239v1352h213l643 -951v951h239v-1352h-211l-645 940v-940z" />
    <glyph glyph-name="Ograve" unicode="&#xd2;" horiz-adv-x="1538" 
d="M664 1468l-129 322h200l129 -322h-200zM774 -20q-192 0 -353.5 86.5t-258 246t-94.5 359.5q1 153 57.5 285t152 222.5t225 141.5t273.5 51q145 0 274 -52t222.5 -143t147.5 -222.5t53 -282.5q-1 -148 -56 -277t-148.5 -220t-222 -143t-272.5 -52zM774 190q94 0 178 36.5
t145 99.5t97 153t37 193q0 217 -131 354t-324 137q-94 0 -179 -36t-149 -99t-101.5 -156t-37.5 -200q1 -103 38 -193t99 -153t147.5 -99.5t180.5 -36.5z" />
    <glyph glyph-name="Oacute" unicode="&#xd3;" horiz-adv-x="1538" 
d="M985 1792l-129 -322h-201l129 322h201zM774 -20q-192 0 -353.5 86.5t-258 246t-94.5 359.5q1 153 57.5 285t152 222.5t225 141.5t273.5 51q145 0 274 -52t222.5 -143t147.5 -222.5t53 -282.5q-1 -148 -56 -277t-148.5 -220t-222 -143t-272.5 -52zM774 190q94 0 178 36.5
t145 99.5t97 153t37 193q0 217 -131 354t-324 137q-94 0 -179 -36t-149 -99t-101.5 -156t-37.5 -200q1 -103 38 -193t99 -153t147.5 -99.5t180.5 -36.5z" />
    <glyph glyph-name="Ocircumflex" unicode="&#xd4;" horiz-adv-x="1538" 
d="M762 1548l-84 -108h-205l293 368l283 -368h-203zM774 -20q-192 0 -353.5 86.5t-258 246t-94.5 359.5q1 153 57.5 285t152 222.5t225 141.5t273.5 51q145 0 274 -52t222.5 -143t147.5 -222.5t53 -282.5q-1 -148 -56 -277t-148.5 -220t-222 -143t-272.5 -52zM774 190
q94 0 178 36.5t145 99.5t97 153t37 193q0 217 -131 354t-324 137q-94 0 -179 -36t-149 -99t-101.5 -156t-37.5 -200q1 -103 38 -193t99 -153t147.5 -99.5t180.5 -36.5z" />
    <glyph glyph-name="Otilde" unicode="&#xd5;" horiz-adv-x="1538" 
d="M606 1450h-170q7 247 180 252q42 1 128.5 -29.5t111.5 -30.5t36.5 14.5t18.5 45.5h152q0 -245 -154 -248q-47 -1 -132 28t-97 31q-64 9 -74 -63zM774 -20q-192 0 -353.5 86.5t-258 246t-94.5 359.5q1 153 57.5 285t152 222.5t225 141.5t273.5 51q145 0 274 -52
t222.5 -143t147.5 -222.5t53 -282.5q-1 -148 -56 -277t-148.5 -220t-222 -143t-272.5 -52zM774 190q94 0 178 36.5t145 99.5t97 153t37 193q0 217 -131 354t-324 137q-94 0 -179 -36t-149 -99t-101.5 -156t-37.5 -200q1 -103 38 -193t99 -153t147.5 -99.5t180.5 -36.5z" />
    <glyph glyph-name="Odieresis" unicode="&#xd6;" horiz-adv-x="1538" 
d="M610 1450q-50 0 -84 35.5t-34 83.5q0 47 34 83t84 36q49 0 83 -34.5t34 -84.5q0 -47 -35.5 -83t-81.5 -36zM889 1450q-49 0 -84 35.5t-35 83.5q0 46 36 82.5t83 36.5q52 0 84.5 -34.5t32.5 -84.5q0 -47 -35 -83t-82 -36zM774 -20q-192 0 -353.5 86.5t-258 246
t-94.5 359.5q1 153 57.5 285t152 222.5t225 141.5t273.5 51q145 0 274 -52t222.5 -143t147.5 -222.5t53 -282.5q-1 -148 -56 -277t-148.5 -220t-222 -143t-272.5 -52zM774 190q94 0 178 36.5t145 99.5t97 153t37 193q0 217 -131 354t-324 137q-94 0 -179 -36t-149 -99
t-101.5 -156t-37.5 -200q1 -103 38 -193t99 -153t147.5 -99.5t180.5 -36.5z" />
    <glyph glyph-name="multiply" unicode="&#xd7;" horiz-adv-x="827" 
d="M231 289l-161 162l194 194l-186 186l141 142l187 -187l186 189l164 -162l-189 -188l189 -189l-142 -141l-188 188z" />
    <glyph glyph-name="Oslash" unicode="&#xd8;" horiz-adv-x="1538" 
d="M1171 1491l-67 -195q170 -87 270 -250.5t99 -373.5q-1 -148 -56 -277t-148.5 -220t-222 -143t-272.5 -52q-58 0 -123 10l-47 -135h-250l72 208q-165 87 -262 247t-96 362q1 153 57.5 285t152 222.5t225 141.5t273.5 51q54 0 103 -6l43 125h249zM309 672
q1 -124 52.5 -225.5t140.5 -167.5l305 882q-10 2 -31 2q-94 0 -179 -36t-149 -99t-101.5 -156t-37.5 -200zM774 190q94 0 178 36.5t145 99.5t97 153t37 193q0 135 -54 241.5t-147 171.5l-309 -892q27 -3 53 -3z" />
    <glyph glyph-name="Ugrave" unicode="&#xd9;" horiz-adv-x="1243" 
d="M600 1819l129 -322h-201l-129 322h201zM623 -20q-253 0 -404 146.5t-151 385.5v840h239v-820q0 -155 82.5 -249.5t235.5 -94.5q150 0 230.5 94.5t80.5 249.5v820h240v-840q0 -237 -151 -384.5t-402 -147.5z" />
    <glyph glyph-name="Uacute" unicode="&#xda;" horiz-adv-x="1243" 
d="M520 1499l129 322h201l-129 -322h-201zM623 -20q-253 0 -404 146.5t-151 385.5v840h239v-820q0 -155 82.5 -249.5t235.5 -94.5q150 0 230.5 94.5t80.5 249.5v820h240v-840q0 -237 -151 -384.5t-402 -147.5z" />
    <glyph glyph-name="Ucircumflex" unicode="&#xdb;" horiz-adv-x="1243" 
d="M711 1468l-84 109l-84 -109h-205l293 369l282 -369h-202zM623 -20q-253 0 -404 146.5t-151 385.5v840h239v-820q0 -155 82.5 -249.5t235.5 -94.5q150 0 230.5 94.5t80.5 249.5v820h240v-840q0 -237 -151 -384.5t-402 -147.5z" />
    <glyph glyph-name="Udieresis" unicode="&#xdc;" horiz-adv-x="1243" 
d="M477 1479q-50 0 -84.5 35t-34.5 83q0 47 34.5 83t84.5 36q49 0 83 -34.5t34 -84.5q0 -47 -35.5 -82.5t-81.5 -35.5zM756 1479q-49 0 -84 35t-35 83q0 46 36 82.5t83 36.5q52 0 84 -34t32 -85q0 -47 -34.5 -82.5t-81.5 -35.5zM623 -20q-253 0 -404 146.5t-151 385.5v840
h239v-820q0 -155 82.5 -249.5t235.5 -94.5q150 0 230.5 94.5t80.5 249.5v820h240v-840q0 -237 -151 -384.5t-402 -147.5z" />
    <glyph glyph-name="Yacute" unicode="&#xdd;" horiz-adv-x="1470" 
d="M758 1786h200l-129 -322h-200zM848 0h-230l3 557l-553 795h249l418 -607l418 607h250l-555 -795v-557z" />
    <glyph glyph-name="germandbls" unicode="&#xdf;" horiz-adv-x="1110" 
d="M297 0h-229v973q0 58 15.5 113t52.5 107.5t93 91.5t143 63t195 24q133 0 235 -40t163 -125.5t59 -205.5q-1 -113 -72.5 -184t-203.5 -98q44 -6 84.5 -20t80.5 -40.5t69 -62.5t46 -90.5t16 -120.5q-3 -174 -132.5 -279t-376.5 -106v199q288 0 288 211q0 104 -70.5 159
t-215.5 62l-2 172q131 8 205 55t75 123q3 92 -64 147.5t-184 55.5q-135 0 -202.5 -61t-67.5 -175v-948z" />
    <glyph glyph-name="agrave" unicode="&#xe0;" horiz-adv-x="1300" 
d="M836 1153h-201l-129 322h201zM586 -20q-222 -1 -370 153.5t-148 380.5q0 252 142 399.5t363 145.5q141 0 259 -73.5t161 -199.5v252h240v-1038h-240v256q-41 -122 -156.5 -199t-250.5 -77zM645 180q137 2 237.5 97t100.5 239q0 155 -98.5 248.5t-239.5 95.5
q-144 2 -241 -89.5t-97 -254.5q0 -147 99.5 -242.5t238.5 -93.5z" />
    <glyph glyph-name="aacute" unicode="&#xe1;" horiz-adv-x="1300" 
d="M827 1155h-200l129 322h200zM586 -20q-222 -1 -370 153.5t-148 380.5q0 252 142 399.5t363 145.5q141 0 259 -73.5t161 -199.5v252h240v-1038h-240v256q-41 -122 -156.5 -199t-250.5 -77zM645 180q137 2 237.5 97t100.5 239q0 155 -98.5 248.5t-239.5 95.5
q-144 2 -241 -89.5t-97 -254.5q0 -147 99.5 -242.5t238.5 -93.5z" />
    <glyph glyph-name="acircumflex" unicode="&#xe2;" horiz-adv-x="1300" 
d="M1020 1124h-203l-84 109l-84 -109h-205l293 369zM586 -20q-222 -1 -370 153.5t-148 380.5q0 252 142 399.5t363 145.5q141 0 259 -73.5t161 -199.5v252h240v-1038h-240v256q-41 -122 -156.5 -199t-250.5 -77zM645 180q137 2 237.5 97t100.5 239q0 155 -98.5 248.5
t-239.5 95.5q-144 2 -241 -89.5t-97 -254.5q0 -147 99.5 -242.5t238.5 -93.5z" />
    <glyph glyph-name="atilde" unicode="&#xe3;" horiz-adv-x="1300" 
d="M604 1128h-139q3 203 147 209q34 0 105 -25.5t92 -25.5t30.5 12t14.5 39h125q0 -201 -125 -204q-39 -1 -108.5 23.5t-79.5 25.5q-27 4 -43 -11t-19 -43zM586 -20q-222 -1 -370 153.5t-148 380.5q0 252 142 399.5t363 145.5q141 0 259 -73.5t161 -199.5v252h240v-1038
h-240v256q-41 -122 -156.5 -199t-250.5 -77zM645 180q137 2 237.5 97t100.5 239q0 155 -98.5 248.5t-239.5 95.5q-144 2 -241 -89.5t-97 -254.5q0 -147 99.5 -242.5t238.5 -93.5z" />
    <glyph glyph-name="adieresis" unicode="&#xe4;" horiz-adv-x="1300" 
d="M584 1135q-50 0 -84.5 35t-34.5 83q0 47 34.5 83t84.5 36q49 0 82.5 -34.5t33.5 -84.5q0 -47 -35 -82.5t-81 -35.5zM862 1135q-49 0 -84 35t-35 83q0 46 36 82.5t83 36.5q52 0 84.5 -34.5t32.5 -84.5q0 -47 -35 -82.5t-82 -35.5zM586 -20q-222 -1 -370 153.5t-148 380.5
q0 252 142 399.5t363 145.5q141 0 259 -73.5t161 -199.5v252h240v-1038h-240v256q-41 -122 -156.5 -199t-250.5 -77zM645 180q137 2 237.5 97t100.5 239q0 155 -98.5 248.5t-239.5 95.5q-144 2 -241 -89.5t-97 -254.5q0 -147 99.5 -242.5t238.5 -93.5z" />
    <glyph glyph-name="aring" unicode="&#xe5;" horiz-adv-x="1300" 
d="M735 1159q-81 0 -135.5 56.5t-54.5 136.5q0 78 54.5 133t135.5 55q84 0 139.5 -54.5t55.5 -133.5q0 -83 -55 -138t-140 -55zM735 1274q32 0 55 21.5t23 54.5q0 34 -22 55.5t-56 21.5q-31 0 -53.5 -22.5t-22.5 -54.5q0 -30 24 -53t52 -23zM586 -20q-222 -1 -370 153.5
t-148 380.5q0 252 142 399.5t363 145.5q141 0 259 -73.5t161 -199.5v252h240v-1038h-240v256q-41 -122 -156.5 -199t-250.5 -77zM645 180q137 2 237.5 97t100.5 239q0 155 -98.5 248.5t-239.5 95.5q-144 2 -241 -89.5t-97 -254.5q0 -147 99.5 -242.5t238.5 -93.5z" />
    <glyph glyph-name="ae" unicode="&#xe6;" horiz-adv-x="2217" 
d="M2148 557q6 -45 0 -94l-866 -2q13 -124 109.5 -204.5t214.5 -80.5q93 -2 172.5 39t122.5 117l180 -92q-69 -123 -195 -193t-278 -70q-221 0 -381 144v-121h-238v248q-42 -117 -157 -191.5t-250 -76.5q-221 -1 -368.5 148.5t-147.5 369.5q0 245 142 387.5t361 140.5
q141 -2 258 -72.5t160 -191.5v244h240v-84q153 135 381 135q218 0 368.5 -133.5t171.5 -366.5zM1298 598l625 2q-20 119 -111 191.5t-204 70.5q-113 0 -202.5 -72t-107.5 -192zM641 174q137 2 237.5 94.5t100.5 231.5q0 150 -98.5 241t-239.5 93q-143 2 -239.5 -87.5
t-96.5 -246.5q0 -143 99 -235.5t237 -90.5z" />
    <glyph glyph-name="ccedilla" unicode="&#xe7;" horiz-adv-x="1239" 
d="M950 377l221 -84q-62 -134 -192 -218t-297 -93l-59 -72q97 -26 140.5 -78.5t41.5 -120.5q-2 -118 -106 -184.5t-298 -44.5v151q224 -17 224 78q0 49 -48.5 72.5t-160.5 36.5v92l78 84q-187 44 -306 183.5t-120 334.5q-1 247 161.5 396t411.5 149q180 0 323 -84.5
t205 -224.5l-223 -82q-40 88 -123.5 140t-183.5 52q-139 0 -235.5 -96.5t-96.5 -247.5q0 -145 97 -241.5t235 -96.5q103 0 187 55t124 144z" />
    <glyph glyph-name="egrave" unicode="&#xe8;" horiz-adv-x="1230" 
d="M393 1454h201l129 -321h-201zM621 -20q-146 0 -271.5 65.5t-203.5 190t-78 280.5q0 129 45.5 233.5t122.5 171.5t176 102.5t209 35.5q218 0 368.5 -133.5t171.5 -366.5q6 -45 0 -94l-866 -2q13 -124 109 -204.5t214 -80.5q93 -2 172.5 39t122.5 117l181 -92
q-69 -123 -195 -192.5t-278 -69.5zM311 600l625 2q-20 119 -111 191.5t-204 70.5q-113 0 -202.5 -72t-107.5 -192z" />
    <glyph glyph-name="eacute" unicode="&#xe9;" horiz-adv-x="1230" 
d="M643 1456h201l-129 -321h-201zM621 -20q-146 0 -271.5 65.5t-203.5 190t-78 280.5q0 129 45.5 233.5t122.5 171.5t176 102.5t209 35.5q218 0 368.5 -133.5t171.5 -366.5q6 -45 0 -94l-866 -2q13 -124 109 -204.5t214 -80.5q93 -2 172.5 39t122.5 117l181 -92
q-69 -123 -195 -192.5t-278 -69.5zM311 600l625 2q-20 119 -111 191.5t-204 70.5q-113 0 -202.5 -72t-107.5 -192z" />
    <glyph glyph-name="ecircumflex" unicode="&#xea;" horiz-adv-x="1230" 
d="M625 1473l282 -369h-202l-84 108l-84 -108h-205zM621 -20q-146 0 -271.5 65.5t-203.5 190t-78 280.5q0 129 45.5 233.5t122.5 171.5t176 102.5t209 35.5q218 0 368.5 -133.5t171.5 -366.5q6 -45 0 -94l-866 -2q13 -124 109 -204.5t214 -80.5q93 -2 172.5 39t122.5 117
l181 -92q-69 -123 -195 -192.5t-278 -69.5zM311 600l625 2q-20 119 -111 191.5t-204 70.5q-113 0 -202.5 -72t-107.5 -192z" />
    <glyph glyph-name="edieresis" unicode="&#xeb;" horiz-adv-x="1230" 
d="M469 1114q-50 0 -84.5 35.5t-34.5 83.5q0 47 34.5 83t84.5 36q49 0 83 -34.5t34 -84.5q0 -47 -35.5 -83t-81.5 -36zM748 1114q-49 0 -84 35.5t-35 83.5q0 46 36 82.5t83 36.5q52 0 84 -34t32 -85q0 -48 -34.5 -83.5t-81.5 -35.5zM621 -20q-146 0 -271.5 65.5t-203.5 190
t-78 280.5q0 129 45.5 233.5t122.5 171.5t176 102.5t209 35.5q218 0 368.5 -133.5t171.5 -366.5q6 -45 0 -94l-866 -2q13 -124 109 -204.5t214 -80.5q93 -2 172.5 39t122.5 117l181 -92q-69 -123 -195 -192.5t-278 -69.5zM311 600l625 2q-20 119 -111 191.5t-204 70.5
q-113 0 -202.5 -72t-107.5 -192z" />
    <glyph glyph-name="igrave" unicode="&#xec;" horiz-adv-x="477" 
d="M393 1126h-200l-130 324h201zM412 0h-242v1038h242v-1038z" />
    <glyph glyph-name="iacute" unicode="&#xed;" horiz-adv-x="481" 
d="M285 1128h-201l129 324h201zM311 0h-239v1038h239v-1038z" />
    <glyph glyph-name="icircumflex" unicode="&#xee;" horiz-adv-x="706" 
d="M63 1100l293 368l283 -370l-203 2l-84 108l-84 -108h-205zM473 0h-242v1038h242v-1038z" />
    <glyph glyph-name="idieresis" unicode="&#xef;" horiz-adv-x="645" 
d="M182 1110q-51 0 -85 34.5t-34 84.5q0 47 34.5 82t84.5 35q49 0 83 -34.5t34 -82.5q0 -47 -35.5 -83t-81.5 -36zM461 1110q-49 0 -84 34.5t-35 82.5q0 46 36 82.5t83 36.5q52 0 84.5 -34.5t32.5 -84.5q0 -47 -35 -82t-82 -35zM453 0h-240v1038h240v-1038z" />
    <glyph glyph-name="ntilde" unicode="&#xf1;" horiz-adv-x="1300" 
d="M410 1147h-170q7 247 180 252q42 1 128 -29.5t111 -30.5t37 15t19 45h151q0 -245 -153 -248q-47 -1 -132.5 28t-97.5 31q-63 8 -73 -63zM317 0h-249v1038h239v-252q43 126 161 199.5t259 73.5q221 2 363.5 -145.5t142.5 -399.5v-514h-240v516q1 162 -96 254t-242 90
q-142 -2 -240 -94.5t-98 -249.5v-516z" />
    <glyph glyph-name="ograve" unicode="&#xf2;" horiz-adv-x="1284" 
d="M406 1452h200l129 -322h-200zM641 -20q-156 0 -286 67t-208 190t-79 277q-1 246 162 395.5t411 149.5q251 0 415 -149.5t163 -395.5q-1 -154 -75.5 -276t-206 -190t-296.5 -68zM639 178q141 0 239.5 95t98.5 243q0 151 -97 247.5t-241 96.5q-140 0 -236 -95.5t-96 -248.5
q0 -143 97 -240.5t235 -97.5z" />
    <glyph glyph-name="oacute" unicode="&#xf3;" horiz-adv-x="1284" 
d="M655 1454h201l-129 -321h-201zM641 -20q-156 0 -286 67t-208 190t-79 277q-1 246 162 395.5t411 149.5q251 0 415 -149.5t163 -395.5q-1 -154 -75.5 -276t-206 -190t-296.5 -68zM639 178q141 0 239.5 95t98.5 243q0 151 -97 247.5t-241 96.5q-140 0 -236 -95.5
t-96 -248.5q0 -143 97 -240.5t235 -97.5z" />
    <glyph glyph-name="ocircumflex" unicode="&#xf4;" horiz-adv-x="1284" 
d="M549 1102h-205l293 368l283 -368h-203l-84 108zM641 -20q-156 0 -286 67t-208 190t-79 277q-1 246 162 395.5t411 149.5q251 0 415 -149.5t163 -395.5q-1 -154 -75.5 -276t-206 -190t-296.5 -68zM639 178q141 0 239.5 95t98.5 243q0 151 -97 247.5t-241 96.5
q-140 0 -236 -95.5t-96 -248.5q0 -143 97 -240.5t235 -97.5z" />
    <glyph glyph-name="otilde" unicode="&#xf5;" horiz-adv-x="1284" 
d="M477 1112h-170q7 247 180 252q42 1 128.5 -29t111.5 -30t36.5 14.5t18.5 44.5h152q0 -245 -154 -248q-47 -1 -132 28.5t-97 31.5q-64 9 -74 -64zM641 -20q-156 0 -286 67t-208 190t-79 277q-1 246 162 395.5t411 149.5q251 0 415 -149.5t163 -395.5q-1 -154 -75.5 -276
t-206 -190t-296.5 -68zM639 178q141 0 239.5 95t98.5 243q0 151 -97 247.5t-241 96.5q-140 0 -236 -95.5t-96 -248.5q0 -143 97 -240.5t235 -97.5z" />
    <glyph glyph-name="odieresis" unicode="&#xf6;" horiz-adv-x="1284" 
d="M481 1112q-50 0 -84.5 35.5t-34.5 83.5q0 47 34.5 83t84.5 36q49 0 83 -34.5t34 -84.5q0 -47 -35.5 -83t-81.5 -36zM760 1112q-49 0 -84 35.5t-35 83.5q0 46 36 82.5t83 36.5q52 0 84.5 -34.5t32.5 -84.5q0 -47 -35 -83t-82 -36zM641 -20q-156 0 -286 67t-208 190
t-79 277q-1 246 162 395.5t411 149.5q251 0 415 -149.5t163 -395.5q-1 -154 -75.5 -276t-206 -190t-296.5 -68zM639 178q141 0 239.5 95t98.5 243q0 151 -97 247.5t-241 96.5q-140 0 -236 -95.5t-96 -248.5q0 -143 97 -240.5t235 -97.5z" />
    <glyph glyph-name="divide" unicode="&#xf7;" horiz-adv-x="860" 
d="M420 752q-55 0 -94 39.5t-39 95.5q0 54 39 92.5t94 38.5q54 0 93.5 -38.5t39.5 -92.5q0 -55 -39.5 -95t-93.5 -40zM793 473h-725v189h725v-189zM420 119q-56 0 -95.5 39.5t-39.5 95.5q0 54 39.5 92.5t95.5 38.5q54 0 92.5 -38.5t38.5 -92.5q0 -56 -38.5 -95.5
t-92.5 -39.5z" />
    <glyph glyph-name="oslash" unicode="&#xf8;" horiz-adv-x="1284" 
d="M1036 1161l-84 -178q126 -68 197 -189.5t70 -279.5q-1 -154 -75.5 -276t-206 -190t-296.5 -68q-22 0 -68 4l-59 -125h-231l86 182q-137 66 -218.5 190t-82.5 283q-1 246 162 395.5t411 149.5q64 0 113 -8l51 110h231zM639 178q141 0 239.5 95t98.5 243q0 151 -97 247.5
t-241 96.5q-140 0 -236 -95.5t-96 -248.5q0 -143 97 -240.5t235 -97.5z" />
    <glyph glyph-name="ugrave" unicode="&#xf9;" horiz-adv-x="1208" 
d="M737 1159h-200l-129 322h200zM526 -20q-208 -2 -333 133.5t-125 375.5v549h239v-549q0 -145 77 -228.5t212 -82.5q137 1 217 99t80 253v508h250v-1038h-242v264q-32 -137 -139.5 -210.5t-235.5 -73.5z" />
    <glyph glyph-name="uacute" unicode="&#xfa;" horiz-adv-x="1208" 
d="M729 1161h-201l129 322h201zM526 -20q-208 -2 -333 133.5t-125 375.5v549h239v-549q0 -145 77 -228.5t212 -82.5q137 1 217 99t80 253v508h250v-1038h-242v264q-32 -137 -139.5 -210.5t-235.5 -73.5z" />
    <glyph glyph-name="ucircumflex" unicode="&#xfb;" horiz-adv-x="1208" 
d="M635 1239l-84 -109h-205l293 369l283 -369h-203zM526 -20q-208 -2 -333 133.5t-125 375.5v549h239v-549q0 -145 77 -228.5t212 -82.5q137 1 217 99t80 253v508h250v-1038h-242v264q-32 -137 -139.5 -210.5t-235.5 -73.5z" />
    <glyph glyph-name="udieresis" unicode="&#xfc;" horiz-adv-x="1208" 
d="M485 1141q-50 0 -84 35.5t-34 83.5q0 47 34 82.5t84 35.5q49 0 83 -34t34 -84q0 -47 -35.5 -83t-81.5 -36zM764 1141q-49 0 -84 35.5t-35 83.5q0 46 36 82t83 36q52 0 84.5 -34t32.5 -84q0 -47 -35 -83t-82 -36zM526 -20q-208 -2 -333 133.5t-125 375.5v549h239v-549
q0 -145 77 -228.5t212 -82.5q137 1 217 99t80 253v508h250v-1038h-242v264q-32 -137 -139.5 -210.5t-235.5 -73.5z" />
    <glyph glyph-name="yacute" unicode="&#xfd;" horiz-adv-x="1243" 
d="M532 1169l130 322h200l-129 -322h-201zM68 -178l135 139q26 -34 71.5 -47.5t93 5t72.5 71.5l58 119l-404 929h240l282 -741l320 741h240l-541 -1101q-48 -99 -121.5 -155t-151.5 -64.5t-155.5 18.5t-138.5 86z" />
    <glyph glyph-name="ydieresis" unicode="&#xff;" horiz-adv-x="1243" 
d="M489 1149q-50 0 -84 35.5t-34 83.5q0 47 34 82.5t84 35.5q49 0 83 -34t34 -84q0 -47 -35.5 -83t-81.5 -36zM768 1149q-49 0 -84 35.5t-35 83.5q0 46 36 82t83 36q52 0 84.5 -34t32.5 -84q0 -47 -35 -83t-82 -36zM68 -178l135 139q26 -34 71.5 -47.5t93 5t72.5 71.5
l58 119l-404 929h240l282 -741l320 741h240l-541 -1101q-48 -99 -121.5 -155t-151.5 -64.5t-155.5 18.5t-138.5 86z" />
    <glyph glyph-name="dotlessi" unicode="&#x131;" horiz-adv-x="374" 
d="M307 0h-239v1038h239v-1038z" />
    <glyph glyph-name="OE" unicode="&#x152;" horiz-adv-x="2234" 
d="M2167 1352v-240h-694v-328h618v-209h-618v-331h692v-240h-934v137q-191 -161 -457 -161q-192 0 -353.5 86.5t-258 246t-94.5 359.5q1 153 57.5 285t152 222.5t225 141.5t273.5 51q265 0 455 -160v140h936zM774 190q94 0 178 36.5t145 99.5t97 153t37 193q0 217 -131 354
t-324 137q-94 0 -179 -36t-149 -99t-101.5 -156t-37.5 -200q1 -103 38 -193t99 -153t147.5 -99.5t180.5 -36.5z" />
    <glyph glyph-name="oe" unicode="&#x153;" horiz-adv-x="2154" 
d="M2087 569q3 -45 0 -94l-868 -2q15 -124 111 -204.5t214 -80.5q92 -2 172 39t123 117l180 -92q-70 -123 -196.5 -192.5t-278.5 -69.5q-128 0 -242 52.5t-192 147.5q-77 -99 -199 -154.5t-270 -55.5q-156 0 -286 67t-208 190t-79 277q-1 246 162 395.5t411 149.5
q141 0 260 -50.5t197 -144.5q77 99 194 152t252 53q143 0 260 -57.5t193 -172t90 -270.5zM1237 610l623 2q-18 119 -110 191.5t-206 70.5q-112 0 -201 -72t-106 -192zM639 178q141 0 239.5 95t98.5 243q0 151 -97 247.5t-241 96.5q-140 0 -236 -95.5t-96 -248.5
q0 -143 97 -240.5t235 -97.5z" />
    <glyph glyph-name="Scaron" unicode="&#x160;" horiz-adv-x="1163" 
d="M623 1831h198l-282 -369l-297 369h196l97 -117zM590 -20q-133 2 -244.5 51.5t-183 148t-76.5 228.5h219q4 -62 34 -110.5t75 -75t92 -40t92 -14.5q108 0 186.5 47.5t81.5 146.5q3 101 -70.5 152.5t-234.5 77.5q-233 31 -363 129t-130 272q0 115 65.5 202.5t172.5 132
t237 44.5q134 0 248 -48.5t187 -146.5t77 -227h-221q-5 80 -49.5 134.5t-106 77t-135.5 22.5q-101 0 -173 -52.5t-73 -142.5q0 -84 70 -135t219 -74q262 -39 389 -142.5t121 -293.5q-3 -94 -46.5 -167t-115 -115.5t-159 -63t-185.5 -18.5z" />
    <glyph glyph-name="scaron" unicode="&#x161;" horiz-adv-x="1005" 
d="M498 1409l88 117h198l-282 -369l-297 369h196zM512 -20q-125 3 -224.5 47t-159 128t-60.5 195h219q7 -96 69 -142.5t158 -49.5q76 -3 134 33t59 98q3 67 -45 100.5t-162 52.5q-83 11 -143.5 24.5t-116.5 36.5t-91 54.5t-56.5 78t-22.5 107.5q-3 142 111 229t298 87
q199 0 322.5 -94t132.5 -271h-219q-8 84 -68.5 135t-157.5 52q-84 1 -136 -39.5t-50 -104.5q0 -63 49.5 -98t167.5 -57q118 -20 188.5 -40t127 -54.5t80 -85.5t22.5 -128q-1 -144 -119.5 -221.5t-306.5 -72.5z" />
    <glyph glyph-name="Ydieresis" unicode="&#x178;" horiz-adv-x="1470" 
d="M584 1444q-50 0 -84.5 35.5t-34.5 83.5q0 47 34.5 82.5t84.5 35.5q49 0 82.5 -34t33.5 -84q0 -47 -35 -83t-81 -36zM862 1444q-49 0 -84 35.5t-35 83.5q0 46 36 82t83 36q52 0 84.5 -34t32.5 -84q0 -47 -35 -83t-82 -36zM848 0h-230l3 557l-553 795h249l418 -607l418 607
h250l-555 -795v-557z" />
    <glyph glyph-name="zcaron" unicode="&#x17e;" horiz-adv-x="931" 
d="M365 1524l96 -117l88 117h199l-283 -369l-297 369h197zM864 0h-794v170l528 670h-530v198h794v-170l-524 -669h526v-199z" />
    <glyph glyph-name="gravecomb" unicode="&#x300;" 
d="M-395 1352h200l129 -322h-200z" />
    <glyph glyph-name="acutecomb" unicode="&#x301;" 
d="M-395 1030l129 322h200l-129 -322h-200z" />
    <glyph glyph-name="uni0302" unicode="&#x302;" 
d="M-270 983l-84 109l-84 -109h-205l293 369l282 -369h-202z" />
    <glyph glyph-name="tildecomb" unicode="&#x303;" 
d="M-524 1100h-170q7 247 180 252q42 1 128.5 -29.5t111.5 -30.5t36.5 14.5t18.5 45.5h151q0 -245 -153 -248q-47 -1 -132.5 28t-97.5 31q-63 8 -73 -63z" />
    <glyph glyph-name="uni0304" unicode="&#x304;" 
d="M-68 1174h-432v178h432v-178z" />
    <glyph glyph-name="uni0306" unicode="&#x306;" 
d="M-393 1090q-97 0 -178.5 62.5t-124.5 199.5h186q47 -81 123 -84q82 0 129 84h190q-84 -262 -325 -262z" />
    <glyph glyph-name="uni0307" unicode="&#x307;" 
d="M-195 1063q-52 0 -88 37t-36 88q0 50 37 88.5t87 38.5q54 0 91.5 -37t37.5 -90q0 -50 -38.5 -87.5t-90.5 -37.5z" />
    <glyph glyph-name="uni0308" unicode="&#x308;" 
d="M-463 1090q-50 0 -84.5 35t-34.5 83q0 47 34.5 83t84.5 36q49 0 83 -34.5t34 -84.5q0 -47 -35.5 -82.5t-81.5 -35.5zM-184 1090q-49 0 -84 35t-35 83q0 46 36 82.5t83 36.5q52 0 84 -34t32 -85q0 -47 -34.5 -82.5t-81.5 -35.5z" />
    <glyph glyph-name="uni030A" unicode="&#x30a;" 
d="M-260 993q-81 0 -136 56.5t-55 136.5q0 77 55 132.5t136 55.5q84 0 139 -54.5t55 -133.5q0 -83 -54.5 -138t-139.5 -55zM-260 1108q32 0 55 21.5t23 54.5q0 34 -22 56t-56 22q-31 0 -53.5 -23t-22.5 -55q0 -30 24 -53t52 -23z" />
    <glyph glyph-name="uni030B" unicode="&#x30b;" 
d="M-428 1030h-188l129 322h188zM-197 1030h-190l131 322h188z" />
    <glyph glyph-name="uni030C" unicode="&#x30c;" 
d="M-449 1352l97 -117l88 117h198l-282 -369l-297 369h196z" />
    <glyph glyph-name="uni0312" unicode="&#x312;" 
d="M-219 918l-162 108q59 80 76.5 148t7.5 178h229q0 -151 -31.5 -242.5t-119.5 -191.5z" />
    <glyph glyph-name="uni0326" unicode="&#x326;" 
d="M-201 -274h-205l136 358h204z" />
    <glyph glyph-name="uni0327" unicode="&#x327;" 
d="M-473 -438v151q223 -17 223 78q0 49 -48.5 72.5t-160.5 36.5v92l137 149l197 2l-127 -153q97 -26 140.5 -78.5t41.5 -120.5q-2 -118 -105.5 -184.5t-297.5 -44.5z" />
    <glyph glyph-name="uni0328" unicode="&#x328;" 
d="M-125 -141l57 -138q-81 -47 -157 -60t-133 4.5t-99 52.5t-65 83q-17 37 -17 78t17.5 83t50.5 79.5t87.5 67.5t123.5 45l76 -25l16 -100q-103 -28 -150.5 -71.5t-29.5 -84.5q18 -38 76.5 -42.5t146.5 28.5z" />
    <glyph glyph-name="endash" unicode="&#x2013;" horiz-adv-x="937" 
d="M870 520h-802v178h802v-178z" />
    <glyph glyph-name="emdash" unicode="&#x2014;" horiz-adv-x="1085" 
d="M1018 518h-950v180h950v-180z" />
    <glyph glyph-name="quoteleft" unicode="&#x2018;" horiz-adv-x="442" 
d="M375 1018l-164 -98q-52 61 -80.5 106.5t-44 93.5t-17 101.5t0.5 130.5h223q-7 -125 8.5 -184.5t73.5 -149.5z" />
    <glyph glyph-name="quoteright" unicode="&#x2019;" horiz-adv-x="442" 
d="M231 920l-163 98q58 90 73.5 149.5t8.5 184.5h223q4 -110 -3.5 -170t-38.5 -120.5t-100 -141.5z" />
    <glyph glyph-name="quotesinglbase" unicode="&#x201a;" horiz-adv-x="448" 
d="M229 -182l-161 108q59 82 76.5 150t7.5 176h229q0 -150 -31.5 -242t-120.5 -192z" />
    <glyph glyph-name="quotedblleft" unicode="&#x201c;" horiz-adv-x="735" 
d="M375 1018l-164 -98q-52 61 -80.5 106.5t-44 93.5t-17 101.5t0.5 130.5h223q-7 -125 8.5 -184.5t73.5 -149.5zM670 1018l-164 -98q-53 61 -82 106.5t-44 93.5t-16 101.5t1 130.5h221q-7 -125 9 -184.5t75 -149.5z" />
    <glyph glyph-name="quotedblright" unicode="&#x201d;" horiz-adv-x="735" 
d="M231 920l-163 98q58 90 73.5 149.5t8.5 184.5h223q4 -110 -3.5 -170t-38.5 -120.5t-100 -141.5zM524 920l-164 98q59 90 75 149.5t9 184.5h222q4 -111 -3 -170t-38 -120t-101 -142z" />
    <glyph glyph-name="quotedblbase" unicode="&#x201e;" horiz-adv-x="747" 
d="M229 -182l-161 108q59 82 76.5 150t7.5 176h229q0 -150 -31.5 -242t-120.5 -192zM528 -182l-161 108q59 82 76.5 150t7.5 176h229q0 -150 -31.5 -242t-120.5 -192z" />
    <glyph glyph-name="dagger" unicode="&#x2020;" horiz-adv-x="858" 
d="M539 436h-240v461h-231v240h231v194h240v-194h254v-240h-254v-461z" />
    <glyph glyph-name="bullet" unicode="&#x2022;" horiz-adv-x="479" 
d="M240 434q-71 0 -121.5 51t-50.5 123q0 69 51 119.5t121 50.5t121 -50.5t51 -119.5q0 -72 -50.5 -123t-121.5 -51z" />
    <glyph glyph-name="ellipsis" unicode="&#x2026;" horiz-adv-x="1071" 
d="M201 4q-55 0 -94 39t-39 94q0 54 39 93.5t94 39.5q54 0 93.5 -39.5t39.5 -93.5q0 -55 -39.5 -94t-93.5 -39zM535 4q-56 0 -95 39t-39 94q0 54 39.5 93.5t94.5 39.5q54 0 93.5 -39.5t39.5 -93.5q0 -55 -39.5 -94t-93.5 -39zM870 4q-56 0 -94.5 39t-38.5 94q0 54 39 93.5
t94 39.5q54 0 94 -39.5t40 -93.5q0 -55 -40 -94t-94 -39z" />
    <glyph glyph-name="perthousand" unicode="&#x2030;" horiz-adv-x="3745" 
d="M594 219q-155 0 -276 74t-185.5 201t-64.5 284q0 161 63.5 294.5t186 215.5t280.5 82q121 0 221 -47.5t165 -129t100.5 -188.5t35.5 -227q0 -158 -63.5 -284.5t-184.5 -200.5t-278 -74zM1159 -2h-250l568 1352h249zM596 393q148 0 241 107t93 278q1 187 -91 301.5
t-241 114.5t-245 -116t-95 -300q0 -170 94.5 -277.5t243.5 -107.5zM2036 -12q-155 0 -276 74.5t-186 201.5t-65 283q0 160 63.5 294t186.5 216t281 82q121 0 221 -47.5t165 -129t100.5 -188.5t35.5 -227q0 -158 -63.5 -284.5t-184.5 -200.5t-278 -74zM3152 -12
q-155 0 -276 74.5t-185.5 201.5t-64.5 283q0 161 63.5 294.5t186 215.5t280.5 82q121 0 221 -47.5t165 -129t100.5 -188.5t35.5 -227q0 -158 -63.5 -284.5t-184.5 -200.5t-278 -74zM2038 164q148 0 241 107t93 278q1 185 -91.5 300.5t-240.5 115.5q-149 0 -245 -116.5
t-95 -299.5q0 -171 94 -278t244 -107zM3154 164q148 0 241 107t93 278q1 185 -91.5 300.5t-240.5 115.5q-149 0 -245 -116.5t-95 -299.5q0 -171 94 -278t244 -107z" />
    <glyph glyph-name="guilsinglleft" unicode="&#x2039;" horiz-adv-x="866" 
d="M360 553l418 -385l-293 6l-417 381l440 379h291z" />
    <glyph glyph-name="guilsinglright" unicode="&#x203a;" horiz-adv-x="866" 
d="M381 174l-293 -6l418 385l-438 381h290l441 -379z" />
    <glyph glyph-name="fraction" unicode="&#x2044;" horiz-adv-x="952" 
d="M317 0h-249l567 1352h250z" />
    <glyph glyph-name="Euro" unicode="&#x20ac;" horiz-adv-x="1570" 
d="M1294 428l209 -90q-85 -168 -244 -263t-358 -95q-221 0 -399 116.5t-256 313.5h-176v208h131q-2 18 -2 58v29h-129v208h170q72 210 252.5 334.5t410.5 124.5q192 0 346.5 -86.5t243.5 -245.5l-205 -98q-62 105 -162.5 163t-222.5 58q-131 0 -240 -66.5t-167 -183.5h196
v-208h-252v-29q0 -22 4 -58h252v-208h-184q62 -104 164.5 -163t224.5 -59q127 0 230.5 63.5t162.5 176.5z" />
    <glyph glyph-name="trademark" unicode="&#x2122;" horiz-adv-x="1310" 
d="M381 651h-133l4 568l-184 2v131h596l208 -516l220 516h153v-701h-133v439l-188 -439h-101l-182 436v-436h-133v570l-123 -2z" />
    <glyph glyph-name="minus" unicode="&#x2212;" horiz-adv-x="798" 
d="M731 428h-663v219h663v-219z" />
    <glyph glyph-name="BeeType" horiz-adv-x="1390" 
d="M1325 428h-1257v369h1257v-369zM141 688v-166h90q64 0 64 45q0 30 -31 41q23 19 23 37q0 22 -17 32.5t-43 10.5h-86zM324 688v-166h129v31h-91v39h76v29h-76v36h87v31h-125zM483 688v-166h127v31h-90v39h76v29h-76v36h86v31h-123zM676 657v-135h37v135h55v31h-145v-31h53
zM838 582v-60h39v60l63 106h-39l-43 -74l-43 74h-43zM954 688v-166h39v47h33q72 0 72 60q0 29 -19.5 44t-52.5 15h-72zM1124 688v-166h129v31h-90v39h78v29h-78v36h88v31h-127zM219 621h-39v38h39q27 0 27 -20q0 -18 -27 -18zM1024 600h-31v57h31q35 0 35 -28
q0 -17 -8.5 -23t-26.5 -6zM227 551h-47v41h47q29 0 29 -21q0 -20 -29 -20z" />
    </font>
</defs>
</svg>
