<?xml version="1.0" standalone="no"?>
<!DOCTYPE svg PUBLIC "-//W3C//DTD SVG 1.1//EN" "http://www.w3.org/Graphics/SVG/1.1/DTD/svg11.dtd" >
<svg xmlns="http://www.w3.org/2000/svg" xmlns:xlink="http://www.w3.org/1999/xlink" version="1.1">
<metadata>
Created by FontForge 20201107 at Tue Apr 15 18:23:01 2025
 By 
Copyright (c) 2022 by beetype. All rights reserved.
</metadata>
<defs>
<font id="Aloevera-MediumItalic" horiz-adv-x="0" >
  <font-face 
    font-family="Aloevera-MediumItalic"
    font-weight="500"
    font-style="italic"
    font-stretch="normal"
    units-per-em="2048"
    panose-1="1 0 0 0 0 0 0 0 0 0"
    ascent="1638"
    descent="-410"
    x-height="1038"
    cap-height="1352"
    bbox="-741 -542.348 3657.59 1837"
    underline-thickness="102"
    underline-position="-255"
    unicode-range="U+0020-2212"
  />
<missing-glyph horiz-adv-x="1372" 
d="M348 211q-60 0 -123 24t-110 74t-47 113q0 126 154 232t384 132l19 2q-15 17 -27 46t-12 49q0 49 37 86q10 10 10 14q0 8 -8 16q-16 21 -78 93q-13 17 3 32q17 16 34 -3q2 -2 4 -5q46 -73 61 -100q8 -14 13 -16.5t18 -0.5q28 8 55 0q14 -4 24 11q2 2 3 4l65 104
q9 12 21 10t15.5 -12.5t-3.5 -23.5l-35 -45l-39 -54q-6 -7 7 -20q41 -47 41 -92q0 -37 -37 -97q134 -20 250.5 -73t188 -128t71.5 -153q0 -58 -48.5 -106.5t-111.5 -72.5t-119 -24q-85 0 -167 57.5t-132 149.5l-33 60l-37 -66q-49 -87 -131 -152t-180 -65zM348 264
q152 0 266 195q3 5 12.5 21.5t17 28.5t17 25.5t18.5 21t17 7.5q14 0 27.5 -15.5t30.5 -47.5t22 -39q116 -178 252 -178q70 0 148 45.5t75 103.5q-3 55 -46 105.5t-107 85.5t-139 61.5t-143.5 39.5t-119.5 13q-85 0 -184 -23.5t-187 -63t-146 -100t-58 -126.5t75 -113
t152 -47z" />
    <glyph glyph-name=".notdef" horiz-adv-x="1372" 
d="M348 211q-60 0 -123 24t-110 74t-47 113q0 126 154 232t384 132l19 2q-15 17 -27 46t-12 49q0 49 37 86q10 10 10 14q0 8 -8 16q-16 21 -78 93q-13 17 3 32q17 16 34 -3q2 -2 4 -5q46 -73 61 -100q8 -14 13 -16.5t18 -0.5q28 8 55 0q14 -4 24 11q2 2 3 4l65 104
q9 12 21 10t15.5 -12.5t-3.5 -23.5l-35 -45l-39 -54q-6 -7 7 -20q41 -47 41 -92q0 -37 -37 -97q134 -20 250.5 -73t188 -128t71.5 -153q0 -58 -48.5 -106.5t-111.5 -72.5t-119 -24q-85 0 -167 57.5t-132 149.5l-33 60l-37 -66q-49 -87 -131 -152t-180 -65zM348 264
q152 0 266 195q3 5 12.5 21.5t17 28.5t17 25.5t18.5 21t17 7.5q14 0 27.5 -15.5t30.5 -47.5t22 -39q116 -178 252 -178q70 0 148 45.5t75 103.5q-3 55 -46 105.5t-107 85.5t-139 61.5t-143.5 39.5t-119.5 13q-85 0 -184 -23.5t-187 -63t-146 -100t-58 -126.5t75 -113
t152 -47z" />
    <glyph glyph-name=".null" 
 />
    <glyph glyph-name="nonmarkingreturn" horiz-adv-x="682" 
 />
    <glyph glyph-name="space" unicode=" " horiz-adv-x="512" 
 />
    <glyph glyph-name="exclam" unicode="!" horiz-adv-x="600" 
d="M328 322h-174l147 1030h234zM188 -10q-63 0 -95.5 35.5t-22.5 95.5q9 57 55 94t108 37q66 0 99 -36t22 -95q-9 -59 -56.5 -95t-109.5 -36z" />
    <glyph glyph-name="quotedbl" unicode="&#x22;" horiz-adv-x="731" 
d="M371 1016l-187 -103q-79 117 -89.5 203.5t26.5 235.5h225q-29 -135 -23.5 -190t48.5 -146zM664 1016l-185 -103q-80 116 -90 203t27 236h225q-29 -135 -24 -190t47 -146z" />
    <glyph glyph-name="numbersign" unicode="#" horiz-adv-x="1531" 
d="M309 0h-223l154 307h-162l39 205h219l180 348h-194l38 205h252l142 287h221l-139 -287h235l141 287h224l-142 -287h170l-39 -205h-227l-180 -348h203l-39 -205h-260l-154 -307h-223l155 307h-237zM735 860l-174 -348h236l176 348h-238z" />
    <glyph glyph-name="dollar" unicode="$" horiz-adv-x="1067" 
d="M524 -10h-233l26 162q-132 29 -199.5 117t-43.5 229l221 -4q-5 -49 8 -84.5t41 -55.5t61 -29.5t76 -11.5q71 -5 137.5 31.5t79.5 97.5q13 66 -27.5 98.5t-148.5 51.5q-102 14 -171 33.5t-125 53t-77.5 86.5t-9.5 128q18 122 117 203.5t244 103.5l30 174h234l-33 -178
q148 -23 215.5 -110t48.5 -230h-223q9 85 -41 128.5t-145 43.5q-80 2 -140.5 -37t-70.5 -104q-10 -59 32.5 -90t153.5 -52q50 -9 88 -17.5t75.5 -18.5t65 -21.5t53 -25.5t42 -31t29 -37.5t18 -45.5t5 -55t-6.5 -65q-24 -122 -126.5 -197.5t-252.5 -89.5z" />
    <glyph glyph-name="percent" unicode="%" horiz-adv-x="2301" 
d="M465 362q-141 0 -238.5 67.5t-136 179t-14.5 245.5q38 213 197 360.5t374 147.5q143 0 240.5 -69t133.5 -184t11 -255q-24 -133 -102.5 -245t-201 -179.5t-263.5 -67.5zM868 0h-233l807 1352h233zM500 545q134 0 230 88.5t120 222.5q28 145 -36.5 233.5t-197.5 88.5
q-137 0 -236 -89.5t-122 -232.5q-22 -133 44 -222t198 -89zM1661 0q-141 0 -239 67t-137 179t-15 246q25 139 103 253.5t201.5 184t266.5 69.5t240.5 -69t133.5 -183.5t11 -254.5q-24 -133 -102 -245t-200 -179.5t-263 -67.5zM1696 182q132 0 227.5 89t122.5 223
q26 146 -38 234.5t-198 88.5q-136 0 -235.5 -90t-122.5 -233q-22 -134 44 -223t200 -89z" />
    <glyph glyph-name="ampersand" unicode="&#x26;" horiz-adv-x="1398" 
d="M485 -20q-195 -12 -312.5 89t-104.5 273q7 74 36 138t70 109.5t92.5 81t101.5 55.5t99 30q-53 51 -90.5 124t-22.5 162q16 101 88 177.5t177.5 115t226.5 37.5q216 -2 321.5 -132.5t61.5 -346.5h-234q22 138 -24.5 217.5t-159.5 79.5q-88 0 -149 -44.5t-76 -121.5
q-10 -61 15 -112.5t87 -125.5l645 -786h-276l-201 240q-44 -110 -144.5 -182t-226.5 -78zM502 168q84 2 162.5 63t95.5 150l-197 240q-94 -5 -175 -74t-91 -172q-9 -88 51.5 -148.5t153.5 -58.5z" />
    <glyph glyph-name="quotesingle" unicode="'" horiz-adv-x="411" 
d="M344 1016l-184 -103q-80 117 -90.5 203.5t26.5 235.5h226q-29 -135 -24.5 -190.5t46.5 -145.5z" />
    <glyph glyph-name="parenleft" unicode="(" horiz-adv-x="843" 
d="M555 53l-149 -168q-43 28 -79 56.5t-77 71t-72 89t-57.5 108.5t-39.5 131t-13.5 156.5t16.5 184.5q25 152 97.5 296t203 277.5t303.5 223.5l88 -158q-86 -52 -155.5 -109t-134.5 -134t-110.5 -176.5t-66.5 -215.5q-13 -75 -12.5 -144t10.5 -124t30 -105t44 -88
t54.5 -71.5t59 -57t60.5 -43.5z" />
    <glyph glyph-name="parenright" unicode=")" horiz-adv-x="849" 
d="M156 -115l-90 168q56 29 108 64.5t112 92t108 122.5t88.5 158t60.5 196q12 82 13.5 150t-13 129.5t-35.5 111t-54.5 95t-69 81t-79.5 68.5l148 158q106 -68 179.5 -161.5t107.5 -196t42 -216.5t-16 -223q-26 -134 -78 -250.5t-111.5 -197.5t-137.5 -152t-142.5 -114
t-140.5 -83z" />
    <glyph glyph-name="asterisk" unicode="*" horiz-adv-x="851" 
d="M440 678h-161l47 182l-148 -133l-88 111l180 125l-200 -15l26 156l199 -17l-131 132l129 100l92 -150l29 183h151l-37 -181l142 144l88 -107l-168 -118l196 10l-34 -162l-181 12l115 -123l-119 -110l-106 143z" />
    <glyph glyph-name="plus" unicode="+" horiz-adv-x="929" 
d="M514 240h-233l49 274h-262l34 205h263l47 264h233l-47 -264h266l-37 -205h-264z" />
    <glyph glyph-name="comma" unicode="," horiz-adv-x="507" 
d="M211 -188l-143 112q72 84 102 152t39 176h233q-26 -152 -74.5 -244t-156.5 -196z" />
    <glyph glyph-name="hyphen" unicode="-" horiz-adv-x="841" 
d="M735 426h-667l38 223h668z" />
    <glyph glyph-name="period" unicode="." horiz-adv-x="407" 
d="M182 2q-57 0 -90 39.5t-24 95.5q11 56 57.5 95.5t103.5 39.5q54 0 86.5 -40t22.5 -95q-9 -55 -55.5 -95t-100.5 -40z" />
    <glyph glyph-name="slash" unicode="/" horiz-adv-x="1196" 
d="M322 0h-254l804 1352h256z" />
    <glyph glyph-name="zero" unicode="0" horiz-adv-x="1437" 
d="M598 -20q-187 0 -317.5 90t-182 243.5t-18.5 343.5q26 145 95 275t167.5 227.5t230 155t275.5 57.5q118 0 213.5 -37t158 -103t102.5 -156t46 -196t-12 -223q-25 -142 -92.5 -266.5t-165.5 -215t-227.5 -143t-272.5 -52.5zM639 197q180 0 313 129t170 333q40 222 -47 360
t-264 138q-180 0 -319 -138.5t-177 -359.5q-35 -204 54 -333t270 -129z" />
    <glyph glyph-name="one" unicode="1" horiz-adv-x="600" 
d="M301 0h-233l186 1067h-141l37 203q52 0 98 21.5t53 60.5h234z" />
    <glyph glyph-name="two" unicode="2" horiz-adv-x="1282" 
d="M1026 0h-958l30 180l353 254q32 23 95.5 68.5t89.5 64.5t75 55.5t70 54.5t55.5 47.5t50.5 48.5t35.5 44.5t29.5 47.5t15 46q25 112 -35 180.5t-195 67.5q-106 0 -193 -66.5t-120 -183.5h-234q40 213 196.5 334t373.5 129q154 6 265 -48t158 -153t23 -223
q-9 -47 -27 -89.5t-39 -78t-58 -75.5t-69 -71t-88.5 -75.5t-101 -78t-119.5 -88.5q-32 -24 -49 -36l-188 -143h596z" />
    <glyph glyph-name="three" unicode="3" horiz-adv-x="1218" 
d="M475 -20q-75 0 -139 14.5t-121.5 46.5t-92 84t-50 127.5t3.5 175.5h205q-13 -73 -0.5 -123t47.5 -76t79 -36.5t105 -10.5q123 0 205 53.5t100 155.5q20 109 -54.5 153t-225.5 44h-203l31 172h194q76 0 131.5 8.5t103.5 30t77 62t40 100.5q18 107 -44 158.5t-189 51.5
q-268 0 -318 -245h-204q21 116 79 204.5t137.5 140t168 76.5t182.5 25q224 0 340 -103t82 -300q-20 -111 -83 -186.5t-149 -102.5q79 -31 118 -107t18 -190q-17 -97 -71.5 -175.5t-133.5 -127t-173.5 -74.5t-195.5 -26z" />
    <glyph glyph-name="four" unicode="4" horiz-adv-x="1273" 
d="M930 0h-234l45 270l-673 4l30 170l860 908h211l-157 -879h184l-35 -203h-186zM471 559l246 -84l139 434z" />
    <glyph glyph-name="five" unicode="5" horiz-adv-x="1208" 
d="M514 -20q-101 -2 -188.5 31t-150.5 94.5t-91 157t-8 210.5h233q-11 -66 5 -121t52 -89t84.5 -52.5t102.5 -17.5q132 3 221 83t113 209q27 136 -36 219.5t-175 86.5q-200 6 -336 -170l-217 81l246 650h759l-36 -213h-574l-125 -328q68 65 169.5 103t207.5 34
q187 -6 288.5 -135t61.5 -340q-41 -209 -206 -349.5t-400 -143.5z" />
    <glyph glyph-name="six" unicode="6" horiz-adv-x="1257" 
d="M510 -20q-93 -2 -176.5 31t-147 95t-96 161t-20.5 220q12 116 43 231t91 231.5t141 206t200.5 149.5t261.5 67q243 14 385 -135l-154 -154q-44 46 -116.5 69t-155.5 17q-117 -6 -216 -89t-163 -255q123 129 330 129q98 3 181.5 -30t140.5 -94.5t80.5 -154.5t2.5 -202
q-43 -223 -208 -356.5t-404 -136.5zM547 193q133 3 226.5 83t115.5 201q24 127 -39 210.5t-180 86.5q-90 3 -169 -28.5t-133.5 -99t-64.5 -159.5q-13 -138 60 -217t184 -77z" />
    <glyph glyph-name="seven" unicode="7" horiz-adv-x="1150" 
d="M324 0h-256l712 1141l-598 -2l39 213h862l-32 -191z" />
    <glyph glyph-name="eight" unicode="8" horiz-adv-x="1259" 
d="M518 -20q-109 0 -200 31.5t-148.5 85t-84.5 124t-15 146.5q14 98 68 174t124.5 118.5t155.5 63.5q-97 27 -157 104t-46 187q21 154 172 256t375 102q220 0 338.5 -102.5t87.5 -257.5q-23 -112 -104.5 -184t-188.5 -103q125 -32 190 -121.5t35 -236.5q-34 -163 -203 -275
t-399 -112zM666 805q99 0 182.5 46.5t99.5 127.5q10 48 -6.5 85.5t-51 59.5t-77 33.5t-86.5 11.5q-63 0 -121 -16.5t-107 -61.5t-57 -112q-10 -78 58.5 -126t165.5 -48zM557 182q122 0 218.5 58t115.5 159q20 98 -46 167t-208 69q-121 0 -217.5 -71t-110.5 -165
q-15 -94 59.5 -155.5t188.5 -61.5z" />
    <glyph glyph-name="nine" unicode="9" horiz-adv-x="1257" 
d="M750 1370q92 2 175 -31t146.5 -95t96 -161t20.5 -221q-12 -116 -43 -230.5t-91 -231t-141 -206.5t-200 -150t-260 -67q-242 -14 -385 136l151 155q45 -47 117 -70t156 -18q118 8 217 91t163 253q-126 -129 -331 -129q-98 -3 -182 30.5t-141 95.5t-80.5 155t-2.5 201
q44 224 210 357t405 136zM711 1157q-132 -1 -226 -82t-116 -201q-24 -128 39.5 -212t181.5 -87q139 -3 245 74.5t119 212.5q13 139 -59.5 218t-183.5 77z" />
    <glyph glyph-name="colon" unicode=":" horiz-adv-x="532" 
d="M307 868q-57 0 -90 40t-24 96q11 56 57.5 95.5t103.5 39.5q54 0 86.5 -40t22.5 -95q-9 -55 -55.5 -95.5t-100.5 -40.5zM182 150q-57 0 -90 39.5t-24 95.5q11 56 57.5 95.5t103.5 39.5q54 0 86.5 -40t22.5 -95q-9 -55 -55.5 -95t-100.5 -40z" />
    <glyph glyph-name="semicolon" unicode=";" horiz-adv-x="591" 
d="M367 868q-55 0 -88.5 40t-24.5 96q9 55 56.5 95t103.5 40q55 0 87 -39.5t23 -95.5t-55.5 -96t-101.5 -40zM211 -156l-143 113q72 84 102 152t39 176h233q-26 -152 -74.5 -244.5t-156.5 -196.5z" />
    <glyph glyph-name="less" unicode="&#x3c;" horiz-adv-x="968" 
d="M729 225h-291l-370 404l534 401h299l-539 -403z" />
    <glyph glyph-name="equal" unicode="=" horiz-adv-x="811" 
d="M707 662h-588l39 212h587zM657 367h-589l36 213h590z" />
    <glyph glyph-name="greater" unicode="&#x3e;" horiz-adv-x="925" 
d="M348 225h-280l505 402l-397 403h291l393 -401z" />
    <glyph glyph-name="question" unicode="?" horiz-adv-x="1239" 
d="M340 260h-234l15 86q16 88 65.5 150t117.5 95.5t147 57.5t157.5 44t145.5 46t115 72.5t61 114.5q23 119 -40.5 182t-199.5 61q-118 -2 -204 -61t-107 -174h-234q26 190 192 313t382 125q232 1 357 -125.5t87 -320.5q-15 -79 -51.5 -142t-84.5 -103t-106.5 -71t-120 -50
t-122.5 -35t-116.5 -31.5t-99 -33.5t-72.5 -46t-36 -66zM178 -10q-58 0 -88 31t-22 77q8 44 48.5 74.5t98.5 30.5q57 0 86 -30.5t21 -74.5q-8 -46 -47.5 -77t-96.5 -31z" />
    <glyph glyph-name="at" unicode="@" horiz-adv-x="1624" 
d="M602 -106q-122 -1 -222 35t-166.5 102t-106.5 157.5t-41 201.5t30 235q57 207 196.5 375t330 262.5t391.5 93.5q153 -1 270 -54.5t183.5 -149t85 -228t-26.5 -291.5q-53 -194 -168 -333.5t-254 -172.5q-97 -30 -149.5 9t-34.5 118l26 94q-45 -54 -115.5 -95.5
t-144.5 -53.5q-139 -21 -217.5 47t-60.5 186q18 103 103 180t222 107q147 36 297 29q16 75 -15 123.5t-116 48.5q-79 0 -141 -38.5t-92 -113.5h-162q56 143 174 221t254 78q168 0 224.5 -108t14.5 -283q-43 -176 -110 -346q-9 -26 -0.5 -42.5t32 -13.5t52.5 31
q122 114 184 334q43 166 10.5 285.5t-129.5 186.5t-239 67q-143 0 -280 -66t-244.5 -194t-151.5 -293q-42 -169 -11.5 -292.5t129 -192.5t244.5 -66q73 0 160 24l-35 -180q-85 -21 -180 -24zM745 352q83 18 154 80t92 143l13 48q-124 9 -250 -29q-75 -23 -121.5 -64
t-50.5 -96q-3 -52 45 -74t118 -8z" />
    <glyph glyph-name="A" unicode="A" horiz-adv-x="1572" 
d="M322 0h-254l837 1352h234l368 -1352h-256l-114 414l-555 2zM969 1036l-269 -428h385z" />
    <glyph glyph-name="B" unicode="B" horiz-adv-x="1298" 
d="M592 0h-524l237 1352h522q77 0 140 -11t106 -30t75.5 -45t49 -56.5t27 -65t8.5 -69t-6 -69.5q-17 -97 -93 -170.5t-190 -102.5q115 -33 174.5 -121.5t38.5 -203.5q-9 -55 -32 -108t-68.5 -108.5t-106.5 -97t-154 -68t-204 -26.5zM512 1139l-55 -324h237q254 0 283 160
q13 80 -35.5 122t-181.5 42h-248zM424 629l-74 -416h254q147 0 222.5 57t91.5 154q16 94 -43 149.5t-205 55.5h-246z" />
    <glyph glyph-name="C" unicode="C" horiz-adv-x="1499" 
d="M655 -20q-143 0 -262 51.5t-198 141.5t-111 221t-4 282q37 202 161 362.5t298 247t364 86.5q193 0 332.5 -88.5t198.5 -245.5l-228 -102q-40 104 -130 163.5t-210 59.5q-124 0 -238.5 -59.5t-196.5 -171t-107 -252.5q-35 -208 72.5 -345.5t297.5 -137.5q126 0 240 64.5
t190 176.5l195 -94q-112 -166 -288 -263t-376 -97z" />
    <glyph glyph-name="D" unicode="D" horiz-adv-x="1480" 
d="M549 0h-481l239 1352h490q111 0 210.5 -25.5t183 -77t137.5 -130.5t76 -186t-3 -243q-36 -206 -163 -365t-307 -242t-382 -83zM512 1139l-164 -926h242q145 0 267.5 63t198.5 168t99 234q37 206 -68 333.5t-321 127.5h-254z" />
    <glyph glyph-name="E" unicode="E" horiz-adv-x="1308" 
d="M1004 0h-936l237 1352h938l-43 -244h-694l-57 -326h618l-39 -213h-618l-56 -325h693z" />
    <glyph glyph-name="F" unicode="F" horiz-adv-x="1308" 
d="M311 0h-243l237 1352h938l-43 -244h-694l-57 -326h567l-39 -213h-567z" />
    <glyph glyph-name="G" unicode="G" horiz-adv-x="1499" 
d="M655 -20q-143 0 -262 51.5t-198 141.5t-111 221t-4 282q37 202 161 362.5t298 247t364 86.5q193 0 332.5 -88.5t198.5 -245.5l-228 -102q-40 104 -130 163.5t-210 59.5q-124 0 -238.5 -59.5t-196.5 -171t-107 -252.5q-35 -208 72.5 -345.5t297.5 -137.5q272 0 420 204
l33 189h-359l29 162h576l-74 -408q-112 -166 -288 -263t-376 -97z" />
    <glyph glyph-name="H" unicode="H" horiz-adv-x="1396" 
d="M311 0h-243l237 1352h244l-100 -572h536l100 572h244l-237 -1352h-244l100 567h-538z" />
    <glyph glyph-name="I" unicode="I" horiz-adv-x="604" 
d="M301 0h-233l237 1352h234z" />
    <glyph glyph-name="J" unicode="J" horiz-adv-x="1269" 
d="M485 -20q-73 0 -138 16t-121.5 51.5t-94.5 87.5t-53.5 130t-1.5 173h225q-10 -118 49 -187t170 -69q118 0 197.5 80t101.5 195l158 895h225l-155 -887q-23 -126 -82 -223t-138.5 -152.5t-166 -82.5t-175.5 -27z" />
    <glyph glyph-name="K" unicode="K" horiz-adv-x="1499" 
d="M311 0h-243l235 1352h244l-107 -611l711 611h281l-625 -553l352 -799h-268l-281 621l-225 -199z" />
    <glyph glyph-name="L" unicode="L" horiz-adv-x="1085" 
d="M981 0h-913l237 1352h244l-201 -1139h670z" />
    <glyph glyph-name="M" unicode="M" horiz-adv-x="1757" 
d="M311 0h-243l237 1352h262l262 -924l601 924h262l-238 -1352h-244l156 889l-532 -889h-158l-209 885z" />
    <glyph glyph-name="N" unicode="N" horiz-adv-x="1470" 
d="M311 0h-243l237 1352h217l471 -942l168 942h244l-238 -1352h-213l-481 930z" />
    <glyph glyph-name="O" unicode="O" horiz-adv-x="1548" 
d="M657 -20q-142 0 -261.5 51.5t-198.5 140.5t-111.5 218t-5.5 276q37 202 160.5 362.5t297.5 247t365 86.5q144 0 262 -52t194 -142.5t106 -221t3 -280.5q-35 -194 -154 -351.5t-292.5 -246t-364.5 -88.5zM694 193q188 0 340.5 135t190.5 338q19 106 0 197t-68 153.5
t-125 97.5t-168 35q-123 0 -237 -59.5t-196 -171t-107 -252.5q-35 -201 73 -337t297 -136z" />
    <glyph glyph-name="P" unicode="P" horiz-adv-x="1339" 
d="M311 0h-243l237 1352h531q85 0 154 -14.5t115.5 -38.5t80.5 -58t52 -71.5t26.5 -80.5t7.5 -82.5t-8 -80.5q-10 -58 -32.5 -112t-68 -109t-107.5 -95.5t-157 -66t-211 -25.5h-287zM510 1139l-72 -408h287q262 0 295 195q19 98 -33.5 155.5t-191.5 57.5h-285z" />
    <glyph glyph-name="Q" unicode="Q" horiz-adv-x="1548" 
d="M1233 -6l110 -178q-109 -80 -217.5 -123t-198 -47.5t-167 19t-129 71t-77.5 115t-19 145.5q-159 24 -273.5 115.5t-164 237t-17.5 317.5q37 202 160.5 362.5t297.5 247t365 86.5q144 0 262 -52t194 -142.5t106 -221t3 -280.5q-47 -259 -238 -445.5t-442 -226.5
q-8 -82 67 -115.5t185.5 -2.5t192.5 118zM694 193q188 0 340.5 135t190.5 338q19 106 0 197t-68 153.5t-125 97.5t-168 35q-123 0 -237 -59.5t-196 -171t-107 -252.5q-35 -201 73 -337t297 -136z" />
    <glyph glyph-name="R" unicode="R" horiz-adv-x="1339" 
d="M311 0h-243l237 1352h531q85 0 154 -13.5t116 -37t81 -57t52 -70t26.5 -80.5t7.5 -85t-9 -85q-13 -75 -41.5 -139.5t-75.5 -121.5t-119.5 -94.5t-165.5 -48.5l-71 -2l235 -518h-272l-232 518h-121zM510 1139l-74 -418h287q263 0 297 203q19 98 -34 156.5t-191 58.5h-285z
" />
    <glyph glyph-name="S" unicode="S" horiz-adv-x="1206" 
d="M500 -20q-133 2 -235.5 52.5t-156.5 149.5t-36 230h225q-7 -50 6 -91.5t38.5 -68t60 -45t69.5 -26.5t70 -9q68 0 127.5 18.5t107.5 63.5t62 111q21 100 -42.5 152.5t-215.5 78.5q-229 31 -341 126t-81 269q20 115 101 203.5t196 133t243 44.5q134 0 239 -49.5t161 -147.5
t37 -227h-226q7 59 -10.5 105t-53 73t-81 40.5t-98.5 13.5q-98 0 -179 -53t-98 -140q-14 -80 46.5 -131t201.5 -74q251 -38 361.5 -141t70.5 -295q-20 -93 -76.5 -166t-135.5 -116.5t-170 -64.5t-187 -19z" />
    <glyph glyph-name="T" unicode="T" horiz-adv-x="1255" 
d="M528 0h-243l202 1139h-419l36 213h1084l-37 -213h-420z" />
    <glyph glyph-name="U" unicode="U" horiz-adv-x="1402" 
d="M541 -20q-256 0 -380.5 148t-82.5 386l147 838h244l-145 -817q-27 -154 38.5 -248t217.5 -94q151 0 247 93.5t123 248.5l144 817h243l-147 -838q-42 -236 -218 -385t-431 -149z" />
    <glyph glyph-name="V" unicode="V" horiz-adv-x="1454" 
d="M594 0h-232l-294 1352h254l215 -1028l596 1028h253z" />
    <glyph glyph-name="W" unicode="W" horiz-adv-x="2123" 
d="M492 0h-232l-192 1352h254l120 -1024l486 1024h256l98 -1024l520 1024h254l-715 -1352h-231l-111 1051z" />
    <glyph glyph-name="X" unicode="X" horiz-adv-x="1597" 
d="M324 0h-256l608 686l-367 666h256l266 -500l445 500h254l-598 -666l366 -686h-256l-268 520z" />
    <glyph glyph-name="Y" unicode="Y" horiz-adv-x="1476" 
d="M616 0h-233l98 557l-413 795h254l311 -604l522 604h254l-696 -797z" />
    <glyph glyph-name="Z" unicode="Z" horiz-adv-x="1335" 
d="M1022 0h-954l34 203l856 936h-700l39 213h973l-37 -201l-854 -938h680z" />
    <glyph glyph-name="bracketleft" unicode="[" horiz-adv-x="886" 
d="M512 -195h-444l307 1743h444l-37 -205h-211l-235 -1333h213z" />
    <glyph glyph-name="backslash" unicode="\" horiz-adv-x="1196" 
d="M324 1352l804 -1352h-254l-806 1352h256z" />
    <glyph glyph-name="bracketright" unicode="]" horiz-adv-x="894" 
d="M711 1548l-328 -1743h-444l38 205h211l252 1333h-213l37 205h447z" />
    <glyph glyph-name="asciicircum" unicode="^" horiz-adv-x="903" 
d="M272 698h-204l434 654h141l193 -652h-205l-111 377z" />
    <glyph glyph-name="underscore" unicode="_" horiz-adv-x="985" 
d="M883 0h-815l34 203h816z" />
    <glyph glyph-name="a" unicode="a" horiz-adv-x="1396" 
d="M498 -20q-221 -1 -341.5 153.5t-80.5 380.5q45 251 213 399t387 146q140 0 242.5 -68.5t123.5 -195.5l43 243h244l-182 -1038h-242l43 250q-67 -122 -191.5 -196t-258.5 -74zM594 184q136 2 250.5 95.5t140.5 236.5q27 153 -53.5 245.5t-218.5 94.5q-139 2 -253 -92
t-141 -248q-17 -96 15.5 -173t101.5 -118.5t158 -40.5z" />
    <glyph glyph-name="b" unicode="b" horiz-adv-x="1380" 
d="M698 -20q-128 0 -226 76.5t-118 203.5l-45 -260h-241l237 1352h244l-100 -570q63 131 191 204t261 73q213 2 329 -146.5t73 -398.5q-40 -226 -214.5 -380.5t-390.5 -153.5zM672 184q132 -2 246 91t141 241q27 154 -52.5 248t-213.5 92q-132 -2 -243.5 -93.5
t-139.5 -246.5q-13 -74 4 -137t55 -105t90.5 -65.5t112.5 -24.5z" />
    <glyph glyph-name="c" unicode="c" horiz-adv-x="1282" 
d="M553 -20q-116 0 -213.5 39.5t-162.5 109t-93 170t-8 215.5q28 163 126 288.5t239 191t302 65.5q182 0 308 -82.5t166 -228.5l-242 -86q-25 89 -97.5 141.5t-170.5 52.5q-138 0 -250 -96t-138 -244q-26 -141 53 -237.5t214 -96.5q101 0 193.5 55t148.5 146l209 -88
q-90 -146 -245 -230.5t-339 -84.5z" />
    <glyph glyph-name="d" unicode="d" horiz-adv-x="1435" 
d="M492 -20q-216 -1 -336 153.5t-80 380.5q45 250 213 398.5t381 146.5q86 0 160.5 -29.5t128 -94t63.5 -153.5l102 570h244l-238 -1352h-241l45 262q-43 -89 -116.5 -154t-157 -96.5t-168.5 -31.5zM590 184q127 2 239.5 94t139.5 238q26 155 -52.5 246.5t-209.5 93.5
q-87 2 -168 -38t-141 -119.5t-79 -182.5q-17 -96 16 -173.5t101 -118.5t154 -40z" />
    <glyph glyph-name="e" unicode="e" horiz-adv-x="1239" 
d="M530 -20q-107 0 -199.5 38.5t-156.5 107t-91.5 170.5t-6.5 220q23 128 86.5 232.5t152 171.5t193 103t213.5 36q217 0 343 -134t105 -366q-3 -50 -16 -96l-856 -2q-6 -121 74 -200t194 -79q90 -2 176 38.5t142 115.5l166 -94q-91 -123 -229 -192.5t-290 -69.5zM340 602
l608 2q1 117 -75 187.5t-187 68.5q-110 0 -209.5 -70.5t-136.5 -187.5z" />
    <glyph glyph-name="f" unicode="f" horiz-adv-x="1060" 
d="M373 0h-244l113 651h-174l34 203h177l18 109q16 89 57.5 162.5t98.5 121.5t126 79.5t140.5 40.5t142.5 -0.5t131 -37.5l-80 -209q-58 27 -118.5 31t-112.5 -15t-90.5 -65.5t-50.5 -114.5l-19 -102h301l-37 -203h-299z" />
    <glyph glyph-name="g" unicode="g" horiz-adv-x="1415" 
d="M537 -512q-244 0 -367.5 89t-97.5 253q14 98 79 174t156 119q-51 33 -35 110q17 75 115 142q-55 45 -81.5 117t-12.5 159q33 183 173.5 290.5t354.5 107.5q90 0 183 -19h346l-31 -182h-160q57 -76 39 -186q-31 -178 -169.5 -283t-348.5 -105q-90 0 -131 13
q-80 -41 -92 -88q-6 -34 23 -46t89 -12h209q92 0 165.5 -17t127.5 -52.5t76.5 -96t7.5 -141.5q-66 -346 -618 -346zM715 475q116 0 181 50t79 137q15 88 -36.5 137t-158.5 49q-230 0 -264 -193q-14 -86 36 -133t163 -47zM551 -332q349 0 379 156q17 83 -35.5 123.5
t-175.5 40.5h-174q-100 0 -171.5 -43t-82.5 -125q-10 -83 57.5 -117.5t202.5 -34.5z" />
    <glyph glyph-name="h" unicode="h" horiz-adv-x="1316" 
d="M319 0h-251l237 1352h244l-98 -553q58 128 174.5 194t244.5 66q217 1 313.5 -142t53.5 -389l-92 -528h-244l90 522q27 147 -28 241t-199 93q-138 -2 -231.5 -91t-122.5 -249z" />
    <glyph glyph-name="i" unicode="i" horiz-adv-x="614" 
d="M391 1153q-54 0 -89 30.5t-28 76.5q9 46 54.5 75t101.5 29q54 0 89 -29t28 -75q-9 -46 -55.5 -76.5t-100.5 -30.5zM311 0h-243l182 1038h244z" />
    <glyph glyph-name="j" unicode="j" horiz-adv-x="980" 
d="M758 1151q-55 0 -90.5 30t-26.5 76t54.5 75.5t101.5 29.5q54 0 88.5 -29.5t25.5 -75.5q-7 -46 -53 -76t-100 -30zM68 -506l71 219q107 -11 182.5 37.5t96.5 157.5l198 1130h244l-201 -1138q-14 -78 -47 -144.5t-78.5 -113t-102 -82.5t-117 -52.5t-124 -22t-122.5 8.5z
" />
    <glyph glyph-name="k" unicode="k" horiz-adv-x="1261" 
d="M311 0h-243l239 1352h244l-129 -717l506 403h268l-514 -436l379 -602h-264l-308 473l-110 -88z" />
    <glyph glyph-name="l" unicode="l" horiz-adv-x="614" 
d="M311 0h-243l237 1352h244z" />
    <glyph glyph-name="m" unicode="m" horiz-adv-x="2072" 
d="M319 0h-251l182 1038h244l-45 -245q38 105 153.5 185t247.5 81q143 1 232.5 -72t109.5 -203q68 127 190.5 202t253.5 73q205 -2 302.5 -138t56.5 -372l-97 -549h-243l94 547q25 140 -32 225t-187 84q-126 -1 -212.5 -85.5t-111.5 -225.5l-94 -545h-244l95 547
q25 140 -33 226t-187 83q-120 -3 -210.5 -91.5t-114.5 -215.5z" />
    <glyph glyph-name="n" unicode="n" horiz-adv-x="1318" 
d="M319 0h-251l182 1038h244l-45 -250q39 88 110.5 151t150.5 91.5t160 28.5q212 2 312 -135t59 -375l-96 -549h-244l94 547q25 141 -34.5 225.5t-196.5 83.5t-232.5 -98t-123.5 -252z" />
    <glyph glyph-name="o" unicode="o" horiz-adv-x="1298" 
d="M553 -20q-116 0 -213.5 39.5t-162.5 109t-93 170t-8 215.5q28 163 126 288.5t239 191t302 65.5q122 0 221 -38.5t163.5 -108t90 -172.5t3.5 -226q-43 -234 -231 -384t-437 -150zM586 182q138 0 252 96.5t139 237.5q27 148 -53 244t-217 96q-138 0 -250 -96t-138 -244
q-26 -141 53 -237.5t214 -96.5z" />
    <glyph glyph-name="p" unicode="p" horiz-adv-x="1435" 
d="M311 -313h-243l237 1351h242l-45 -258q65 132 187.5 205.5t254.5 73.5q217 1 336.5 -153.5t79.5 -381.5q-45 -250 -213 -398t-381 -146q-87 0 -160.5 27t-128 91t-65.5 156zM729 182q131 -2 245 93.5t142 248.5q24 145 -56.5 238.5t-213.5 91.5q-82 -1 -161.5 -40.5
t-140 -116t-77.5 -173.5q-28 -156 51.5 -248t210.5 -94z" />
    <glyph glyph-name="q" unicode="q" horiz-adv-x="1378" 
d="M1075 -313h-246l99 561q-66 -130 -189 -199t-260 -69q-213 -2 -328.5 146t-72.5 398q40 227 214 381.5t390 153.5q131 0 226 -73t118 -198l43 250h244zM588 182q134 2 243.5 93.5t137.5 248.5q25 145 -53.5 236.5t-208.5 93.5q-84 1 -165.5 -39.5t-142 -117.5t-77.5 -173
q-27 -153 53 -248.5t213 -93.5z" />
    <glyph glyph-name="r" unicode="r" horiz-adv-x="1079" 
d="M322 0h-254l182 1038h244l-48 -268q36 77 102.5 137.5t144.5 91t163 36.5t156 -25l-160 -203q-34 17 -78 18t-89 -12t-90 -40t-82 -64t-64 -88t-37 -107z" />
    <glyph glyph-name="s" unicode="s" horiz-adv-x="1069" 
d="M451 -20q-187 5 -296.5 103.5t-80.5 272.5l223 -2q-10 -96 42.5 -142.5t145.5 -49.5q73 -3 135.5 32t75.5 97q13 66 -27 98t-149 51q-101 14 -169.5 33.5t-123 53t-75.5 86.5t-9 128q23 144 153.5 231t313.5 87q201 0 306 -97t81 -272h-223q9 86 -42.5 135.5t-145.5 51.5
q-78 2 -137.5 -37.5t-69.5 -104.5q-9 -61 33.5 -95t152.5 -56q49 -9 86.5 -17t75 -18t64.5 -21t52 -24.5t41 -30t28.5 -36.5t17.5 -44t4.5 -53.5t-6.5 -63.5q-27 -143 -158.5 -222t-318.5 -74z" />
    <glyph glyph-name="t" unicode="t" horiz-adv-x="880" 
d="M705 229l4 -209q-70 -28 -143.5 -37.5t-140.5 0.5t-124.5 39.5t-96 80t-54 121.5t1.5 163l79 449h-163l36 213q28 0 51 3.5t40.5 8.5t32 17t24.5 21t18.5 28.5t13.5 33t11 40.5t9 44t8.5 51.5t9.5 55.5h243l-51 -303h301l-39 -213h-301l-74 -422q-13 -68 7.5 -118
t64.5 -72.5t105 -22t127 27.5z" />
    <glyph glyph-name="u" unicode="u" horiz-adv-x="1318" 
d="M451 -20q-213 -2 -313.5 136.5t-57.5 375.5l96 546h244l-96 -546q-26 -141 34 -226t197 -84t232.5 98t123.5 252l88 506h254l-182 -1038h-244l43 254q-39 -89 -110.5 -152.5t-150 -92.5t-158.5 -29z" />
    <glyph glyph-name="v" unicode="v" horiz-adv-x="1251" 
d="M559 0h-229l-262 1038h245l176 -770l449 770h246z" />
    <glyph glyph-name="w" unicode="w" horiz-adv-x="1779" 
d="M438 0h-231l-139 1038h243l99 -733l358 733h215l109 -733l376 733h244l-522 -1038h-238l-135 702z" />
    <glyph glyph-name="x" unicode="x" horiz-adv-x="1343" 
d="M313 0h-245l479 526l-283 512h246l201 -358l319 358h246l-457 -512l295 -526h-246l-209 385z" />
    <glyph glyph-name="y" unicode="y" horiz-adv-x="1046" 
d="M68 -180l161 141q20 -34 62.5 -47.5t93.5 4.5t86 70l76 118l-238 932h244l152 -737l446 737h246l-738 -1106q-66 -99 -150 -155t-164 -64t-153.5 19.5t-123.5 87.5z" />
    <glyph glyph-name="z" unicode="z" horiz-adv-x="1112" 
d="M866 0h-798l28 174l643 662h-528l37 202h799l-31 -172l-639 -663h524z" />
    <glyph glyph-name="braceleft" unicode="{" horiz-adv-x="716" 
d="M432 143l-35 -196q-169 0 -248.5 79t-46.5 230q24 101 72 236q20 61 -13.5 88t-92.5 24l32 187q59 -4 101 22t43 90q0 152 6 203q11 84 50 146.5t95.5 96.5t121.5 47.5t134 6.5l-37 -205q-61 0 -108 -32t-53 -101q-8 -153 -9 -186q-5 -67 -29 -112t-81 -79
q85 -68 41 -196q-8 -28 -29 -92.5t-35 -112.5q-8 -42 -2.5 -69t27.5 -43.5t45 -23t51 -8.5z" />
    <glyph glyph-name="bar" unicode="|" horiz-adv-x="600" 
d="M281 -49h-213l254 1444h213z" />
    <glyph glyph-name="braceright" unicode="}" horiz-adv-x="737" 
d="M66 -53l36 196q29 2 55 9t52.5 22.5t43.5 44.5t21 68q3 29 13 205q3 129 112 196q-44 34 -52.5 81.5t11.5 109.5l60 186q19 69 -17 101t-98 32l39 205q71 7 131 -6t105 -48.5t60 -95.5t-3 -147q-14 -61 -68 -203q-10 -35 -7 -57.5t21.5 -35t40 -17t48.5 -2.5l-35 -187
q-57 3 -101 -24t-47 -88q-3 -142 -14 -236q-21 -151 -128.5 -230t-278.5 -79z" />
    <glyph glyph-name="exclamdown" unicode="&#xa1;" horiz-adv-x="638" 
d="M449 1362q62 0 96 -36t24 -95q-11 -58 -58 -94.5t-112 -36.5q-61 0 -94 37.5t-22 93.5q12 60 57.5 95.5t108.5 35.5zM66 0l229 1032h174l-170 -1032h-233z" />
    <glyph glyph-name="cent" unicode="&#xa2;" horiz-adv-x="1282" 
d="M602 0h-184l26 152q-193 31 -298 175t-72 349q25 144 106 259.5t197.5 184t253.5 88.5l26 146h185l-25 -140q154 -15 259.5 -95.5t140.5 -211.5l-244 -84q-23 89 -96 142t-172 53q-137 0 -249 -96t-139 -246q-24 -141 55 -236.5t214 -95.5q100 0 193 54.5t149 144.5
l209 -86q-83 -132 -216 -214.5t-294 -97.5z" />
    <glyph glyph-name="sterling" unicode="&#xa3;" horiz-adv-x="1351" 
d="M973 0h-905l32 193q132 100 183 179t53 179h-184l32 180h150q-40 102 -25 195q30 191 187 319t378 127q144 -1 244.5 -65t141.5 -174.5t18 -247.5h-209q22 136 -42 210t-183 72q-125 -1 -208 -67.5t-101 -171.5q-17 -106 28 -199l348 2l-30 -180h-334q2 -54 -12.5 -103.5
t-43.5 -93t-54.5 -73.5t-61.5 -68l-10 -10h645z" />
    <glyph glyph-name="yen" unicode="&#xa5;" horiz-adv-x="1476" 
d="M1409 1352l-696 -797l-15 -80h172l-24 -141h-172l-10 -68h172l-25 -141h-172l-23 -125h-233l23 125h-185l25 141h184l12 68h-184l25 141h184l14 82l-413 795h254l311 -604l522 604h254z" />
    <glyph glyph-name="section" unicode="&#xa7;" horiz-adv-x="1089" 
d="M446 -20q-87 1 -160 23.5t-126.5 65t-77.5 110t-10 151.5l209 -4q-4 -48 10 -82t44 -53t64 -28t78 -11q83 -3 149 26t79 86q14 73 -29 98.5t-170 38.5q-95 9 -165 28t-122.5 52t-74.5 84.5t-11 120.5q13 100 119 191q-70 67 -53 178q22 140 150 228.5t306 88.5
q196 0 292 -92t69 -266h-211q10 92 -39 139t-141 47q-84 2 -148 -36t-74 -101q-7 -43 22.5 -71.5t73 -40.5t107.5 -19q50 -7 89.5 -14.5t78 -17.5t65.5 -22t52.5 -28t39.5 -35.5t25 -44.5t10 -54.5t-5 -66.5q-21 -118 -113 -184q39 -25 53.5 -77t1.5 -122
q-25 -134 -149 -211.5t-308 -74.5zM684 553q50 32 59 84q8 42 -20 67t-58.5 32.5t-100.5 18.5q-3 1 -5 1q-93 13 -145 37q-60 -40 -66 -91q-9 -56 34.5 -81.5t149.5 -36.5q103 -12 152 -31z" />
    <glyph glyph-name="copyright" unicode="&#xa9;" horiz-adv-x="1243" 
d="M524 266q-154 0 -266.5 73.5t-160 198.5t-21.5 273q26 151 117.5 276.5t231 200t296.5 74.5q158 0 269.5 -74.5t156 -200t18.5 -276.5q-26 -148 -118.5 -273t-231 -198.5t-291.5 -73.5zM549 401q173 0 311 116.5t170 293.5q34 188 -62.5 303t-269.5 115
q-174 0 -315 -115.5t-174 -302.5q-29 -176 69.5 -293t270.5 -117zM561 487q-142 0 -224 91.5t-58 230.5q26 149 138.5 239.5t258.5 90.5q107 0 182 -49.5t98 -137.5l-118 -43q-17 58 -66.5 93.5t-114.5 35.5q-92 0 -167 -63.5t-93 -163.5q-17 -95 37 -159t144 -64
q67 0 129.5 36.5t99.5 96.5l102 -43q-54 -88 -147 -139.5t-201 -51.5z" />
    <glyph glyph-name="ordfeminine" unicode="&#xaa;" horiz-adv-x="1034" 
d="M375 600q-158 -1 -244.5 109.5t-58.5 271.5q33 181 153 286t277 103q100 0 173 -49t87 -139l33 174h174l-131 -742h-174l30 179q-47 -87 -135.5 -140t-183.5 -53zM442 745q98 2 179.5 69t99.5 169q20 110 -37.5 176t-157.5 68q-100 0 -180 -67t-100 -177
q-18 -103 40 -170.5t156 -67.5z" />
    <glyph glyph-name="guillemotleft" unicode="&#xab;" horiz-adv-x="1495" 
d="M506 553l352 -387l-299 6l-352 383l510 381h297zM922 543l352 -387l-299 6l-352 383l510 381h297z" />
    <glyph glyph-name="registered" unicode="&#xae;" horiz-adv-x="1114" 
d="M469 377q-134 0 -233.5 66.5t-142 179.5t-19.5 247q37 207 202 354.5t371 147.5q138 0 236.5 -69t138 -183t16.5 -250q-23 -133 -106.5 -246.5t-206.5 -180t-256 -66.5zM489 477q157 0 286 112t159 279q33 179 -56 290.5t-247 111.5q-159 0 -292 -112t-163 -290
q-27 -166 64.5 -278.5t248.5 -112.5zM434 637h-82l86 491h191q52 0 87.5 -14t49.5 -36t19.5 -49.5t-1.5 -53.5q-23 -132 -147 -148h-29l86 -190h-92l-86 190h-47zM510 1057l-29 -160h109q100 0 110 78q7 37 -13 59.5t-71 22.5h-106z" />
    <glyph glyph-name="degree" unicode="&#xb0;" horiz-adv-x="573" 
d="M248 924q-99 0 -145 69t-31 156q14 89 86 157t172 68q99 0 144.5 -69t29.5 -156q-15 -88 -83.5 -156.5t-172.5 -68.5zM270 1055q40 0 69.5 27t35.5 65q8 42 -11.5 69t-58.5 27t-68.5 -27t-37.5 -69q-6 -38 14 -65t57 -27z" />
    <glyph glyph-name="plusminus" unicode="&#xb1;" horiz-adv-x="960" 
d="M545 428h-234l49 274h-262l35 205h262l47 264h234l-47 -264h266l-37 -205h-264zM735 66h-667l38 223h668z" />
    <glyph glyph-name="uni00B2" unicode="&#xb2;" horiz-adv-x="899" 
d="M707 459h-639l20 119l236 170q20 14 57 41q79 57 115 84t80.5 65t63.5 67t26 60q18 75 -22 121t-130 45q-71 0 -128.5 -44t-80.5 -122h-155q27 142 131 222.5t247 86.5q157 4 240.5 -76t58.5 -206q-15 -71 -62.5 -134t-98 -104.5t-172.5 -131.5q-23 -17 -35 -26l-125 -96
h397z" />
    <glyph glyph-name="uni00B3" unicode="&#xb3;" horiz-adv-x="856" 
d="M340 444q-64 0 -116 16t-92 49.5t-56 93.5t-2 140h135q-16 -92 26.5 -127.5t126.5 -35.5t138.5 35.5t66.5 103.5q13 73 -36.5 102t-149.5 29h-137l20 115h131q104 0 162.5 28.5t71.5 106.5q13 70 -29 104.5t-127 34.5q-177 0 -211 -164h-135q14 77 52.5 136.5t91.5 94
t111.5 51.5t121.5 17q150 0 227 -69.5t53 -200.5q-12 -73 -54 -124t-99 -69q53 -22 78 -71t12 -125q-15 -87 -73.5 -149.5t-137.5 -92t-170 -29.5z" />
    <glyph glyph-name="periodcentered" unicode="&#xb7;" horiz-adv-x="407" 
d="M182 489q-57 0 -90 40t-24 96q11 56 57.5 95.5t103.5 39.5q54 0 86.5 -40t22.5 -95q-9 -55 -55.5 -95.5t-100.5 -40.5z" />
    <glyph glyph-name="uni00B9" unicode="&#xb9;" horiz-adv-x="425" 
d="M213 518h-145l116 668h-88l23 127q34 0 62 12.5t32 38.5h145z" />
    <glyph glyph-name="ordmasculine" unicode="&#xba;" horiz-adv-x="778" 
d="M336 778q-132 0 -209.5 83.5t-54.5 213.5q23 135 128 218t240 83q138 0 214.5 -83t52.5 -218q-25 -130 -129 -213.5t-242 -83.5zM354 891q75 0 138.5 53t78.5 131q13 83 -31 136t-120 53t-138 -53t-75 -136q-15 -77 29 -130.5t118 -53.5z" />
    <glyph glyph-name="guillemotright" unicode="&#xbb;" horiz-adv-x="1208" 
d="M506 154l-303 -7l493 388l-368 383h297l372 -381zM86 143l-301 -6l494 387l-369 383h297l371 -381z" />
    <glyph glyph-name="questiondown" unicode="&#xbf;" horiz-adv-x="1239" 
d="M1061 1362q58 0 88 -30.5t22 -76.5q-8 -44 -48.5 -75t-98.5 -31q-57 0 -85.5 31t-20.5 75q8 46 47 76.5t96 30.5zM899 1092h234l-15 -84q-16 -88 -65.5 -150t-117.5 -96t-147 -58t-157.5 -44.5t-145.5 -46t-115 -72.5t-61 -115q-23 -118 40.5 -182t199.5 -62
q118 2 204 62t107 174h234q-26 -190 -192 -313t-382 -125q-232 -1 -357 125.5t-87 320.5q17 88 60.5 156.5t100.5 109t126 72t137.5 48.5t135 36t118.5 36.5t87.5 48.5t43.5 73z" />
    <glyph glyph-name="Agrave" unicode="&#xc0;" horiz-adv-x="1572" 
d="M1069 1769l72 -325h-203l-72 325h203zM322 0h-254l837 1352h234l368 -1352h-256l-114 414l-555 2zM969 1036l-269 -428h385z" />
    <glyph glyph-name="Aacute" unicode="&#xc1;" horiz-adv-x="1572" 
d="M934 1446l72 326h202l-71 -326h-203zM322 0h-254l837 1352h234l368 -1352h-256l-114 414l-555 2zM969 1036l-269 -428h385z" />
    <glyph glyph-name="Acircumflex" unicode="&#xc2;" horiz-adv-x="1572" 
d="M1094 1495l36 -49l-12 -6l12 -29l-14 27l-49 -27l-221 74l174 186zM322 0h-254l837 1352h234l368 -1352h-256l-114 414l-555 2zM969 1036l-269 -428h385z" />
    <glyph glyph-name="Atilde" unicode="&#xc3;" horiz-adv-x="1572" 
d="M883 1425h-174q50 250 227 256q42 1 122 -29t105 -30q46 0 64 59h157q-47 -248 -200 -251q-48 -1 -128 28t-91 31q-61 10 -82 -64zM322 0h-254l837 1352h234l368 -1352h-256l-114 414l-555 2zM969 1036l-269 -428h385z" />
    <glyph glyph-name="Adieresis" unicode="&#xc4;" horiz-adv-x="1572" 
d="M1133 1669q53 0 80 -35.5t18 -87.5q-9 -47 -50.5 -83t-88.5 -36q-36 0 -60 17q-28 -14 -61 -14q-51 0 -80.5 35t-20.5 85q9 47 51 83t93 36q31 0 57 -16q29 16 62 16zM322 0h-254l837 1352h234l368 -1352h-256l-114 414l-555 2zM969 1036l-269 -428h385z" />
    <glyph glyph-name="Aring" unicode="&#xc5;" horiz-adv-x="1572" 
d="M1040 1452q-81 0 -126 56.5t-31 136.5q14 78 78.5 135t146.5 57q87 0 131.5 -56.5t30.5 -135.5q-14 -82 -77.5 -137.5t-152.5 -55.5zM1061 1569q31 0 58.5 21t31.5 52q6 34 -12.5 55t-51.5 21q-28 0 -54 -22t-32 -54q-4 -30 15 -51.5t45 -21.5zM322 0h-254l837 1352h234
l368 -1352h-256l-114 414l-555 2zM969 1036l-269 -428h385z" />
    <glyph glyph-name="AE" unicode="&#xc6;" horiz-adv-x="2455" 
d="M2390 1352l-43 -244h-694l-58 -326h619l-39 -213h-619l-55 -325h692l-43 -244h-946l-110 414l-533 2l-250 -416h-243l804 1352h224l213 -817l143 817h938zM932 1036l-256 -428h368z" />
    <glyph glyph-name="Ccedilla" unicode="&#xc7;" horiz-adv-x="1499" 
d="M694 193q126 0 240 64.5t190 176.5l195 -94q-99 -147 -249.5 -240.5t-324.5 -113.5l-90 -90q88 -27 123 -79.5t21 -121.5q-22 -117 -137.5 -185.5t-309.5 -46.5l29 166q109 -8 168.5 12t66.5 54q7 40 -35.5 56.5t-158.5 29.5l20 117l101 90q-121 19 -218 77t-160 147
t-87 207t2 257q37 202 161 362.5t298 247t364 86.5q193 0 332.5 -88.5t198.5 -245.5l-228 -102q-40 104 -130 163.5t-210 59.5q-124 0 -238.5 -59.5t-196.5 -171t-107 -252.5q-35 -208 72.5 -345.5t297.5 -137.5z" />
    <glyph glyph-name="Egrave" unicode="&#xc8;" horiz-adv-x="1308" 
d="M672 1466l-72 326h203l71 -326h-202zM1004 0h-936l237 1352h938l-43 -244h-694l-57 -326h618l-39 -213h-618l-56 -325h693z" />
    <glyph glyph-name="Eacute" unicode="&#xc9;" horiz-adv-x="1308" 
d="M942 1794l-72 -326h-202l71 326h203zM1004 0h-936l237 1352h938l-43 -244h-694l-57 -326h618l-39 -213h-618l-56 -325h693z" />
    <glyph glyph-name="Ecircumflex" unicode="&#xca;" horiz-adv-x="1308" 
d="M864 1468l-12 -6l12 -28l-14 26l-49 -26l-221 73l174 187l73 -176zM1004 0h-936l237 1352h938l-43 -244h-694l-57 -326h618l-39 -213h-618l-56 -325h693z" />
    <glyph glyph-name="Edieresis" unicode="&#xcb;" horiz-adv-x="1308" 
d="M866 1692q53 0 80.5 -35.5t18.5 -87.5q-9 -47 -51 -83t-89 -36q-37 0 -59 16q-28 -14 -61 -14q-51 0 -80.5 35.5t-20.5 85.5q9 47 51 83t93 36q30 0 57 -17q31 17 61 17zM1004 0h-936l237 1352h938l-43 -244h-694l-57 -326h618l-39 -213h-618l-56 -325h693z" />
    <glyph glyph-name="Igrave" unicode="&#xcc;" horiz-adv-x="659" 
d="M508 1769l72 -325h-203l-72 325h203zM352 0h-233l237 1352h234z" />
    <glyph glyph-name="Iacute" unicode="&#xcd;" horiz-adv-x="774" 
d="M319 1446l72 326h205l-72 -326h-205zM301 0h-233l237 1352h234z" />
    <glyph glyph-name="Icircumflex" unicode="&#xce;" horiz-adv-x="956" 
d="M662 1495l36 -49l-12 -6l12 -29l-14 27l-49 -27l-221 74l174 186zM481 0h-233l237 1352h234z" />
    <glyph glyph-name="Idieresis" unicode="&#xcf;" horiz-adv-x="905" 
d="M653 1669q53 0 80.5 -35.5t18.5 -87.5q-9 -47 -51 -83t-89 -36q-35 0 -59 17q-28 -14 -61 -14q-51 0 -80.5 35t-20.5 85q9 47 51 83t93 36q31 0 57 -16q29 16 61 16zM434 0h-233l237 1352h234z" />
    <glyph glyph-name="Ntilde" unicode="&#xd1;" horiz-adv-x="1470" 
d="M686 1423h-174q50 250 227 256q42 1 122.5 -29t105.5 -30q45 0 63 59h158q-48 -249 -201 -252q-48 -1 -128 28.5t-91 31.5q-61 10 -82 -64zM311 0h-243l237 1352h217l471 -942l168 942h244l-238 -1352h-213l-481 930z" />
    <glyph glyph-name="Ograve" unicode="&#xd2;" horiz-adv-x="1548" 
d="M805 1464l-72 326h203l72 -326h-203zM657 -20q-142 0 -261.5 51.5t-198.5 140.5t-111.5 218t-5.5 276q37 202 160.5 362.5t297.5 247t365 86.5q144 0 262 -52t194 -142.5t106 -221t3 -280.5q-35 -194 -154 -351.5t-292.5 -246t-364.5 -88.5zM694 193q188 0 340.5 135
t190.5 338q19 106 0 197t-68 153.5t-125 97.5t-168 35q-123 0 -237 -59.5t-196 -171t-107 -252.5q-35 -201 73 -337t297 -136z" />
    <glyph glyph-name="Oacute" unicode="&#xd3;" horiz-adv-x="1548" 
d="M1075 1792l-71 -326h-203l71 326h203zM657 -20q-142 0 -261.5 51.5t-198.5 140.5t-111.5 218t-5.5 276q37 202 160.5 362.5t297.5 247t365 86.5q144 0 262 -52t194 -142.5t106 -221t3 -280.5q-35 -194 -154 -351.5t-292.5 -246t-364.5 -88.5zM694 193q188 0 340.5 135
t190.5 338q19 106 0 197t-68 153.5t-125 97.5t-168 35q-123 0 -237 -59.5t-196 -171t-107 -252.5q-35 -201 73 -337t297 -136z" />
    <glyph glyph-name="Ocircumflex" unicode="&#xd4;" horiz-adv-x="1548" 
d="M887 1692l74 -176l36 -50l-12 -6l12 -28l-14 26l-49 -26l-221 73zM657 -20q-142 0 -261.5 51.5t-198.5 140.5t-111.5 218t-5.5 276q37 202 160.5 362.5t297.5 247t365 86.5q144 0 262 -52t194 -142.5t106 -221t3 -280.5q-35 -194 -154 -351.5t-292.5 -246t-364.5 -88.5z
M694 193q188 0 340.5 135t190.5 338q19 106 0 197t-68 153.5t-125 97.5t-168 35q-123 0 -237 -59.5t-196 -171t-107 -252.5q-35 -201 73 -337t297 -136z" />
    <glyph glyph-name="Otilde" unicode="&#xd5;" horiz-adv-x="1548" 
d="M750 1446h-175q50 250 228 256q42 1 122 -29.5t105 -30.5q46 0 64 60h157q-48 -249 -200 -252q-48 -1 -128.5 28t-91.5 31q-60 10 -81 -63zM657 -20q-142 0 -261.5 51.5t-198.5 140.5t-111.5 218t-5.5 276q37 202 160.5 362.5t297.5 247t365 86.5q144 0 262 -52
t194 -142.5t106 -221t3 -280.5q-35 -194 -154 -351.5t-292.5 -246t-364.5 -88.5zM694 193q188 0 340.5 135t190.5 338q19 106 0 197t-68 153.5t-125 97.5t-168 35q-123 0 -237 -59.5t-196 -171t-107 -252.5q-35 -201 73 -337t297 -136z" />
    <glyph glyph-name="Odieresis" unicode="&#xd6;" horiz-adv-x="1548" 
d="M999 1690q53 0 80.5 -35.5t18.5 -87.5q-9 -47 -51 -83t-89 -36q-37 0 -59 16q-28 -14 -61 -14q-51 0 -80.5 35.5t-20.5 85.5q9 47 51 83t93 36q30 0 57 -17q31 17 61 17zM657 -20q-142 0 -261.5 51.5t-198.5 140.5t-111.5 218t-5.5 276q37 202 160.5 362.5t297.5 247
t365 86.5q144 0 262 -52t194 -142.5t106 -221t3 -280.5q-35 -194 -154 -351.5t-292.5 -246t-364.5 -88.5zM694 193q188 0 340.5 135t190.5 338q19 106 0 197t-68 153.5t-125 97.5t-168 35q-123 0 -237 -59.5t-196 -171t-107 -252.5q-35 -201 73 -337t297 -136z" />
    <glyph glyph-name="multiply" unicode="&#xd7;" horiz-adv-x="919" 
d="M233 317l-165 166l229 160l-186 186l170 117l186 -184l221 153l164 -163l-221 -156l188 -186l-170 -119l-186 186z" />
    <glyph glyph-name="Oslash" unicode="&#xd8;" horiz-adv-x="1548" 
d="M1366 1491l-113 -229q133 -89 191.5 -245t23.5 -351q-35 -194 -154 -351.5t-292.5 -246t-364.5 -88.5h-36l-62 -125h-254l88 176q-179 77 -266 246.5t-47 388.5q37 202 160.5 362.5t297.5 247t365 86.5q73 0 137 -12l70 141h256zM324 666q-24 -140 23 -252t149 -170
l442 899q-34 6 -74 6q-123 0 -237 -59.5t-196 -171t-107 -252.5zM1225 666q40 228 -84 368l-414 -839q178 11 319.5 144t178.5 327z" />
    <glyph glyph-name="Ugrave" unicode="&#xd9;" horiz-adv-x="1402" 
d="M842 1819l71 -326h-202l-72 326h203zM541 -20q-256 0 -380.5 148t-82.5 386l147 838h244l-145 -817q-27 -154 38.5 -248t217.5 -94q151 0 247 93.5t123 248.5l144 817h243l-147 -838q-42 -236 -218 -385t-431 -149z" />
    <glyph glyph-name="Uacute" unicode="&#xda;" horiz-adv-x="1402" 
d="M707 1495l71 326h203l-72 -326h-202zM541 -20q-256 0 -380.5 148t-82.5 386l147 838h244l-145 -817q-27 -154 38.5 -248t217.5 -94q151 0 247 93.5t123 248.5l144 817h243l-147 -838q-42 -236 -218 -385t-431 -149z" />
    <glyph glyph-name="Ucircumflex" unicode="&#xdb;" horiz-adv-x="1402" 
d="M618 1534l175 186l73 -176l37 -49l-12 -6l12 -29l-14 27l-49 -27zM541 -20q-256 0 -380.5 148t-82.5 386l147 838h244l-145 -817q-27 -154 38.5 -248t217.5 -94q151 0 247 93.5t123 248.5l144 817h243l-147 -838q-42 -236 -218 -385t-431 -149z" />
    <glyph glyph-name="Udieresis" unicode="&#xdc;" horiz-adv-x="1402" 
d="M905 1718q53 0 80.5 -35.5t18.5 -87.5q-9 -47 -51 -82.5t-89 -35.5q-37 0 -59 16q-28 -14 -62 -14q-51 0 -80 35t-20 85q9 47 50.5 83t92.5 36q32 0 58 -16q29 16 61 16zM541 -20q-256 0 -380.5 148t-82.5 386l147 838h244l-145 -817q-27 -154 38.5 -248t217.5 -94
q151 0 247 93.5t123 248.5l144 817h243l-147 -838q-42 -236 -218 -385t-431 -149z" />
    <glyph glyph-name="Yacute" unicode="&#xdd;" horiz-adv-x="1476" 
d="M725 1786h203l-72 -326h-203zM616 0h-233l98 557l-413 795h254l311 -604l522 604h254l-696 -797z" />
    <glyph glyph-name="germandbls" unicode="&#xdf;" horiz-adv-x="1275" 
d="M301 0h-233l170 969q10 59 35.5 114.5t72.5 108.5t109.5 92.5t154.5 63.5t201 24q132 0 227.5 -41t141 -127.5t22.5 -206.5q-41 -219 -328 -278q36 -5 68.5 -15.5t64.5 -29t54.5 -44t39.5 -61.5t19.5 -81t-6.5 -103q-15 -77 -55 -143t-107.5 -122t-174.5 -88t-242 -32
l34 203q287 0 326 207q19 110 -48 161.5t-202 57.5l31 176q128 8 210.5 50.5t100.5 121.5q18 91 -39 147t-172 56q-139 0 -216 -64t-95 -172z" />
    <glyph glyph-name="agrave" unicode="&#xe0;" horiz-adv-x="1396" 
d="M954 1149h-202l-72 326h203zM498 -20q-221 -1 -341.5 153.5t-80.5 380.5q45 251 213 399t387 146q140 0 242.5 -68.5t123.5 -195.5l43 243h244l-182 -1038h-242l43 250q-67 -122 -191.5 -196t-258.5 -74zM594 184q136 2 250.5 95.5t140.5 236.5q27 153 -53.5 245.5
t-218.5 94.5q-139 2 -253 -92t-141 -248q-17 -96 15.5 -173t101.5 -118.5t158 -40.5z" />
    <glyph glyph-name="aacute" unicode="&#xe1;" horiz-adv-x="1396" 
d="M950 1151h-202l71 326h203zM498 -20q-221 -1 -341.5 153.5t-80.5 380.5q45 251 213 399t387 146q140 0 242.5 -68.5t123.5 -195.5l43 243h244l-182 -1038h-242l43 250q-67 -122 -191.5 -196t-258.5 -74zM594 184q136 2 250.5 95.5t140.5 236.5q27 153 -53.5 245.5
t-218.5 94.5q-139 2 -253 -92t-141 -248q-17 -96 15.5 -173t101.5 -118.5t158 -40.5z" />
    <glyph glyph-name="acircumflex" unicode="&#xe2;" horiz-adv-x="1396" 
d="M881 1116l-222 74l175 186l73 -176l37 -49l-12 -6l12 -29l-14 27zM498 -20q-221 -1 -341.5 153.5t-80.5 380.5q45 251 213 399t387 146q140 0 242.5 -68.5t123.5 -195.5l43 243h244l-182 -1038h-242l43 250q-67 -122 -191.5 -196t-258.5 -74zM594 184q136 2 250.5 95.5
t140.5 236.5q27 153 -53.5 245.5t-218.5 94.5q-139 2 -253 -92t-141 -248q-17 -96 15.5 -173t101.5 -118.5t158 -40.5z" />
    <glyph glyph-name="atilde" unicode="&#xe3;" horiz-adv-x="1396" 
d="M721 1126h-141q40 205 186 211q33 0 98.5 -25.5t87.5 -25.5q35 0 54 51h127q-34 -206 -164 -209q-38 -1 -104 23.5t-77 26.5q-49 9 -67 -52zM498 -20q-221 -1 -341.5 153.5t-80.5 380.5q45 251 213 399t387 146q140 0 242.5 -68.5t123.5 -195.5l43 243h244l-182 -1038
h-242l43 250q-67 -122 -191.5 -196t-258.5 -74zM594 184q136 2 250.5 95.5t140.5 236.5q27 153 -53.5 245.5t-218.5 94.5q-139 2 -253 -92t-141 -248q-17 -96 15.5 -173t101.5 -118.5t158 -40.5z" />
    <glyph glyph-name="adieresis" unicode="&#xe4;" horiz-adv-x="1396" 
d="M946 1374q53 0 80 -35.5t18 -87.5q-9 -47 -50.5 -82.5t-88.5 -35.5q-37 0 -59 16q-28 -14 -62 -14q-51 0 -80 35t-20 85q9 47 50.5 83t92.5 36q32 0 58 -16q29 16 61 16zM498 -20q-221 -1 -341.5 153.5t-80.5 380.5q45 251 213 399t387 146q140 0 242.5 -68.5
t123.5 -195.5l43 243h244l-182 -1038h-242l43 250q-67 -122 -191.5 -196t-258.5 -74zM594 184q136 2 250.5 95.5t140.5 236.5q27 153 -53.5 245.5t-218.5 94.5q-139 2 -253 -92t-141 -248q-17 -96 15.5 -173t101.5 -118.5t158 -40.5z" />
    <glyph glyph-name="aring" unicode="&#xe5;" horiz-adv-x="1396" 
d="M852 1157q-81 0 -126.5 56.5t-31.5 136.5q14 78 79 135t147 57q87 0 131 -56.5t30 -135.5q-14 -82 -77.5 -137.5t-151.5 -55.5zM872 1274q31 0 59 21.5t32 52.5q6 34 -12.5 54.5t-51.5 20.5q-28 0 -54 -21.5t-32 -53.5q-4 -30 14.5 -52t44.5 -22zM498 -20
q-221 -1 -341.5 153.5t-80.5 380.5q45 251 213 399t387 146q140 0 242.5 -68.5t123.5 -195.5l43 243h244l-182 -1038h-242l43 250q-67 -122 -191.5 -196t-258.5 -74zM594 184q136 2 250.5 95.5t140.5 236.5q27 153 -53.5 245.5t-218.5 94.5q-139 2 -253 -92t-141 -248
q-17 -96 15.5 -173t101.5 -118.5t158 -40.5z" />
    <glyph glyph-name="ae" unicode="&#xe6;" horiz-adv-x="2217" 
d="M1700 1057q217 0 343 -134t105 -366q-3 -50 -16 -96l-856 -2q-7 -121 72.5 -200t195.5 -79q90 -2 176 38.5t140 115.5l168 -94q-91 -123 -229.5 -193t-289.5 -70q-102 0 -192.5 35.5t-153.5 100.5l-20 -113h-242l43 242q-67 -117 -191 -188.5t-257 -73.5
q-220 -1 -340 149.5t-80 368.5q30 162 118.5 283.5t213 183.5t266.5 61q140 -2 241.5 -68.5t122.5 -189.5l43 238h242l-14 -76q174 127 391 127zM1317 600l610 2q1 117 -75 187.5t-187 68.5q-111 0 -211 -70.5t-137 -187.5zM981 500q27 148 -53.5 237.5t-218.5 91.5
t-250.5 -89t-139.5 -240q-26 -139 56 -231.5t217 -90.5t249 93t140 229z" />
    <glyph glyph-name="ccedilla" unicode="&#xe7;" horiz-adv-x="1282" 
d="M586 182q101 0 193.5 55t148.5 146l209 -88q-86 -137 -227.5 -220.5t-311.5 -92.5l-72 -72q88 -27 123 -79.5t21 -121.5q-22 -116 -137.5 -184.5t-309.5 -46.5l29 166q109 -8 168.5 11.5t66.5 53.5q7 40 -35.5 56.5t-158.5 29.5l20 117l95 84q-178 44 -272 184.5
t-60 333.5q28 163 126 288.5t239 191t302 65.5q182 0 308 -82.5t166 -228.5l-242 -86q-25 89 -97.5 141.5t-170.5 52.5q-138 0 -250 -96t-138 -244q-26 -141 53 -237.5t214 -96.5z" />
    <glyph glyph-name="egrave" unicode="&#xe8;" horiz-adv-x="1239" 
d="M561 1454h203l72 -326h-203zM530 -20q-107 0 -199.5 38.5t-156.5 107t-91.5 170.5t-6.5 220q23 128 86.5 232.5t152 171.5t193 103t213.5 36q217 0 343 -134t105 -366q-3 -50 -16 -96l-856 -2q-6 -121 74 -200t194 -79q90 -2 176 38.5t142 115.5l166 -94
q-91 -123 -229 -192.5t-290 -69.5zM340 602l608 2q1 117 -75 187.5t-187 68.5q-110 0 -209.5 -70.5t-136.5 -187.5z" />
    <glyph glyph-name="eacute" unicode="&#xe9;" horiz-adv-x="1239" 
d="M700 1456h203l-72 -326h-202zM530 -20q-107 0 -199.5 38.5t-156.5 107t-91.5 170.5t-6.5 220q23 128 86.5 232.5t152 171.5t193 103t213.5 36q217 0 343 -134t105 -366q-3 -50 -16 -96l-856 -2q-6 -121 74 -200t194 -79q90 -2 176 38.5t142 115.5l166 -94
q-91 -123 -229 -192.5t-290 -69.5zM340 602l608 2q1 117 -75 187.5t-187 68.5q-110 0 -209.5 -70.5t-136.5 -187.5z" />
    <glyph glyph-name="ecircumflex" unicode="&#xea;" horiz-adv-x="1239" 
d="M811 1122l-49 -26l-221 73l174 187l73 -176l37 -50l-12 -6l12 -28zM530 -20q-107 0 -199.5 38.5t-156.5 107t-91.5 170.5t-6.5 220q23 128 86.5 232.5t152 171.5t193 103t213.5 36q217 0 343 -134t105 -366q-3 -50 -16 -96l-856 -2q-6 -121 74 -200t194 -79
q90 -2 176 38.5t142 115.5l166 -94q-91 -123 -229 -192.5t-290 -69.5zM340 602l608 2q1 117 -75 187.5t-187 68.5q-110 0 -209.5 -70.5t-136.5 -187.5z" />
    <glyph glyph-name="edieresis" unicode="&#xeb;" horiz-adv-x="1239" 
d="M827 1354q53 0 80.5 -35.5t18.5 -87.5q-9 -47 -51 -83t-89 -36q-37 0 -59 16q-28 -14 -61 -14q-51 0 -80.5 35.5t-20.5 85.5q9 47 51 83t93 36q30 0 57 -17q31 17 61 17zM530 -20q-107 0 -199.5 38.5t-156.5 107t-91.5 170.5t-6.5 220q23 128 86.5 232.5t152 171.5
t193 103t213.5 36q217 0 343 -134t105 -366q-3 -50 -16 -96l-856 -2q-6 -121 74 -200t194 -79q90 -2 176 38.5t142 115.5l166 -94q-91 -123 -229 -192.5t-290 -69.5zM340 602l608 2q1 117 -75 187.5t-187 68.5q-110 0 -209.5 -70.5t-136.5 -187.5z" />
    <glyph glyph-name="igrave" unicode="&#xec;" horiz-adv-x="798" 
d="M727 1122h-205l-71 328h204zM549 0h-244l182 1038h244z" />
    <glyph glyph-name="iacute" unicode="&#xed;" horiz-adv-x="972" 
d="M723 1124h-205l72 328h205zM549 0h-244l182 1038h244z" />
    <glyph glyph-name="icircumflex" unicode="&#xee;" horiz-adv-x="972" 
d="M715 1126l-13 -8l-49 -26l-223 71l174 189l76 -176zM305 0l182 1038h244l-182 -1038h-244z" />
    <glyph glyph-name="idieresis" unicode="&#xef;" horiz-adv-x="970" 
d="M719 1348q53 0 79 -35t17 -86q-7 -47 -49.5 -83t-89.5 -36q-34 0 -60 16q-29 -16 -59 -16q-52 0 -81 36.5t-21 86.5q9 46 51.5 82.5t91.5 36.5q29 0 59 -19q31 17 62 17zM549 0h-244l182 1038h244z" />
    <glyph glyph-name="ntilde" unicode="&#xf1;" horiz-adv-x="1318" 
d="M610 1143h-174q50 250 228 256q42 1 122 -29.5t105 -30.5q45 0 63 60h158q-48 -249 -201 -252q-48 -1 -128 28t-91 31q-61 10 -82 -63zM319 0h-251l182 1038h244l-45 -250q39 88 110.5 151t150.5 91.5t160 28.5q212 2 312 -135t59 -375l-96 -549h-244l94 547
q25 141 -34.5 225.5t-196.5 83.5t-232.5 -98t-123.5 -252z" />
    <glyph glyph-name="ograve" unicode="&#xf2;" horiz-adv-x="1298" 
d="M573 1452h203l72 -326h-203zM553 -20q-116 0 -213.5 39.5t-162.5 109t-93 170t-8 215.5q28 163 126 288.5t239 191t302 65.5q122 0 221 -38.5t163.5 -108t90 -172.5t3.5 -226q-43 -234 -231 -384t-437 -150zM586 182q138 0 252 96.5t139 237.5q27 148 -53 244t-217 96
q-138 0 -250 -96t-138 -244q-26 -141 53 -237.5t214 -96.5z" />
    <glyph glyph-name="oacute" unicode="&#xf3;" horiz-adv-x="1298" 
d="M713 1454h202l-71 -326h-203zM553 -20q-116 0 -213.5 39.5t-162.5 109t-93 170t-8 215.5q28 163 126 288.5t239 191t302 65.5q122 0 221 -38.5t163.5 -108t90 -172.5t3.5 -226q-43 -234 -231 -384t-437 -150zM586 182q138 0 252 96.5t139 237.5q27 148 -53 244t-217 96
q-138 0 -250 -96t-138 -244q-26 -141 53 -237.5t214 -96.5z" />
    <glyph glyph-name="ocircumflex" unicode="&#xf4;" horiz-adv-x="1298" 
d="M825 1122l13 -28l-15 26l-49 -26l-221 73l174 187l74 -176l37 -50zM553 -20q-116 0 -213.5 39.5t-162.5 109t-93 170t-8 215.5q28 163 126 288.5t239 191t302 65.5q122 0 221 -38.5t163.5 -108t90 -172.5t3.5 -226q-43 -234 -231 -384t-437 -150zM586 182q138 0 252 96.5
t139 237.5q27 148 -53 244t-217 96q-138 0 -250 -96t-138 -244q-26 -141 53 -237.5t214 -96.5z" />
    <glyph glyph-name="otilde" unicode="&#xf5;" horiz-adv-x="1298" 
d="M590 1108h-174q50 250 227 256q42 1 122 -29t105 -30q46 0 64 59h158q-48 -249 -201 -252q-48 -1 -128 28t-91 31q-61 10 -82 -63zM553 -20q-116 0 -213.5 39.5t-162.5 109t-93 170t-8 215.5q28 163 126 288.5t239 191t302 65.5q122 0 221 -38.5t163.5 -108t90 -172.5
t3.5 -226q-43 -234 -231 -384t-437 -150zM586 182q138 0 252 96.5t139 237.5q27 148 -53 244t-217 96q-138 0 -250 -96t-138 -244q-26 -141 53 -237.5t214 -96.5z" />
    <glyph glyph-name="odieresis" unicode="&#xf6;" horiz-adv-x="1298" 
d="M840 1352q53 0 80 -35.5t18 -87.5q-9 -47 -50.5 -83t-88.5 -36q-38 0 -60 16q-28 -14 -61 -14q-51 0 -80 35.5t-20 85.5q9 47 50.5 83t92.5 36q30 0 57 -17q31 17 62 17zM553 -20q-116 0 -213.5 39.5t-162.5 109t-93 170t-8 215.5q28 163 126 288.5t239 191t302 65.5
q122 0 221 -38.5t163.5 -108t90 -172.5t3.5 -226q-43 -234 -231 -384t-437 -150zM586 182q138 0 252 96.5t139 237.5q27 148 -53 244t-217 96q-138 0 -250 -96t-138 -244q-26 -141 53 -237.5t214 -96.5z" />
    <glyph glyph-name="divide" unicode="&#xf7;" horiz-adv-x="897" 
d="M471 750q-56 0 -89 40t-24 97q11 54 58 93.5t104 39.5q54 0 86.5 -39.5t22.5 -93.5q-9 -57 -55.5 -97t-102.5 -40zM797 471h-729l32 193h729zM358 117q-56 0 -88 40t-22 97q9 54 56 93.5t104 39.5q54 0 86.5 -39.5t23.5 -93.5q-10 -57 -57 -97t-103 -40z" />
    <glyph glyph-name="oslash" unicode="&#xf8;" horiz-adv-x="1335" 
d="M1133 1169l-105 -159q137 -63 200.5 -192.5t31.5 -303.5q-43 -234 -231 -384t-439 -150q-68 0 -127 12l-90 -137h-236l142 217q-100 71 -145 186t-21 256q28 163 126.5 288.5t239.5 191t301 65.5q29 0 43 -2l74 112h236zM1016 516q26 148 -54.5 244t-218.5 96
q-137 0 -248.5 -95.5t-138.5 -244.5q-25 -141 54.5 -237.5t214.5 -96.5q136 0 250.5 96.5t140.5 237.5z" />
    <glyph glyph-name="ugrave" unicode="&#xf9;" horiz-adv-x="1318" 
d="M868 1155h-202l-72 326h203zM451 -20q-213 -2 -313.5 136.5t-57.5 375.5l96 546h244l-96 -546q-26 -141 34 -226t197 -84t232.5 98t123.5 252l88 506h254l-182 -1038h-244l43 254q-39 -89 -110.5 -152.5t-150 -92.5t-158.5 -29z" />
    <glyph glyph-name="uacute" unicode="&#xfa;" horiz-adv-x="1318" 
d="M864 1157h-202l71 326h203zM451 -20q-213 -2 -313.5 136.5t-57.5 375.5l96 546h244l-96 -546q-26 -141 34 -226t197 -84t232.5 98t123.5 252l88 506h254l-182 -1038h-244l43 254q-39 -89 -110.5 -152.5t-150 -92.5t-158.5 -29z" />
    <glyph glyph-name="ucircumflex" unicode="&#xfb;" horiz-adv-x="1318" 
d="M858 1157l-12 -6l12 -29l-14 27l-49 -27l-222 74l175 186l73 -176zM451 -20q-213 -2 -313.5 136.5t-57.5 375.5l96 546h244l-96 -546q-26 -141 34 -226t197 -84t232.5 98t123.5 252l88 506h254l-182 -1038h-244l43 254q-39 -89 -110.5 -152.5t-150 -92.5t-158.5 -29z" />
    <glyph glyph-name="udieresis" unicode="&#xfc;" horiz-adv-x="1318" 
d="M860 1380q53 0 80 -35.5t18 -87.5q-9 -47 -50.5 -82.5t-88.5 -35.5q-37 0 -59 16q-28 -14 -62 -14q-51 0 -80 35.5t-20 85.5q9 47 50.5 82.5t92.5 35.5q32 0 58 -16q29 16 61 16zM451 -20q-213 -2 -313.5 136.5t-57.5 375.5l96 546h244l-96 -546q-26 -141 34 -226
t197 -84t232.5 98t123.5 252l88 506h254l-182 -1038h-244l43 254q-39 -89 -110.5 -152.5t-150 -92.5t-158.5 -29z" />
    <glyph glyph-name="yacute" unicode="&#xfd;" horiz-adv-x="1046" 
d="M774 1165l72 326h203l-72 -326h-203zM68 -180l161 141q20 -34 62.5 -47.5t93.5 4.5t86 70l76 118l-238 932h244l152 -737l446 737h246l-738 -1106q-66 -99 -150 -155t-164 -64t-153.5 19.5t-123.5 87.5z" />
    <glyph glyph-name="ydieresis" unicode="&#xff;" horiz-adv-x="1046" 
d="M973 1389q53 0 80 -35.5t18 -87.5q-9 -47 -50.5 -83t-88.5 -36q-38 0 -60 16q-28 -14 -61 -14q-51 0 -80 35.5t-20 85.5q9 47 50.5 83t92.5 36q30 0 57 -17q31 17 62 17zM68 -180l161 141q20 -34 62.5 -47.5t93.5 4.5t86 70l76 118l-238 932h244l152 -737l446 737h246
l-738 -1106q-66 -99 -150 -155t-164 -64t-153.5 19.5t-123.5 87.5z" />
    <glyph glyph-name="dotlessi" unicode="&#x131;" horiz-adv-x="559" 
d="M311 0h-243l182 1038h244z" />
    <glyph glyph-name="OE" unicode="&#x152;" horiz-adv-x="2402" 
d="M2335 1352l-43 -244h-695l-57 -326h619l-37 -213h-619l-57 -325h692l-43 -244h-936l33 182q-112 -96 -250 -149t-285 -53q-142 0 -261.5 51.5t-198.5 140.5t-111.5 218t-5.5 276q37 202 160.5 362.5t297.5 247t365 86.5q146 0 265 -52.5t196 -148.5l33 191h938zM694 193
q188 0 340.5 135t190.5 338q19 106 0 197t-68 153.5t-125 97.5t-168 35q-123 0 -237 -59.5t-196 -171t-107 -252.5q-35 -201 73 -337t297 -136z" />
    <glyph glyph-name="oe" unicode="&#x153;" horiz-adv-x="2158" 
d="M1640 1069q217 0 343.5 -134t105.5 -366q-3 -50 -16 -96l-856 -2q-7 -121 72.5 -199.5t195.5 -78.5q90 -2 175.5 38t139.5 115l168 -94q-91 -123 -229 -192.5t-289 -69.5q-126 0 -230.5 52t-164.5 146q-95 -99 -224.5 -153.5t-277.5 -54.5q-116 0 -213.5 39.5t-162.5 109
t-93 170t-8 215.5q28 163 126 288.5t239 191t302 65.5q139 0 248.5 -50.5t171.5 -142.5q92 98 218 150.5t259 52.5zM1257 612l611 2q1 117 -75 187.5t-187 68.5q-111 0 -211.5 -70.5t-137.5 -187.5zM977 516q27 148 -53 244t-217 96q-138 0 -250 -96t-138 -244
q-26 -141 53 -237.5t214 -96.5q138 0 252 96.5t139 237.5z" />
    <glyph glyph-name="Scaron" unicode="&#x160;" horiz-adv-x="1206" 
d="M856 1831h203l-354 -375l-234 375h203l74 -117zM500 -20q-133 2 -235.5 52.5t-156.5 149.5t-36 230h225q-7 -50 6 -91.5t38.5 -68t60 -45t69.5 -26.5t70 -9q68 0 127.5 18.5t107.5 63.5t62 111q21 100 -42.5 152.5t-215.5 78.5q-229 31 -341 126t-81 269
q20 115 101 203.5t196 133t243 44.5q134 0 239 -49.5t161 -147.5t37 -227h-226q7 59 -10.5 105t-53 73t-81 40.5t-98.5 13.5q-98 0 -179 -53t-98 -140q-14 -80 46.5 -131t201.5 -74q251 -38 361.5 -141t70.5 -295q-20 -93 -76.5 -166t-135.5 -116.5t-170 -64.5t-187 -19z
" />
    <glyph glyph-name="scaron" unicode="&#x161;" horiz-adv-x="1069" 
d="M688 1409l109 117h202l-354 -375l-233 375h202zM451 -20q-187 5 -296.5 103.5t-80.5 272.5l223 -2q-10 -96 42.5 -142.5t145.5 -49.5q73 -3 135.5 32t75.5 97q13 66 -27 98t-149 51q-101 14 -169.5 33.5t-123 53t-75.5 86.5t-9 128q23 144 153.5 231t313.5 87
q201 0 306 -97t81 -272h-223q9 86 -42.5 135.5t-145.5 51.5q-78 2 -137.5 -37.5t-69.5 -104.5q-9 -61 33.5 -95t152.5 -56q49 -9 86.5 -17t75 -18t64.5 -21t52 -24.5t41 -30t28.5 -36.5t17.5 -44t4.5 -53.5t-6.5 -63.5q-27 -143 -158.5 -222t-318.5 -74z" />
    <glyph glyph-name="Ydieresis" unicode="&#x178;" horiz-adv-x="1476" 
d="M852 1683q53 0 80 -35t18 -87q-9 -47 -50.5 -83t-88.5 -36q-37 0 -59 16q-28 -14 -62 -14q-51 0 -80 35.5t-20 85.5q9 47 50.5 82.5t92.5 35.5q32 0 58 -16q29 16 61 16zM616 0h-233l98 557l-413 795h254l311 -604l522 604h254l-696 -797z" />
    <glyph glyph-name="zcaron" unicode="&#x17e;" horiz-adv-x="1112" 
d="M631 1524l74 -117l108 117h203l-354 -375l-234 375h203zM866 0h-798l28 174l643 662h-528l37 202h799l-31 -172l-639 -663h524z" />
    <glyph glyph-name="gravecomb" unicode="&#x300;" 
d="M-342 1352h203l71 -326h-202z" />
    <glyph glyph-name="acutecomb" unicode="&#x301;" 
d="M-342 1026l72 326h202l-71 -326h-203z" />
    <glyph glyph-name="uni0302" unicode="&#x302;" 
d="M-295 1059l37 -49l-12 -6l12 -29l-14 26l-50 -26l-221 74l174 186z" />
    <glyph glyph-name="tildecomb" unicode="&#x303;" 
d="M-567 1096h-174q50 250 227 256q42 1 122 -29.5t105 -30.5q46 0 64 60h157q-48 -249 -200 -252q-48 -1 -128 28t-91 31q-61 10 -82 -63z" />
    <glyph glyph-name="uni0304" unicode="&#x304;" 
d="M-100 1169h-435l33 183h434z" />
    <glyph glyph-name="uni0306" unicode="&#x306;" 
d="M-444 1085q-97 0 -168 64.5t-90 202.5h190q15 -42 40 -62.5t66 -21.5q81 0 144 84h194q-132 -267 -376 -267z" />
    <glyph glyph-name="uni0307" unicode="&#x307;" 
d="M-221 1061q-53 0 -83.5 37.5t-21.5 89.5q9 50 53.5 89.5t96.5 39.5q56 0 85.5 -38.5t20.5 -90.5q-9 -51 -54 -89t-97 -38z" />
    <glyph glyph-name="uni0308" unicode="&#x308;" 
d="M-252 1329q53 0 80 -35.5t18 -87.5q-9 -47 -50.5 -83t-88.5 -36q-35 0 -59 17q-28 -14 -62 -14q-51 0 -80 35t-20 85q9 47 50.5 83t92.5 36q32 0 58 -16q29 16 61 16z" />
    <glyph glyph-name="uni030A" unicode="&#x30a;" 
d="M-299 991q-81 0 -126.5 56.5t-31.5 136.5q14 78 79 135t147 57q87 0 131 -56.5t30 -135.5q-14 -82 -77.5 -137.5t-151.5 -55.5zM-279 1108q31 0 59 21.5t32 52.5q6 34 -12.5 54.5t-51.5 20.5q-28 0 -54 -21.5t-32 -53.5q-4 -30 14.5 -52t44.5 -22z" />
    <glyph glyph-name="uni030B" unicode="&#x30b;" 
d="M-496 1026h-192l188 326h193zM-254 1026h-195l189 326h194z" />
    <glyph glyph-name="uni030C" unicode="&#x30c;" 
d="M-451 1352l74 -117l109 117h202l-354 -375l-233 375h202z" />
    <glyph glyph-name="uni0312" unicode="&#x312;" 
d="M-297 911l-143 113q72 81 102 149.5t39 178.5h233q-26 -152 -74.5 -244.5t-156.5 -196.5z" />
    <glyph glyph-name="uni0326" unicode="&#x326;" 
d="M-266 -279h-207l201 361h206z" />
    <glyph glyph-name="uni0327" unicode="&#x327;" 
d="M-553 -442l29 166q109 -8 168.5 11.5t66.5 53.5q7 40 -35.5 56.5t-158.5 29.5l20 117l166 149l201 2l-154 -153q88 -27 123 -79.5t21 -121.5q-22 -116 -137.5 -184.5t-309.5 -46.5z" />
    <glyph glyph-name="uni0328" unicode="&#x328;" 
d="M-98 -119l32 -151q-90 -48 -169.5 -63t-134.5 0.5t-91.5 49.5t-50.5 82q-13 47 2 100.5t54 103.5t110 91.5t160 59.5l73 -25l-2 -104q-104 -26 -159.5 -70.5t-47.5 -81.5q9 -32 69 -29t155 37z" />
    <glyph glyph-name="endash" unicode="&#x2013;" horiz-adv-x="972" 
d="M872 518h-804l32 182h805z" />
    <glyph glyph-name="emdash" unicode="&#x2014;" horiz-adv-x="1122" 
d="M1022 516h-954l32 184h955z" />
    <glyph glyph-name="quoteleft" unicode="&#x2018;" horiz-adv-x="411" 
d="M344 1016l-184 -103q-80 117 -90.5 203.5t26.5 235.5h226q-29 -135 -24.5 -190.5t46.5 -145.5z" />
    <glyph glyph-name="quoteright" unicode="&#x2019;" horiz-adv-x="411" 
d="M252 913l-184 103q42 90 46.5 145.5t-24.5 190.5h225q37 -149 27 -236t-90 -203z" />
    <glyph glyph-name="quotesinglbase" unicode="&#x201a;" horiz-adv-x="507" 
d="M211 -188l-143 112q72 84 102 152t39 176h233q-26 -152 -74.5 -244t-156.5 -196z" />
    <glyph glyph-name="quotedblleft" unicode="&#x201c;" horiz-adv-x="704" 
d="M344 1016l-184 -103q-80 117 -90.5 203.5t26.5 235.5h226q-29 -135 -24.5 -190.5t46.5 -145.5zM639 1016l-186 -103q-79 117 -90 203t26 236h225q-29 -135 -23.5 -190t48.5 -146z" />
    <glyph glyph-name="quotedblright" unicode="&#x201d;" horiz-adv-x="704" 
d="M252 913l-184 103q42 90 46.5 145.5t-24.5 190.5h225q37 -149 27 -236t-90 -203zM547 913l-187 103q43 91 48.5 146t-23.5 190h225q37 -149 26.5 -235.5t-89.5 -203.5z" />
    <glyph glyph-name="quotedblbase" unicode="&#x201e;" horiz-adv-x="806" 
d="M211 -188l-143 112q72 84 102 152t39 176h233q-26 -152 -74.5 -244t-156.5 -196zM510 -188l-143 112q72 84 102 152t39 176h233q-26 -152 -74.5 -244t-156.5 -196z" />
    <glyph glyph-name="dagger" unicode="&#x2020;" horiz-adv-x="905" 
d="M461 434h-242l80 461h-231l43 244h231l35 194h244l-35 -194h252l-43 -244h-252z" />
    <glyph glyph-name="bullet" unicode="&#x2022;" horiz-adv-x="487" 
d="M215 432q-72 0 -114.5 51.5t-30.5 124.5q12 70 73 121t133 51q71 0 113 -51t29 -121q-10 -73 -71 -124.5t-132 -51.5z" />
    <glyph glyph-name="ellipsis" unicode="&#x2026;" horiz-adv-x="1077" 
d="M182 2q-57 0 -90 39.5t-24 95.5q11 56 57.5 95.5t103.5 39.5q54 0 86.5 -40t22.5 -95q-9 -55 -55.5 -95t-100.5 -40zM516 2q-57 0 -90.5 39.5t-24.5 95.5q11 56 58 95.5t104 39.5q54 0 86.5 -40t22.5 -95q-9 -55 -55.5 -95t-100.5 -40zM852 2q-57 0 -90.5 39.5
t-24.5 95.5q11 56 58 95.5t104 39.5q54 0 86.5 -40t22.5 -95q-9 -55 -55.5 -95t-100.5 -40z" />
    <glyph glyph-name="perthousand" unicode="&#x2030;" horiz-adv-x="3727" 
d="M504 219q-155 0 -263 74.5t-150 201.5t-15 283q21 120 78 227.5t138.5 188.5t190.5 128.5t228 47.5q97 0 176 -31t130.5 -85.5t84.5 -129t37.5 -162t-9.5 -184.5q-42 -241 -215.5 -400t-410.5 -159zM1038 -2h-256l807 1352h256zM537 397q149 0 259.5 107t141.5 276
q32 184 -39.5 298t-218.5 114q-149 0 -263.5 -114.5t-146.5 -297.5q-29 -168 45 -275.5t222 -107.5zM1905 -12q-155 0 -263 74.5t-150 202t-15 284.5q21 120 77.5 227t138 187.5t190.5 128t228 47.5q97 0 176.5 -30.5t131 -85t84 -129t37.5 -161.5t-9 -184
q-42 -241 -215.5 -401t-410.5 -160zM3021 -12q-155 0 -263 74.5t-150 202t-15 284.5q21 120 78 227t138.5 187.5t190.5 128t228 47.5q97 0 176 -30.5t130.5 -85t84.5 -129t37.5 -161.5t-9.5 -184q-42 -241 -215.5 -401t-410.5 -160zM1937 166q149 0 260 107t142 276
q32 184 -39.5 298t-218.5 114q-149 0 -263.5 -114.5t-146.5 -297.5q-29 -168 44.5 -275.5t221.5 -107.5zM3054 166q149 0 259.5 107t141.5 276q32 184 -39.5 298t-218.5 114q-149 0 -263.5 -114.5t-146.5 -297.5q-29 -168 45 -275.5t222 -107.5z" />
    <glyph glyph-name="guilsinglleft" unicode="&#x2039;" horiz-adv-x="940" 
d="M367 553l352 -387l-299 6l-352 383l510 381h296z" />
    <glyph glyph-name="guilsinglright" unicode="&#x203a;" horiz-adv-x="927" 
d="M369 172l-301 -6l493 387l-368 383h296l371 -381z" />
    <glyph glyph-name="fraction" unicode="&#x2044;" horiz-adv-x="1196" 
d="M322 0h-254l804 1352h256z" />
    <glyph glyph-name="Euro" unicode="&#x20ac;" horiz-adv-x="1624" 
d="M819 193q126 0 240 64.5t190 176.5l195 -94q-112 -166 -288 -263t-376 -97q-220 0 -376 116t-199 312h-135l39 213h88q4 38 8 55l6 26h-86l41 213h121q110 209 312 333t429 124q193 0 332.5 -88.5t198.5 -245.5l-228 -102q-40 104 -130 163.5t-210 59.5q-128 0 -247 -65
t-197 -179h246l-41 -213h-297l-6 -26q-7 -32 -7 -55h297l-41 -213h-223q45 -101 135 -158t209 -57z" />
    <glyph glyph-name="trademark" unicode="&#x2122;" horiz-adv-x="1337" 
d="M285 649h-138l105 565l-184 3l22 135h602l117 -510l303 510h160l-125 -703h-137l77 438l-262 -438h-102l-100 436l-78 -436h-139l102 568l-119 -3z" />
    <glyph glyph-name="minus" unicode="&#x2212;" horiz-adv-x="841" 
d="M735 426h-667l38 223h668z" />
    <glyph glyph-name="BeeType" horiz-adv-x="1390" 
d="M1325 428h-1257v369h1257v-369zM141 688v-166h90q64 0 64 45q0 30 -31 41q23 19 23 37q0 22 -17 32.5t-43 10.5h-86zM324 688v-166h129v31h-91v39h76v29h-76v36h87v31h-125zM483 688v-166h127v31h-90v39h76v29h-76v36h86v31h-123zM676 657v-135h37v135h55v31h-145v-31h53
zM838 582v-60h39v60l63 106h-39l-43 -74l-43 74h-43zM954 688v-166h39v47h33q72 0 72 60q0 29 -19.5 44t-52.5 15h-72zM1124 688v-166h129v31h-90v39h78v29h-78v36h88v31h-127zM219 621h-39v38h39q27 0 27 -20q0 -18 -27 -18zM1024 600h-31v57h31q35 0 35 -28
q0 -17 -8.5 -23t-26.5 -6zM227 551h-47v41h47q29 0 29 -21q0 -20 -29 -20z" />
    </font>
</defs>
</svg>
