<?xml version="1.0" standalone="no"?>
<!DOCTYPE svg PUBLIC "-//W3C//DTD SVG 1.1//EN" "http://www.w3.org/Graphics/SVG/1.1/DTD/svg11.dtd" >
<svg xmlns="http://www.w3.org/2000/svg" xmlns:xlink="http://www.w3.org/1999/xlink" version="1.1">
<metadata>
Created by FontForge 20201107 at Tue Apr 15 18:23:02 2025
 By 
Copyright (c) 2022 by beetype. All rights reserved.
</metadata>
<defs>
<font id="Aloevera-SemiBoldItalic" horiz-adv-x="0" >
  <font-face 
    font-family="Aloevera-SemiBoldItalic"
    font-weight="600"
    font-style="italic"
    font-stretch="normal"
    units-per-em="2048"
    panose-1="1 0 0 0 0 0 0 0 0 0"
    ascent="1638"
    descent="-410"
    x-height="1038"
    cap-height="1352"
    bbox="-776 -555.145 3723.55 1860"
    underline-thickness="102"
    underline-position="-255"
    unicode-range="U+0020-2212"
  />
<missing-glyph horiz-adv-x="1353" 
d="M338 211q-60 0 -123 24t-110.5 74.5t-47.5 112.5q0 126 154.5 232t384.5 132l18 2q-15 17 -27 46t-12 49q0 49 37 86q11 11 11 14q0 7 -9 16q-23 30 -77 93q-13 17 3 32q17 16 34 -3q2 -2 4 -5q46 -73 61 -100q8 -14 13 -16.5t18 -0.5q28 8 55 0q14 -4 24 11q2 2 3 4
l65 104q8 12 20.5 10t16 -12.5t-3.5 -23.5l-35 -45l-39 -54q-6 -8 6 -20q41 -47 41 -92q0 -37 -37 -97q134 -20 250.5 -73t188 -128t71.5 -153q0 -58 -48 -106.5t-111 -72.5t-119 -24q-85 0 -167 57.5t-132 149.5l-33 60l-37 -66q-49 -87 -131 -152t-180 -65zM338 264
q152 0 266 195q3 5 12.5 21.5t17 28.5t17 25.5t18.5 21t17 7.5q14 0 27.5 -15.5t30.5 -47.5t22 -39q116 -178 252 -178q70 0 148 45.5t75 103.5q-3 55 -46 105.5t-107 85.5t-139 61.5t-143.5 39.5t-119.5 13q-85 0 -184 -23.5t-187 -63t-146 -100t-58 -126.5t75 -113
t152 -47z" />
    <glyph glyph-name=".notdef" horiz-adv-x="1353" 
d="M338 211q-60 0 -123 24t-110.5 74.5t-47.5 112.5q0 126 154.5 232t384.5 132l18 2q-15 17 -27 46t-12 49q0 49 37 86q11 11 11 14q0 7 -9 16q-23 30 -77 93q-13 17 3 32q17 16 34 -3q2 -2 4 -5q46 -73 61 -100q8 -14 13 -16.5t18 -0.5q28 8 55 0q14 -4 24 11q2 2 3 4
l65 104q8 12 20.5 10t16 -12.5t-3.5 -23.5l-35 -45l-39 -54q-6 -8 6 -20q41 -47 41 -92q0 -37 -37 -97q134 -20 250.5 -73t188 -128t71.5 -153q0 -58 -48 -106.5t-111 -72.5t-119 -24q-85 0 -167 57.5t-132 149.5l-33 60l-37 -66q-49 -87 -131 -152t-180 -65zM338 264
q152 0 266 195q3 5 12.5 21.5t17 28.5t17 25.5t18.5 21t17 7.5q14 0 27.5 -15.5t30.5 -47.5t22 -39q116 -178 252 -178q70 0 148 45.5t75 103.5q-3 55 -46 105.5t-107 85.5t-139 61.5t-143.5 39.5t-119.5 13q-85 0 -184 -23.5t-187 -63t-146 -100t-58 -126.5t75 -113
t152 -47z" />
    <glyph glyph-name=".null" 
 />
    <glyph glyph-name="nonmarkingreturn" horiz-adv-x="682" 
 />
    <glyph glyph-name="space" unicode=" " horiz-adv-x="512" 
 />
    <glyph glyph-name="exclam" unicode="!" horiz-adv-x="618" 
d="M350 332h-209l142 1020h276zM190 -12q-69 0 -105 38.5t-26 104.5q10 61 62.5 101t120.5 40q71 0 108 -39t25 -102q-10 -64 -63 -103.5t-122 -39.5z" />
    <glyph glyph-name="quotedbl" unicode="&#x22;" horiz-adv-x="802" 
d="M410 1004l-222 -121q-88 125 -99 216t30 253h266q-22 -94 -24.5 -148.5t7.5 -92.5t42 -107zM745 1004l-223 -121q-61 88 -82.5 153.5t-17 129.5t32.5 186h266q-31 -143 -26.5 -198t50.5 -150z" />
    <glyph glyph-name="numbersign" unicode="#" horiz-adv-x="1538" 
d="M336 0h-264l149 297h-149l47 242h217l153 292h-182l45 242h252l135 279h265l-138 -279h193l137 279h262l-135 -279h156l-43 -242h-228l-153 -292h190l-45 -242h-260l-149 -297h-265l154 297h-193zM750 831l-148 -292h191l149 292h-192z" />
    <glyph glyph-name="dollar" unicode="$" horiz-adv-x="1069" 
d="M547 -8h-277l29 166q-129 34 -194.5 122t-41.5 224l265 -6q-15 -140 159 -152q60 -3 117 27.5t68 81.5q12 55 -23.5 84t-126.5 43q-83 11 -143.5 25t-115.5 37.5t-87 55.5t-46.5 79.5t-4.5 109.5q20 121 116 203.5t238 107.5l31 174h278l-32 -180q140 -27 205 -113
t45 -227h-265q9 73 -33.5 109t-123.5 36q-69 2 -119 -30t-59 -86q-7 -51 28.5 -77.5t132.5 -45.5q51 -9 89.5 -17t78 -18.5t67 -21.5t54 -25.5t43.5 -31t30.5 -38t18.5 -47t5 -56t-7 -67.5q-23 -123 -122.5 -198t-248.5 -93z" />
    <glyph glyph-name="percent" unicode="%" horiz-adv-x="2342" 
d="M461 352q-141 0 -240 67t-138.5 179.5t-16.5 249.5q26 142 105.5 258t203.5 185t268 69q107 0 191 -40t131.5 -109t67.5 -162.5t-1 -200.5q-38 -208 -199 -352t-372 -144zM909 0h-278l809 1352h276zM500 565q121 0 209 80.5t110 204.5q26 132 -32 213.5t-181 81.5
q-125 0 -214.5 -81.5t-112.5 -213.5q-19 -124 41 -204.5t180 -80.5zM1706 0q-141 0 -240.5 67t-139 179.5t-15.5 249.5q18 106 69.5 199.5t126 162.5t173.5 109.5t206 40.5t191 -40t131.5 -109t67.5 -162.5t-1 -200.5q-38 -208 -198 -352t-371 -144zM1745 213
q119 0 206.5 80.5t112.5 204.5q23 133 -35 214t-180 81q-124 0 -213.5 -82t-111.5 -213q-21 -124 39.5 -204.5t181.5 -80.5z" />
    <glyph glyph-name="ampersand" unicode="&#x26;" horiz-adv-x="1413" 
d="M492 -20q-130 -9 -231.5 32t-156.5 128t-45 204q6 74 34 138.5t67.5 109.5t90.5 81t98.5 57t96.5 34q-48 48 -82.5 118t-21.5 152q17 106 93 184.5t185 116.5t236 37q220 -2 331.5 -135t67.5 -348h-278q21 121 -20 195.5t-142 74.5q-78 0 -131.5 -38.5t-65.5 -106.5
q-10 -54 12 -99.5t81 -117.5l645 -797h-326l-182 215q-45 -99 -139.5 -163.5t-216.5 -71.5zM510 201q73 2 142 53.5t87 126.5l-178 221q-81 -5 -151.5 -66t-79.5 -151q-9 -78 45.5 -132t134.5 -52z" />
    <glyph glyph-name="quotesingle" unicode="'" horiz-adv-x="438" 
d="M381 1004l-221 -121q-88 125 -99.5 216t29.5 253h266q-22 -94 -24.5 -148.5t7.5 -92.5t42 -107z" />
    <glyph glyph-name="parenleft" unicode="(" horiz-adv-x="858" 
d="M588 76l-180 -197q-39 25 -73 51t-71.5 61t-67 74.5t-57 87t-45 104.5t-28 121t-8.5 141.5t16 162.5q19 114 66.5 225.5t122.5 216.5t185 198.5t244 160.5l109 -187q-88 -53 -157.5 -109t-132.5 -129.5t-106 -168t-63 -205.5q-15 -74 -12.5 -141t11 -120t30.5 -101
t45 -84t54.5 -67.5t59 -53.5t58.5 -41z" />
    <glyph glyph-name="parenright" unicode=")" horiz-adv-x="864" 
d="M164 -121l-107 197q55 28 104.5 60.5t109 87t106 117t87 152t60.5 191.5q19 89 13 169t-23 141.5t-53 118t-77 99t-95 84.5l174 187q88 -54 155 -125.5t107 -150.5t62 -168t20.5 -177.5t-16.5 -179.5q-26 -133 -78 -249.5t-112.5 -198t-140 -153t-148 -116t-148.5 -86.5z
" />
    <glyph glyph-name="asterisk" unicode="*" horiz-adv-x="849" 
d="M449 664h-187l45 161l-131 -118l-100 131l168 108l-185 -14l31 180l180 -16l-118 114l147 117l80 -139l24 164h175l-31 -162l123 131l100 -121l-154 -104l177 10l-39 -186l-158 14l102 -109l-137 -129l-96 131z" />
    <glyph glyph-name="plus" unicode="+" horiz-adv-x="948" 
d="M541 223h-277l49 275h-256l43 239h254l47 262h279l-47 -262h256l-41 -239h-258z" />
    <glyph glyph-name="comma" unicode="," horiz-adv-x="538" 
d="M231 -190l-174 133q79 88 110 157t38 183h276q-28 -164 -81 -264.5t-169 -208.5z" />
    <glyph glyph-name="hyphen" unicode="-" horiz-adv-x="860" 
d="M756 414h-699l47 264h699z" />
    <glyph glyph-name="period" unicode="." horiz-adv-x="423" 
d="M186 2q-63 0 -100 45t-27 109q10 61 64 105t117 44q62 0 98.5 -44t26.5 -105q-10 -64 -63.5 -109t-115.5 -45z" />
    <glyph glyph-name="slash" unicode="/" horiz-adv-x="1226" 
d="M362 0h-305l807 1352h305z" />
    <glyph glyph-name="zero" unicode="0" horiz-adv-x="1433" 
d="M596 -20q-142 0 -254 52t-178 143t-93 214.5t1 267.5q25 145 94.5 275t170 227.5t233 155t276.5 57.5q119 0 216 -37t160.5 -103t104 -156t47 -196t-11.5 -223q-25 -143 -93.5 -267.5t-168 -215t-230 -142.5t-274.5 -52zM643 236q165 0 286.5 116.5t155.5 306.5
q37 208 -41.5 332.5t-240.5 124.5q-166 0 -292 -125t-161 -332q-34 -189 47 -306t246 -117z" />
    <glyph glyph-name="one" unicode="1" horiz-adv-x="626" 
d="M336 0h-279l181 1026h-140l41 240q53 0 100 23t54 63h276z" />
    <glyph glyph-name="two" unicode="2" horiz-adv-x="1284" 
d="M1034 0h-977l37 209l346 246q32 22 92 65t85.5 61t72 52.5t67 51t53 44t47.5 45t33.5 40.5t27.5 43.5t14 41.5q24 102 -27.5 162t-173.5 59q-96 -2 -172.5 -64.5t-103.5 -170.5h-279q24 151 109 260.5t205.5 164.5t267.5 62q236 10 367 -113t94 -313q-13 -66 -42 -124
t-65 -104t-101.5 -102.5t-125.5 -101.5t-164 -120q-23 -17 -35 -25l-154 -117h545z" />
    <glyph glyph-name="three" unicode="3" horiz-adv-x="1220" 
d="M473 -20q-63 0 -118.5 10t-107.5 32t-90 57.5t-65 87t-32 119.5t8 156h241q-6 -46 -5.5 -81t14 -60t30.5 -41t44.5 -26t56.5 -13.5t65 -3.5q111 0 182 46.5t88 135.5q16 96 -49.5 135t-202.5 39h-219l37 201h211q144 0 220.5 37.5t95.5 138.5q17 95 -38 140t-169 45
q-116 0 -187.5 -54t-97.5 -172h-242q18 97 61 176t100.5 131.5t129 88.5t144 51.5t147.5 15.5q229 0 347 -104t81 -307q-18 -106 -77 -181t-138 -100q71 -31 105.5 -104.5t15.5 -184.5q-17 -101 -74 -181.5t-138.5 -129.5t-177 -74.5t-196.5 -25.5z" />
    <glyph glyph-name="four" unicode="4" horiz-adv-x="1280" 
d="M954 0h-278l45 258l-664 2l37 199l850 893h250l-154 -854h170l-43 -242h-170zM541 604l145 -106l137 327z" />
    <glyph glyph-name="five" unicode="5" horiz-adv-x="1214" 
d="M516 -20q-103 -1 -193.5 33.5t-155 97t-93 159t-8.5 211.5h278q-20 -113 45.5 -182.5t169.5 -67.5q119 3 198 74t101 189q22 124 -34 196t-158 74q-183 6 -299 -158l-254 94l247 652h789l-45 -252h-569l-105 -273q63 57 158.5 90t193.5 29q90 -3 163.5 -35.5t122.5 -92.5
t67 -145.5t-2 -193.5q-27 -139 -109.5 -251t-215 -179.5t-292.5 -68.5z" />
    <glyph glyph-name="six" unicode="6" horiz-adv-x="1269" 
d="M512 -20q-75 -1 -145 19t-130 62.5t-103 102.5t-63 144.5t-10 183.5q10 98 34.5 195t65.5 195t102.5 182.5t139 151.5t182 108.5t224.5 47.5q256 11 403 -141l-180 -182q-45 46 -116.5 68t-151.5 16q-105 -6 -192.5 -76t-143.5 -211q108 105 291 108q100 4 186 -27.5
t146 -92t84.5 -153t3.5 -202.5q-44 -231 -212.5 -364t-414.5 -135zM557 231q117 1 201.5 73t103.5 179q22 113 -35.5 185.5t-164.5 74.5q-124 3 -217.5 -64t-106.5 -187q-12 -121 52.5 -191t166.5 -70z" />
    <glyph glyph-name="seven" unicode="7" horiz-adv-x="1169" 
d="M362 0h-305l695 1102l-570 -2l43 252h887l-39 -224z" />
    <glyph glyph-name="eight" unicode="8" horiz-adv-x="1263" 
d="M518 -20q-112 0 -205 32.5t-151 86.5t-85.5 125t-15.5 147q10 76 43.5 139t81.5 104.5t100.5 68.5t110.5 42q-92 25 -150 101.5t-44 185.5q23 153 175 256.5t386 103.5q231 0 349.5 -103.5t86.5 -258.5q-23 -109 -104.5 -182.5t-182.5 -102.5q55 -14 98.5 -40t78 -69.5
t43.5 -103.5t-5 -141q-33 -163 -202.5 -277t-407.5 -114zM670 817q86 0 160 40.5t88 111.5q16 79 -46.5 121.5t-148.5 42.5q-41 0 -80.5 -9t-76.5 -27.5t-62 -51.5t-31 -76q-10 -68 51 -110t146 -42zM563 219q111 0 194 51.5t101 141.5q16 87 -40.5 146.5t-182.5 59.5
q-108 0 -192.5 -61.5t-98.5 -144.5q-13 -83 51.5 -138t167.5 -55z" />
    <glyph glyph-name="nine" unicode="9" horiz-adv-x="1269" 
d="M758 1370q94 1 179 -32t151 -95t99.5 -162t20.5 -223q-12 -119 -44 -234.5t-93 -231t-143.5 -203.5t-203.5 -146.5t-265 -65.5q-254 -11 -402 142l181 182q43 -46 115.5 -68t152.5 -16q104 6 191.5 76t144.5 211q-109 -106 -291 -109q-100 -4 -186 27.5t-146 92
t-84.5 154t-3.5 203.5q44 230 213 363t414 135zM713 1118q-117 -1 -201.5 -73t-103.5 -179q-21 -113 36 -185t164 -75q123 -3 217 64.5t107 187.5q12 121 -52.5 191.5t-166.5 68.5z" />
    <glyph glyph-name="colon" unicode=":" horiz-adv-x="548" 
d="M311 868q-63 0 -100 45t-27 109q10 61 64 105t117 44q62 0 98 -44t26 -105q-10 -64 -63 -109t-115 -45zM186 150q-63 0 -100 44.5t-27 108.5q10 61 64 105.5t117 44.5q62 0 98.5 -44.5t26.5 -105.5q-10 -64 -63.5 -108.5t-115.5 -44.5z" />
    <glyph glyph-name="semicolon" unicode=";" horiz-adv-x="632" 
d="M395 868q-63 0 -100 45t-27 109q10 61 64 105t117 44q62 0 98 -44t26 -105q-10 -64 -63 -109t-115 -45zM231 -166l-174 133q79 88 110 157t38 181h276q-28 -162 -81 -262.5t-169 -208.5z" />
    <glyph glyph-name="less" unicode="&#x3c;" horiz-adv-x="1011" 
d="M778 219h-342l-379 412l545 407h352l-548 -411z" />
    <glyph glyph-name="equal" unicode="=" horiz-adv-x="825" 
d="M723 653h-608l45 252h608zM668 332h-611l45 252h611z" />
    <glyph glyph-name="greater" unicode="&#x3e;" horiz-adv-x="966" 
d="M387 219h-330l516 408l-405 411h342l399 -407z" />
    <glyph glyph-name="question" unicode="?" horiz-adv-x="1247" 
d="M369 268h-277l14 86q16 90 65.5 154t117 98.5t146 59t156 43.5t143.5 42t112.5 65.5t58.5 103.5q21 108 -36 162t-179 51q-106 -2 -179.5 -54.5t-92.5 -160.5h-279q18 131 104 235.5t212 161t268 57.5q236 2 366.5 -127t92.5 -325q-20 -100 -72.5 -174t-121.5 -115.5
t-148 -70t-156 -46.5t-141 -36.5t-107.5 -48.5t-50.5 -73zM182 -12q-67 0 -99.5 32.5t-23.5 83.5q8 49 52.5 83t109.5 34t97 -33.5t26 -83.5q-9 -51 -53 -83.5t-109 -32.5z" />
    <glyph glyph-name="at" unicode="@" horiz-adv-x="1630" 
d="M602 -127q-124 -1 -226 35.5t-169.5 103.5t-108 160t-41 205t30.5 239q42 158 136 296.5t217.5 236.5t274 154t302.5 55q155 -1 274 -54.5t188 -149.5t88 -230t-26 -297q-58 -207 -180.5 -349t-269.5 -165q-97 -19 -146 22.5t-35 112.5l21 74q-41 -47 -108.5 -85.5
t-133.5 -48.5q-138 -20 -215.5 53t-58.5 191q18 103 101 177.5t220 103.5q151 32 279 22q15 66 -13.5 109t-103.5 43q-70 0 -124.5 -33.5t-82.5 -99.5h-186q58 146 177 224.5t255 78.5q86 0 145 -31t85 -84t31.5 -124t-15.5 -152q-35 -146 -109 -324q-13 -34 7 -45
q25 -13 65 29q106 106 164 307q63 232 -36.5 374t-307.5 142q-137 0 -267.5 -63t-232.5 -186t-145 -284q-65 -247 30 -392t314 -142q74 0 151 22l-45 -210q-96 -21 -170 -21zM762 367q73 15 133.5 68t79.5 120l8 37q-115 9 -219 -23q-63 -18 -104 -54t-44 -81
q-1 -44 41.5 -61t104.5 -6z" />
    <glyph glyph-name="A" unicode="A" horiz-adv-x="1599" 
d="M362 0h-305l840 1352h277l366 -1352h-303l-109 391l-522 2zM971 977l-223 -356h319z" />
    <glyph glyph-name="B" unicode="B" horiz-adv-x="1308" 
d="M602 0h-545l238 1352h541q91 0 162.5 -15t116 -40.5t76.5 -60t43 -73.5t15 -80.5t-6 -81.5q-17 -99 -93 -170t-185 -100q109 -31 172 -116.5t41 -202.5q-9 -55 -33 -109t-70.5 -110t-109.5 -98t-157 -68.5t-206 -26.5zM543 1100l-47 -273h204q116 0 175 33.5t71 100.5
q12 70 -31.5 104.5t-158.5 34.5h-213zM457 608l-64 -356h221q247 0 277 180q16 83 -37 129.5t-182 46.5h-215z" />
    <glyph glyph-name="C" unicode="C" horiz-adv-x="1495" 
d="M655 -20q-144 0 -264.5 51t-201 140.5t-113.5 221t-4 283.5q29 154 109.5 286t192.5 221t248.5 139t278.5 50q196 0 337 -90t200 -250l-271 -119q-36 97 -117 152t-194 55q-175 0 -318 -125t-176 -319q-33 -193 64 -319t272 -126q118 0 224 61t174 165l233 -107
q-111 -171 -290.5 -270.5t-383.5 -99.5z" />
    <glyph glyph-name="D" unicode="D" horiz-adv-x="1488" 
d="M557 0h-500l240 1352h506q114 0 215 -25t186 -77t140 -130.5t77.5 -186t-2.5 -243.5q-37 -208 -165 -366.5t-309.5 -241t-387.5 -82.5zM541 1100l-148 -848h215q199 0 342 122t176 300q34 189 -61.5 307.5t-296.5 118.5h-227z" />
    <glyph glyph-name="E" unicode="E" horiz-adv-x="1312" 
d="M1016 0h-959l238 1352h960l-51 -291h-669l-46 -260h590l-45 -252h-590l-45 -258h668z" />
    <glyph glyph-name="F" unicode="F" horiz-adv-x="1312" 
d="M348 0h-291l238 1352h960l-51 -291h-669l-46 -260h551l-45 -252h-551z" />
    <glyph glyph-name="G" unicode="G" horiz-adv-x="1495" 
d="M655 -20q-144 0 -264.5 51t-201 140.5t-113.5 221t-4 283.5q29 154 109.5 286t192.5 221t248.5 139t278.5 50q196 0 337 -90t200 -250l-271 -119q-36 97 -117 152t-194 55q-175 0 -318 -125t-176 -319q-33 -193 64 -319t272 -126q260 0 385 187l27 151h-303l33 189h561
l-72 -408q-111 -171 -290.5 -270.5t-383.5 -99.5z" />
    <glyph glyph-name="H" unicode="H" horiz-adv-x="1404" 
d="M348 0h-291l238 1352h291l-97 -551h472l96 551h291l-238 -1352h-291l96 549h-471z" />
    <glyph glyph-name="I" unicode="I" horiz-adv-x="630" 
d="M336 0h-279l238 1352h278z" />
    <glyph glyph-name="J" unicode="J" horiz-adv-x="1273" 
d="M485 -20q-75 0 -141.5 16t-126 51.5t-97 92t-54 136.5t3.5 185h264q-11 -111 40.5 -176.5t151.5 -65.5q108 0 178.5 74.5t90.5 183.5l153 875h269l-154 -871q-24 -133 -84 -233.5t-141.5 -157t-170 -83.5t-182.5 -27z" />
    <glyph glyph-name="K" unicode="K" horiz-adv-x="1527" 
d="M348 0h-291l236 1352h291l-99 -559l652 559h333l-614 -547l342 -805h-317l-258 594l-203 -178z" />
    <glyph glyph-name="L" unicode="L" horiz-adv-x="1089" 
d="M987 0h-930l238 1352h291l-195 -1100h641z" />
    <glyph glyph-name="M" unicode="M" horiz-adv-x="1777" 
d="M348 0h-291l238 1352h307l252 -842l559 842h307l-237 -1352h-291l139 797l-475 -797h-184l-185 791z" />
    <glyph glyph-name="N" unicode="N" horiz-adv-x="1476" 
d="M348 0h-291l238 1352h254l426 -863l153 863h289l-237 -1352h-248l-436 844z" />
    <glyph glyph-name="O" unicode="O" horiz-adv-x="1544" 
d="M655 -20q-143 0 -263.5 50.5t-201.5 139.5t-114.5 219t-5.5 279q29 154 109.5 286t192.5 221t249.5 139t279.5 50q144 0 263 -51t197 -140.5t109 -220.5t3 -284q-36 -196 -156 -354t-294.5 -246t-367.5 -88zM700 231q174 0 310.5 123.5t171.5 313.5q35 197 -58.5 320.5
t-267.5 123.5q-176 0 -318.5 -124t-177.5 -320q-32 -188 66 -312.5t274 -124.5z" />
    <glyph glyph-name="P" unicode="P" horiz-adv-x="1357" 
d="M348 0h-291l238 1352h549q88 0 159.5 -14.5t120 -39t84 -59.5t55 -73t28.5 -81.5t8.5 -84t-7.5 -82.5q-11 -60 -34.5 -115.5t-70.5 -113t-111.5 -99.5t-163.5 -69t-220 -27h-258zM541 1100l-62 -355h258q123 0 186.5 43t77.5 130q18 87 -31.5 134.5t-172.5 47.5h-256z
" />
    <glyph glyph-name="Q" unicode="Q" horiz-adv-x="1544" 
d="M1227 4l129 -215q-117 -78 -232.5 -119t-209.5 -43.5t-174.5 23.5t-133 76.5t-79 121t-19.5 152.5q-235 44 -359.5 227t-78.5 441q29 154 109.5 286t192.5 221t249.5 139t279.5 50q144 0 263 -51t197 -140.5t109 -220.5t3 -284q-47 -255 -231.5 -439.5t-430.5 -230.5
q-7 -73 64 -101t173.5 1.5t178.5 105.5zM700 231q174 0 310.5 123.5t171.5 313.5q35 197 -58.5 320.5t-267.5 123.5q-176 0 -318.5 -124t-177.5 -320q-32 -188 66 -312.5t274 -124.5z" />
    <glyph glyph-name="R" unicode="R" horiz-adv-x="1357" 
d="M348 0h-291l238 1352h549q88 0 159.5 -14t120.5 -38t85 -58t55.5 -72t28.5 -82.5t8 -87t-9 -87.5q-14 -78 -41.5 -144t-73 -123t-115.5 -95.5t-159 -52.5l-57 -4l217 -494h-324l-209 494h-96zM541 1100l-64 -365h258q234 0 266 178q16 88 -33 137.5t-171 49.5h-256z" />
    <glyph glyph-name="S" unicode="S" horiz-adv-x="1212" 
d="M502 -20q-101 2 -187 33.5t-147.5 87.5t-90 141.5t-14.5 187.5h265q-6 -57 13 -102t53.5 -70t74 -38t80.5 -13q96 -2 172 41t94 129q18 89 -42.5 135t-194.5 66q-112 14 -196.5 43.5t-145.5 77t-85 119.5t-8 165q21 118 106 208t203.5 135.5t249.5 45.5q136 0 244.5 -51
t166.5 -152.5t38 -234.5h-268q11 107 -52 160t-167 53q-89 0 -160 -47t-84 -123q-14 -71 41 -114.5t186 -65.5q256 -37 369 -141.5t71 -303.5q-20 -95 -78 -169t-139.5 -118t-175.5 -65.5t-192 -19.5z" />
    <glyph glyph-name="T" unicode="T" horiz-adv-x="1263" 
d="M559 0h-289l195 1100h-408l45 252h1104l-45 -252h-405z" />
    <glyph glyph-name="U" unicode="U" horiz-adv-x="1409" 
d="M543 -20q-261 0 -389 148.5t-86 387.5l147 836h291l-144 -811q-26 -140 32.5 -225t195.5 -85q134 0 219 85t111 225l143 811h289l-148 -836q-40 -236 -220.5 -386t-440.5 -150z" />
    <glyph glyph-name="V" unicode="V" horiz-adv-x="1476" 
d="M629 0h-277l-295 1352h303l201 -969l555 969h303z" />
    <glyph glyph-name="W" unicode="W" horiz-adv-x="2129" 
d="M520 0h-274l-189 1352h303l103 -965l442 965h305l78 -965l481 965h304l-711 -1352h-277l-94 995z" />
    <glyph glyph-name="X" unicode="X" horiz-adv-x="1630" 
d="M362 0h-305l611 686l-369 666h303l252 -469l416 469h303l-602 -666l368 -686h-305l-250 492z" />
    <glyph glyph-name="Y" unicode="Y" horiz-adv-x="1497" 
d="M649 0h-278l98 547l-412 805h303l287 -578l490 578h303l-697 -805z" />
    <glyph glyph-name="Z" unicode="Z" horiz-adv-x="1327" 
d="M1028 0h-971l41 238l803 862h-665l43 252h991l-41 -238l-803 -862h645z" />
    <glyph glyph-name="bracketleft" unicode="[" horiz-adv-x="915" 
d="M541 -223h-484l318 1800h483l-43 -242h-207l-231 -1317h207z" />
    <glyph glyph-name="backslash" unicode="\" horiz-adv-x="1226" 
d="M362 1352l807 -1352h-305l-807 1352h305z" />
    <glyph glyph-name="bracketright" unicode="]" horiz-adv-x="921" 
d="M719 1577l-338 -1800h-483l45 241h207l245 1317h-205l46 242h483z" />
    <glyph glyph-name="asciicircum" unicode="^" horiz-adv-x="921" 
d="M299 678h-242l449 674h160l198 -672h-241l-99 344z" />
    <glyph glyph-name="underscore" unicode="_" horiz-adv-x="987" 
d="M887 0h-830l43 240h830z" />
    <glyph glyph-name="a" unicode="a" horiz-adv-x="1398" 
d="M483 -20q-219 -1 -337 153.5t-78 380.5q29 168 116.5 293.5t210.5 189t264 62.5q87 -1 160 -29t125.5 -87.5t63.5 -143.5l43 239h290l-182 -1038h-289l41 244q-59 -118 -179 -190t-249 -74zM600 221q123 2 224 85t124 210q24 137 -46.5 219t-194.5 84q-125 3 -225 -81.5
t-124 -221.5q-24 -129 47.5 -213t194.5 -82z" />
    <glyph glyph-name="b" unicode="b" horiz-adv-x="1386" 
d="M717 -20q-124 2 -217.5 76t-108.5 196l-45 -252h-289l238 1352h291l-101 -564q40 87 115 150t158 91.5t166 29.5q102 1 184.5 -36t136.5 -107t74.5 -171.5t-2.5 -230.5q-40 -227 -211.5 -381t-388.5 -153zM684 221q119 -2 219.5 81t124.5 214q24 138 -45.5 222t-191.5 81
q-120 -2 -218 -83t-122 -220q-24 -128 47.5 -210.5t185.5 -84.5z" />
    <glyph glyph-name="c" unicode="c" horiz-adv-x="1282" 
d="M551 -20q-117 0 -215 38.5t-164.5 107t-95.5 169.5t-10 219q28 163 127.5 288.5t242.5 191t305 65.5q186 0 315 -84t169 -232l-289 -98q-20 79 -84.5 126.5t-153.5 47.5q-124 0 -221.5 -86t-120.5 -217q-23 -127 45.5 -212t190.5 -85q91 0 173 49t130 129l252 -100
q-92 -148 -249 -232.5t-347 -84.5z" />
    <glyph glyph-name="d" unicode="d" horiz-adv-x="1441" 
d="M479 -20q-142 -1 -245.5 69.5t-147.5 193t-18 271.5q29 167 117 293t210 189.5t260 62.5q61 -1 117.5 -18t104.5 -49t79 -85t37 -119l101 564h290l-237 -1352h-289l43 252q-57 -126 -176 -198t-246 -74zM598 221q115 2 214.5 84t123.5 211q24 139 -45.5 220t-188.5 83
q-122 3 -221 -81t-123 -222q-24 -130 47 -213.5t193 -81.5z" />
    <glyph glyph-name="e" unicode="e" horiz-adv-x="1232" 
d="M528 -20q-108 0 -201 38t-158.5 105.5t-93.5 170t-7 222.5q23 130 87.5 235t154 171.5t194.5 101.5t215 35q219 0 346 -132.5t109 -361.5q-3 -46 -21 -110h-823q-1 -105 68.5 -170.5t172.5 -67.5q82 0 157.5 34.5t123.5 98.5l197 -110q-91 -122 -229 -191t-292 -69z
M381 616h528q-3 94 -69.5 151.5t-161.5 57.5q-92 0 -177.5 -57.5t-119.5 -151.5z" />
    <glyph glyph-name="f" unicode="f" horiz-adv-x="1069" 
d="M412 0h-291l108 616h-172l43 240h170l17 94q20 109 77 194.5t134.5 135t167 73t179.5 17t167 -40.5l-92 -250q-57 25 -113 29.5t-104 -10.5t-82.5 -55.5t-45.5 -102.5l-14 -84h279l-43 -240h-277z" />
    <glyph glyph-name="g" unicode="g" horiz-adv-x="1429" 
d="M532 -526q-248 0 -373.5 94t-97.5 264q14 93 75.5 169t146.5 122q-40 37 -25 108q17 70 102 134q-48 48 -70.5 119.5t-8.5 154.5q34 189 179.5 300.5t364.5 111.5q84 0 181 -19h364l-35 -213h-153q47 -65 28 -172q-31 -182 -174.5 -290.5t-357.5 -108.5q-92 0 -129 12
q-65 -32 -74 -72q-6 -27 19 -37t81 -10h211q90 0 163 -16.5t129 -51.5t80.5 -96t8.5 -143q-64 -360 -635 -360zM721 485q100 0 156.5 43t70.5 119q12 78 -32.5 122t-137.5 44q-203 0 -233 -168q-12 -76 30.5 -118t145.5 -42zM547 -313q174 0 258 31.5t96 101.5
q27 143 -182 143h-172q-93 0 -153 -36t-70 -109t46.5 -102t176.5 -29z" />
    <glyph glyph-name="h" unicode="h" horiz-adv-x="1339" 
d="M360 0h-303l238 1352h291l-99 -549q55 126 171 190t241 66q215 1 314 -142.5t55 -392.5l-90 -524h-291l90 520q23 133 -28 217.5t-179 81.5q-125 -2 -209.5 -81.5t-109.5 -221.5z" />
    <glyph glyph-name="i" unicode="i" horiz-adv-x="638" 
d="M401 1133q-63 0 -103 32t-30 84q9 52 61 84.5t115 32.5q62 0 103 -32.5t31 -84.5q-9 -52 -61.5 -84t-115.5 -32zM348 0h-291l183 1038h290z" />
    <glyph glyph-name="j" unicode="j" horiz-adv-x="993" 
d="M760 1128q-64 0 -105 33.5t-32 85.5q10 52 62.5 84.5t115.5 32.5t103 -32.5t30 -84.5q-9 -52 -61 -85.5t-113 -33.5zM57 -518l82 260q103 -14 171.5 26.5t88.5 139.5l199 1130h289l-201 -1140q-14 -82 -49.5 -151.5t-84 -118.5t-108.5 -85.5t-125 -52.5t-132 -20.5
t-130 12.5z" />
    <glyph glyph-name="k" unicode="k" horiz-adv-x="1300" 
d="M348 0h-291l240 1352h291l-121 -680l461 366h315l-508 -434l371 -604h-315l-283 453l-94 -74z" />
    <glyph glyph-name="l" unicode="l" horiz-adv-x="643" 
d="M348 0h-291l238 1352h291z" />
    <glyph glyph-name="m" unicode="m" horiz-adv-x="2105" 
d="M360 0h-303l183 1038h290l-43 -241q40 109 155 184.5t243 77.5q141 1 230 -69t114 -197q69 124 192.5 196t253.5 70q204 -3 303.5 -141t57.5 -379l-94 -539h-291l94 539q24 127 -30 205t-173 75q-118 -1 -195.5 -76.5t-99.5 -205.5l-94 -537h-291l94 539
q22 128 -30.5 205.5t-171.5 74.5q-111 -3 -193.5 -82t-103.5 -196z" />
    <glyph glyph-name="n" unicode="n" horiz-adv-x="1341" 
d="M360 0h-303l183 1038h290l-45 -245q55 129 172 196.5t242 69.5q211 2 313 -138t60 -382l-94 -539h-291l94 539q22 128 -32.5 205.5t-178.5 74.5q-124 -1 -210.5 -87t-110.5 -224z" />
    <glyph glyph-name="o" unicode="o" horiz-adv-x="1296" 
d="M551 -20q-117 0 -215 38.5t-164.5 107t-95.5 169.5t-10 219q28 163 127.5 288.5t242.5 191t305 65.5q124 0 224.5 -38.5t167 -108t92.5 -172.5t4 -226q-43 -237 -232.5 -385.5t-445.5 -148.5zM592 219q124 0 224 85t122 212q24 131 -46 217t-194 86t-221.5 -86
t-120.5 -217q-23 -127 45.5 -212t190.5 -85z" />
    <glyph glyph-name="p" unicode="p" horiz-adv-x="1441" 
d="M348 -313h-291l238 1351h289l-45 -250q61 126 179.5 197.5t244.5 73.5q217 1 334 -153.5t77 -381.5q-22 -126 -78.5 -230t-135 -172.5t-174.5 -105.5t-198 -36q-62 1 -118.5 17t-105 47t-80.5 83.5t-38 120.5zM741 219q118 -2 218 82.5t126 220.5q21 131 -50 214t-191 81
q-116 -2 -215 -83.5t-121 -211.5q-13 -72 -0.5 -128.5t46 -95t81.5 -58.5t106 -21z" />
    <glyph glyph-name="q" unicode="q" horiz-adv-x="1386" 
d="M1092 -313h-291l96 557q-61 -129 -180 -195.5t-252 -68.5q-103 -1 -186 35.5t-137 106.5t-74.5 171.5t2.5 230.5q40 227 212 381.5t388 153.5q126 -2 216.5 -72t108.5 -192l45 243h289zM596 219q122 2 218.5 82.5t121.5 220.5q23 131 -46.5 212t-187.5 83
q-119 2 -220 -81.5t-122 -213.5q-17 -90 10.5 -160.5t87.5 -107t138 -35.5z" />
    <glyph glyph-name="r" unicode="r" horiz-adv-x="1122" 
d="M362 0h-305l183 1038h292l-47 -258q36 81 105 141.5t149.5 89.5t167.5 27.5t158 -37.5l-193 -237q-36 25 -86.5 28.5t-103 -16t-100 -54t-83 -89t-46.5 -117.5z" />
    <glyph glyph-name="s" unicode="s" horiz-adv-x="1071" 
d="M453 -20q-91 2 -168 28t-132.5 73t-80 119t-9.5 160h265q-7 -82 38.5 -123t125.5 -44q64 -3 115 26t63 82q12 55 -23 84t-127 43q-83 11 -142.5 24.5t-113.5 36.5t-84.5 55t-44.5 80t-4 111q23 147 158 235.5t323 88.5q203 0 313.5 -99t84.5 -278h-265q7 74 -36.5 118
t-122.5 46q-67 2 -116 -31.5t-58 -89.5q-8 -50 28.5 -81.5t130.5 -49.5q51 -9 89 -17t77.5 -18t66.5 -21t53 -24.5t42.5 -30t29.5 -36.5t17.5 -44.5t4.5 -54.5t-7 -65q-27 -148 -162.5 -228t-328.5 -75z" />
    <glyph glyph-name="t" unicode="t" horiz-adv-x="886" 
d="M719 270l4 -250q-89 -34 -180.5 -41.5t-171 16.5t-138 73t-84 134.5t-6.5 194.5l72 402h-158l45 252q27 0 49 3.5t38.5 8t30.5 16t23.5 20.5t17.5 28.5t13 32.5t10.5 40t8.5 44t8.5 51.5t9.5 56.5h291l-51 -301h278l-45 -252h-280l-64 -365q-15 -82 20.5 -133t103 -56.5
t155.5 25.5z" />
    <glyph glyph-name="u" unicode="u" horiz-adv-x="1341" 
d="M442 -20q-211 -2 -312.5 137.5t-59.5 382.5l94 538h291l-95 -538q-22 -128 32.5 -205t178.5 -76t210.5 86.5t111.5 224.5l90 508h301l-182 -1038h-291l43 246q-55 -128 -171.5 -196t-240.5 -70z" />
    <glyph glyph-name="v" unicode="v" horiz-adv-x="1271" 
d="M592 0h-275l-260 1038h293l158 -729l416 729h290z" />
    <glyph glyph-name="w" unicode="w" horiz-adv-x="1787" 
d="M469 0h-279l-133 1038h291l84 -682l320 682h254l86 -682l346 682h293l-517 -1038h-286l-119 635z" />
    <glyph glyph-name="x" unicode="x" horiz-adv-x="1372" 
d="M350 0h-293l480 524l-279 514h291l182 -333l291 333h293l-453 -514l293 -524h-291l-194 362z" />
    <glyph glyph-name="y" unicode="y" horiz-adv-x="1179" 
d="M57 -205l193 168q18 -31 57 -44t84.5 3t75.5 62l74 112l-238 942h293l129 -716l418 716h291l-740 -1116q-70 -107 -159.5 -168t-175.5 -70.5t-165.5 19t-136.5 92.5z" />
    <glyph glyph-name="z" unicode="z" horiz-adv-x="1110" 
d="M870 0h-813l35 203l596 596h-491l41 239h813l-35 -202l-592 -596h489z" />
    <glyph glyph-name="braceleft" unicode="{" horiz-adv-x="729" 
d="M461 180l-39 -231q-186 0 -273.5 81.5t-52.5 237.5q23 96 68 226q18 54 -14.5 78t-92.5 16l39 219q137 -11 137 96q-3 120 3 187q12 90 55 156t105.5 99.5t132.5 46t143 3.5l-41 -240q-59 0 -104.5 -28t-49.5 -87q-5 -89 -8 -166q-3 -63 -25.5 -107.5t-72.5 -78.5
q72 -69 30 -194q-9 -34 -28.5 -91t-30.5 -96q-10 -30 -3.5 -52t17 -35.5t31 -22t37.5 -12.5t37 -5z" />
    <glyph glyph-name="bar" unicode="|" horiz-adv-x="620" 
d="M309 -47h-252l254 1440h252z" />
    <glyph glyph-name="braceright" unicode="}" horiz-adv-x="753" 
d="M57 -51l43 231q155 10 166 127q3 44 4.5 102t3.5 85q3 123 101 194q-68 62 -29 186q17 58 53 166q17 59 -18.5 87t-93.5 28l45 240q77 9 142 -3t116 -47.5t68 -98.5t-1 -156q-12 -50 -63 -187q-22 -57 8 -79t92 -17l-41 -219q-58 8 -98 -16t-43 -78q0 -94 -12 -226
q-23 -155 -140.5 -237t-302.5 -82z" />
    <glyph glyph-name="exclamdown" unicode="&#xa1;" horiz-adv-x="655" 
d="M463 1364q67 0 105 -39t26 -102q-10 -64 -61.5 -104t-122.5 -40q-68 0 -104.5 40.5t-26.5 103.5q13 64 64 102.5t120 38.5zM57 0l230 1020h209l-162 -1020h-277z" />
    <glyph glyph-name="cent" unicode="&#xa2;" horiz-adv-x="1282" 
d="M618 0h-217l29 156q-125 23 -215.5 92.5t-131 181t-17.5 246.5q34 211 185.5 353t360.5 177l25 148h217l-25 -140q153 -19 257 -99.5t139 -209.5l-289 -100q-22 80 -86 128t-152 48q-123 0 -221 -86.5t-123 -216.5q-22 -127 46 -212t190 -85q91 0 174 49t131 129
l252 -100q-83 -131 -214 -213t-290 -99z" />
    <glyph glyph-name="sterling" unicode="&#xa3;" horiz-adv-x="1345" 
d="M985 0h-928l41 227q120 82 166 150.5t51 157.5h-170l37 213h135q-28 92 -14 172q28 192 188 322.5t383 129.5q144 -1 246 -66.5t143 -177t17 -247.5h-246q21 121 -34.5 185.5t-163.5 61.5q-106 0 -179 -58t-88 -150q-16 -87 19 -175l344 3l-39 -213h-328q0 -47 -13 -89
t-40 -82t-46.5 -63t-55.5 -61h616z" />
    <glyph glyph-name="yen" unicode="&#xa5;" horiz-adv-x="1497" 
d="M1440 1352l-697 -805l-12 -68h162l-29 -162h-159l-11 -53h164l-31 -164h-161l-17 -100h-278l18 100h-172l31 164h170l10 53h-172l29 162h172l12 68l-412 805h303l287 -578l490 578h303z" />
    <glyph glyph-name="section" unicode="&#xa7;" horiz-adv-x="1073" 
d="M438 -20q-87 1 -160 23.5t-127 65t-78 110t-10 151.5l246 -6q-4 -39 8.5 -67.5t38 -44t54.5 -23t65 -9.5q71 -3 126 21t65 71q13 60 -23.5 81.5t-144.5 31.5q-97 9 -168.5 29t-124 53.5t-75 85.5t-11.5 121q16 102 121 192q-73 73 -56 183q23 141 153.5 232t311.5 91
q195 0 292.5 -92t68.5 -268h-250q10 79 -30.5 119t-117.5 40q-72 0 -123.5 -30t-60.5 -84q-8 -51 39 -76t135 -35q104 -16 170.5 -36t115 -53t64.5 -81.5t4 -118.5q-20 -118 -114 -186q40 -23 55.5 -76t3.5 -121q-25 -136 -151 -216t-312 -78zM651 573q40 26 49 68
q5 25 -3.5 41.5t-29 26t-44.5 15.5t-57 12q-13 2 -19 3q-67 9 -119 31q-46 -29 -55 -74q-7 -45 28.5 -66t124.5 -32q89 -13 125 -25z" />
    <glyph glyph-name="copyright" unicode="&#xa9;" horiz-adv-x="1228" 
d="M518 270q-155 0 -268.5 73t-161.5 197.5t-22 272.5q26 151 117.5 276.5t231.5 200t298 74.5q160 0 272.5 -74.5t157 -200t18.5 -276.5q-26 -148 -118.5 -272.5t-231.5 -197.5t-293 -73zM547 426q166 0 296.5 109.5t162.5 277.5q33 180 -59 287.5t-259 107.5
q-170 0 -302.5 -108t-162.5 -287q-29 -167 64.5 -277t259.5 -110zM559 510q-135 0 -214 85t-56 218q24 138 131.5 222.5t245.5 84.5q105 0 176.5 -46.5t91.5 -129.5l-135 -49q-13 51 -54.5 81t-97.5 30q-78 0 -142 -54.5t-77 -138.5q-15 -79 29.5 -133.5t120.5 -54.5
q58 0 110.5 30.5t83.5 81.5l119 -49q-52 -83 -139.5 -130.5t-192.5 -47.5z" />
    <glyph glyph-name="ordfeminine" unicode="&#xaa;" horiz-adv-x="1032" 
d="M362 600q-158 -1 -242.5 109t-56.5 272q32 180 150.5 285.5t273.5 103.5q96 0 167 -48t81 -138l31 172h209l-131 -742h-207l31 174q-44 -85 -129.5 -136.5t-176.5 -51.5zM444 772q88 2 160.5 61.5t87.5 149.5q18 98 -32 156.5t-140 60.5q-89 2 -160.5 -58.5t-89.5 -158.5
q-15 -94 35.5 -153.5t138.5 -57.5z" />
    <glyph glyph-name="guillemotleft" unicode="&#xab;" horiz-adv-x="1574" 
d="M551 555l356 -389l-354 8l-356 385l514 381h352zM1004 545l356 -389l-354 8l-355 385l512 381h353z" />
    <glyph glyph-name="registered" unicode="&#xae;" horiz-adv-x="1122" 
d="M471 346q-104 0 -189 41t-138 110t-74.5 163t-3.5 196q18 104 72.5 198.5t132 164.5t178 111.5t206.5 41.5t191 -41.5t136.5 -111.5t71.5 -164.5t1 -198.5q-17 -102 -71.5 -196t-132 -163t-177.5 -110t-203 -41zM494 467q156 0 281.5 109.5t156.5 277.5q33 179 -53 288
t-244 109q-103 0 -197.5 -48t-163 -140t-88.5 -209q-18 -109 17 -198t112 -139t179 -50zM449 627h-99l86 483h195q54 0 89.5 -14t49.5 -37t19.5 -50.5t-1.5 -54.5q-22 -128 -139 -147h-22l78 -180h-111l-76 180h-37zM520 1024l-24 -135h96q88 0 98 65q6 32 -13 51t-63 19
h-94z" />
    <glyph glyph-name="degree" unicode="&#xb0;" horiz-adv-x="581" 
d="M250 899q-104 0 -154 72t-35 166q16 93 93 165t182 72q104 0 152 -72.5t32 -164.5q-17 -94 -89 -166t-181 -72zM274 1049q39 0 66.5 25.5t32.5 60.5q8 37 -11 63.5t-55 26.5q-37 0 -65.5 -26t-34.5 -64q-6 -35 12.5 -60.5t54.5 -25.5z" />
    <glyph glyph-name="plusminus" unicode="&#xb1;" horiz-adv-x="980" 
d="M575 430h-278l49 275h-254l41 239h256l47 260h277l-47 -260h258l-43 -239h-256zM756 53h-699l47 264h699z" />
    <glyph glyph-name="uni00B2" unicode="&#xb2;" horiz-adv-x="894" 
d="M709 459h-652l25 139l231 164q188 134 225 164q89 74 103 133q15 68 -19 107.5t-114 39.5q-65 -2 -116 -43.5t-68 -113.5h-187q24 149 130.5 233t256.5 92q159 6 245.5 -75.5t61.5 -208.5q-11 -55 -34.5 -99t-69 -88.5t-93 -81.5t-133.5 -99q-16 -11 -24 -17l-102 -78
h362z" />
    <glyph glyph-name="uni00B3" unicode="&#xb3;" horiz-adv-x="851" 
d="M334 442q-63 0 -115.5 16.5t-93.5 51t-57.5 96.5t-1.5 146h159q-16 -87 21 -118.5t116 -31.5q74 0 122.5 30.5t58.5 90.5q10 63 -33.5 89t-134.5 26h-146l23 135h141q96 0 147 25t64 92q10 64 -26 93t-113 29q-157 0 -189 -149h-161q19 106 83 177.5t141 100.5t163 29
q154 0 232 -69t54 -205q-12 -70 -51 -119.5t-92 -67.5q46 -20 69.5 -70t10.5 -122q-15 -89 -75.5 -153t-142 -93t-173.5 -29z" />
    <glyph glyph-name="periodcentered" unicode="&#xb7;" horiz-adv-x="423" 
d="M186 489q-63 0 -100 45t-27 109q10 61 64 105.5t117 44.5q62 0 98.5 -44.5t26.5 -105.5q-10 -64 -63.5 -109t-115.5 -45z" />
    <glyph glyph-name="uni00B9" unicode="&#xb9;" horiz-adv-x="436" 
d="M231 516h-174l115 641h-88l27 150q32 0 61 14t33 39h172z" />
    <glyph glyph-name="ordmasculine" unicode="&#xba;" horiz-adv-x="770" 
d="M332 778q-134 0 -213 83t-58 214q24 135 130.5 218t244.5 83q141 0 219 -83t52 -218q-25 -132 -129.5 -214.5t-245.5 -82.5zM354 911q68 0 123.5 47.5t67.5 116.5q13 73 -25 121.5t-106 48.5q-69 0 -124 -48.5t-67 -121.5q-12 -69 26 -116.5t105 -47.5z" />
    <glyph glyph-name="guillemotright" unicode="&#xbb;" horiz-adv-x="1290" 
d="M557 156l-358 -9l497 390l-372 385h354l373 -381zM98 145l-356 -8l498 389l-373 385h352l375 -381z" />
    <glyph glyph-name="questiondown" unicode="&#xbf;" horiz-adv-x="1247" 
d="M1067 1364q66 0 98.5 -33t24.5 -84q-8 -49 -53 -81.5t-111 -32.5q-64 0 -96.5 32.5t-24.5 81.5q8 50 52.5 83.5t109.5 33.5zM881 1085h276l-16 -88q-16 -90 -65.5 -154t-116.5 -98.5t-145.5 -58.5t-156 -43t-143 -42t-112 -65.5t-58.5 -103.5q-21 -108 34.5 -161.5
t178.5 -51.5q106 2 180.5 55t93.5 162h277q-26 -199 -196 -326.5t-388 -129.5q-236 -2 -366 127t-92 327q20 99 73 173t121.5 115t148 69.5t156.5 46.5t141 36t107 48t51 73z" />
    <glyph glyph-name="Agrave" unicode="&#xc0;" horiz-adv-x="1599" 
d="M1098 1792l78 -354h-242l-78 354h242zM362 0h-305l840 1352h277l366 -1352h-303l-109 391l-522 2zM971 977l-223 -356h319z" />
    <glyph glyph-name="Aacute" unicode="&#xc1;" horiz-adv-x="1599" 
d="M928 1440l78 354h241l-78 -354h-241zM362 0h-305l840 1352h277l366 -1352h-303l-109 391l-522 2zM971 977l-223 -356h319z" />
    <glyph glyph-name="Acircumflex" unicode="&#xc2;" horiz-adv-x="1599" 
d="M1083 1487l35 -41l-61 -43l-254 53l254 270l157 -325zM362 0h-305l840 1352h277l366 -1352h-303l-109 391l-522 2zM971 977l-223 -356h319z" />
    <glyph glyph-name="Atilde" unicode="&#xc3;" horiz-adv-x="1599" 
d="M901 1419h-203q51 279 244 287q44 1 128 -27t106 -28q25 0 37 13t22 42h182q-49 -278 -215 -283q-50 -1 -132 27t-91 29q-60 9 -78 -60zM362 0h-305l840 1352h277l366 -1352h-303l-109 391l-522 2zM971 977l-223 -356h319z" />
    <glyph glyph-name="Adieresis" unicode="&#xc4;" horiz-adv-x="1599" 
d="M1186 1690q59 0 89 -40t19 -98q-9 -54 -56 -93.5t-101 -39.5q-57 0 -90 41q-48 -41 -101 -41q-58 0 -91 40.5t-24 96.5q11 54 58 94t104 40q58 0 88 -41q48 41 105 41zM362 0h-305l840 1352h277l366 -1352h-303l-109 391l-522 2zM971 977l-223 -356h319z" />
    <glyph glyph-name="Aring" unicode="&#xc5;" horiz-adv-x="1599" 
d="M1051 1448q-87 0 -135 60t-33 147q14 83 82.5 143t156.5 60q91 0 139.5 -59.5t34.5 -143.5q-18 -89 -85 -148t-160 -59zM1073 1581q29 0 55.5 20.5t32.5 51.5q4 32 -13.5 51.5t-47.5 19.5q-27 0 -51.5 -20.5t-30.5 -50.5q-6 -28 12.5 -50t42.5 -22zM362 0h-305l840 1352
h277l366 -1352h-303l-109 391l-522 2zM971 977l-223 -356h319z" />
    <glyph glyph-name="AE" unicode="&#xc6;" horiz-adv-x="2455" 
d="M2398 1352l-51 -291h-670l-45 -260h590l-45 -252h-590l-45 -258h668l-51 -291h-969l-105 391l-499 2l-236 -393h-293l805 1352h266l185 -707l125 707h960zM934 977l-213 -356h307z" />
    <glyph glyph-name="Ccedilla" unicode="&#xc7;" horiz-adv-x="1495" 
d="M698 231q118 0 224 61t174 165l233 -107q-96 -148 -244 -243.5t-321 -118.5l-88 -90q83 -25 114.5 -80t18.5 -123q-11 -59 -45.5 -107.5t-91.5 -84.5t-144 -50.5t-194 -1.5l35 191q102 -7 161 9t64 44q6 34 -35 46.5t-160 22.5l25 132l102 94q-159 28 -273 119
t-164.5 239t-16.5 328q29 154 109.5 286t192.5 221t248.5 139t278.5 50q196 0 337 -90t200 -250l-271 -119q-36 97 -117 152t-194 55q-175 0 -318 -125t-176 -319q-33 -193 64 -319t272 -126z" />
    <glyph glyph-name="Egrave" unicode="&#xc8;" horiz-adv-x="1312" 
d="M662 1462l-78 355h241l78 -355h-241zM1016 0h-959l238 1352h960l-51 -291h-669l-46 -260h590l-45 -252h-590l-45 -258h668z" />
    <glyph glyph-name="Eacute" unicode="&#xc9;" horiz-adv-x="1312" 
d="M975 1819l-78 -355h-242l78 355h242zM1016 0h-959l238 1352h960l-51 -291h-669l-46 -260h590l-45 -252h-590l-45 -258h668z" />
    <glyph glyph-name="Ecircumflex" unicode="&#xca;" horiz-adv-x="1312" 
d="M530 1481l254 270l158 -326l-131 86l35 -41l-62 -43zM1016 0h-959l238 1352h960l-51 -291h-669l-46 -260h590l-45 -252h-590l-45 -258h668z" />
    <glyph glyph-name="Edieresis" unicode="&#xcb;" horiz-adv-x="1312" 
d="M913 1714q59 0 89.5 -39.5t19.5 -97.5q-9 -54 -56.5 -93.5t-101.5 -39.5q-57 0 -90 41q-48 -41 -100 -41q-58 0 -91 40.5t-24 96.5q11 54 58 93.5t104 39.5q58 0 88 -41q51 41 104 41zM1016 0h-959l238 1352h960l-51 -291h-669l-46 -260h590l-45 -252h-590l-45 -258h668z
" />
    <glyph glyph-name="Igrave" unicode="&#xcc;" horiz-adv-x="686" 
d="M537 1798l77 -356h-241l-78 356h242zM389 0h-276l237 1352h277z" />
    <glyph glyph-name="Iacute" unicode="&#xcd;" horiz-adv-x="808" 
d="M313 1446l78 354h240l-78 -354h-240zM336 0h-279l238 1352h278z" />
    <glyph glyph-name="Icircumflex" unicode="&#xce;" horiz-adv-x="989" 
d="M631 1409l-254 53l254 271l157 -326l-131 86l35 -41zM524 0h-276l237 1352h277z" />
    <glyph glyph-name="Idieresis" unicode="&#xcf;" horiz-adv-x="948" 
d="M715 1696q59 0 89 -40t19 -97q-9 -54 -56 -94t-101 -40q-58 0 -91 41q-48 -41 -100 -41q-58 0 -91 41t-24 97q11 53 58 93t104 40q58 0 88 -41q51 41 105 41zM479 0h-276l237 1352h277z" />
    <glyph glyph-name="Ntilde" unicode="&#xd1;" horiz-adv-x="1476" 
d="M700 1425h-202q51 279 243 287q44 1 128 -27t106 -28q25 0 37 13t22 42h183q-49 -277 -216 -282q-50 -1 -132 26.5t-91 28.5q-60 9 -78 -60zM348 0h-291l238 1352h254l426 -863l153 863h289l-237 -1352h-248l-436 844z" />
    <glyph glyph-name="Ograve" unicode="&#xd2;" horiz-adv-x="1544" 
d="M784 1462l-77 355h241l78 -355h-242zM655 -20q-143 0 -263.5 50.5t-201.5 139.5t-114.5 219t-5.5 279q29 154 109.5 286t192.5 221t249.5 139t279.5 50q144 0 263 -51t197 -140.5t109 -220.5t3 -284q-36 -196 -156 -354t-294.5 -246t-367.5 -88zM700 231
q174 0 310.5 123.5t171.5 313.5q35 197 -58.5 320.5t-267.5 123.5q-176 0 -318.5 -124t-177.5 -320q-32 -188 66 -312.5t274 -124.5z" />
    <glyph glyph-name="Oacute" unicode="&#xd3;" horiz-adv-x="1544" 
d="M1098 1819l-78 -355h-242l78 355h242zM655 -20q-143 0 -263.5 50.5t-201.5 139.5t-114.5 219t-5.5 279q29 154 109.5 286t192.5 221t249.5 139t279.5 50q144 0 263 -51t197 -140.5t109 -220.5t3 -284q-36 -196 -156 -354t-294.5 -246t-367.5 -88zM700 231
q174 0 310.5 123.5t171.5 313.5q35 197 -58.5 320.5t-267.5 123.5q-176 0 -318.5 -124t-177.5 -320q-32 -188 66 -312.5t274 -124.5z" />
    <glyph glyph-name="Ocircumflex" unicode="&#xd4;" horiz-adv-x="1544" 
d="M969 1473l-62 -43l-254 53l254 270l158 -326l-131 86zM655 -20q-143 0 -263.5 50.5t-201.5 139.5t-114.5 219t-5.5 279q29 154 109.5 286t192.5 221t249.5 139t279.5 50q144 0 263 -51t197 -140.5t109 -220.5t3 -284q-36 -196 -156 -354t-294.5 -246t-367.5 -88zM700 231
q174 0 310.5 123.5t171.5 313.5q35 197 -58.5 320.5t-267.5 123.5q-176 0 -318.5 -124t-177.5 -320q-32 -188 66 -312.5t274 -124.5z" />
    <glyph glyph-name="Otilde" unicode="&#xd5;" horiz-adv-x="1544" 
d="M752 1444h-203q51 279 244 287q44 1 127.5 -27.5t105.5 -28.5q24 0 36.5 13.5t22.5 42.5h183q-49 -278 -215 -283q-50 -1 -133 26.5t-91 28.5q-59 9 -77 -59zM655 -20q-143 0 -263.5 50.5t-201.5 139.5t-114.5 219t-5.5 279q29 154 109.5 286t192.5 221t249.5 139
t279.5 50q144 0 263 -51t197 -140.5t109 -220.5t3 -284q-36 -196 -156 -354t-294.5 -246t-367.5 -88zM700 231q174 0 310.5 123.5t171.5 313.5q35 197 -58.5 320.5t-267.5 123.5q-176 0 -318.5 -124t-177.5 -320q-32 -188 66 -312.5t274 -124.5z" />
    <glyph glyph-name="Odieresis" unicode="&#xd6;" horiz-adv-x="1544" 
d="M1036 1714q59 0 89.5 -39.5t19.5 -97.5q-9 -54 -56.5 -93.5t-101.5 -39.5q-57 0 -90 41q-48 -41 -100 -41q-58 0 -91 40.5t-24 96.5q11 54 58 93.5t104 39.5q58 0 88 -41q51 41 104 41zM655 -20q-143 0 -263.5 50.5t-201.5 139.5t-114.5 219t-5.5 279q29 154 109.5 286
t192.5 221t249.5 139t279.5 50q144 0 263 -51t197 -140.5t109 -220.5t3 -284q-36 -196 -156 -354t-294.5 -246t-367.5 -88zM700 231q174 0 310.5 123.5t171.5 313.5q35 197 -58.5 320.5t-267.5 123.5q-176 0 -318.5 -124t-177.5 -320q-32 -188 66 -312.5t274 -124.5z" />
    <glyph glyph-name="multiply" unicode="&#xd7;" horiz-adv-x="956" 
d="M254 287l-195 196l228 160l-181 180l199 140l180 -181l220 152l194 -197l-217 -151l182 -183l-200 -139l-181 182z" />
    <glyph glyph-name="Oslash" unicode="&#xd8;" horiz-adv-x="1544" 
d="M1378 1495l-116 -235q132 -90 189.5 -244t21.5 -348q-36 -196 -156 -354t-294.5 -246t-367.5 -88h-24l-60 -121h-303l92 186q-167 80 -248 245t-42 378q29 154 109.5 286t192.5 221t249.5 139t279.5 50q53 0 105 -6l67 137h305zM360 668q-20 -118 13.5 -214.5
t111.5 -154.5l400 813h-29q-176 0 -318.5 -124t-177.5 -320zM1182 668q33 190 -56 317l-368 -749q156 20 274 139t150 293z" />
    <glyph glyph-name="Ugrave" unicode="&#xd9;" horiz-adv-x="1409" 
d="M860 1843l78 -354h-242l-78 354h242zM543 -20q-261 0 -389 148.5t-86 387.5l147 836h291l-144 -811q-26 -140 32.5 -225t195.5 -85q134 0 219 85t111 225l143 811h289l-148 -836q-40 -236 -220.5 -386t-440.5 -150z" />
    <glyph glyph-name="Uacute" unicode="&#xda;" horiz-adv-x="1409" 
d="M690 1491l78 354h242l-78 -354h-242zM543 -20q-261 0 -389 148.5t-86 387.5l147 836h291l-144 -811q-26 -140 32.5 -225t195.5 -85q134 0 219 85t111 225l143 811h289l-148 -836q-40 -236 -220.5 -386t-440.5 -150z" />
    <glyph glyph-name="Ucircumflex" unicode="&#xdb;" horiz-adv-x="1409" 
d="M848 1538l35 -41l-62 -43l-254 53l254 271l158 -326zM543 -20q-261 0 -389 148.5t-86 387.5l147 836h291l-144 -811q-26 -140 32.5 -225t195.5 -85q134 0 219 85t111 225l143 811h289l-148 -836q-40 -236 -220.5 -386t-440.5 -150z" />
    <glyph glyph-name="Udieresis" unicode="&#xdc;" horiz-adv-x="1409" 
d="M950 1741q59 0 89.5 -39.5t19.5 -97.5q-9 -54 -56.5 -94t-101.5 -40q-57 0 -90 41q-48 -41 -100 -41q-58 0 -91 41t-24 97q11 54 58 93.5t104 39.5q58 0 88 -41q51 41 104 41zM543 -20q-261 0 -389 148.5t-86 387.5l147 836h291l-144 -811q-26 -140 32.5 -225t195.5 -85
q134 0 219 85t111 225l143 811h289l-148 -836q-40 -236 -220.5 -386t-440.5 -150z" />
    <glyph glyph-name="Yacute" unicode="&#xdd;" horiz-adv-x="1497" 
d="M725 1817h242l-78 -355h-242zM649 0h-278l98 547l-412 805h303l287 -578l490 578h303l-697 -805z" />
    <glyph glyph-name="germandbls" unicode="&#xdf;" horiz-adv-x="1263" 
d="M336 0h-279l170 973q10 57 36 111t73.5 107t111 92.5t156 64t201.5 24.5q204 -2 315.5 -99t79.5 -278q-23 -118 -105 -183.5t-198 -90.5q34 -5 63.5 -15.5t59 -28.5t50.5 -43t36 -60t16 -79.5t-8 -101.5q-16 -79 -57.5 -147t-111 -124.5t-178 -89t-243.5 -32.5l43 240
q254 0 287 184q18 98 -40.5 143.5t-178.5 50.5l33 199q243 13 276 152q15 78 -33 128t-147 50q-118 0 -183 -55t-81 -148z" />
    <glyph glyph-name="agrave" unicode="&#xe0;" horiz-adv-x="1398" 
d="M967 1153h-242l-78 354h242zM483 -20q-219 -1 -337 153.5t-78 380.5q29 168 116.5 293.5t210.5 189t264 62.5q87 -1 160 -29t125.5 -87.5t63.5 -143.5l43 239h290l-182 -1038h-289l41 244q-59 -118 -179 -190t-249 -74zM600 221q123 2 224 85t124 210q24 137 -46.5 219
t-194.5 84q-125 3 -225 -81.5t-124 -221.5q-24 -129 47.5 -213t194.5 -82z" />
    <glyph glyph-name="aacute" unicode="&#xe1;" horiz-adv-x="1398" 
d="M961 1155h-242l78 354h241zM483 -20q-219 -1 -337 153.5t-78 380.5q29 168 116.5 293.5t210.5 189t264 62.5q87 -1 160 -29t125.5 -87.5t63.5 -143.5l43 239h290l-182 -1038h-289l41 244q-59 -118 -179 -190t-249 -74zM600 221q123 2 224 85t124 210q24 137 -46.5 219
t-194.5 84q-125 3 -225 -81.5t-124 -221.5q-24 -129 47.5 -213t194.5 -82z" />
    <glyph glyph-name="acircumflex" unicode="&#xe2;" horiz-adv-x="1398" 
d="M1008 1118l-131 86l34 -41l-61 -43l-254 54l254 270zM483 -20q-219 -1 -337 153.5t-78 380.5q29 168 116.5 293.5t210.5 189t264 62.5q87 -1 160 -29t125.5 -87.5t63.5 -143.5l43 239h290l-182 -1038h-289l41 244q-59 -118 -179 -190t-249 -74zM600 221q123 2 224 85
t124 210q24 137 -46.5 219t-194.5 84q-125 3 -225 -81.5t-124 -221.5q-24 -129 47.5 -213t194.5 -82z" />
    <glyph glyph-name="atilde" unicode="&#xe3;" horiz-adv-x="1398" 
d="M721 1133h-168q41 227 201 235q36 1 104 -23t86 -24q21 0 31 11t18 36h150q-39 -228 -176 -233q-41 -1 -108.5 21.5t-74.5 23.5q-51 9 -63 -47zM483 -20q-219 -1 -337 153.5t-78 380.5q29 168 116.5 293.5t210.5 189t264 62.5q87 -1 160 -29t125.5 -87.5t63.5 -143.5
l43 239h290l-182 -1038h-289l41 244q-59 -118 -179 -190t-249 -74zM600 221q123 2 224 85t124 210q24 137 -46.5 219t-194.5 84q-125 3 -225 -81.5t-124 -221.5q-24 -129 47.5 -213t194.5 -82z" />
    <glyph glyph-name="adieresis" unicode="&#xe4;" horiz-adv-x="1398" 
d="M979 1405q59 0 89 -39.5t19 -97.5q-9 -54 -56 -93.5t-101 -39.5q-57 0 -90 41q-48 -41 -101 -41q-58 0 -90.5 40.5t-23.5 96.5q11 54 57.5 93.5t103.5 39.5q58 0 88 -41q51 41 105 41zM483 -20q-219 -1 -337 153.5t-78 380.5q29 168 116.5 293.5t210.5 189t264 62.5
q87 -1 160 -29t125.5 -87.5t63.5 -143.5l43 239h290l-182 -1038h-289l41 244q-59 -118 -179 -190t-249 -74zM600 221q123 2 224 85t124 210q24 137 -46.5 219t-194.5 84q-125 3 -225 -81.5t-124 -221.5q-24 -129 47.5 -213t194.5 -82z" />
    <glyph glyph-name="aring" unicode="&#xe5;" horiz-adv-x="1398" 
d="M844 1163q-87 0 -135 60t-33 147q14 83 82.5 143t156.5 60q92 0 140.5 -59.5t34.5 -143.5q-18 -89 -85.5 -148t-160.5 -59zM866 1296q29 0 55.5 20.5t32.5 51.5q4 32 -13.5 52t-47.5 20q-27 0 -51.5 -21t-30.5 -51q-6 -28 12.5 -50t42.5 -22zM483 -20q-219 -1 -337 153.5
t-78 380.5q29 168 116.5 293.5t210.5 189t264 62.5q87 -1 160 -29t125.5 -87.5t63.5 -143.5l43 239h290l-182 -1038h-289l41 244q-59 -118 -179 -190t-249 -74zM600 221q123 2 224 85t124 210q24 137 -46.5 219t-194.5 84q-125 3 -225 -81.5t-124 -221.5q-24 -129 47.5 -213
t194.5 -82z" />
    <glyph glyph-name="ae" unicode="&#xe6;" horiz-adv-x="2201" 
d="M1688 1057q143 0 249.5 -58t161 -171t41.5 -265q-4 -60 -18 -110h-824q-1 -104 69 -170t171 -68q84 0 159.5 34.5t123.5 98.5l196 -110q-91 -122 -229 -191.5t-291 -69.5q-196 0 -326 111l-16 -88h-289l43 236q-60 -115 -179.5 -184.5t-248.5 -71.5q-144 -1 -248 68
t-147.5 188t-17.5 262q29 163 116 284.5t209.5 183t263.5 60.5q86 -1 158.5 -27.5t125 -84.5t63.5 -140l43 232h288l-10 -52q168 103 363 103zM1350 614h528q-4 95 -70 152t-161 57q-92 0 -177.5 -57.5t-119.5 -151.5zM944 500q24 132 -46 212.5t-193 82.5q-125 2 -225 -80
t-124 -215q-23 -127 48.5 -207.5t193.5 -77.5q123 2 223 82t123 203z" />
    <glyph glyph-name="ccedilla" unicode="&#xe7;" horiz-adv-x="1282" 
d="M592 219q91 0 173 49t130 129l252 -100q-84 -135 -224.5 -218.5t-310.5 -96.5l-61 -62q84 -25 115 -80t18 -125q-11 -58 -45.5 -106.5t-91.5 -84t-144 -49.5t-194 -1l35 190q102 -7 161.5 9t65.5 44q4 35 -37.5 47.5t-159.5 20.5l25 133l90 82q-173 47 -263.5 184.5
t-59.5 329.5q28 163 127.5 288.5t242.5 191t305 65.5q186 0 315 -84t169 -232l-289 -98q-20 79 -84.5 126.5t-153.5 47.5q-124 0 -221.5 -86t-120.5 -217q-23 -127 45.5 -212t190.5 -85z" />
    <glyph glyph-name="egrave" unicode="&#xe8;" horiz-adv-x="1232" 
d="M539 1483h241l78 -355h-242zM528 -20q-108 0 -201 38t-158.5 105.5t-93.5 170t-7 222.5q23 130 87.5 235t154 171.5t194.5 101.5t215 35q219 0 346 -132.5t109 -361.5q-3 -46 -21 -110h-823q-1 -105 68.5 -170.5t172.5 -67.5q82 0 157.5 34.5t123.5 98.5l197 -110
q-91 -122 -229 -191t-292 -69zM381 616h528q-3 94 -69.5 151.5t-161.5 57.5q-92 0 -177.5 -57.5t-119.5 -151.5z" />
    <glyph glyph-name="eacute" unicode="&#xe9;" horiz-adv-x="1232" 
d="M688 1485h242l-78 -355h-242zM528 -20q-108 0 -201 38t-158.5 105.5t-93.5 170t-7 222.5q23 130 87.5 235t154 171.5t194.5 101.5t215 35q219 0 346 -132.5t109 -361.5q-3 -46 -21 -110h-823q-1 -105 68.5 -170.5t172.5 -67.5q82 0 157.5 34.5t123.5 98.5l197 -110
q-91 -122 -229 -191t-292 -69zM381 616h528q-3 94 -69.5 151.5t-161.5 57.5q-92 0 -177.5 -57.5t-119.5 -151.5z" />
    <glyph glyph-name="ecircumflex" unicode="&#xea;" horiz-adv-x="1232" 
d="M739 1417l158 -325l-131 86l35 -41l-62 -43l-254 53zM528 -20q-108 0 -201 38t-158.5 105.5t-93.5 170t-7 222.5q23 130 87.5 235t154 171.5t194.5 101.5t215 35q219 0 346 -132.5t109 -361.5q-3 -46 -21 -110h-823q-1 -105 68.5 -170.5t172.5 -67.5q82 0 157.5 34.5
t123.5 98.5l197 -110q-91 -122 -229 -191t-292 -69zM381 616h528q-3 94 -69.5 151.5t-161.5 57.5q-92 0 -177.5 -57.5t-119.5 -151.5z" />
    <glyph glyph-name="edieresis" unicode="&#xeb;" horiz-adv-x="1232" 
d="M868 1380q59 0 89.5 -39.5t19.5 -97.5q-9 -54 -56.5 -93.5t-101.5 -39.5q-57 0 -90 41q-48 -41 -100 -41q-58 0 -91 40.5t-24 96.5q11 54 58 93.5t104 39.5q58 0 88 -41q51 41 104 41zM528 -20q-108 0 -201 38t-158.5 105.5t-93.5 170t-7 222.5q23 130 87.5 235
t154 171.5t194.5 101.5t215 35q219 0 346 -132.5t109 -361.5q-3 -46 -21 -110h-823q-1 -105 68.5 -170.5t172.5 -67.5q82 0 157.5 34.5t123.5 98.5l197 -110q-91 -122 -229 -191t-292 -69zM381 616h528q-3 94 -69.5 151.5t-161.5 57.5q-92 0 -177.5 -57.5t-119.5 -151.5z
" />
    <glyph glyph-name="igrave" unicode="&#xec;" horiz-adv-x="825" 
d="M762 1118h-240l-78 355h240zM586 0h-291l182 1038h291z" />
    <glyph glyph-name="iacute" unicode="&#xed;" horiz-adv-x="1011" 
d="M756 1120h-240l78 355h240zM586 0h-291l182 1038h291z" />
    <glyph glyph-name="icircumflex" unicode="&#xee;" horiz-adv-x="1003" 
d="M391 1139l254 270l158 -328l-131 88l35 -43l-62 -43zM586 0h-291l182 1038h291z" />
    <glyph glyph-name="idieresis" unicode="&#xef;" horiz-adv-x="1007" 
d="M772 1370q59 0 90.5 -39.5t20.5 -97.5q-9 -54 -56.5 -93.5t-101.5 -39.5q-58 0 -90 43q-46 -43 -103 -43q-56 0 -88.5 40.5t-23.5 96.5q11 54 58 93.5t104 39.5q58 0 88 -41q48 41 102 41zM586 0h-291l182 1038h291z" />
    <glyph glyph-name="ntilde" unicode="&#xf1;" horiz-adv-x="1341" 
d="M633 1141h-203q51 278 244 286q44 1 127.5 -27t105.5 -28q25 0 37.5 13t22.5 42h182q-49 -277 -215 -282q-50 -1 -132 26.5t-91 28.5q-60 9 -78 -59zM360 0h-303l183 1038h290l-45 -245q55 129 172 196.5t242 69.5q211 2 313 -138t60 -382l-94 -539h-291l94 539
q22 128 -32.5 205.5t-178.5 74.5q-124 -1 -210.5 -87t-110.5 -224z" />
    <glyph glyph-name="ograve" unicode="&#xf2;" horiz-adv-x="1296" 
d="M551 1481h242l77 -355h-241zM551 -20q-117 0 -215 38.5t-164.5 107t-95.5 169.5t-10 219q28 163 127.5 288.5t242.5 191t305 65.5q124 0 224.5 -38.5t167 -108t92.5 -172.5t4 -226q-43 -237 -232.5 -385.5t-445.5 -148.5zM592 219q124 0 224 85t122 212q24 131 -46 217
t-194 86t-221.5 -86t-120.5 -217q-23 -127 45.5 -212t190.5 -85z" />
    <glyph glyph-name="oacute" unicode="&#xf3;" horiz-adv-x="1296" 
d="M700 1485h242l-78 -355h-241zM551 -20q-117 0 -215 38.5t-164.5 107t-95.5 169.5t-10 219q28 163 127.5 288.5t242.5 191t305 65.5q124 0 224.5 -38.5t167 -108t92.5 -172.5t4 -226q-43 -237 -232.5 -385.5t-445.5 -148.5zM592 219q124 0 224 85t122 212q24 131 -46 217
t-194 86t-221.5 -86t-120.5 -217q-23 -127 45.5 -212t190.5 -85z" />
    <glyph glyph-name="ocircumflex" unicode="&#xf4;" horiz-adv-x="1296" 
d="M754 1094l-254 53l254 270l157 -325l-131 86l35 -41zM551 -20q-117 0 -215 38.5t-164.5 107t-95.5 169.5t-10 219q28 163 127.5 288.5t242.5 191t305 65.5q124 0 224.5 -38.5t167 -108t92.5 -172.5t4 -226q-43 -237 -232.5 -385.5t-445.5 -148.5zM592 219q124 0 224 85
t122 212q24 131 -46 217t-194 86t-221.5 -86t-120.5 -217q-23 -127 45.5 -212t190.5 -85z" />
    <glyph glyph-name="otilde" unicode="&#xf5;" horiz-adv-x="1296" 
d="M598 1108h-203q51 279 244 287q44 1 127.5 -27.5t105.5 -28.5q25 0 37.5 13.5t22.5 42.5h182q-49 -278 -215 -283q-50 -1 -132 26.5t-91 28.5q-60 9 -78 -59zM551 -20q-117 0 -215 38.5t-164.5 107t-95.5 169.5t-10 219q28 163 127.5 288.5t242.5 191t305 65.5
q124 0 224.5 -38.5t167 -108t92.5 -172.5t4 -226q-43 -237 -232.5 -385.5t-445.5 -148.5zM592 219q124 0 224 85t122 212q24 131 -46 217t-194 86t-221.5 -86t-120.5 -217q-23 -127 45.5 -212t190.5 -85z" />
    <glyph glyph-name="odieresis" unicode="&#xf6;" horiz-adv-x="1296" 
d="M883 1380q59 0 89 -39.5t19 -97.5q-9 -54 -56 -93.5t-101 -39.5q-58 0 -91 41q-48 -41 -100 -41q-58 0 -91 40.5t-24 96.5q11 54 58 93.5t104 39.5q58 0 88 -41q51 41 105 41zM551 -20q-117 0 -215 38.5t-164.5 107t-95.5 169.5t-10 219q28 163 127.5 288.5t242.5 191
t305 65.5q124 0 224.5 -38.5t167 -108t92.5 -172.5t4 -226q-43 -237 -232.5 -385.5t-445.5 -148.5zM592 219q124 0 224 85t122 212q24 131 -46 217t-194 86t-221.5 -86t-120.5 -217q-23 -127 45.5 -212t190.5 -85z" />
    <glyph glyph-name="divide" unicode="&#xf7;" horiz-adv-x="929" 
d="M487 770q-64 0 -101 44.5t-26 107.5q10 63 64 107t117 44q62 0 98.5 -44t24.5 -107q-9 -62 -62 -107t-115 -45zM831 469h-774l41 227h774zM367 96q-63 0 -99.5 45.5t-25.5 108.5q11 62 64 106.5t116 44.5q61 0 98.5 -44.5t26.5 -106.5q-12 -63 -65 -108.5t-115 -45.5z
" />
    <glyph glyph-name="oslash" unicode="&#xf8;" horiz-adv-x="1343" 
d="M1147 1163l-103 -155q137 -63 200 -191.5t32 -302.5q-43 -237 -232 -385.5t-444 -148.5q-64 0 -123 12l-88 -135h-278l149 231q-90 71 -130 181t-17 245q28 163 127.5 288.5t243.5 191t307 65.5h10l67 104h279zM985 516q24 131 -46 217t-194 86q-122 0 -220.5 -86
t-121.5 -217q-23 -127 45.5 -212t190.5 -85q125 0 224.5 85t121.5 212z" />
    <glyph glyph-name="ugrave" unicode="&#xf9;" horiz-adv-x="1341" 
d="M905 1161h-241l-78 355h241zM442 -20q-211 -2 -312.5 137.5t-59.5 382.5l94 538h291l-95 -538q-22 -128 32.5 -205t178.5 -76t210.5 86.5t111.5 224.5l90 508h301l-182 -1038h-291l43 246q-55 -128 -171.5 -196t-240.5 -70z" />
    <glyph glyph-name="uacute" unicode="&#xfa;" horiz-adv-x="1341" 
d="M899 1163h-242l78 355h242zM442 -20q-211 -2 -312.5 137.5t-59.5 382.5l94 538h291l-95 -538q-22 -128 32.5 -205t178.5 -76t210.5 86.5t111.5 224.5l90 508h301l-182 -1038h-291l43 246q-55 -128 -171.5 -196t-240.5 -70z" />
    <glyph glyph-name="ucircumflex" unicode="&#xfb;" horiz-adv-x="1341" 
d="M848 1171l-62 -43l-254 54l254 270l158 -326l-131 86zM442 -20q-211 -2 -312.5 137.5t-59.5 382.5l94 538h291l-95 -538q-22 -128 32.5 -205t178.5 -76t210.5 86.5t111.5 224.5l90 508h301l-182 -1038h-291l43 246q-55 -128 -171.5 -196t-240.5 -70z" />
    <glyph glyph-name="udieresis" unicode="&#xfc;" horiz-adv-x="1341" 
d="M915 1413q59 0 89.5 -39.5t19.5 -97.5q-9 -54 -56.5 -93.5t-101.5 -39.5q-57 0 -90 41q-48 -41 -100 -41q-58 0 -91 40.5t-24 96.5q11 54 58 93.5t104 39.5q58 0 88 -41q51 41 104 41zM442 -20q-211 -2 -312.5 137.5t-59.5 382.5l94 538h291l-95 -538q-22 -128 32.5 -205
t178.5 -76t210.5 86.5t111.5 224.5l90 508h301l-182 -1038h-291l43 246q-55 -128 -171.5 -196t-240.5 -70z" />
    <glyph glyph-name="yacute" unicode="&#xfd;" horiz-adv-x="1179" 
d="M770 1161l78 355h242l-78 -355h-242zM57 -205l193 168q18 -31 57 -44t84.5 3t75.5 62l74 112l-238 942h293l129 -716l418 716h291l-740 -1116q-70 -107 -159.5 -168t-175.5 -70.5t-165.5 19t-136.5 92.5z" />
    <glyph glyph-name="ydieresis" unicode="&#xff;" horiz-adv-x="1179" 
d="M1030 1411q59 0 89.5 -39.5t19.5 -97.5q-9 -54 -56.5 -93.5t-101.5 -39.5q-57 0 -90 41q-48 -41 -100 -41q-58 0 -91 40.5t-24 96.5q11 54 58 93.5t104 39.5q58 0 88 -41q51 41 104 41zM57 -205l193 168q18 -31 57 -44t84.5 3t75.5 62l74 112l-238 942h293l129 -716
l418 716h291l-740 -1116q-70 -107 -159.5 -168t-175.5 -70.5t-165.5 19t-136.5 92.5z" />
    <glyph glyph-name="dotlessi" unicode="&#x131;" horiz-adv-x="587" 
d="M348 0h-291l183 1038h290z" />
    <glyph glyph-name="OE" unicode="&#x152;" horiz-adv-x="2383" 
d="M2327 1352l-52 -291h-667l-47 -260h589l-45 -252h-589l-43 -258h665l-51 -291h-957l27 154q-221 -174 -502 -174q-143 0 -263.5 50.5t-201.5 139.5t-114.5 219t-5.5 279q29 154 109.5 286t192.5 221t249.5 139t279.5 50q136 0 248.5 -44t189.5 -126l29 158h959zM700 231
q174 0 310.5 123.5t171.5 313.5q35 197 -58.5 320.5t-267.5 123.5q-176 0 -318.5 -124t-177.5 -320q-32 -188 66 -312.5t274 -124.5z" />
    <glyph glyph-name="oe" unicode="&#x153;" horiz-adv-x="2123" 
d="M1612 1069q218 0 344 -132.5t108 -361.5q-4 -60 -18 -110h-823q-3 -104 67 -170t172 -68q82 0 158.5 34.5t124.5 98.5l197 -110q-91 -122 -229.5 -191t-291.5 -69q-119 0 -220 44.5t-165 127.5q-95 -87 -219.5 -134.5t-265.5 -47.5q-117 0 -215 38.5t-164.5 107
t-95.5 169.5t-10 219q28 163 127.5 288.5t242.5 191t305 65.5q133 0 239 -44t171 -124q93 87 213.5 132.5t247.5 45.5zM1272 627h530q-4 95 -70 152t-161 57q-93 0 -178 -57.5t-121 -151.5zM938 516q24 131 -46 217t-194 86t-221.5 -86t-120.5 -217q-23 -127 45.5 -212
t190.5 -85q124 0 224 85t122 212z" />
    <glyph glyph-name="Scaron" unicode="&#x160;" horiz-adv-x="1212" 
d="M850 1860h240l-385 -412l-254 412h239l64 -105zM502 -20q-101 2 -187 33.5t-147.5 87.5t-90 141.5t-14.5 187.5h265q-6 -57 13 -102t53.5 -70t74 -38t80.5 -13q96 -2 172 41t94 129q18 89 -42.5 135t-194.5 66q-112 14 -196.5 43.5t-145.5 77t-85 119.5t-8 165
q21 118 106 208t203.5 135.5t249.5 45.5q136 0 244.5 -51t166.5 -152.5t38 -234.5h-268q11 107 -52 160t-167 53q-89 0 -160 -47t-84 -123q-14 -71 41 -114.5t186 -65.5q256 -37 369 -141.5t71 -303.5q-20 -95 -78 -169t-139.5 -118t-175.5 -65.5t-192 -19.5z" />
    <glyph glyph-name="scaron" unicode="&#x161;" horiz-adv-x="1071" 
d="M696 1454l97 105h239l-385 -412l-254 412h240zM453 -20q-91 2 -168 28t-132.5 73t-80 119t-9.5 160h265q-7 -82 38.5 -123t125.5 -44q64 -3 115 26t63 82q12 55 -23 84t-127 43q-83 11 -142.5 24.5t-113.5 36.5t-84.5 55t-44.5 80t-4 111q23 147 158 235.5t323 88.5
q203 0 313.5 -99t84.5 -278h-265q7 74 -36.5 118t-122.5 46q-67 2 -116 -31.5t-58 -89.5q-8 -50 28.5 -81.5t130.5 -49.5q51 -9 89 -17t77.5 -18t66.5 -21t53 -24.5t42.5 -30t29.5 -36.5t17.5 -44.5t4.5 -54.5t-7 -65q-27 -148 -162.5 -228t-328.5 -75z" />
    <glyph glyph-name="Ydieresis" unicode="&#x178;" horiz-adv-x="1497" 
d="M905 1712q59 0 89.5 -39.5t19.5 -97.5q-9 -54 -56.5 -93.5t-101.5 -39.5q-57 0 -90 41q-48 -41 -100 -41q-58 0 -91 40.5t-24 96.5q11 54 58 93.5t104 39.5q58 0 88 -41q51 41 104 41zM649 0h-278l98 547l-412 805h303l287 -578l490 578h303l-697 -805z" />
    <glyph glyph-name="zcaron" unicode="&#x17e;" horiz-adv-x="1110" 
d="M643 1546l64 -104l96 104h239l-385 -411l-254 411h240zM870 0h-813l35 203l596 596h-491l41 239h813l-35 -202l-592 -596h489z" />
    <glyph glyph-name="gravecomb" unicode="&#x300;" 
d="M-377 1352h242l78 -355h-242z" />
    <glyph glyph-name="acutecomb" unicode="&#x301;" 
d="M-377 997l78 355h242l-78 -355h-242z" />
    <glyph glyph-name="uni0302" unicode="&#x302;" 
d="M-332 1024l35 -41l-61 -43l-254 53l254 271l157 -326z" />
    <glyph glyph-name="tildecomb" unicode="&#x303;" 
d="M-573 1065h-203q51 279 244 287q44 1 127.5 -27.5t105.5 -28.5q24 0 36.5 13.5t22.5 42.5h183q-49 -278 -215 -283q-50 -1 -133 26.5t-91 28.5q-59 9 -77 -59z" />
    <glyph glyph-name="uni0304" unicode="&#x304;" 
d="M-96 1137h-461l39 213h461z" />
    <glyph glyph-name="uni0306" unicode="&#x306;" 
d="M-461 1055q-48 0 -91 15.5t-81 49t-65 92.5t-37 140h225q27 -82 92 -82q72 0 131 82h230q-143 -297 -404 -297z" />
    <glyph glyph-name="uni0307" unicode="&#x307;" 
d="M-227 1040q-59 0 -93.5 42t-23.5 100q9 56 58.5 99.5t107.5 43.5q62 0 95 -42t24 -101q-9 -57 -59.5 -99.5t-108.5 -42.5z" />
    <glyph glyph-name="uni0308" unicode="&#x308;" 
d="M-233 1339q59 0 89 -39.5t19 -97.5q-9 -54 -56.5 -93.5t-101.5 -39.5q-57 0 -90 41q-48 -41 -100 -41q-58 0 -91 40.5t-24 96.5q11 54 58 93.5t104 39.5q58 0 88 -41q51 41 105 41z" />
    <glyph glyph-name="uni030A" unicode="&#x30a;" 
d="M-305 965q-87 0 -135 59.5t-33 146.5q14 83 83 143t157 60q91 0 139.5 -59.5t34.5 -143.5q-18 -89 -85.5 -147.5t-160.5 -58.5zM-283 1098q29 0 55.5 20t32.5 51q4 32 -13.5 52t-47.5 20q-27 0 -51.5 -21t-30.5 -51q-6 -28 12.5 -49.5t42.5 -21.5z" />
    <glyph glyph-name="uni030B" unicode="&#x30b;" 
d="M-262 999h-230l205 353h228zM-537 997h-227l205 353h227z" />
    <glyph glyph-name="uni030C" unicode="&#x30c;" 
d="M-457 1352l64 -105l96 105h240l-385 -412l-254 412h239z" />
    <glyph glyph-name="uni0312" unicode="&#x312;" 
d="M-307 881l-174 131q79 89 109.5 157.5t37.5 182.5h277q-28 -163 -80.5 -263t-169.5 -208z" />
    <glyph glyph-name="uni0326" unicode="&#x326;" 
d="M-272 -270h-242l215 387h242z" />
    <glyph glyph-name="uni0327" unicode="&#x327;" 
d="M-580 -430l35 190q101 -7 161.5 9.5t66.5 44.5q2 18 -7 29.5t-36.5 18.5t-60 11t-93.5 8l25 133l176 162l235 2l-160 -162q84 -25 115.5 -79.5t18.5 -124.5q-11 -58 -45.5 -106.5t-92 -84.5t-144.5 -50t-194 -1z" />
    <glyph glyph-name="uni0328" unicode="&#x328;" 
d="M-94 -76l37 -176q-95 -53 -179 -70t-142 -0.5t-96.5 52t-53.5 86.5q-31 104 64.5 219t277.5 153l82 -30l-2 -119q-100 -28 -154.5 -67.5t-46.5 -69.5q12 -52 213 22z" />
    <glyph glyph-name="endash" unicode="&#x2013;" horiz-adv-x="974" 
d="M879 504h-822l39 215h822z" />
    <glyph glyph-name="emdash" unicode="&#x2014;" horiz-adv-x="1120" 
d="M1024 502h-967l39 217h967z" />
    <glyph glyph-name="quoteleft" unicode="&#x2018;" horiz-adv-x="438" 
d="M381 1004l-221 -121q-88 125 -99.5 216t29.5 253h266q-22 -94 -24.5 -148.5t7.5 -92.5t42 -107z" />
    <glyph glyph-name="quoteright" unicode="&#x2019;" horiz-adv-x="438" 
d="M281 883l-224 121q46 96 51 150.5t-26 197.5h268q40 -162 29 -253t-98 -216z" />
    <glyph glyph-name="quotesinglbase" unicode="&#x201a;" horiz-adv-x="538" 
d="M231 -190l-174 133q79 88 110 157t38 183h276q-28 -164 -81 -264.5t-169 -208.5z" />
    <glyph glyph-name="quotedblleft" unicode="&#x201c;" horiz-adv-x="774" 
d="M381 1004l-221 -121q-88 125 -99.5 216t29.5 253h266q-22 -94 -24.5 -148.5t7.5 -92.5t42 -107zM717 1004l-221 -121q-88 125 -99.5 216t29.5 253h266q-22 -94 -24.5 -148.5t7.5 -92.5t42 -107z" />
    <glyph glyph-name="quotedblright" unicode="&#x201d;" horiz-adv-x="774" 
d="M281 883l-224 121q46 96 51 150.5t-26 197.5h268q40 -162 29 -253t-98 -216zM616 883l-223 121q46 96 51 150.5t-26 197.5h266q42 -163 30.5 -253t-98.5 -216z" />
    <glyph glyph-name="quotedblbase" unicode="&#x201e;" horiz-adv-x="882" 
d="M231 -190l-174 133q79 88 110 157t38 183h276q-28 -164 -81 -264.5t-169 -208.5zM575 -190l-174 133q79 88 110 157t38 183h276q-28 -164 -81 -264.5t-169 -208.5z" />
    <glyph glyph-name="dagger" unicode="&#x2020;" horiz-adv-x="909" 
d="M487 428h-290l77 436h-217l52 289h217l32 184h289l-33 -184h238l-51 -289h-238z" />
    <glyph glyph-name="bullet" unicode="&#x2022;" horiz-adv-x="514" 
d="M225 432q-82 0 -130 58t-36 141q15 80 84.5 137t151.5 57q79 0 126.5 -57t33.5 -137q-13 -83 -81.5 -141t-148.5 -58z" />
    <glyph glyph-name="ellipsis" unicode="&#x2026;" horiz-adv-x="1138" 
d="M186 2q-63 0 -100 45t-27 109q10 61 64 105t117 44q62 0 98.5 -44t26.5 -105q-10 -64 -63.5 -109t-115.5 -45zM543 2q-63 0 -100 45t-27 109q10 61 63.5 105t116.5 44t99.5 -43.5t25.5 -105.5q-10 -64 -62.5 -109t-115.5 -45zM903 2q-63 0 -100.5 45t-28.5 109
q12 61 65.5 105t116.5 44q61 0 97.5 -43.5t25.5 -105.5q-10 -64 -62 -109t-114 -45z" />
    <glyph glyph-name="perthousand" unicode="&#x2030;" horiz-adv-x="3782" 
d="M502 219q-155 0 -264.5 74t-153 201.5t-16.5 285.5q21 119 78.5 226.5t140.5 188t193 128t229 47.5q98 0 178 -30.5t132 -85t86 -129t39 -161.5t-9 -184q-42 -242 -218 -401.5t-415 -159.5zM1085 -2h-303l805 1352h305zM541 430q136 0 236 97t128 253q31 171 -34 275
t-199 104q-136 0 -241 -104.5t-134 -274.5q-26 -156 40.5 -253t203.5 -97zM1956 -14q-155 0 -264.5 74t-153 201.5t-16.5 285.5q21 119 78.5 226.5t140.5 188t193 128t229 47.5q98 0 178 -30.5t132 -85t86 -129t39 -161.5t-9 -184q-42 -242 -218 -401.5t-415 -159.5z
M3080 -14q-156 0 -265.5 74t-152.5 201.5t-16 285.5q21 119 78 226.5t139.5 188t193 128t230.5 47.5q162 0 269.5 -81.5t145.5 -214.5t9 -294q-27 -158 -115 -285.5t-223 -201.5t-293 -74zM1995 197q136 0 236 97t128 253q31 171 -34 275t-199 104q-136 0 -241 -104.5
t-134 -274.5q-26 -156 40.5 -253t203.5 -97zM3119 197q136 0 236 97t129 253q31 171 -34.5 275t-199.5 104q-136 0 -241 -104.5t-134 -274.5q-28 -156 39 -253t205 -97z" />
    <glyph glyph-name="guilsinglleft" unicode="&#x2039;" horiz-adv-x="980" 
d="M412 555l354 -389l-354 8l-355 385l514 381h353z" />
    <glyph glyph-name="guilsinglright" unicode="&#x203a;" horiz-adv-x="968" 
d="M416 174l-357 -8l496 389l-371 385h353l374 -381z" />
    <glyph glyph-name="fraction" unicode="&#x2044;" horiz-adv-x="1226" 
d="M362 0h-305l807 1352h305z" />
    <glyph glyph-name="Euro" unicode="&#x20ac;" horiz-adv-x="1613" 
d="M817 231q118 0 222 60.5t173 165.5l234 -107q-111 -172 -290 -271t-384 -99q-210 0 -364.5 105t-206.5 286h-142l50 252h73q4 34 8 53q1 3 2.5 9t2.5 9h-74l49 252h119q115 197 313 311.5t418 114.5q196 0 336.5 -90t199.5 -250l-270 -119q-36 97 -117 152t-194 55
q-103 0 -199.5 -46t-167.5 -128h221l-49 -252h-297q-1 -3 -2 -9t-2 -9l-6 -53h297l-49 -252h-186q45 -67 118 -103.5t164 -36.5z" />
    <glyph glyph-name="trademark" unicode="&#x2122;" horiz-adv-x="1329" 
d="M289 645h-160l100 549h-172l29 158h610l111 -480l285 480h180l-125 -707h-158l70 389l-238 -389h-112l-91 385l-69 -385h-160l98 549h-98z" />
    <glyph glyph-name="minus" unicode="&#x2212;" horiz-adv-x="860" 
d="M756 414h-699l47 264h699z" />
    <glyph glyph-name="BeeType" horiz-adv-x="1372" 
d="M1315 428h-1258v369h1258v-369zM131 688v-166h90q64 0 64 45q0 30 -31 41q22 18 22 37q0 43 -59 43h-86zM313 688v-166h129v31h-90v39h76v29h-76v36h86v31h-125zM473 688v-166h127v31h-90v39h76v29h-76v36h86v31h-123zM666 657v-135h36v135h56v31h-146v-31h54zM827 582
v-60h39v60l64 106h-39l-43 -74l-43 74h-43zM944 688v-166h39v47h33q71 0 71 60q0 29 -19 44t-52 15h-72zM1114 688v-166h129v31h-90v39h78v29h-78v36h88v31h-127zM209 621h-39v38h39q27 0 27 -20q0 -18 -27 -18zM1014 600h-31v57h31q35 0 35 -28q0 -17 -8.5 -23t-26.5 -6z
M217 551h-47v41h47q29 0 29 -21q0 -20 -29 -20z" />
    </font>
</defs>
</svg>
