<?xml version="1.0" standalone="no"?>
<!DOCTYPE svg PUBLIC "-//W3C//DTD SVG 1.1//EN" "http://www.w3.org/Graphics/SVG/1.1/DTD/svg11.dtd" >
<svg xmlns="http://www.w3.org/2000/svg" xmlns:xlink="http://www.w3.org/1999/xlink" version="1.1">
<metadata>
Created by FontForge 20201107 at Tue Apr 15 18:23:02 2025
 By 
Copyright (c) 2022 by beetype. All rights reserved.
</metadata>
<defs>
<font id="Aloevera-Thin" horiz-adv-x="1292" >
  <font-face 
    font-family="Aloevera-Thin"
    font-weight="100"
    font-stretch="normal"
    units-per-em="2048"
    panose-1="1 0 0 0 0 0 0 0 0 0"
    ascent="1638"
    descent="-410"
    x-height="1038"
    cap-height="1352"
    bbox="-578 -483.441 3418 1749"
    underline-thickness="102"
    underline-position="-255"
    unicode-range="U+0020-2212"
  />
<missing-glyph horiz-adv-x="1443" 
d="M383 211q-60 0 -123 24t-110.5 74.5t-47.5 112.5q0 126 154.5 232t384.5 132l18 2q-15 17 -26.5 46t-11.5 49q0 50 36 86q11 11 11 14q0 7 -9 16q-23 30 -77 93q-13 17 3 32q17 16 34 -3q2 -2 4 -5q46 -73 61 -100q8 -14 13 -16.5t18 -0.5q27 8 55 0q14 -4 24 11q2 2 3 4
l65 104q8 12 20.5 10t16 -12.5t-3.5 -23.5l-35 -45l-39 -54q-6 -8 6 -20q41 -47 41 -92q0 -37 -37 -97q134 -20 250.5 -73t188 -128t71.5 -153q0 -58 -48 -106.5t-111 -72.5t-119 -24q-85 0 -167 57.5t-132 149.5l-33 60l-37 -66q-49 -87 -131 -152t-180 -65zM383 264
q152 0 266 195q3 5 12.5 21.5t17 28.5t17 25.5t18.5 21t17 7.5q14 0 27.5 -15.5t30.5 -47.5t22 -39q116 -178 252 -178q70 0 148 45.5t75 103.5q-3 55 -46 105.5t-107 85.5t-139 61.5t-143.5 39.5t-119.5 13q-85 0 -184 -23.5t-187 -63t-146 -100t-58 -126.5t75 -113
t152 -47z" />
    <glyph glyph-name=".notdef" horiz-adv-x="1443" 
d="M383 211q-60 0 -123 24t-110.5 74.5t-47.5 112.5q0 126 154.5 232t384.5 132l18 2q-15 17 -26.5 46t-11.5 49q0 50 36 86q11 11 11 14q0 7 -9 16q-23 30 -77 93q-13 17 3 32q17 16 34 -3q2 -2 4 -5q46 -73 61 -100q8 -14 13 -16.5t18 -0.5q27 8 55 0q14 -4 24 11q2 2 3 4
l65 104q8 12 20.5 10t16 -12.5t-3.5 -23.5l-35 -45l-39 -54q-6 -8 6 -20q41 -47 41 -92q0 -37 -37 -97q134 -20 250.5 -73t188 -128t71.5 -153q0 -58 -48 -106.5t-111 -72.5t-119 -24q-85 0 -167 57.5t-132 149.5l-33 60l-37 -66q-49 -87 -131 -152t-180 -65zM383 264
q152 0 266 195q3 5 12.5 21.5t17 28.5t17 25.5t18.5 21t17 7.5q14 0 27.5 -15.5t30.5 -47.5t22 -39q116 -178 252 -178q70 0 148 45.5t75 103.5q-3 55 -46 105.5t-107 85.5t-139 61.5t-143.5 39.5t-119.5 13q-85 0 -184 -23.5t-187 -63t-146 -100t-58 -126.5t75 -113
t152 -47z" />
    <glyph glyph-name=".null" horiz-adv-x="0" 
 />
    <glyph glyph-name="nonmarkingreturn" horiz-adv-x="682" 
 />
    <glyph glyph-name="space" unicode=" " horiz-adv-x="512" 
 />
    <glyph glyph-name="exclam" unicode="!" horiz-adv-x="385" 
d="M209 270h-47l-17 1082h66zM190 0q-41 0 -64.5 24t-23.5 64q0 37 25 62.5t63 25.5q41 0 67 -25t26 -63t-26.5 -63t-66.5 -25z" />
    <glyph glyph-name="quotedbl" unicode="&#x22;" horiz-adv-x="448" 
d="M219 1071l-26 -20q-59 77 -78 137.5t-19 163.5h51q-6 -91 12 -154t60 -127zM346 1071l-27 -20q-59 76 -77.5 136.5t-18.5 164.5h51q-6 -91 12 -154t60 -127z" />
    <glyph glyph-name="numbersign" unicode="#" horiz-adv-x="1374" 
d="M254 0h-51l106 344h-207v49h224l186 588h-244v49h258l101 322h51l-100 -322h426l100 322h51l-100 -322h217v-49h-234l-186 -588h254v-49h-268l-107 -344h-51l106 344h-426zM561 981l-184 -588h426l184 588h-426z" />
    <glyph glyph-name="dollar" unicode="$" horiz-adv-x="966" 
d="M498 0h-49v127q-156 14 -250 100t-97 240l50 -2q5 -81 34.5 -138t79 -89t105.5 -47t127 -19q74 -4 144.5 21t118.5 78t50 120q3 109 -71 157t-259 81q-94 17 -156.5 36t-115 50.5t-77.5 78.5t-26 113q-3 125 88.5 204t245.5 83v158h49v-158q168 -6 263 -88t112 -236h-49
q-14 129 -106.5 201.5t-247.5 73.5q-132 2 -219 -66t-86 -172q1 -99 77 -148t254 -81q206 -37 291 -97.5t82 -189.5q-3 -126 -102.5 -199.5t-259.5 -68.5v-123z" />
    <glyph glyph-name="percent" unicode="%" horiz-adv-x="2187" 
d="M559 412q-106 0 -194 39t-144.5 105t-87.5 150.5t-31 176.5q0 96 30.5 183t87 155.5t145.5 109.5t198 41t197 -40.5t143 -109.5t84 -156t29 -183q0 -124 -52.5 -230t-158.5 -173.5t-246 -67.5zM842 0h-49l565 1352h49zM561 461q122 0 215.5 59t141.5 154t49 209
q2 195 -109.5 316.5t-292.5 121.5q-184 0 -298.5 -122t-112.5 -316q1 -114 49 -209t142 -154t216 -59zM1626 0q-106 0 -194 39t-144 105t-86.5 150.5t-30.5 176.5q0 129 51 238.5t157.5 180.5t250.5 71q109 0 197.5 -41t143.5 -110t84.5 -156t29.5 -183q0 -124 -53 -230
t-159.5 -173.5t-246.5 -67.5zM1628 49q122 0 215.5 59t141.5 154t49 209q3 195 -108.5 316.5t-293.5 121.5q-184 0 -298.5 -122t-112.5 -316q1 -114 49 -209t142 -154t216 -59z" />
    <glyph glyph-name="ampersand" unicode="&#x26;" horiz-adv-x="1402" 
d="M514 -20q-188 0 -295 103.5t-117 258.5q-5 90 27.5 166t88.5 124t124 73.5t137 23.5q-35 27 -61 51.5t-65 70t-61 103.5t-22 121q0 128 97.5 213t242.5 84q195 -2 299.5 -118.5t104.5 -335.5h-49q-4 197 -95.5 301t-257.5 104q-130 0 -210 -67.5t-80 -180.5
q0 -48 14.5 -92t46 -86.5t58.5 -71.5t75 -75l784 -750h-61l-369 354q3 -100 -44 -186t-130 -137t-182 -51zM514 29q59 1 118 29t104.5 74t72 113t22.5 140l-325 313q-71 0 -137.5 -25.5t-116 -70.5t-77 -112t-21.5 -144q9 -136 107 -227t253 -90z" />
    <glyph glyph-name="quotesingle" unicode="'" horiz-adv-x="327" 
d="M225 1071l-26 -20q-59 77 -78 137.5t-19 163.5h52q-6 -91 12 -154.5t59 -126.5z" />
    <glyph glyph-name="parenleft" unicode="(" horiz-adv-x="630" 
d="M528 -47l-18 -39q-55 37 -98.5 72t-104.5 104.5t-102 146.5t-71.5 195t-31.5 252q0 145 41.5 281.5t135 267t231.5 225.5l18 -39q-69 -47 -129.5 -110t-118 -152.5t-91.5 -211.5t-35 -259q1 -137 35 -259t91.5 -211.5t118 -152.5t129.5 -110z" />
    <glyph glyph-name="parenright" unicode=")" horiz-adv-x="630" 
d="M121 -86l-19 39q54 37 103 82.5t99.5 113.5t87.5 145t60.5 179t24.5 213q-1 111 -24.5 213t-60.5 179t-87.5 145t-99.5 113.5t-103 82.5l19 39q138 -95 231.5 -225.5t134.5 -267t41 -281.5q-1 -97 -17 -186t-40 -156t-60.5 -128.5t-70 -104t-77.5 -83.5t-74.5 -64
t-67.5 -48z" />
    <glyph glyph-name="asterisk" unicode="*" horiz-adv-x="843" 
d="M442 745h-49l10 269l-186 -197l-35 33l197 182l-277 -8v49l281 -10l-207 192l35 35l190 -203l-8 265h49l-8 -265l182 197l35 -33l-198 -188l288 10v-49l-284 8l205 -192l-35 -33l-195 207z" />
    <glyph glyph-name="plus" unicode="+" horiz-adv-x="843" 
d="M442 307h-49v283h-291v49h291v283h49v-283h299v-49h-299v-283z" />
    <glyph glyph-name="comma" unicode="," horiz-adv-x="327" 
d="M129 -168l-27 21q42 64 60 126.5t12 153.5h51q0 -104 -18.5 -164.5t-77.5 -136.5z" />
    <glyph glyph-name="hyphen" unicode="-" horiz-adv-x="747" 
d="M645 475h-543v49h543v-49z" />
    <glyph glyph-name="period" unicode="." horiz-adv-x="331" 
d="M166 4q-26 0 -45 19t-19 45q0 25 19 43t45 18q25 0 44 -18t19 -43q0 -26 -19 -45t-44 -19z" />
    <glyph glyph-name="slash" unicode="/" horiz-adv-x="821" 
d="M152 0h-50l568 1352h49z" />
    <glyph glyph-name="zero" unicode="0" horiz-adv-x="1417" 
d="M709 -20q-140 0 -255.5 52.5t-191.5 144t-118 214t-42 262.5q0 144 41.5 273.5t117.5 229t193 158t259 58.5t258 -58.5t190 -158.5t114 -229t40 -273q0 -188 -71.5 -339.5t-211 -242.5t-323.5 -91zM711 29q156 0 282 80.5t198 223.5t73 320q1 190 -70 343.5t-197 240
t-282 86.5q-157 0 -286 -87.5t-202.5 -241t-72.5 -341.5q1 -177 73.5 -319.5t200 -223.5t283.5 -81z" />
    <glyph glyph-name="one" unicode="1" horiz-adv-x="401" 
d="M299 0h-49v1237h-148v47q140 0 144 68h49z" />
    <glyph glyph-name="two" unicode="2" horiz-adv-x="1132" 
d="M1030 0h-889v53l324 295q45 41 117.5 104.5t110 97.5t90 84.5t79.5 84t56 76t41 81.5t14 80q8 165 -106.5 266t-309.5 101q-69 0 -132.5 -18t-118.5 -54t-95 -95t-57 -136h-52q29 164 151.5 257t305.5 95q220 1 344.5 -116.5t118.5 -297.5q-1 -36 -8.5 -69.5t-25 -68.5
t-34.5 -63.5t-50.5 -66.5t-58.5 -65t-72.5 -71t-79 -72.5t-92 -82t-97.5 -86.5l-295 -264h821v-49z" />
    <glyph glyph-name="three" unicode="3" horiz-adv-x="1114" 
d="M561 -20q-189 0 -312.5 96t-129.5 284h47q1 -73 24 -130.5t60.5 -95t88.5 -62t106 -35t116 -10.5q184 0 293 89t109 238q0 72 -26 126t-66.5 86t-101.5 51t-121 25.5t-134 6.5h-143v47h129q446 0 446 312q0 149 -107 233t-294 84q-62 0 -116 -9t-106 -32t-89 -59t-60 -94
t-24 -132h-48q2 97 38 170.5t98 117t139 64.5t168 21q204 0 326 -98.5t122 -265.5q0 -124 -71.5 -213t-188.5 -117q120 -19 199.5 -108t79.5 -218q0 -167 -124 -269.5t-327 -102.5z" />
    <glyph glyph-name="four" unicode="4" horiz-adv-x="1230" 
d="M877 0h-50v326l-725 4v47l725 975h52l-2 -977h251v-49h-251v-326zM829 1266l-659 -889l657 -2z" />
    <glyph glyph-name="five" unicode="5" horiz-adv-x="1148" 
d="M578 -20q-70 -2 -137 13.5t-128 51t-107 87t-74 127t-30 165.5h50q2 -86 29.5 -156t71 -114.5t99.5 -74t113 -41t113 -9.5q186 6 300 120.5t117 296.5q3 183 -107.5 316t-271.5 139q-271 12 -438 -225l-69 31l116 645h647v-49h-596l-112 -578q74 111 192.5 170t259.5 55
q123 -4 222.5 -71t154.5 -180.5t54 -249.5q-3 -194 -131.5 -328.5t-337.5 -140.5z" />
    <glyph glyph-name="six" unicode="6" horiz-adv-x="1155" 
d="M584 -20q-87 -2 -169 31t-147.5 94.5t-109 157t-52.5 210.5q-7 59 -3 128t10.5 142t26.5 146.5t46 141.5t69 128.5t94.5 106t123.5 73.5t156 33q198 9 334 -106l-33 -39q-127 105 -303 96q-186 -9 -306 -162.5t-155 -427.5q68 107 187.5 164t269.5 53q187 -6 309.5 -148
t120.5 -349q-3 -199 -131 -333t-338 -140zM584 29q185 6 299.5 123t117.5 299q3 183 -107 313.5t-271 136.5q-98 4 -186.5 -23t-154.5 -80t-100.5 -137.5t-23.5 -187.5q10 -108 52.5 -196t103.5 -141.5t130.5 -81t139.5 -25.5z" />
    <glyph glyph-name="seven" unicode="7" horiz-adv-x="970" 
d="M299 0h-51l569 1305l-715 -2v49h766v-52z" />
    <glyph glyph-name="eight" unicode="8" horiz-adv-x="1185" 
d="M582 -20q-132 0 -240.5 46.5t-172.5 130t-67 187.5q-2 134 87.5 234.5t248.5 140.5q-135 32 -212.5 114t-82.5 189q-6 106 51.5 187t156.5 122t222 41q86 0 166 -23.5t143.5 -67t100 -112t33.5 -151.5q-3 -105 -74 -183.5t-197 -111.5q170 -42 255 -140t83 -239
q-3 -113 -73 -197t-181.5 -125.5t-246.5 -41.5zM582 750q95 0 179.5 29.5t143.5 92.5t62 148q3 78 -35 139.5t-99.5 95.5t-127.5 51t-130 17q-53 0 -103.5 -8t-104 -29t-92.5 -53.5t-62 -87.5t-20 -125q4 -79 63 -142t146 -95.5t180 -32.5zM582 29q79 0 155.5 19t142.5 56
t107.5 99t42.5 141q3 149 -116.5 253.5t-329.5 104.5q-173 0 -302 -108.5t-126 -249.5q2 -96 67 -170t160 -109.5t199 -35.5z" />
    <glyph glyph-name="nine" unicode="9" horiz-adv-x="1155" 
d="M571 1370q87 2 169 -31t147.5 -94.5t109 -157t52.5 -210.5q7 -59 3 -128t-10.5 -142t-26.5 -146.5t-46 -142t-69 -129t-94.5 -106t-123.5 -73.5t-156 -33q-196 -9 -333 107l32 39q127 -105 303 -96q186 9 306 162t155 427q-68 -107 -187.5 -164t-269.5 -53
q-123 4 -222 70.5t-154 179t-54 248.5q3 199 131 333t338 140zM571 1321q-185 -6 -299.5 -123t-117.5 -299q-3 -183 107 -313.5t271 -136.5q98 -4 186.5 23t154.5 80t100.5 137.5t23.5 187.5q-10 108 -52.5 196t-103.5 141.5t-130.5 81t-139.5 25.5z" />
    <glyph glyph-name="colon" unicode=":" horiz-adv-x="333" 
d="M166 870q-26 0 -45 19t-19 45q0 25 19 43t45 18q25 0 44 -18t19 -43q0 -26 -19 -45t-44 -19zM168 152q-26 0 -45 18.5t-19 44.5q0 25 19 43t45 18q25 0 44 -18t19 -43q0 -26 -19 -44.5t-44 -18.5z" />
    <glyph glyph-name="semicolon" unicode=";" horiz-adv-x="362" 
d="M197 870q-26 0 -45 19t-19 45q0 25 19 43t45 18q25 0 44 -18t19 -43q0 -26 -19 -45t-44 -19zM129 -100l-27 20q42 64 60 127t12 154h51q0 -104 -18.5 -164.5t-77.5 -136.5z" />
    <glyph glyph-name="less" unicode="&#x3c;" horiz-adv-x="706" 
d="M578 254h-72l-404 369l428 368h74l-428 -368z" />
    <glyph glyph-name="equal" unicode="=" horiz-adv-x="708" 
d="M602 690h-500v49h500v-49zM606 512h-504v49h504v-49z" />
    <glyph glyph-name="greater" unicode="&#x3e;" horiz-adv-x="706" 
d="M201 254h-72l401 369l-428 368h74l428 -368z" />
    <glyph glyph-name="question" unicode="?" horiz-adv-x="1126" 
d="M283 227h-47v82q0 62 25 108.5t67 75.5t97 51t115.5 39.5t121.5 36t116.5 45.5t98.5 62.5t69 93t27 131.5q3 163 -107 267t-309 104q-106 0 -196 -35t-148 -106t-59 -166h-52q-1 152 129 253t328 103q219 1 343 -116.5t122 -301.5q-1 -80 -26.5 -143t-68.5 -103.5
t-98.5 -71t-117 -50.5t-122.5 -38t-116.5 -38t-98.5 -45t-68 -64.5t-25 -91.5v-82zM266 0q-26 0 -44.5 18.5t-18.5 44.5q0 25 18.5 43.5t44.5 18.5q24 0 43 -19t19 -43q0 -26 -19 -44.5t-43 -18.5z" />
    <glyph glyph-name="at" unicode="@" horiz-adv-x="1544" 
d="M700 0q-186 -5 -329 82.5t-213 240t-52 336.5q14 140 78.5 267.5t162.5 221t229.5 149t273.5 55.5q143 0 261 -55t193.5 -149t111.5 -221t22 -268q-15 -139 -76 -268.5t-152 -206.5q-40 -36 -81 -45.5t-71.5 4t-48 50.5t-12.5 88l21 196q-40 -81 -119.5 -146.5
t-187.5 -84.5q-131 -25 -221 28t-97 160q-5 101 70.5 183t208.5 122q180 55 370 52q7 133 -56.5 200.5t-182.5 67.5q-113 0 -199.5 -57t-109.5 -175h-50q28 134 128.5 206.5t234.5 72.5q159 0 228 -95.5t52 -293.5q-20 -243 -47 -438q-5 -38 14.5 -64.5t56 -26.5t75.5 35
q165 148 200 436q16 139 -20 260.5t-110.5 205t-181 131t-228.5 47.5q-118 0 -236 -48t-213 -130.5t-160.5 -204.5t-78.5 -261q-17 -168 53 -311.5t203.5 -224t294.5 -74.5q91 3 182 33l18 -51q-98 -28 -209 -31zM715 291q118 23 214 126t105 242l6 93q-188 0 -364 -56
q-117 -38 -176.5 -104.5t-53.5 -153.5q6 -86 82 -127.5t187 -19.5z" />
    <glyph glyph-name="A" unicode="A" horiz-adv-x="1458" 
d="M156 0h-54l598 1352h52l604 -1352h-53l-226 506l-696 2zM727 1292l-326 -739h656z" />
    <glyph glyph-name="B" unicode="B" horiz-adv-x="1110" 
d="M553 0h-451v1352h447q424 0 424 -328q0 -43 -12 -83t-38.5 -80t-76.5 -72.5t-119 -51.5q138 -42 209.5 -134t71.5 -218q0 -54 -10.5 -103.5t-41.5 -102.5t-79.5 -91t-132 -63t-191.5 -25zM156 1303v-541h372q195 0 295.5 66.5t100.5 195.5q0 141 -92.5 210t-284.5 69
h-391zM156 713v-664h395q94 0 167 20.5t117 53t72 78t38.5 90t10.5 94.5q0 64 -22 120t-69.5 104t-132.5 76t-200 28h-376z" />
    <glyph glyph-name="C" unicode="C" horiz-adv-x="1449" 
d="M776 -20q-188 0 -342.5 90.5t-243 250.5t-88.5 355q0 190 87 349t243.5 253t347.5 94q179 0 324 -79t239 -228l-40 -31q-87 137 -225 213t-296 76q-120 0 -234 -47.5t-201.5 -130.5t-140.5 -206t-52 -263q1 -136 52.5 -257.5t137 -206.5t199 -134t235.5 -49
q159 0 300.5 79t228.5 218l41 -33q-92 -149 -242.5 -231t-329.5 -82z" />
    <glyph glyph-name="D" unicode="D" horiz-adv-x="1314" 
d="M520 0h-418l2 1352h428q103 0 200.5 -25.5t185 -79t152.5 -130t103.5 -186t38.5 -239.5q0 -153 -55.5 -284t-150 -219.5t-220.5 -138.5t-266 -50zM156 1303v-1254h352q192 0 341 84.5t229.5 230.5t80.5 328q0 278 -174 444.5t-463 166.5h-366z" />
    <glyph glyph-name="E" unicode="E" horiz-adv-x="1052" 
d="M946 8h-844v1344h848v-49h-796v-598h733v-50h-733v-598h792v-49z" />
    <glyph glyph-name="F" unicode="F" horiz-adv-x="1052" 
d="M154 0h-52v1352h848v-49h-796v-598h630v-50h-630v-655z" />
    <glyph glyph-name="G" unicode="G" horiz-adv-x="1449" 
d="M776 -20q-188 0 -342.5 90.5t-243 250.5t-88.5 355q0 190 87 349t243.5 253t347.5 94q179 0 324 -79t239 -228l-40 -31q-87 137 -225 213t-296 76q-120 0 -234 -47.5t-201.5 -130.5t-140.5 -206t-52 -263q1 -136 52.5 -257.5t137 -206.5t199 -134t235.5 -49
q156 0 294.5 75t225.5 209v334h-581v49h631v-401q-90 -150 -240.5 -232.5t-331.5 -82.5z" />
    <glyph glyph-name="H" unicode="H" horiz-adv-x="1120" 
d="M154 0h-52v1352h52v-660h813v660h51v-1352h-51v643h-813v-643z" />
    <glyph glyph-name="I" unicode="I" horiz-adv-x="253" 
d="M152 0h-50v1352h50v-1352z" />
    <glyph glyph-name="J" unicode="J" horiz-adv-x="1064" 
d="M547 -20q-169 0 -293.5 92.5t-151.5 255.5h52q25 -137 131.5 -218t259.5 -81q162 0 264 101t102 241v981h52v-967q0 -99 -39 -179t-101 -127.5t-133.5 -73t-142.5 -25.5z" />
    <glyph glyph-name="K" unicode="K" horiz-adv-x="1130" 
d="M154 0h-52v1352h50l2 -830l815 830h59l-567 -584l528 -768h-59l-502 731l-274 -282v-449z" />
    <glyph glyph-name="L" unicode="L" horiz-adv-x="1052" 
d="M950 0h-848v1352h52v-1303h796v-49z" />
    <glyph glyph-name="M" unicode="M" horiz-adv-x="1435" 
d="M154 0h-52v1352h74l537 -1266l547 1266h73v-1352h-51v1274l-551 -1274h-39l-538 1278v-1278z" />
    <glyph glyph-name="N" unicode="N" horiz-adv-x="1206" 
d="M152 0h-50v1352h68l883 -1278v1278h51v-1352h-66l-886 1288v-1288z" />
    <glyph glyph-name="O" unicode="O" horiz-adv-x="1572" 
d="M786 -20q-141 0 -268 53t-218 144.5t-144.5 218.5t-53.5 270q0 144 52.5 274t143 225t219 151t274.5 56t273.5 -56t216 -151t139 -224.5t50.5 -274.5q0 -142 -53.5 -269t-144.5 -218.5t-218 -145t-268 -53.5zM788 31q123 0 238 49.5t200.5 133.5t137.5 202.5t53 249.5
q1 114 -32.5 217.5t-92.5 182.5t-137.5 137t-171.5 88t-190 30q-122 0 -237.5 -48t-204 -132t-142.5 -208.5t-53 -266.5q1 -131 53.5 -249.5t138.5 -202.5t201.5 -133.5t238.5 -49.5z" />
    <glyph glyph-name="P" unicode="P" horiz-adv-x="1077" 
d="M152 0h-50v1352h453q100 0 176.5 -24.5t121.5 -62t73.5 -90t38.5 -101.5t10 -103q0 -172 -107 -261t-313 -89h-403v-621zM152 1303v-633h403q369 0 369 301q0 50 -10 94.5t-36 89t-66.5 76.5t-107 52t-151.5 20h-401z" />
    <glyph glyph-name="Q" unicode="Q" horiz-adv-x="1568" 
d="M1393 -51l39 -29q-60 -84 -134.5 -134.5t-145.5 -64t-140.5 -0.5t-121.5 48.5t-85.5 90.5t-36.5 120q-184 8 -336.5 99.5t-241 246.5t-88.5 340q0 144 52 274t142 225t218.5 151t273.5 56q146 0 273 -56t215.5 -151t139 -225t50.5 -274q0 -138 -51.5 -261.5t-139 -213
t-207 -146t-253.5 -65.5q4 -60 36.5 -107t81.5 -74t111 -33t123.5 9.5t122 60t103.5 113.5zM786 31q123 0 237.5 50t200 134.5t137 202.5t52.5 248q1 143 -50.5 267.5t-137.5 209t-199 132.5t-235 48q-97 0 -190.5 -30t-173.5 -88.5t-141 -137t-96 -182.5t-34 -219
q1 -173 89 -320t232.5 -231t308.5 -84z" />
    <glyph glyph-name="R" unicode="R" horiz-adv-x="1077" 
d="M152 0h-50v1352h453q100 0 176.5 -24.5t121.5 -62t73.5 -90t38.5 -101.5t10 -103q0 -66 -20 -124.5t-63.5 -111t-123.5 -83.5t-188 -31h-138l420 -621h-59l-420 621h-231v-621zM152 1303v-633h403q369 0 369 301q0 50 -10 94.5t-36 89t-66.5 76.5t-107 52t-151.5 20h-401
z" />
    <glyph glyph-name="S" unicode="S" horiz-adv-x="1114" 
d="M569 -20q-125 2 -223.5 41t-160 119.5t-62.5 193.5h49q1 -69 30 -124t73 -88t100 -55t105.5 -30t94.5 -8q70 0 133.5 14.5t121 45t93 87.5t38.5 133q6 151 -89 232.5t-327 124.5q-222 40 -332 129t-111 231q0 156 114.5 251t299.5 95q122 0 223.5 -43t164 -126.5
t63.5 -192.5h-49q-1 78 -38.5 140t-97 98.5t-128 55.5t-138.5 19q-92 0 -171.5 -30.5t-134.5 -99.5t-56 -165q-2 -122 96 -200t297 -113q247 -44 358.5 -140.5t106.5 -261.5q-2 -71 -27 -128.5t-66 -95.5t-97 -63.5t-119 -36t-134 -9.5z" />
    <glyph glyph-name="T" unicode="T" horiz-adv-x="1198" 
d="M616 0h-49l6 1300l-471 3v49h994v-49l-473 -3z" />
    <glyph glyph-name="U" unicode="U" horiz-adv-x="1212" 
d="M606 -20q-230 0 -367 141.5t-137 378.5v852h50v-852q0 -100 30 -186t87 -149.5t144 -99.5t195 -36q213 0 333 132t120 339v852h49v-852q0 -237 -137 -378.5t-367 -141.5z" />
    <glyph glyph-name="V" unicode="V" horiz-adv-x="1349" 
d="M682 0h-49l-531 1352h50l507 -1282l541 1282h47z" />
    <glyph glyph-name="W" unicode="W" horiz-adv-x="2082" 
d="M598 0h-47l-449 1352h50l426 -1284l436 1284h55l404 -1284l458 1284h49l-485 -1352h-47l-408 1292z" />
    <glyph glyph-name="X" unicode="X" horiz-adv-x="1220" 
d="M156 0h-54l482 684l-471 668h51l446 -625l447 625h51l-471 -668l481 -684h-53l-455 641z" />
    <glyph glyph-name="Y" unicode="Y" horiz-adv-x="1374" 
d="M709 0h-50l3 594l-560 758h50l534 -715l535 715h51l-563 -760v-592z" />
    <glyph glyph-name="Z" unicode="Z" horiz-adv-x="1124" 
d="M987 0h-885v55l863 1248h-838v49h895v-54l-860 -1249h825v-49z" />
    <glyph glyph-name="bracketleft" unicode="[" horiz-adv-x="493" 
d="M391 -74h-289v1506h289v-50h-239v-1407h239v-49z" />
    <glyph glyph-name="backslash" unicode="\" horiz-adv-x="821" 
d="M152 1352l567 -1352h-49l-568 1352h50z" />
    <glyph glyph-name="bracketright" unicode="]" horiz-adv-x="493" 
d="M391 1432v-1506h-289v49h240v1407h-240v50h289z" />
    <glyph glyph-name="asciicircum" unicode="^" horiz-adv-x="813" 
d="M154 780h-52l279 572h59l271 -570h-52l-249 518z" />
    <glyph glyph-name="underscore" unicode="_" horiz-adv-x="956" 
d="M854 0h-752v49h752v-49z" />
    <glyph glyph-name="a" unicode="a" 
d="M643 -20q-112 0 -212 41.5t-172.5 112.5t-114.5 170t-42 210q0 247 153 396t388 149q163 0 296 -83t200 -214v276h51v-1038h-51v285q-61 -134 -197.5 -219.5t-298.5 -85.5zM641 29q95 0 185 36t159.5 99t111.5 154.5t42 195.5q0 113 -42 208t-112 157t-159 96.5
t-183 34.5q-97 0 -184 -31t-156.5 -91t-110 -156.5t-40.5 -217.5q0 -138 70.5 -251t182 -173.5t236.5 -60.5z" />
    <glyph glyph-name="b" unicode="b" 
d="M649 -20q-162 0 -298 85.5t-197 219.5v-285h-52v1352h52v-590q67 131 199.5 214t295.5 83q235 0 388 -149t153 -396q0 -111 -42 -210t-114.5 -170t-172.5 -112.5t-212 -41.5zM651 29q93 0 182 36t157 99t109.5 154.5t41.5 195.5q0 121 -41 217.5t-110 156.5t-156.5 91
t-184.5 31q-95 0 -183 -33.5t-158 -95t-112 -157t-42 -210.5q0 -104 42 -195.5t111 -154.5t159 -99t185 -36z" />
    <glyph glyph-name="c" unicode="c" horiz-adv-x="1241" 
d="M643 -20q-112 0 -212 41.5t-172.5 112.5t-114.5 170t-42 210q0 247 153 396t388 149q165 0 299.5 -81.5t192.5 -209.5l-45 -27q-62 125 -184.5 197t-262.5 72q-129 0 -239.5 -58t-181 -173t-70.5 -265q0 -138 70.5 -251t182 -173.5t236.5 -60.5q144 0 268 76.5t187 203.5
l43 -26q-66 -133 -201 -218t-295 -85z" />
    <glyph glyph-name="d" unicode="d" 
d="M643 -20q-112 0 -212 41.5t-172.5 112.5t-114.5 170t-42 210q0 247 153 396t388 149q163 0 296 -83t200 -214v590h51v-1352h-51v285q-61 -134 -197.5 -219.5t-298.5 -85.5zM641 29q95 0 185 36t159.5 99t111.5 154.5t42 195.5q0 115 -42 210.5t-112.5 157t-158.5 95
t-183 33.5q-97 0 -184 -31t-156.5 -91t-110 -156.5t-40.5 -217.5q0 -138 70.5 -251t182 -173.5t236.5 -60.5z" />
    <glyph glyph-name="e" unicode="e" horiz-adv-x="1265" 
d="M631 -20q-142 0 -263.5 71t-193.5 194.5t-72 270.5q0 162 72.5 287.5t192.5 190.5t264 65q103 0 194.5 -34.5t165 -99t119.5 -167.5t53 -230v-34l-1009 -2q6 -131 78.5 -239t179 -166t217.5 -58q126 0 242.5 63t179.5 180l47 -24q-68 -128 -193 -198t-274 -70zM154 541
l958 2q-9 141 -81 249.5t-177 163t-223 54.5q-184 0 -324.5 -128.5t-152.5 -340.5z" />
    <glyph glyph-name="f" unicode="f" horiz-adv-x="919" 
d="M344 0h-49v788h-193v50h193v176q0 94 35 168t91.5 115t125 60t139.5 12t131 -36l-22 -43q-55 27 -118 32.5t-121.5 -13t-106 -55t-76.5 -98.5t-29 -138v-180h391v-50h-389z" />
    <glyph glyph-name="g" unicode="g" horiz-adv-x="1214" 
d="M608 -455q-236 0 -368 72.5t-138 206.5q-3 60 19 112.5t61 89.5t86 62t97 37q-58 21 -83 48.5t-24 76.5q2 50 39 99t100 81q-99 34 -153 113t-54 178q0 161 107 249.5t299 88.5q76 0 199 -19h268v-49h-199q60 -34 96.5 -109.5t36.5 -150.5q0 -154 -108.5 -242t-298.5 -88
q-42 0 -88 5.5t-56 5.5q-69 -34 -106 -77.5t-35 -84.5q1 -26 14 -45.5t31 -29.5t45.5 -16t50 -7.5t52.5 -1.5h202q199 0 307.5 -81.5t104.5 -230.5q-5 -143 -132.5 -218t-371.5 -75zM592 446q173 0 264.5 73.5t91.5 211.5q0 131 -93 206t-263 75t-261 -75.5t-91 -215.5
q0 -133 90.5 -204t261.5 -71zM614 -408q205 0 324.5 66t122.5 180q3 131 -90.5 195.5t-290.5 64.5h-182q-89 0 -168 -31t-129.5 -93.5t-46.5 -141.5q6 -117 123.5 -178.5t336.5 -61.5z" />
    <glyph glyph-name="h" unicode="h" 
d="M154 0h-52v1352h52v-590q67 131 199.5 214t295.5 83q235 0 388 -149t153 -396v-514h-51l2 514q0 121 -41 217.5t-110 156.5t-156.5 91t-184.5 31q-95 0 -183 -33.5t-158 -95t-112 -157t-42 -210.5v-514z" />
    <glyph glyph-name="i" unicode="i" horiz-adv-x="309" 
d="M156 1247q-23 0 -38.5 15t-15.5 38q0 22 15.5 37t38.5 15q22 0 36.5 -15t14.5 -37q0 -23 -14.5 -38t-36.5 -15zM178 0h-49v1038h49v-1038z" />
    <glyph glyph-name="j" unicode="j" horiz-adv-x="608" 
d="M453 1247q-22 0 -38 15t-16 38q0 22 16 37t38 15t37.5 -15t15.5 -37t-15 -37.5t-38 -15.5zM102 -455l17 47q79 0 148 34t114 105.5t45 166.5v1140h49v-1136q0 -92 -32.5 -164t-86.5 -114t-119 -62t-135 -17z" />
    <glyph glyph-name="k" unicode="k" horiz-adv-x="983" 
d="M152 0h-50v1352h52v-877l565 529h59l-426 -406l529 -598h-60l-504 565l-165 -155v-410z" />
    <glyph glyph-name="l" unicode="l" horiz-adv-x="256" 
d="M154 0h-52v1352h52v-1352z" />
    <glyph glyph-name="m" unicode="m" horiz-adv-x="1818" 
d="M152 0h-50v1038h50v-276q20 74 72.5 141t131 111t162.5 45q152 2 259.5 -80.5t137.5 -230.5q31 138 135.5 224.5t243.5 86.5q198 0 310 -125t112 -348v-586h-51v582q0 200 -98.5 314t-272.5 114q-158 0 -257 -119t-99 -311v-580h-49v582q0 201 -99.5 316t-271.5 112
q-154 -3 -257 -131t-105 -293z" />
    <glyph glyph-name="n" unicode="n" 
d="M154 0h-52v1038h52v-276q67 131 199.5 214t295.5 83q235 0 388 -149t153 -396v-514h-51l2 514q1 121 -40 217.5t-110.5 156.5t-157 91t-184.5 31q-95 0 -183 -33.5t-158 -95t-112 -157t-42 -210.5v-514z" />
    <glyph glyph-name="o" unicode="o" 
d="M643 -20q-149 0 -273.5 71t-196 194t-71.5 269q0 245 153.5 395t387.5 150q237 0 392 -150t155 -395q0 -110 -42.5 -208.5t-115.5 -170t-174.5 -113.5t-214.5 -42zM641 29q95 0 185 34.5t159.5 96t111.5 154t42 200.5q0 149 -69 263.5t-181 173.5t-246 59q-96 0 -184 -33
t-156.5 -94t-109.5 -156.5t-41 -212.5q0 -102 41.5 -193.5t109.5 -154.5t156.5 -100t181.5 -37z" />
    <glyph glyph-name="p" unicode="p" horiz-adv-x="1271" 
d="M154 -406h-52v1410h52v-271q60 132 193.5 218.5t291.5 86.5q146 0 268 -69t192 -189.5t70 -265.5q0 -161 -70 -283.5t-189.5 -186.5t-270.5 -64q-160 0 -289.5 81t-195.5 209v-676zM639 29q96 0 181 30.5t153 88.5t107.5 152.5t39.5 213.5q0 135 -68.5 245.5t-178 170
t-232.5 59.5q-93 0 -181.5 -35.5t-156 -97t-108.5 -151t-41 -191.5q0 -113 41 -206.5t109.5 -153.5t155 -92.5t179.5 -32.5z" />
    <glyph glyph-name="q" unicode="q" horiz-adv-x="1271" 
d="M1169 -406h-51v676q-66 -128 -195.5 -209t-289.5 -81q-151 0 -271 64t-190 186.5t-70 283.5q0 145 70.5 265.5t192.5 189.5t268 69q158 0 291.5 -86.5t193.5 -218.5v271h51v-1410zM633 29q93 0 179.5 32.5t155 92.5t109.5 153.5t41 206.5q0 102 -41 191.5t-108.5 151
t-156 97t-181.5 35.5q-123 0 -232.5 -59.5t-178 -170t-68.5 -245.5q0 -119 39.5 -213.5t107.5 -152.5t153 -88.5t181 -30.5z" />
    <glyph glyph-name="r" unicode="r" horiz-adv-x="710" 
d="M152 0h-50v1038h50v-327q46 137 176.5 230.5t279.5 96.5l-12 -49q-82 -5 -161 -40.5t-142.5 -96t-102 -150.5t-38.5 -194v-508z" />
    <glyph glyph-name="s" unicode="s" horiz-adv-x="978" 
d="M504 -20q-187 5 -293 94.5t-109 247.5h52q5 -81 34.5 -138t79.5 -89t106.5 -47t129.5 -19q118 -6 216 56.5t101 162.5q1 57 -16.5 96.5t-61.5 66.5t-102.5 44.5t-153.5 33.5q-95 17 -158.5 36.5t-116.5 51t-79 80t-27 115.5q-3 129 97 208t264 79q185 0 288 -82.5
t122 -241.5h-52q-14 127 -107.5 200.5t-250.5 74.5q-134 1 -222.5 -67.5t-86.5 -170.5q1 -102 77.5 -151.5t258.5 -81.5q105 -18 173 -40t116.5 -55.5t69 -81t19.5 -114.5q-3 -125 -104 -198.5t-264 -69.5z" />
    <glyph glyph-name="t" unicode="t" horiz-adv-x="919" 
d="M795 80l22 -43q-60 -29 -131 -36t-139.5 12t-125 60t-91.5 115t-35 168v633h-193v49q58 1 96.5 14t57.5 36t29 56t10 72.5v84.5v51h49l2 -314h389v-49h-391v-637q0 -76 29 -138t76.5 -98.5t106 -55t121.5 -13t118 32.5z" />
    <glyph glyph-name="u" unicode="u" horiz-adv-x="1110" 
d="M551 -20q-212 0 -330.5 125t-118.5 348v585h52v-581q0 -203 103 -315.5t290 -112.5q191 0 300 143t109 367v499h52v-1038h-52v301q-41 -152 -154 -236.5t-251 -84.5z" />
    <glyph glyph-name="v" unicode="v" horiz-adv-x="1148" 
d="M596 0h-41l-453 1038h52l421 -954l420 954h52z" />
    <glyph glyph-name="w" unicode="w" horiz-adv-x="1736" 
d="M492 0h-39l-351 1038h52l319 -956l356 956h58l358 -956l338 956h51l-368 -1038h-39l-369 985z" />
    <glyph glyph-name="x" unicode="x" horiz-adv-x="1038" 
d="M156 0h-54l392 526l-381 512h51l356 -469l354 469h52l-379 -512l389 -526h-53l-363 483z" />
    <glyph glyph-name="y" unicode="y" horiz-adv-x="1136" 
d="M102 -70l35 29q25 -35 68.5 -54t91 -18t94.5 32t76 89l70 144l-406 886h49l383 -833l422 833h49l-532 -1052q-36 -71 -92 -108t-112.5 -37t-109 23.5t-86.5 65.5z" />
    <glyph glyph-name="z" unicode="z" horiz-adv-x="940" 
d="M838 0h-734v51l672 938h-674v49h732v-51l-668 -938h672v-49z" />
    <glyph glyph-name="braceleft" unicode="{" horiz-adv-x="524" 
d="M422 -4l-2 -49q-106 2 -160.5 69.5t-48.5 190.5q6 104 31 276q21 147 -140 183v49q25 6 45 13.5t48 26.5t41 55t6 85q-26 174 -31 272q-6 123 49 191t162 69v-49q-83 -1 -125.5 -57t-36.5 -154q6 -84 31 -270q12 -79 -17 -127.5t-106 -77.5q80 -38 107 -87.5t16 -123.5
q-25 -182 -31 -274q-6 -98 36.5 -154t125.5 -57z" />
    <glyph glyph-name="bar" unicode="|" horiz-adv-x="256" 
d="M154 -49h-52v1444h52v-1444z" />
    <glyph glyph-name="braceright" unicode="}" horiz-adv-x="524" 
d="M104 -53l-2 49q83 1 125.5 57t36.5 154q-6 92 -31 274q-11 74 16 123.5t107 87.5q-77 29 -106 77.5t-17 127.5q25 186 31 270q6 98 -36.5 154t-125.5 57v49q107 -1 162 -69t49 -191q-6 -109 -30 -272q-21 -145 139 -180v-49q-160 -36 -139 -183q24 -161 30 -276
q6 -123 -48.5 -190.5t-160.5 -69.5z" />
    <glyph glyph-name="exclamdown" unicode="&#xa1;" horiz-adv-x="385" 
d="M190 1352q40 0 66.5 -25t26.5 -63t-26 -63t-67 -25q-38 0 -63 25.5t-25 62.5q0 40 23.5 64t64.5 24zM145 0l17 1081h47l2 -1081h-66z" />
    <glyph glyph-name="cent" unicode="&#xa2;" horiz-adv-x="1224" 
d="M641 0h-51v143q-138 11 -249.5 83.5t-175 190t-63.5 255.5q0 237 140.5 383t361.5 157v140h51v-140q155 -4 282.5 -85.5t182.5 -204.5l-47 -27q-59 125 -180 196.5t-258 71.5q-75 0 -146 -21.5t-132 -63.5t-107 -100t-72 -137t-26 -169q0 -136 69 -248t179 -173t233 -61
q141 0 263.5 77.5t182.5 203.5l43 -27q-55 -128 -190 -215t-291 -88v-141z" />
    <glyph glyph-name="sterling" unicode="&#xa3;" horiz-adv-x="1232" 
d="M954 0h-817v51q149 167 197.5 294t9.5 271h-242v48h211q-38 42 -73.5 127.5t-36.5 171.5q-3 180 120 295t343 114q208 -2 336 -126t128 -328h-49q-3 101 -38.5 180.5t-93.5 127.5t-129.5 72.5t-151.5 24.5q-194 0 -308 -99t-108 -263q3 -89 41 -171t80 -128l370 2v-48
h-350q16 -61 16.5 -121t-11.5 -108.5t-34.5 -98t-46.5 -86t-53.5 -74.5t-49.5 -62q-10 -11 -15 -17h755v-49z" />
    <glyph glyph-name="yen" unicode="&#xa5;" horiz-adv-x="1374" 
d="M1272 1352l-563 -760v-146h229v-49h-229v-73h229v-50h-229v-274h-50v274h-219v50h222v73h-222v49h222v148l-560 758h50l534 -715l535 715h51z" />
    <glyph glyph-name="section" unicode="&#xa7;" horiz-adv-x="1017" 
d="M526 -12q-85 2 -159.5 24.5t-133.5 63t-94 105.5t-37 147l50 -2q8 -134 103 -208t271 -81q133 -6 234 45.5t104 148.5q2 54 -11.5 92t-37.5 62.5t-72 40.5t-98.5 25t-134.5 18q-94 10 -160 26t-123 44.5t-86 75.5t-30 112q-3 98 88 182q-85 60 -88 172q-3 125 102 204
t276 79q192 0 300.5 -88.5t117.5 -251.5h-49q-14 135 -111 212.5t-258 78.5q-142 1 -236.5 -66t-92.5 -168q3 -182 356 -209q79 -6 130.5 -13.5t107 -25t87 -44t52 -71t20.5 -106.5q0 -51 -21.5 -97.5t-57.5 -74.5q84 -55 81 -209q-1 -118 -105 -183t-284 -60zM780 467
q84 57 84 145q0 36 -10.5 64.5t-26 48t-45 35.5t-54 25t-67.5 17t-72 12t-79 9q-159 16 -258 58q-95 -62 -92 -154q1 -100 85.5 -147t270.5 -62q183 -16 264 -51z" />
    <glyph glyph-name="copyright" unicode="&#xa9;" horiz-adv-x="1269" 
d="M635 287q-147 0 -269.5 70.5t-193 194t-70.5 271.5q0 153 70.5 279t193.5 198t271 72q152 0 274 -74t189 -199t67 -276q0 -110 -41.5 -209.5t-112 -171t-169.5 -113.5t-209 -42zM637 324q130 0 242.5 67.5t179 182.5t67.5 249q1 111 -39.5 208t-108 163t-156 103.5
t-183.5 37.5t-185 -37.5t-159.5 -103.5t-111.5 -163t-42 -208q1 -134 68.5 -249t181.5 -182.5t246 -67.5zM627 426q-167 0 -283.5 116t-116.5 283q0 179 112.5 292.5t287.5 113.5q123 0 220.5 -58t143.5 -159l-33 -21q-44 92 -134.5 147.5t-196.5 55.5q-95 0 -177.5 -43.5
t-135 -130t-52.5 -197.5q0 -102 52.5 -187t135.5 -131t175 -46q107 0 199.5 58t138.5 153l30 -17q-47 -106 -145.5 -167.5t-220.5 -61.5z" />
    <glyph glyph-name="ordfeminine" unicode="&#xaa;" horiz-adv-x="980" 
d="M487 600q-162 0 -273.5 110t-111.5 271q0 177 108.5 283t276.5 106q118 0 212.5 -59t142.5 -152v197h37v-742h-37v203q-43 -95 -140.5 -156t-214.5 -61zM487 635q90 0 171 43.5t132.5 124t51.5 178.5q0 107 -52 189.5t-132 123.5t-171 41q-69 0 -131 -22t-111.5 -64.5
t-78.5 -111.5t-29 -156q0 -148 105.5 -247t244.5 -99z" />
    <glyph glyph-name="guillemotleft" unicode="&#xab;" horiz-adv-x="942" 
d="M156 541l401 -371l-65 2l-404 369l428 368h62zM418 530l401 -370l-65 2l-404 368l428 369h62z" />
    <glyph glyph-name="registered" unicode="&#xae;" horiz-adv-x="1056" 
d="M528 498q-180 0 -303 124t-123 304q0 186 123 312t305 126t303 -125.5t121 -312.5q0 -180 -123.5 -304t-302.5 -124zM530 518q169 0 285.5 119.5t116.5 288.5q0 125 -57 221.5t-147 146t-196 49.5t-198 -48.5t-150.5 -145.5t-58.5 -223q0 -176 119 -292t286 -116z
M375 602h-17v645h213q60 0 102.5 -16.5t63 -45t29 -57t8.5 -61.5q0 -70 -44 -119t-142 -49h-74l201 -297h-19l-204 297h-117v-297zM375 1229v-314h196q91 0 139 39t48 113q0 29 -9.5 56t-30 51.5t-58.5 39.5t-89 15h-196z" />
    <glyph glyph-name="degree" unicode="&#xb0;" horiz-adv-x="532" 
d="M266 1032q-80 0 -122 52.5t-42 119.5t43 118.5t123 51.5q78 0 120 -51.5t42 -118.5q0 -68 -41 -120t-123 -52zM266 1081q49 0 81 35t32 86q0 56 -30.5 89.5t-80.5 33.5q-53 0 -84.5 -33t-31.5 -90q0 -53 32.5 -87t81.5 -34z" />
    <glyph glyph-name="plusminus" unicode="&#xb1;" horiz-adv-x="843" 
d="M442 424h-49v283h-291v49h291v282h49v-282h299v-49h-299v-283zM711 115h-543v49h543v-49z" />
    <glyph glyph-name="uni00B2" unicode="&#xb2;" horiz-adv-x="823" 
d="M721 459h-592v35l215 196q31 29 90 81t84.5 75.5t64 63t55 64.5t31 58t15.5 64q5 110 -71.5 177.5t-206.5 67.5q-97 0 -172 -51t-97 -151h-35q20 109 102 171t204 64q147 0 229.5 -77.5t79.5 -198.5q-1 -27 -8.5 -53.5t-17.5 -48t-32.5 -50.5t-38.5 -47.5t-51.5 -52.5
t-56.5 -53t-68.5 -60.5t-72.5 -64.5l-197 -176h547v-33z" />
    <glyph glyph-name="uni00B3" unicode="&#xb3;" horiz-adv-x="811" 
d="M410 455q-127 0 -209.5 64t-85.5 190h30q1 -60 23.5 -104.5t61 -69t83.5 -36.5t97 -12q122 0 194 59.5t72 158.5q0 49 -17 85t-44 57t-67.5 33.5t-80.5 16.5t-90 4h-94v33h86q297 0 297 207q0 99 -72 155t-197 56q-52 0 -95.5 -10t-82.5 -33.5t-61 -67.5t-23 -106h-33
q3 127 85.5 188t209.5 61q137 0 218 -65.5t81 -177.5q0 -83 -47 -141.5t-125 -77.5q79 -12 132 -72t53 -145q0 -113 -82 -181.5t-217 -68.5z" />
    <glyph glyph-name="periodcentered" unicode="&#xb7;" horiz-adv-x="331" 
d="M166 492q-26 0 -45 18.5t-19 44.5q0 25 19 43t45 18q25 0 44 -18t19 -43q0 -26 -19 -44.5t-44 -18.5z" />
    <glyph glyph-name="uni00B9" unicode="&#xb9;" horiz-adv-x="327" 
d="M225 530h-30v775h-93v28q89 0 91 43h30z" />
    <glyph glyph-name="ordmasculine" unicode="&#xba;" horiz-adv-x="806" 
d="M401 778q-125 0 -212 87t-87 210q0 136 84.5 218.5t214.5 82.5q131 0 217.5 -82.5t86.5 -218.5q0 -123 -88.5 -210t-215.5 -87zM399 807q111 0 194 75t83 193q0 124 -80.5 199.5t-194.5 75.5q-112 0 -192 -73.5t-80 -201.5q0 -114 82 -191t188 -77z" />
    <glyph glyph-name="guillemotright" unicode="&#xbb;" horiz-adv-x="970" 
d="M465 154l-66 -2l402 370l-422 369h61l428 -369zM203 143l-66 -2l402 371l-422 369h61l428 -369z" />
    <glyph glyph-name="questiondown" unicode="&#xbf;" horiz-adv-x="1126" 
d="M860 1352q26 0 45 -19t19 -45q0 -25 -19 -43t-45 -18q-24 0 -42.5 18.5t-18.5 42.5q0 26 18.5 45t42.5 19zM844 1124h47v-82q0 -62 -25 -108.5t-67 -75.5t-97 -51t-115.5 -39.5t-121.5 -36t-116.5 -45.5t-98.5 -62.5t-69 -93t-27 -131.5q-3 -163 106.5 -266.5
t308.5 -103.5q106 0 196 35t148.5 106t59.5 166h51q1 -152 -129 -253t-328 -103q-220 -1 -343.5 116t-121.5 301q1 80 26.5 143t68.5 103.5t99 71t117.5 50.5t122.5 38t116.5 38t98.5 45t68 64.5t25 91.5v82z" />
    <glyph glyph-name="Agrave" unicode="&#xc0;" horiz-adv-x="1458" 
d="M655 1683l84 -206h-51l-84 206h51zM156 0h-54l598 1352h52l604 -1352h-53l-226 506l-696 2zM727 1292l-326 -739h656z" />
    <glyph glyph-name="Aacute" unicode="&#xc1;" horiz-adv-x="1458" 
d="M696 1477l84 206h51l-83 -206h-52zM156 0h-54l598 1352h52l604 -1352h-53l-226 506l-696 2zM727 1292l-326 -739h656z" />
    <glyph glyph-name="Acircumflex" unicode="&#xc2;" horiz-adv-x="1458" 
d="M854 1464l-123 148l-123 -148h-61l186 217l178 -217h-57zM156 0h-54l598 1352h52l604 -1352h-53l-226 506l-696 2zM727 1292l-326 -739h656z" />
    <glyph glyph-name="Atilde" unicode="&#xc3;" horiz-adv-x="1458" 
d="M537 1448h-50q24 133 136 133q30 0 105 -39t112 -39q26 0 44.5 20.5t26.5 57.5h52q-11 -66 -40 -96.5t-81 -30.5q-35 0 -111.5 38.5t-103.5 41.5q-34 5 -58.5 -18.5t-31.5 -67.5zM156 0h-54l598 1352h52l604 -1352h-53l-226 506l-696 2zM727 1292l-326 -739h656z" />
    <glyph glyph-name="Adieresis" unicode="&#xc4;" horiz-adv-x="1458" 
d="M635 1468q-24 0 -39.5 16t-15.5 40q0 22 16 39.5t39 17.5q25 0 40 -16t15 -41q0 -22 -17 -39t-38 -17zM784 1468q-23 0 -40 17.5t-17 40.5q0 20 17.5 37.5t39.5 17.5q24 0 40 -15.5t16 -39.5q0 -23 -17 -40.5t-39 -17.5zM156 0h-54l598 1352h52l604 -1352h-53l-226 506
l-696 2zM727 1292l-326 -739h656z" />
    <glyph glyph-name="Aring" unicode="&#xc5;" horiz-adv-x="1458" 
d="M725 1477q-59 0 -98 39.5t-39 97.5q0 57 39.5 96t97.5 39q61 0 101 -38t40 -97q0 -61 -39 -99t-102 -38zM725 1522q41 0 67.5 25.5t26.5 64.5q0 41 -26.5 66.5t-67.5 25.5q-38 0 -64 -26t-26 -66q0 -35 27.5 -62.5t62.5 -27.5zM156 0h-54l598 1352h52l604 -1352h-53
l-226 506l-696 2zM727 1292l-326 -739h656z" />
    <glyph glyph-name="AE" unicode="&#xc6;" horiz-adv-x="2211" 
d="M2109 1343v-49h-796v-598h733v-49h-733v-598h792v-49h-852l-215 506l-667 2l-217 -508h-52l574 1352h49l537 -1252v1243h847zM702 1292l-313 -739h629z" />
    <glyph glyph-name="Ccedilla" unicode="&#xc7;" horiz-adv-x="1449" 
d="M1307 326l41 -33q-90 -146 -238 -228t-322 -85l-90 -95q121 -29 174.5 -72.5t53.5 -111.5q-3 -92 -84.5 -139t-218.5 -35v49q122 -8 186.5 24.5t64.5 102.5q0 34 -15 59t-48 42.5t-67 28.5t-91 24v51l76 74q-133 9 -249 65t-199 147t-131 216t-48 266q0 190 87 349
t243.5 253t347.5 94q179 0 324 -79t239 -228l-40 -31q-87 137 -225 213t-296 76q-120 0 -234 -47.5t-201.5 -130.5t-140.5 -206t-52 -263q1 -136 52.5 -257.5t137 -206.5t199 -134t235.5 -49q159 0 300.5 79t228.5 218z" />
    <glyph glyph-name="Egrave" unicode="&#xc8;" horiz-adv-x="1052" 
d="M449 1489l-84 207h51l84 -207h-51zM946 8h-844v1344h848v-49h-796v-598h733v-50h-733v-598h792v-49z" />
    <glyph glyph-name="Eacute" unicode="&#xc9;" horiz-adv-x="1052" 
d="M592 1696l-84 -207h-51l84 207h51zM946 8h-844v1344h848v-49h-796v-598h733v-50h-733v-598h792v-49z" />
    <glyph glyph-name="Ecircumflex" unicode="&#xca;" horiz-adv-x="1052" 
d="M307 1477l187 217l178 -217h-58l-122 147l-123 -147h-62zM946 8h-844v1344h848v-49h-796v-598h733v-50h-733v-598h792v-49z" />
    <glyph glyph-name="Edieresis" unicode="&#xcb;" horiz-adv-x="1052" 
d="M395 1481q-24 0 -39.5 15.5t-15.5 39.5q0 22 16 39.5t39 17.5q25 0 40.5 -16t15.5 -41q0 -21 -17.5 -38t-38.5 -17zM545 1481q-23 0 -40.5 17t-17.5 40q0 20 18 37.5t40 17.5q24 0 39.5 -15.5t15.5 -39.5q0 -23 -16.5 -40t-38.5 -17zM946 8h-844v1344h848v-49h-796v-598
h733v-50h-733v-598h792v-49z" />
    <glyph glyph-name="Igrave" unicode="&#xcc;" horiz-adv-x="339" 
d="M145 1659l84 -207h-51l-84 207h51zM238 0h-50v1352h50v-1352z" />
    <glyph glyph-name="Iacute" unicode="&#xcd;" horiz-adv-x="342" 
d="M104 1452l84 207h52l-84 -207h-52zM156 0h-50v1352h50v-1352z" />
    <glyph glyph-name="Icircumflex" unicode="&#xce;" horiz-adv-x="561" 
d="M156 1440h-62l187 217l178 -217h-58l-122 147zM295 0h-49v1352h49v-1352z" />
    <glyph glyph-name="Idieresis" unicode="&#xcf;" horiz-adv-x="456" 
d="M150 1444q-24 0 -40 16t-16 39q0 22 16.5 39.5t39.5 17.5q25 0 40 -16t15 -41q0 -21 -17 -38t-38 -17zM299 1444q-23 0 -40 17t-17 40q0 20 17.5 37.5t39.5 17.5q24 0 39.5 -15.5t15.5 -39.5q0 -23 -16.5 -40t-38.5 -17zM262 0h-49v1352h49v-1352z" />
    <glyph glyph-name="Ntilde" unicode="&#xd1;" horiz-adv-x="1206" 
d="M367 1415h-50q24 133 136 133q30 0 105 -39t112 -39q26 0 44.5 20.5t26.5 57.5h52q-11 -66 -40 -96.5t-81 -30.5q-35 0 -111.5 38.5t-103.5 41.5q-34 5 -58.5 -18.5t-31.5 -67.5zM152 0h-50v1352h68l883 -1278v1278h51v-1352h-66l-886 1288v-1288z" />
    <glyph glyph-name="Ograve" unicode="&#xd2;" horiz-adv-x="1572" 
d="M748 1477l-84 206h51l84 -206h-51zM786 -20q-141 0 -268 53t-218 144.5t-144.5 218.5t-53.5 270q0 144 52.5 274t143 225t219 151t274.5 56t273.5 -56t216 -151t139 -224.5t50.5 -274.5q0 -142 -53.5 -269t-144.5 -218.5t-218 -145t-268 -53.5zM788 31q123 0 238 49.5
t200.5 133.5t137.5 202.5t53 249.5q1 114 -32.5 217.5t-92.5 182.5t-137.5 137t-171.5 88t-190 30q-122 0 -237.5 -48t-204 -132t-142.5 -208.5t-53 -266.5q1 -131 53.5 -249.5t138.5 -202.5t201.5 -133.5t238.5 -49.5z" />
    <glyph glyph-name="Oacute" unicode="&#xd3;" horiz-adv-x="1572" 
d="M891 1683l-84 -206h-51l84 206h51zM786 -20q-141 0 -268 53t-218 144.5t-144.5 218.5t-53.5 270q0 144 52.5 274t143 225t219 151t274.5 56t273.5 -56t216 -151t139 -224.5t50.5 -274.5q0 -142 -53.5 -269t-144.5 -218.5t-218 -145t-268 -53.5zM788 31q123 0 238 49.5
t200.5 133.5t137.5 202.5t53 249.5q1 114 -32.5 217.5t-92.5 182.5t-137.5 137t-171.5 88t-190 30q-122 0 -237.5 -48t-204 -132t-142.5 -208.5t-53 -266.5q1 -131 53.5 -249.5t138.5 -202.5t201.5 -133.5t238.5 -49.5z" />
    <glyph glyph-name="Ocircumflex" unicode="&#xd4;" horiz-adv-x="1572" 
d="M791 1612l-123 -148h-62l187 217l178 -217h-58zM786 -20q-141 0 -268 53t-218 144.5t-144.5 218.5t-53.5 270q0 144 52.5 274t143 225t219 151t274.5 56t273.5 -56t216 -151t139 -224.5t50.5 -274.5q0 -142 -53.5 -269t-144.5 -218.5t-218 -145t-268 -53.5zM788 31
q123 0 238 49.5t200.5 133.5t137.5 202.5t53 249.5q1 114 -32.5 217.5t-92.5 182.5t-137.5 137t-171.5 88t-190 30q-122 0 -237.5 -48t-204 -132t-142.5 -208.5t-53 -266.5q1 -131 53.5 -249.5t138.5 -202.5t201.5 -133.5t238.5 -49.5z" />
    <glyph glyph-name="Otilde" unicode="&#xd5;" horiz-adv-x="1572" 
d="M596 1448h-49q24 133 135 133q30 0 105 -39t112 -39q26 0 45.5 20.5t26.5 57.5h51q-11 -66 -40 -96.5t-81 -30.5q-35 0 -111.5 38.5t-103.5 41.5q-34 5 -58.5 -18.5t-31.5 -67.5zM786 -20q-141 0 -268 53t-218 144.5t-144.5 218.5t-53.5 270q0 144 52.5 274t143 225
t219 151t274.5 56t273.5 -56t216 -151t139 -224.5t50.5 -274.5q0 -142 -53.5 -269t-144.5 -218.5t-218 -145t-268 -53.5zM788 31q123 0 238 49.5t200.5 133.5t137.5 202.5t53 249.5q1 114 -32.5 217.5t-92.5 182.5t-137.5 137t-171.5 88t-190 30q-122 0 -237.5 -48
t-204 -132t-142.5 -208.5t-53 -266.5q1 -131 53.5 -249.5t138.5 -202.5t201.5 -133.5t238.5 -49.5z" />
    <glyph glyph-name="Odieresis" unicode="&#xd6;" horiz-adv-x="1572" 
d="M694 1468q-24 0 -39.5 16t-15.5 40q0 22 16 39.5t39 17.5q25 0 40.5 -16t15.5 -41q0 -21 -17.5 -38.5t-38.5 -17.5zM844 1468q-23 0 -40.5 17.5t-17.5 40.5q0 20 18 37.5t40 17.5q24 0 39.5 -15.5t15.5 -39.5q0 -23 -16.5 -40.5t-38.5 -17.5zM786 -20q-141 0 -268 53
t-218 144.5t-144.5 218.5t-53.5 270q0 144 52.5 274t143 225t219 151t274.5 56t273.5 -56t216 -151t139 -224.5t50.5 -274.5q0 -142 -53.5 -269t-144.5 -218.5t-218 -145t-268 -53.5zM788 31q123 0 238 49.5t200.5 133.5t137.5 202.5t53 249.5q1 114 -32.5 217.5
t-92.5 182.5t-137.5 137t-171.5 88t-190 30q-122 0 -237.5 -48t-204 -132t-142.5 -208.5t-53 -266.5q1 -131 53.5 -249.5t138.5 -202.5t201.5 -133.5t238.5 -49.5z" />
    <glyph glyph-name="multiply" unicode="&#xd7;" horiz-adv-x="692" 
d="M143 416l-34 35l198 200l-205 205l35 35l205 -205l201 199l35 -35l-201 -199l213 -211l-35 -34l-213 210z" />
    <glyph glyph-name="Oslash" unicode="&#xd8;" horiz-adv-x="1572" 
d="M1094 1475l-52 -150q195 -75 311.5 -254t116.5 -405q0 -142 -53.5 -269t-144.5 -218.5t-218 -145t-268 -53.5q-102 0 -200 28l-60 -170h-49l64 185q-196 73 -317.5 247.5t-121.5 395.5q0 144 52.5 274t143 225t219 151t274.5 56q108 0 206 -31l47 134h50zM156 666
q1 -199 114 -359t289 -231l422 1214q-95 31 -188 31q-122 0 -237.5 -48t-204 -132t-142.5 -208.5t-53 -266.5zM788 31q123 0 238 49.5t200.5 133.5t137.5 202.5t53 249.5q1 214 -109 376t-284 234l-420 -1217q89 -28 184 -28z" />
    <glyph glyph-name="Ugrave" unicode="&#xd9;" horiz-adv-x="1212" 
d="M541 1724l84 -206h-52l-84 206h52zM606 -20q-230 0 -367 141.5t-137 378.5v852h50v-852q0 -100 30 -186t87 -149.5t144 -99.5t195 -36q213 0 333 132t120 339v852h49v-852q0 -237 -137 -378.5t-367 -141.5z" />
    <glyph glyph-name="Uacute" unicode="&#xda;" horiz-adv-x="1212" 
d="M582 1518l84 206h51l-84 -206h-51zM606 -20q-230 0 -367 141.5t-137 378.5v852h50v-852q0 -100 30 -186t87 -149.5t144 -99.5t195 -36q213 0 333 132t120 339v852h49v-852q0 -237 -137 -378.5t-367 -141.5z" />
    <glyph glyph-name="Ucircumflex" unicode="&#xdb;" horiz-adv-x="1212" 
d="M739 1505l-123 148l-122 -148h-62l186 217l179 -217h-58zM606 -20q-230 0 -367 141.5t-137 378.5v852h50v-852q0 -100 30 -186t87 -149.5t144 -99.5t195 -36q213 0 333 132t120 339v852h49v-852q0 -237 -137 -378.5t-367 -141.5z" />
    <glyph glyph-name="Udieresis" unicode="&#xdc;" horiz-adv-x="1212" 
d="M520 1509q-24 0 -39.5 16t-15.5 40q0 22 16 39.5t39 17.5q25 0 40 -16t15 -41q0 -21 -17.5 -38.5t-37.5 -17.5zM670 1509q-23 0 -40.5 17.5t-17.5 40.5q0 20 18 37.5t40 17.5q24 0 39.5 -15.5t15.5 -39.5q0 -23 -16.5 -40.5t-38.5 -17.5zM606 -20q-230 0 -367 141.5
t-137 378.5v852h50v-852q0 -100 30 -186t87 -149.5t144 -99.5t195 -36q213 0 333 132t120 339v852h49v-852q0 -237 -137 -378.5t-367 -141.5z" />
    <glyph glyph-name="Yacute" unicode="&#xdd;" horiz-adv-x="1374" 
d="M735 1661h51l-84 -207h-51zM709 0h-50l3 594l-560 758h50l534 -715l535 715h51l-563 -760v-592z" />
    <glyph glyph-name="germandbls" unicode="&#xdf;" horiz-adv-x="1144" 
d="M152 0h-50v965q0 84 25 154t79.5 128t151.5 91t230 34q133 0 232 -38t156.5 -119.5t53.5 -198.5q-3 -116 -96.5 -195.5t-276.5 -111.5q72 -6 136.5 -28.5t122 -63t92 -109t34.5 -156.5q0 -171 -120.5 -260.5t-350.5 -91.5v49q207 0 313.5 77t106.5 226q0 291 -420 318v80
q190 15 298.5 88t111.5 184q4 136 -102.5 218.5t-288.5 82.5q-213 0 -325.5 -94t-112.5 -275v-954z" />
    <glyph glyph-name="agrave" unicode="&#xe0;" 
d="M788 1137h-51l-84 206h52zM643 -20q-112 0 -212 41.5t-172.5 112.5t-114.5 170t-42 210q0 247 153 396t388 149q163 0 296 -83t200 -214v276h51v-1038h-51v285q-61 -134 -197.5 -219.5t-298.5 -85.5zM641 29q95 0 185 36t159.5 99t111.5 154.5t42 195.5q0 113 -42 208
t-112 157t-159 96.5t-183 34.5q-97 0 -184 -31t-156.5 -91t-110 -156.5t-40.5 -217.5q0 -138 70.5 -251t182 -173.5t236.5 -60.5z" />
    <glyph glyph-name="aacute" unicode="&#xe1;" 
d="M797 1137h-52l84 206h52zM643 -20q-112 0 -212 41.5t-172.5 112.5t-114.5 170t-42 210q0 247 153 396t388 149q163 0 296 -83t200 -214v276h51v-1038h-51v285q-61 -134 -197.5 -219.5t-298.5 -85.5zM641 29q95 0 185 36t159.5 99t111.5 154.5t42 195.5q0 113 -42 208
t-112 157t-159 96.5t-183 34.5q-97 0 -184 -31t-156.5 -91t-110 -156.5t-40.5 -217.5q0 -138 70.5 -251t182 -173.5t236.5 -60.5z" />
    <glyph glyph-name="acircumflex" unicode="&#xe2;" 
d="M961 1124h-58l-123 148l-123 -148h-61l186 217zM643 -20q-112 0 -212 41.5t-172.5 112.5t-114.5 170t-42 210q0 247 153 396t388 149q163 0 296 -83t200 -214v276h51v-1038h-51v285q-61 -134 -197.5 -219.5t-298.5 -85.5zM641 29q95 0 185 36t159.5 99t111.5 154.5
t42 195.5q0 113 -42 208t-112 157t-159 96.5t-183 34.5q-97 0 -184 -31t-156.5 -91t-110 -156.5t-40.5 -217.5q0 -138 70.5 -251t182 -173.5t236.5 -60.5z" />
    <glyph glyph-name="atilde" unicode="&#xe3;" 
d="M618 1108h-40q21 111 110 111q26 0 87 -33t91 -33q22 0 38 17.5t22 48.5h41q-7 -55 -31.5 -80t-67.5 -25q-28 0 -91 31.5t-85 34.5q-28 3 -48 -16.5t-26 -55.5zM643 -20q-112 0 -212 41.5t-172.5 112.5t-114.5 170t-42 210q0 247 153 396t388 149q163 0 296 -83t200 -214
v276h51v-1038h-51v285q-61 -134 -197.5 -219.5t-298.5 -85.5zM641 29q95 0 185 36t159.5 99t111.5 154.5t42 195.5q0 113 -42 208t-112 157t-159 96.5t-183 34.5q-97 0 -184 -31t-156.5 -91t-110 -156.5t-40.5 -217.5q0 -138 70.5 -251t182 -173.5t236.5 -60.5z" />
    <glyph glyph-name="adieresis" unicode="&#xe4;" 
d="M684 1128q-24 0 -39.5 16t-15.5 40q0 22 16 39.5t39 17.5q25 0 40 -16t15 -41q0 -22 -17.5 -39t-37.5 -17zM834 1128q-23 0 -40.5 17.5t-17.5 40.5q0 20 18 37.5t40 17.5q24 0 39.5 -15.5t15.5 -39.5q0 -23 -16.5 -40.5t-38.5 -17.5zM643 -20q-112 0 -212 41.5
t-172.5 112.5t-114.5 170t-42 210q0 247 153 396t388 149q163 0 296 -83t200 -214v276h51v-1038h-51v285q-61 -134 -197.5 -219.5t-298.5 -85.5zM641 29q95 0 185 36t159.5 99t111.5 154.5t42 195.5q0 113 -42 208t-112 157t-159 96.5t-183 34.5q-97 0 -184 -31t-156.5 -91
t-110 -156.5t-40.5 -217.5q0 -138 70.5 -251t182 -173.5t236.5 -60.5z" />
    <glyph glyph-name="aring" unicode="&#xe5;" 
d="M774 1137q-58 0 -97.5 39.5t-39.5 97.5q0 57 39.5 96t97.5 39q61 0 101 -38t40 -97q0 -61 -39 -99t-102 -38zM774 1182q41 0 67.5 25.5t26.5 64.5q0 41 -26.5 66.5t-67.5 25.5q-38 0 -64 -26t-26 -66q0 -35 27.5 -62.5t62.5 -27.5zM643 -20q-112 0 -212 41.5
t-172.5 112.5t-114.5 170t-42 210q0 247 153 396t388 149q163 0 296 -83t200 -214v276h51v-1038h-51v285q-61 -134 -197.5 -219.5t-298.5 -85.5zM641 29q95 0 185 36t159.5 99t111.5 154.5t42 195.5q0 113 -42 208t-112 157t-159 96.5t-183 34.5q-97 0 -184 -31t-156.5 -91
t-110 -156.5t-40.5 -217.5q0 -138 70.5 -251t182 -173.5t236.5 -60.5z" />
    <glyph glyph-name="ae" unicode="&#xe6;" horiz-adv-x="2299" 
d="M2198 526v-34l-1010 -3q4 -99 48 -186.5t111 -147t150 -94t166 -34.5q126 0 242.5 63t179.5 180l47 -24q-68 -128 -193 -198.5t-274 -70.5q-156 0 -286.5 87t-194.5 229v-293h-51v276q-59 -130 -195.5 -213t-298.5 -83q-148 0 -271.5 68.5t-194.5 187.5t-71 262
q0 159 71 280.5t192 184.5t274 63q164 0 296.5 -81t197.5 -208v269h51v-254q62 143 191.5 224t289.5 81q103 0 195 -34.5t165 -99t119.5 -167.5t53.5 -230zM1188 539l958 2q-9 141 -81 249.5t-177 163t-223 54.5q-184 0 -324.5 -128.5t-152.5 -340.5zM637 29q95 0 184.5 35
t158.5 96t111 149.5t42 188.5q0 110 -42 202.5t-111.5 152.5t-158 93t-182.5 33q-96 0 -182.5 -30.5t-155 -88t-109 -151.5t-40.5 -211q0 -100 41 -188.5t108.5 -149.5t155.5 -96t180 -35z" />
    <glyph glyph-name="ccedilla" unicode="&#xe7;" horiz-adv-x="1241" 
d="M643 -20h-27l-98 -103q121 -29 174 -72.5t53 -111.5q-3 -92 -84.5 -139t-218.5 -35v49q122 -8 187 24.5t65 102.5q0 64 -52.5 95t-168.5 58v52l90 86q-200 28 -330.5 176t-130.5 352q0 247 153 396t388 149q165 0 299.5 -81.5t192.5 -209.5l-45 -27q-62 125 -184.5 197
t-262.5 72q-129 0 -239.5 -58t-181 -173t-70.5 -265q0 -138 70.5 -251t182 -173.5t236.5 -60.5q144 0 268 76.5t187 203.5l43 -26q-66 -133 -201 -218t-295 -85z" />
    <glyph glyph-name="egrave" unicode="&#xe8;" horiz-adv-x="1265" 
d="M508 1343h51l84 -206h-51zM631 -20q-142 0 -263.5 71t-193.5 194.5t-72 270.5q0 162 72.5 287.5t192.5 190.5t264 65q103 0 194.5 -34.5t165 -99t119.5 -167.5t53 -230v-34l-1009 -2q6 -131 78.5 -239t179 -166t217.5 -58q126 0 242.5 63t179.5 180l47 -24
q-68 -128 -193 -198t-274 -70zM154 541l958 2q-9 141 -81 249.5t-177 163t-223 54.5q-184 0 -324.5 -128.5t-152.5 -340.5z" />
    <glyph glyph-name="eacute" unicode="&#xe9;" horiz-adv-x="1265" 
d="M684 1343h51l-84 -206h-51zM631 -20q-142 0 -263.5 71t-193.5 194.5t-72 270.5q0 162 72.5 287.5t192.5 190.5t264 65q103 0 194.5 -34.5t165 -99t119.5 -167.5t53 -230v-34l-1009 -2q6 -131 78.5 -239t179 -166t217.5 -58q126 0 242.5 63t179.5 180l47 -24
q-68 -128 -193 -198t-274 -70zM154 541l958 2q-9 141 -81 249.5t-177 163t-223 54.5q-184 0 -324.5 -128.5t-152.5 -340.5z" />
    <glyph glyph-name="ecircumflex" unicode="&#xea;" horiz-adv-x="1265" 
d="M637 1341l178 -217h-57l-123 148l-123 -148h-61zM631 -20q-142 0 -263.5 71t-193.5 194.5t-72 270.5q0 162 72.5 287.5t192.5 190.5t264 65q103 0 194.5 -34.5t165 -99t119.5 -167.5t53 -230v-34l-1009 -2q6 -131 78.5 -239t179 -166t217.5 -58q126 0 242.5 63t179.5 180
l47 -24q-68 -128 -193 -198t-274 -70zM154 541l958 2q-9 141 -81 249.5t-177 163t-223 54.5q-184 0 -324.5 -128.5t-152.5 -340.5z" />
    <glyph glyph-name="edieresis" unicode="&#xeb;" horiz-adv-x="1265" 
d="M539 1128q-24 0 -40 16t-16 40q0 22 16.5 39.5t39.5 17.5q25 0 40 -16t15 -41q0 -22 -17 -39t-38 -17zM688 1128q-23 0 -40 17.5t-17 40.5q0 20 17.5 37.5t39.5 17.5q24 0 39.5 -15.5t15.5 -39.5q0 -23 -16.5 -40.5t-38.5 -17.5zM631 -20q-142 0 -263.5 71t-193.5 194.5
t-72 270.5q0 162 72.5 287.5t192.5 190.5t264 65q103 0 194.5 -34.5t165 -99t119.5 -167.5t53 -230v-34l-1009 -2q6 -131 78.5 -239t179 -166t217.5 -58q126 0 242.5 63t179.5 180l47 -24q-68 -128 -193 -198t-274 -70zM154 541l958 2q-9 141 -81 249.5t-177 163t-223 54.5
q-184 0 -324.5 -128.5t-152.5 -340.5z" />
    <glyph glyph-name="igrave" unicode="&#xec;" horiz-adv-x="346" 
d="M229 1149h-51l-84 207h51zM244 0h-51v1038h51v-1038z" />
    <glyph glyph-name="iacute" unicode="&#xed;" horiz-adv-x="342" 
d="M156 1149h-52l84 207h52zM162 0h-51v1038h51v-1038z" />
    <glyph glyph-name="icircumflex" unicode="&#xee;" horiz-adv-x="561" 
d="M94 1137l187 217l178 -217h-58l-122 147l-123 -147h-62zM301 0h-51v1038h51v-1038z" />
    <glyph glyph-name="idieresis" unicode="&#xef;" horiz-adv-x="456" 
d="M150 1141q-24 0 -40 15.5t-16 39.5q0 22 16.5 39.5t39.5 17.5q25 0 40 -16t15 -41q0 -21 -17 -38t-38 -17zM299 1141q-23 0 -40 17t-17 40q0 20 17.5 37.5t39.5 17.5q24 0 39.5 -15.5t15.5 -39.5q0 -23 -16.5 -40t-38.5 -17zM268 0h-51v1038h51v-1038z" />
    <glyph glyph-name="ntilde" unicode="&#xf1;" 
d="M311 1147h-49q24 133 135 133q30 0 105 -39t112 -39q26 0 45.5 20.5t26.5 57.5h51q-11 -66 -40 -96.5t-81 -30.5q-35 0 -111.5 38.5t-103.5 41.5q-34 5 -58.5 -18.5t-31.5 -67.5zM154 0h-52v1038h52v-276q67 131 199.5 214t295.5 83q235 0 388 -149t153 -396v-514h-51
l2 514q1 121 -40 217.5t-110.5 156.5t-157 91t-184.5 31q-95 0 -183 -33.5t-158 -95t-112 -157t-42 -210.5v-514z" />
    <glyph glyph-name="ograve" unicode="&#xf2;" 
d="M508 1335h51l84 -207h-51zM643 -20q-149 0 -273.5 71t-196 194t-71.5 269q0 245 153.5 395t387.5 150q237 0 392 -150t155 -395q0 -110 -42.5 -208.5t-115.5 -170t-174.5 -113.5t-214.5 -42zM641 29q95 0 185 34.5t159.5 96t111.5 154t42 200.5q0 149 -69 263.5
t-181 173.5t-246 59q-96 0 -184 -33t-156.5 -94t-109.5 -156.5t-41 -212.5q0 -102 41.5 -193.5t109.5 -154.5t156.5 -100t181.5 -37z" />
    <glyph glyph-name="oacute" unicode="&#xf3;" 
d="M684 1335h51l-84 -207h-51zM643 -20q-149 0 -273.5 71t-196 194t-71.5 269q0 245 153.5 395t387.5 150q237 0 392 -150t155 -395q0 -110 -42.5 -208.5t-115.5 -170t-174.5 -113.5t-214.5 -42zM641 29q95 0 185 34.5t159.5 96t111.5 154t42 200.5q0 149 -69 263.5
t-181 173.5t-246 59q-96 0 -184 -33t-156.5 -94t-109.5 -156.5t-41 -212.5q0 -102 41.5 -193.5t109.5 -154.5t156.5 -100t181.5 -37z" />
    <glyph glyph-name="ocircumflex" unicode="&#xf4;" 
d="M512 1116h-61l186 217l178 -217h-57l-123 148zM643 -20q-149 0 -273.5 71t-196 194t-71.5 269q0 245 153.5 395t387.5 150q237 0 392 -150t155 -395q0 -110 -42.5 -208.5t-115.5 -170t-174.5 -113.5t-214.5 -42zM641 29q95 0 185 34.5t159.5 96t111.5 154t42 200.5
q0 149 -69 263.5t-181 173.5t-246 59q-96 0 -184 -33t-156.5 -94t-109.5 -156.5t-41 -212.5q0 -102 41.5 -193.5t109.5 -154.5t156.5 -100t181.5 -37z" />
    <glyph glyph-name="otilde" unicode="&#xf5;" 
d="M440 1100h-49q24 133 135 133q30 0 105 -39t112 -39q26 0 45.5 20.5t26.5 57.5h51q-11 -66 -40 -96.5t-81 -30.5q-35 0 -111.5 38.5t-103.5 41.5q-34 5 -58.5 -18.5t-31.5 -67.5zM643 -20q-149 0 -273.5 71t-196 194t-71.5 269q0 245 153.5 395t387.5 150q237 0 392 -150
t155 -395q0 -110 -42.5 -208.5t-115.5 -170t-174.5 -113.5t-214.5 -42zM641 29q95 0 185 34.5t159.5 96t111.5 154t42 200.5q0 149 -69 263.5t-181 173.5t-246 59q-96 0 -184 -33t-156.5 -94t-109.5 -156.5t-41 -212.5q0 -102 41.5 -193.5t109.5 -154.5t156.5 -100
t181.5 -37z" />
    <glyph glyph-name="odieresis" unicode="&#xf6;" 
d="M539 1120q-24 0 -40 16t-16 40q0 22 16.5 39.5t39.5 17.5q25 0 40 -16t15 -41q0 -22 -17 -39t-38 -17zM688 1120q-23 0 -40 17.5t-17 40.5q0 20 17.5 37.5t39.5 17.5q24 0 39.5 -15.5t15.5 -39.5q0 -23 -16.5 -40.5t-38.5 -17.5zM643 -20q-149 0 -273.5 71t-196 194
t-71.5 269q0 245 153.5 395t387.5 150q237 0 392 -150t155 -395q0 -110 -42.5 -208.5t-115.5 -170t-174.5 -113.5t-214.5 -42zM641 29q95 0 185 34.5t159.5 96t111.5 154t42 200.5q0 149 -69 263.5t-181 173.5t-246 59q-96 0 -184 -33t-156.5 -94t-109.5 -156.5t-41 -212.5
q0 -102 41.5 -193.5t109.5 -154.5t156.5 -100t181.5 -37z" />
    <glyph glyph-name="divide" unicode="&#xf7;" horiz-adv-x="747" 
d="M371 676q-26 0 -45 18.5t-19 44.5q0 25 19 43.5t45 18.5q25 0 43 -18.5t18 -43.5q0 -26 -18 -44.5t-43 -18.5zM645 475h-543v49h543v-49zM367 205q-26 0 -45 18.5t-19 44.5q0 25 19 43.5t45 18.5q25 0 43 -18.5t18 -43.5q0 -26 -18 -44.5t-43 -18.5z" />
    <glyph glyph-name="oslash" unicode="&#xf8;" 
d="M915 1171l-67 -147q157 -55 249.5 -189t92.5 -321q0 -110 -42.5 -208.5t-115.5 -170t-174.5 -113.5t-214.5 -42q-90 0 -176 28l-70 -147h-51l78 164q-145 62 -233.5 194.5t-88.5 294.5q0 245 153.5 395t387.5 150q85 0 162 -21l61 133h49zM641 29q95 0 185 34.5t159.5 96
t111.5 154t42 200.5q0 149 -69 263.5t-181 173.5t-246 59q-96 0 -184 -33t-156.5 -94t-109.5 -156.5t-41 -212.5q0 -102 41.5 -193.5t109.5 -154.5t156.5 -100t181.5 -37z" />
    <glyph glyph-name="ugrave" unicode="&#xf9;" horiz-adv-x="1110" 
d="M588 1135h-51l-84 206h51zM551 -20q-212 0 -330.5 125t-118.5 348v585h52v-581q0 -203 103 -315.5t290 -112.5q191 0 300 143t109 367v499h52v-1038h-52v301q-41 -152 -154 -236.5t-251 -84.5z" />
    <glyph glyph-name="uacute" unicode="&#xfa;" horiz-adv-x="1110" 
d="M596 1135h-51l84 206h51zM551 -20q-212 0 -330.5 125t-118.5 348v585h52v-581q0 -203 103 -315.5t290 -112.5q191 0 300 143t109 367v499h52v-1038h-52v301q-41 -152 -154 -236.5t-251 -84.5z" />
    <glyph glyph-name="ucircumflex" unicode="&#xfb;" horiz-adv-x="1110" 
d="M580 1270l-123 -148h-62l187 217l178 -217h-58zM551 -20q-212 0 -330.5 125t-118.5 348v585h52v-581q0 -203 103 -315.5t290 -112.5q191 0 300 143t109 367v499h52v-1038h-52v301q-41 -152 -154 -236.5t-251 -84.5z" />
    <glyph glyph-name="udieresis" unicode="&#xfc;" horiz-adv-x="1110" 
d="M483 1126q-24 0 -39.5 16t-15.5 40q0 22 16 39.5t39 17.5q25 0 40.5 -16t15.5 -41q0 -21 -17.5 -38.5t-38.5 -17.5zM633 1126q-23 0 -40.5 17.5t-17.5 40.5q0 20 18 37.5t40 17.5q24 0 39.5 -15.5t15.5 -39.5q0 -23 -16.5 -40.5t-38.5 -17.5zM551 -20q-212 0 -330.5 125
t-118.5 348v585h52v-581q0 -203 103 -315.5t290 -112.5q191 0 300 143t109 367v499h52v-1038h-52v301q-41 -152 -154 -236.5t-251 -84.5z" />
    <glyph glyph-name="yacute" unicode="&#xfd;" horiz-adv-x="1136" 
d="M565 1180l84 206h51l-84 -206h-51zM102 -70l35 29q25 -35 68.5 -54t91 -18t94.5 32t76 89l70 144l-406 886h49l383 -833l422 833h49l-532 -1052q-36 -71 -92 -108t-112.5 -37t-109 23.5t-86.5 65.5z" />
    <glyph glyph-name="ydieresis" unicode="&#xff;" horiz-adv-x="1136" 
d="M504 1171q-24 0 -39.5 16t-15.5 40q0 22 16 39.5t39 17.5q25 0 40 -16t15 -41q0 -21 -17.5 -38.5t-37.5 -17.5zM653 1171q-23 0 -40 17.5t-17 40.5q0 20 17.5 37.5t39.5 17.5q25 0 40.5 -16t15.5 -39t-17 -40.5t-39 -17.5zM102 -70l35 29q25 -35 68.5 -54t91 -18t94.5 32
t76 89l70 144l-406 886h49l383 -833l422 833h49l-532 -1052q-36 -71 -92 -108t-112.5 -37t-109 23.5t-86.5 65.5z" />
    <glyph glyph-name="dotlessi" unicode="&#x131;" horiz-adv-x="256" 
d="M154 0h-52v1038h52v-1038z" />
    <glyph glyph-name="OE" unicode="&#x152;" horiz-adv-x="2369" 
d="M2267 1352v-49h-797v-598h734v-50h-734v-598h793v-49h-844v393q-78 -190 -248.5 -305.5t-384.5 -115.5q-141 0 -268 53t-218 144.5t-144.5 218.5t-53.5 270q0 144 52.5 274t143 225t219 151t274.5 56q219 0 386 -118t242 -312v410h848zM1417 666q1 114 -32.5 217.5
t-92.5 182.5t-137.5 137t-171.5 88t-190 30q-122 0 -237.5 -48t-204 -132t-142.5 -208.5t-53 -266.5q1 -131 53.5 -249.5t138.5 -202.5t201.5 -133.5t238.5 -49.5t238 49.5t200.5 133.5t137.5 202.5t53 249.5z" />
    <glyph glyph-name="oe" unicode="&#x153;" horiz-adv-x="2304" 
d="M2202 539v-35l-1010 -2q6 -131 78.5 -239t179 -166t217.5 -58q126 0 242.5 63.5t179.5 180.5l47 -25q-68 -128 -193 -198t-274 -70q-172 0 -310.5 102.5t-191.5 265.5q-52 -167 -195 -272.5t-329 -105.5q-149 0 -273.5 71t-196 194t-71.5 269q0 245 153.5 395t387.5 150
q188 0 328 -97.5t192 -265.5q50 172 189.5 272.5t316.5 100.5q103 0 195 -34t165 -99t119.5 -167.5t53.5 -229.5zM1192 551l958 2q-9 141 -81 249.5t-177 163t-223 54.5q-184 0 -324.5 -128.5t-152.5 -340.5zM641 29q95 0 185 34.5t159.5 96t111.5 154t42 200.5
q0 149 -69 263.5t-181 173.5t-246 59q-96 0 -184 -33t-156.5 -94t-109.5 -156.5t-41 -212.5q0 -102 41.5 -193.5t109.5 -154.5t156.5 -100t181.5 -37z" />
    <glyph glyph-name="Scaron" unicode="&#x160;" horiz-adv-x="1114" 
d="M653 1720h47l-178 -217l-192 217h47l145 -164zM569 -20q-125 2 -223.5 41t-160 119.5t-62.5 193.5h49q1 -69 30 -124t73 -88t100 -55t105.5 -30t94.5 -8q70 0 133.5 14.5t121 45t93 87.5t38.5 133q6 151 -89 232.5t-327 124.5q-222 40 -332 129t-111 231q0 156 114.5 251
t299.5 95q122 0 223.5 -43t164 -126.5t63.5 -192.5h-49q-1 78 -38.5 140t-97 98.5t-128 55.5t-138.5 19q-92 0 -171.5 -30.5t-134.5 -99.5t-56 -165q-2 -122 96 -200t297 -113q247 -44 358.5 -140.5t106.5 -261.5q-2 -71 -27 -128.5t-66 -95.5t-97 -63.5t-119 -36t-134 -9.5
z" />
    <glyph glyph-name="scaron" unicode="&#x161;" horiz-adv-x="978" 
d="M483 1225l131 164h48l-179 -218l-192 218h47zM504 -20q-187 5 -293 94.5t-109 247.5h52q5 -81 34.5 -138t79.5 -89t106.5 -47t129.5 -19q118 -6 216 56.5t101 162.5q1 57 -16.5 96.5t-61.5 66.5t-102.5 44.5t-153.5 33.5q-95 17 -158.5 36.5t-116.5 51t-79 80t-27 115.5
q-3 129 97 208t264 79q185 0 288 -82.5t122 -241.5h-52q-14 127 -107.5 200.5t-250.5 74.5q-134 1 -222.5 -67.5t-86.5 -170.5q1 -102 77.5 -151.5t258.5 -81.5q105 -18 173 -40t116.5 -55.5t69 -81t19.5 -114.5q-3 -125 -104 -198.5t-264 -69.5z" />
    <glyph glyph-name="Ydieresis" unicode="&#x178;" horiz-adv-x="1374" 
d="M590 1446q-24 0 -39.5 15.5t-15.5 39.5q0 22 16 40t39 18q24 0 39.5 -16.5t15.5 -41.5q0 -21 -17 -38t-38 -17zM739 1446q-23 0 -40 17t-17 40q0 21 18 38.5t39 17.5q24 0 40 -16t16 -40q0 -23 -17 -40t-39 -17zM709 0h-50l3 594l-560 758h50l534 -715l535 715h51
l-563 -760v-592z" />
    <glyph glyph-name="zcaron" unicode="&#x17e;" horiz-adv-x="940" 
d="M328 1434l145 -164l131 164h47l-178 -217l-192 217h47zM838 0h-734v51l672 938h-674v49h732v-51l-668 -938h672v-49z" />
    <glyph glyph-name="gravecomb" unicode="&#x300;" horiz-adv-x="0" 
d="M-238 1352h52l84 -207h-52z" />
    <glyph glyph-name="acutecomb" unicode="&#x301;" horiz-adv-x="0" 
d="M-238 1145l84 207h52l-84 -207h-52z" />
    <glyph glyph-name="uni0302" unicode="&#x302;" horiz-adv-x="0" 
d="M-160 1135l-123 147l-123 -147h-61l186 217l179 -217h-58z" />
    <glyph glyph-name="tildecomb" unicode="&#x303;" horiz-adv-x="0" 
d="M-528 1219h-50q24 133 136 133q30 0 105 -39t112 -39q26 0 44.5 20.5t26.5 57.5h52q-11 -66 -40 -96.5t-81 -30.5q-35 0 -111.5 38.5t-103.5 41.5q-34 5 -58.5 -18.5t-31.5 -67.5z" />
    <glyph glyph-name="uni0304" unicode="&#x304;" horiz-adv-x="0" 
d="M-102 1303h-332v49h332v-49z" />
    <glyph glyph-name="uni0306" unicode="&#x306;" horiz-adv-x="0" 
d="M-340 1210q-73 0 -131.5 38t-89.5 104h53q33 -47 72.5 -69t97.5 -23q120 -3 182 92h54q-41 -75 -96.5 -108.5t-141.5 -33.5z" />
    <glyph glyph-name="uni0307" unicode="&#x307;" horiz-adv-x="0" 
d="M-170 1149q-27 0 -46.5 18.5t-19.5 44.5q0 25 20.5 45.5t45.5 20.5q28 0 48 -19t20 -47q0 -25 -21 -44t-47 -19z" />
    <glyph glyph-name="uni0308" unicode="&#x308;" horiz-adv-x="0" 
d="M-307 1167q-24 0 -39.5 16t-15.5 40q0 22 16 39.5t39 17.5q25 0 40 -16t15 -41q0 -21 -17 -38.5t-38 -17.5zM-158 1167q-23 0 -40 17.5t-17 40.5q0 20 17.5 37.5t39.5 17.5q24 0 40 -16t16 -39t-17 -40.5t-39 -17.5z" />
    <glyph glyph-name="uni030A" unicode="&#x30a;" horiz-adv-x="0" 
d="M-244 1102q-58 0 -97.5 39t-39.5 98q0 57 39.5 96t97.5 39q62 0 102 -38.5t40 -96.5q0 -61 -39.5 -99t-102.5 -38zM-244 1147q41 0 67.5 25.5t26.5 64.5q0 41 -26.5 66.5t-67.5 25.5q-38 0 -64 -26t-26 -66q0 -35 27.5 -62.5t62.5 -27.5z" />
    <glyph glyph-name="uni030B" unicode="&#x30b;" horiz-adv-x="0" 
d="M-279 1145h-49l84 207h49zM-186 1145h-50l84 207h50z" />
    <glyph glyph-name="uni030C" unicode="&#x30c;" horiz-adv-x="0" 
d="M-426 1352l145 -164l131 164h48l-179 -217l-192 217h47z" />
    <glyph glyph-name="uni0312" unicode="&#x312;" horiz-adv-x="0" 
d="M-199 1049l-26 20q41 63 59 126.5t12 154.5h52q0 -103 -19 -163.5t-78 -137.5z" />
    <glyph glyph-name="uni0326" unicode="&#x326;" horiz-adv-x="0" 
d="M-197 -299h-67l94 246h68z" />
    <glyph glyph-name="uni0327" unicode="&#x327;" horiz-adv-x="0" 
d="M-406 -475v49q122 -8 187 24.5t65 102.5q0 34 -15 59t-48 42.5t-67 28.5t-91 24v51l99 94h57l-111 -117q121 -29 174.5 -72.5t53.5 -111.5q-3 -92 -85 -139t-219 -35z" />
    <glyph glyph-name="uni0328" unicode="&#x328;" horiz-adv-x="0" 
d="M-119 -291l17 -43q-88 -38 -159 -35.5t-118 31.5t-70 78q-13 28 -14.5 58.5t10.5 63t36.5 61.5t69 53.5t103.5 39.5l35 -6l8 -39q-115 -19 -166 -83.5t-24 -129.5q25 -57 102.5 -71.5t169.5 22.5z" />
    <glyph glyph-name="endash" unicode="&#x2013;" horiz-adv-x="948" 
d="M846 578h-744v49h744v-49z" />
    <glyph glyph-name="emdash" unicode="&#x2014;" horiz-adv-x="1110" 
d="M1008 575h-906v52h906v-52z" />
    <glyph glyph-name="quoteleft" unicode="&#x2018;" horiz-adv-x="327" 
d="M225 1071l-26 -20q-59 77 -78 137.5t-19 163.5h52q-6 -91 12 -154.5t59 -126.5z" />
    <glyph glyph-name="quoteright" unicode="&#x2019;" horiz-adv-x="327" 
d="M129 1051l-27 20q42 64 60 127t12 154h51q0 -104 -18.5 -164.5t-77.5 -136.5z" />
    <glyph glyph-name="quotesinglbase" unicode="&#x201a;" horiz-adv-x="327" 
d="M129 -168l-27 21q42 64 60 126.5t12 153.5h51q0 -104 -18.5 -164.5t-77.5 -136.5z" />
    <glyph glyph-name="quotedblleft" unicode="&#x201c;" horiz-adv-x="454" 
d="M225 1071l-26 -20q-59 77 -78 137.5t-19 163.5h52q-6 -91 12 -154.5t59 -126.5zM352 1071l-26 -20q-59 77 -78 137.5t-19 163.5h52q-6 -91 12 -154.5t59 -126.5z" />
    <glyph glyph-name="quotedblright" unicode="&#x201d;" horiz-adv-x="454" 
d="M129 1051l-27 20q42 64 60 127t12 154h51q0 -104 -18.5 -164.5t-77.5 -136.5zM256 1051l-27 20q42 64 60 127t12 154h51q0 -104 -18.5 -164.5t-77.5 -136.5z" />
    <glyph glyph-name="quotedblbase" unicode="&#x201e;" horiz-adv-x="446" 
d="M129 -168l-27 21q42 64 60 126.5t12 153.5h51q0 -104 -18.5 -164.5t-77.5 -136.5zM248 -168l-27 21q42 64 60 126.5t12 153.5h51q0 -104 -18.5 -164.5t-77.5 -136.5z" />
    <glyph glyph-name="dagger" unicode="&#x2020;" horiz-adv-x="864" 
d="M449 457h-48v565h-299v47h299v242h48v-242h313v-47h-313v-565z" />
    <glyph glyph-name="bullet" unicode="&#x2022;" horiz-adv-x="368" 
d="M184 436q-34 0 -58 24t-24 58q0 31 24.5 54.5t57.5 23.5q31 0 56.5 -24t25.5 -54q0 -33 -25.5 -57.5t-56.5 -24.5z" />
    <glyph glyph-name="ellipsis" unicode="&#x2026;" horiz-adv-x="817" 
d="M166 4q-26 0 -45 19t-19 45q0 25 19 43t45 18q25 0 44 -18t19 -43q0 -26 -19 -45t-44 -19zM408 4q-26 0 -45 19t-19 45q0 25 19 43t45 18q25 0 44 -18t19 -43q0 -26 -19 -45t-44 -19zM651 4q-26 0 -44.5 19t-18.5 45q0 25 18.5 43t44.5 18q25 0 44.5 -18.5t19.5 -42.5
q0 -26 -19.5 -45t-44.5 -19z" />
    <glyph glyph-name="perthousand" unicode="&#x2030;" horiz-adv-x="3520" 
d="M604 217q-153 0 -268.5 75t-174.5 200.5t-59 281.5q0 118 34.5 225t97.5 189.5t160 131t214 48.5q94 0 175 -31.5t139.5 -87.5t100.5 -131t62.5 -162.5t20.5 -181.5q0 -155 -59.5 -281t-175 -201t-267.5 -75zM958 -2h-49l568 1352h49zM606 258q128 0 232.5 66t164 184.5
t60.5 265.5q1 156 -57.5 283t-163 198.5t-234.5 71.5q-129 0 -235.5 -72.5t-167.5 -199.5t-60 -281q1 -222 132.5 -369t328.5 -147zM1831 0q-153 0 -268.5 75t-174.5 200.5t-59 281.5q0 118 34.5 225t97.5 189.5t160 131t214 48.5q94 0 175 -31.5t139.5 -87.5t100.5 -131
t62.5 -162.5t20.5 -181.5q0 -155 -59.5 -281t-175 -201t-267.5 -75zM2916 0q-115 0 -210.5 43.5t-158.5 119t-97.5 177t-34.5 217.5q0 118 34 225t97 189.5t160 131t214 48.5q94 0 175 -31.5t139.5 -87.5t100.5 -131t62.5 -162.5t20.5 -181.5q0 -155 -59.5 -281t-175 -201
t-267.5 -75zM1833 41q128 0 232.5 66t164 184.5t60.5 265.5q1 156 -57.5 283t-163 198.5t-234.5 71.5q-129 0 -235.5 -72.5t-167.5 -199.5t-60 -281q1 -222 132.5 -369t328.5 -147zM2918 41q128 0 232.5 66t164 184.5t60.5 265.5q1 156 -57.5 283t-163 198.5t-234.5 71.5
q-129 0 -235.5 -72.5t-167 -199.5t-59.5 -281q1 -146 61 -264.5t165 -185t234 -66.5z" />
    <glyph glyph-name="guilsinglleft" unicode="&#x2039;" horiz-adv-x="694" 
d="M170 541l401 -371l-65 2l-404 369l428 368h62z" />
    <glyph glyph-name="guilsinglright" unicode="&#x203a;" horiz-adv-x="694" 
d="M188 172l-65 -2l401 371l-422 368h62l428 -368z" />
    <glyph glyph-name="fraction" unicode="&#x2044;" horiz-adv-x="821" 
d="M152 0h-50l568 1352h49z" />
    <glyph glyph-name="Euro" unicode="&#x20ac;" horiz-adv-x="1609" 
d="M1466 326l41 -33q-92 -149 -242 -231t-329 -82q-256 0 -442 162.5t-224 416.5h-168v49h162q-2 23 -2 68q0 41 2 61h-162v49h168q18 124 76 231.5t145 186t203.5 123.5t245.5 45q179 0 324 -79t239 -228l-41 -31q-87 137 -224.5 213t-295.5 76q-108 0 -211.5 -39
t-187.5 -107.5t-143 -170t-78 -220.5h280v-49h-287q-2 -20 -2 -61q0 -22 4 -68h289v-49h-282q41 -231 216.5 -380.5t397.5 -149.5q159 0 300 79t228 218z" />
    <glyph glyph-name="trademark" unicode="&#x2122;" horiz-adv-x="1353" 
d="M373 664h-41l2 645l-232 2v41h553l258 -650l271 650h67v-688h-43v639l-266 -639h-55l-260 643v-643h-43v647l-207 -2z" />
    <glyph glyph-name="minus" unicode="&#x2212;" horiz-adv-x="747" 
d="M645 475h-543v49h543v-49z" />
    <glyph glyph-name="BeeType" horiz-adv-x="1462" 
d="M1360 428h-1258v369h1258v-369zM176 688v-166h90q64 0 64 45q0 30 -31 41q23 19 23 37q0 22 -17 32.5t-43 10.5h-86zM358 688v-166h129v31h-90v39h76v29h-76v36h86v31h-125zM518 688v-166h127v31h-90v39h76v29h-76v36h86v31h-123zM711 657v-135h37v135h55v31h-146v-31h54
zM872 582v-60h39v60l64 106h-39l-43 -74l-43 74h-43zM989 688v-166h39v47h33q72 0 72 60q0 29 -19.5 44t-52.5 15h-72zM1159 688v-166h129v31h-90v39h78v29h-78v36h88v31h-127zM254 621h-39v38h39q27 0 27 -20q0 -18 -27 -18zM1059 600h-31v57h31q35 0 35 -28
q0 -17 -8.5 -23t-26.5 -6zM262 551h-47v41h47q29 0 29 -21q0 -20 -29 -20z" />
    </font>
</defs>
</svg>
