<svg width="790" height="131" viewBox="0 0 790 131" fill="none" xmlns="http://www.w3.org/2000/svg">
<g clip-path="url(#clip0_330_104)">
<path d="M182.715 32.6505L140.594 56.4195V21.0621L132.136 16.3253L90.0151 40.0942V4.73687L81.5571 0L14.062 38.1487V92.7918L22.6046 97.6133L64.641 73.8443V109.117L73.1836 113.939L115.22 90.1696V125.442L123.763 130.179L191.089 92.1997V37.3874L182.715 32.6505Z" fill="#1462FF"/>
<path d="M240.952 102.519L218.03 25.207H243.066L256.683 72.3219L269.201 25.207H290.854L304.133 72.3219L319.357 25.207H344.393L320.119 102.519H295.421L280.197 59.9722L265.057 102.519H240.952Z" fill="black"/>
<path d="M342.617 64.2025C342.617 38.4035 358.349 23.3471 378.902 23.6008C390.997 23.77 403.938 30.1986 407.405 42.9712V25.1234H432.441V102.436H407.575V84.4188C404.191 96.1764 392.181 103.789 380.255 103.958C358.264 104.297 342.617 86.4489 342.617 64.1179V64.2025ZM406.306 64.0334C406.306 51.6837 397.763 44.24 386.937 43.9017C375.942 43.7325 367.399 51.3453 367.399 64.0334C367.399 75.7909 376.111 83.5729 386.937 83.4037C397.594 83.0654 406.306 75.4526 406.306 64.0334Z" fill="black"/>
<path d="M453.333 105.394C456.716 109.2 464.751 110.3 467.796 104.041L471.433 95.9203L441.492 25.1211H466.527L483.782 76.8037L503.743 25.1211H528.779L488.18 109.031C477.015 132.208 454.348 132.969 439.546 119.689L453.248 105.394H453.333Z" fill="black"/>
<path d="M560.836 84.5017V102.519H535.969V1.86035H561.005V43.0542C564.388 30.2815 577.498 23.8529 589.34 23.6838C609.893 23.3454 625.794 38.4865 625.794 64.2855C625.794 86.5318 609.893 104.38 587.986 104.126C576.061 103.957 564.219 96.3439 560.836 84.5863V84.5017ZM600.843 64.0317C600.843 51.3437 592.469 43.7309 581.474 43.9C570.647 44.2384 561.936 51.5129 561.936 64.0317C561.936 75.4509 570.817 83.0638 581.305 83.4021C592.131 83.5713 600.843 75.7893 600.843 64.0317Z" fill="black"/>
<path d="M633.066 64.0302C633.066 37.047 653.534 23.5977 675.187 23.5977C696.839 23.5977 713.502 37.2161 715.87 59.7163C716.208 62.5922 716.208 66.1449 715.87 69.0208H656.579C658.271 77.987 666.475 83.4852 675.187 83.6544C682.545 83.8235 689.058 80.9476 692.441 75.4494L710.711 84.754C703.69 96.6808 690.581 103.955 675.187 103.955C653.534 103.955 633.066 88.8142 633.066 63.9456V64.0302ZM692.357 55.4869C690.242 48.1279 682.884 43.4756 675.102 43.4756C667.321 43.4756 660.47 48.2124 658.44 55.4869H692.272H692.357Z" fill="black"/>
<path d="M723.312 102.522V25.1249H748.348V43.9031C752.493 26.6474 773.807 19.6267 789.877 28.5083L776.598 48.64C767.463 40.858 749.617 48.4708 749.617 63.8657V102.437H723.397L723.312 102.522Z" fill="black"/>
</g>
<defs>
<clipPath id="clip0_330_104">
<rect width="788.965" height="130.169" fill="black" transform="translate(0.913086)"/>
</clipPath>
</defs>
</svg>
