<svg width="154" height="28" viewBox="0 0 154 28" fill="none" xmlns="http://www.w3.org/2000/svg">
<g clip-path="url(#clip0_877_14007)">
<path d="M41.9582 14.7885C41.9582 17.5208 43.7078 19.0532 45.7386 19.0532C47.7693 19.0532 48.8225 17.5755 49.1287 16.544L51.9651 17.5755C51.3273 19.6931 49.2966 22.0086 45.7386 22.0086C41.7652 22.0086 38.7358 18.9143 38.7358 14.7885C38.7358 10.6627 41.7652 7.59361 45.6547 7.59361C49.2966 7.59361 51.298 9.87963 51.8518 12.0562L48.9609 13.1171C48.6546 11.9173 47.7399 10.5785 45.6798 10.5785C43.6197 10.5785 41.954 12.0562 41.954 14.7885H41.9582Z" fill="#1F2442"/>
<path d="M55.2964 1.12238C56.4628 1.12238 57.4068 2.06963 57.4068 3.24C57.4068 4.41038 56.4628 5.33237 55.2964 5.33237C54.1299 5.33237 53.2111 4.41038 53.2111 3.24C53.2111 2.06963 54.1551 1.12238 55.2964 1.12238ZM53.7104 21.5913V8.00992H56.9075V21.5913H53.7104Z" fill="#1F2442"/>
<path d="M64.0519 8.0114H66.8589V10.8826H64.0519V17.185C64.0519 18.3848 64.5806 18.8858 65.7764 18.8858C66.2211 18.8858 66.7498 18.8016 66.8883 18.7721V21.4497C66.6953 21.5339 66.0827 21.757 64.9163 21.757C62.4156 21.757 60.859 20.2498 60.859 17.7154V10.8826H58.3583V8.0114H59.0548C60.4981 8.0114 61.1401 7.08941 61.1401 5.89378V3.85615H64.0603V8.0114H64.0519Z" fill="#1F2442"/>
<path d="M69.9474 27.0865L73.1991 19.9759L67.4174 8.01111H71.0593L74.9488 16.5995L78.5907 8.01111H82.0102L73.3963 27.0865H69.9516H69.9474Z" fill="#1F2442"/>
<path d="M101.538 19.1084C101.538 20.3377 101.648 21.3691 101.677 21.5923H98.5931C98.5385 21.2849 98.4546 20.3924 98.4546 19.8367C97.8168 20.9818 96.3987 21.9291 94.4812 21.9291C90.5917 21.9291 87.9778 18.86 87.9778 14.7637C87.9778 10.6674 90.6169 7.65302 94.4267 7.65302C96.7889 7.65302 97.9847 8.7392 98.4001 9.60645V1.4012H101.543V19.1084H101.538ZM94.842 19.0789C96.9525 19.0789 98.4252 17.3234 98.4252 14.73C98.4252 12.1367 96.9819 10.52 94.8672 10.52C92.7526 10.52 91.2001 12.1661 91.2001 14.7595C91.2001 17.3528 92.6435 19.0831 94.842 19.0831V19.0789Z" fill="#1F2442"/>
<path d="M106.237 1.12238C107.403 1.12238 108.347 2.06963 108.347 3.24C108.347 4.41038 107.403 5.33237 106.237 5.33237C105.07 5.33237 104.152 4.41038 104.152 3.24C104.152 2.06963 105.096 1.12238 106.237 1.12238ZM104.651 21.5913V8.00992H107.848V21.5913H104.651Z" fill="#1F2442"/>
<path d="M112.518 17.1291C112.631 18.3585 113.545 19.4446 115.27 19.4446C116.604 19.4446 117.301 18.7205 117.301 17.8827C117.301 17.1586 116.801 16.5987 115.715 16.3755L113.713 15.9293C111.322 15.3988 110.071 13.8369 110.071 11.9677C110.071 9.59748 112.241 7.58932 115.048 7.58932C118.828 7.58932 120.049 10.0437 120.271 11.3825L117.548 12.1614C117.435 11.3825 116.852 10.1279 115.048 10.1279C113.906 10.1279 113.101 10.8521 113.101 11.6898C113.101 12.414 113.629 12.9444 114.464 13.1128L116.52 13.5296C119.076 14.0853 120.41 15.6472 120.41 17.6554C120.41 19.6635 118.744 22.0043 115.295 22.0043C111.376 22.0043 109.874 19.4404 109.711 17.9038L112.518 17.1207V17.1291Z" fill="#1F2442"/>
<path d="M126.579 8.0114H129.386V10.8826H126.579V17.185C126.579 18.3848 127.108 18.8858 128.304 18.8858C128.749 18.8858 129.277 18.8016 129.416 18.7721V21.4497C129.223 21.5339 128.61 21.757 127.444 21.757C124.943 21.757 123.386 20.2498 123.386 17.7154V10.8826H120.886V8.0114H121.582C123.026 8.0114 123.668 7.08941 123.668 5.89378V3.85615H126.588V8.0114H126.579Z" fill="#1F2442"/>
<path d="M139.251 11.2189C138.89 11.1642 138.529 11.1347 138.193 11.1347C135.693 11.1347 134.551 12.5871 134.551 15.1215V21.5923H131.329V8.01088H134.467V10.1874C135.105 8.70973 136.607 7.84669 138.386 7.84669C138.776 7.84669 139.108 7.90142 139.246 7.93089V11.2231L139.251 11.2189Z" fill="#1F2442"/>
<path d="M153.674 14.7885C153.674 18.9732 150.699 22.0128 146.642 22.0128C142.584 22.0128 139.639 18.9732 139.639 14.7885C139.639 10.6038 142.614 7.59361 146.642 7.59361C150.67 7.59361 153.674 10.6332 153.674 14.7885ZM150.422 14.7885C150.422 11.972 148.643 10.5238 146.642 10.5238C144.64 10.5238 142.861 11.972 142.861 14.7885C142.861 17.605 144.67 19.1121 146.642 19.1121C148.614 19.1121 150.422 17.6344 150.422 14.7885Z" fill="#1F2442"/>
</g>
<g clip-path="url(#clip1_877_14007)">
<path d="M8.74634 12.0177V10.517H11.392C18.2191 10.517 18.4988 0.244289 11.6759 0.00778896C11.3662 -0.00511103 11.0565 -0.00081103 10.7381 0.012089C4.89613 0.282989 0.172639 5.09038 0.00486416 10.9341C-0.180118 17.311 4.93485 22.5355 11.2716 22.5355C11.4393 22.5355 11.6028 22.5355 11.7663 22.5269C18.5504 22.2345 18.2148 12.022 11.4264 12.022H8.74204L8.74634 12.0177Z" fill="#FFAD00"/>
<path d="M23.2529 16.5716V15.0709H20.6072C13.7801 15.0709 13.5005 4.79818 20.3233 4.56168C20.6331 4.54878 20.9428 4.55308 21.2611 4.56598C27.0988 4.83688 31.8223 9.64427 31.9944 15.488C32.1794 21.8649 27.0644 27.0894 20.7277 27.0894C20.5599 27.0894 20.3965 27.0894 20.233 27.0808C13.4489 26.7884 13.7844 16.5759 20.5728 16.5759H23.2572L23.2529 16.5716Z" fill="#FFAD00"/>
</g>
<defs>
<clipPath id="clip0_877_14007">
<rect width="114.939" height="25.963" fill="white" transform="translate(38.7358 1.12238)"/>
</clipPath>
<clipPath id="clip1_877_14007">
<rect width="31.9976" height="27.0857" fill="white"/>
</clipPath>
</defs>
</svg>
